<?xml version="1.0" encoding="utf-8" standalone="no"?>
<!DOCTYPE svg PUBLIC "-//W3C//DTD SVG 1.1//EN"
  "http://www.w3.org/Graphics/SVG/1.1/DTD/svg11.dtd">
<!-- Created with matplotlib (https://matplotlib.org/) -->
<svg height="248.518125pt" version="1.1" viewBox="0 0 540.8875 248.518125" width="540.8875pt" xmlns="http://www.w3.org/2000/svg" xmlns:xlink="http://www.w3.org/1999/xlink">
 <metadata>
  <rdf:RDF xmlns:cc="http://creativecommons.org/ns#" xmlns:dc="http://purl.org/dc/elements/1.1/" xmlns:rdf="http://www.w3.org/1999/02/22-rdf-syntax-ns#">
   <cc:Work>
    <dc:type rdf:resource="http://purl.org/dc/dcmitype/StillImage"/>
    <dc:date>2021-02-05T13:21:02.865000</dc:date>
    <dc:format>image/svg+xml</dc:format>
    <dc:creator>
     <cc:Agent>
      <dc:title>Matplotlib v3.3.2, https://matplotlib.org/</dc:title>
     </cc:Agent>
    </dc:creator>
   </cc:Work>
  </rdf:RDF>
 </metadata>
 <defs>
  <style type="text/css">*{stroke-linecap:butt;stroke-linejoin:round;}</style>
 </defs>
 <g id="figure_1">
  <g id="patch_1">
   <path d="M 0 248.518125 
L 540.8875 248.518125 
L 540.8875 0 
L 0 0 
z
" style="fill:none;"/>
  </g>
  <g id="axes_1">
   <g id="patch_2">
    <path d="M 10.7 50.688 
L 345.5 50.688 
L 345.5 7.2 
L 10.7 7.2 
z
" style="fill:#ffffff;"/>
   </g>
   <g id="matplotlib.axis_1">
    <g id="xtick_1">
     <g id="line2d_1">
      <defs>
       <path d="M 0 0 
L 0 3.5 
" id="m12fd591318" style="stroke:#000000;stroke-width:0.8;"/>
      </defs>
      <g>
       <use style="stroke:#000000;stroke-width:0.8;" x="25.918182" xlink:href="#m12fd591318" y="50.688"/>
      </g>
     </g>
    </g>
    <g id="xtick_2">
     <g id="line2d_2">
      <g>
       <use style="stroke:#000000;stroke-width:0.8;" x="73.849463" xlink:href="#m12fd591318" y="50.688"/>
      </g>
     </g>
    </g>
    <g id="xtick_3">
     <g id="line2d_3">
      <g>
       <use style="stroke:#000000;stroke-width:0.8;" x="121.780744" xlink:href="#m12fd591318" y="50.688"/>
      </g>
     </g>
    </g>
    <g id="xtick_4">
     <g id="line2d_4">
      <g>
       <use style="stroke:#000000;stroke-width:0.8;" x="169.712026" xlink:href="#m12fd591318" y="50.688"/>
      </g>
     </g>
    </g>
    <g id="xtick_5">
     <g id="line2d_5">
      <g>
       <use style="stroke:#000000;stroke-width:0.8;" x="217.643307" xlink:href="#m12fd591318" y="50.688"/>
      </g>
     </g>
    </g>
    <g id="xtick_6">
     <g id="line2d_6">
      <g>
       <use style="stroke:#000000;stroke-width:0.8;" x="265.574588" xlink:href="#m12fd591318" y="50.688"/>
      </g>
     </g>
    </g>
    <g id="xtick_7">
     <g id="line2d_7">
      <g>
       <use style="stroke:#000000;stroke-width:0.8;" x="313.50587" xlink:href="#m12fd591318" y="50.688"/>
      </g>
     </g>
    </g>
   </g>
   <g id="matplotlib.axis_2"/>
   <g id="line2d_8">
    <path clip-path="url(#p58b966328a)" d="M 25.918182 36.974455 
L 28.314746 32.959227 
L 30.71131 30.797182 
L 33.107874 29.561727 
L 35.504438 30.179455 
L 37.901002 33.576955 
L 40.297566 30.797182 
L 42.69413 33.576955 
L 45.090694 34.503545 
L 49.883822 27.090818 
L 52.280387 37.283318 
L 54.676951 40.989682 
L 57.073515 36.047864 
L 59.470079 33.268091 
L 61.866643 33.885818 
L 64.263207 34.194682 
L 66.659771 35.430136 
L 69.056335 33.885818 
L 71.452899 33.268091 
L 73.849463 31.723773 
L 76.246027 32.3415 
L 78.642591 29.870591 
L 81.039155 21.840136 
L 85.832283 16.280591 
L 88.228848 18.7515 
L 90.625412 15.662864 
L 93.021976 18.7515 
L 95.41854 15.971727 
L 97.815104 13.809682 
L 100.211668 9.176727 
L 102.608232 13.809682 
L 105.004796 26.781955 
L 107.40136 42.225136 
L 109.797924 45.622636 
L 112.194488 45.004909 
L 116.987616 46.858091 
L 119.38418 46.858091 
L 121.780744 47.475818 
L 124.177309 46.858091 
L 126.573873 46.858091 
L 128.970437 46.240364 
L 131.367001 47.475818 
L 133.763565 48.093545 
L 136.160129 48.402409 
L 140.953257 47.784682 
L 143.349821 48.093545 
L 145.746385 48.711273 
L 148.142949 48.093545 
L 150.539513 47.166955 
L 152.936077 47.784682 
L 155.332641 46.858091 
L 160.12577 31.723773 
L 162.522334 33.576955 
L 164.918898 36.047864 
L 167.315462 38.209909 
L 169.712026 37.901045 
L 172.10859 36.047864 
L 174.505154 36.974455 
L 176.901718 36.665591 
L 179.298282 34.503545 
L 181.694846 35.121273 
L 184.09141 32.650364 
L 186.487974 30.488318 
L 188.884538 31.723773 
L 191.281102 33.576955 
L 193.677666 36.974455 
L 196.07423 36.356727 
L 198.470795 34.503545 
L 200.867359 29.870591 
L 203.263923 28.326273 
L 205.660487 27.399682 
L 208.057051 28.017409 
L 210.453615 30.797182 
L 212.850179 27.399682 
L 215.246743 27.399682 
L 217.643307 25.855364 
L 220.039871 25.5465 
L 222.436435 25.5465 
L 227.229563 19.369227 
L 232.022691 18.442636 
L 234.419256 24.928773 
L 236.81582 28.635136 
L 239.212384 30.179455 
L 241.608948 32.959227 
L 244.005512 33.576955 
L 246.402076 34.503545 
L 248.79864 32.3415 
L 251.195204 33.576955 
L 253.591768 30.488318 
L 255.988332 30.179455 
L 258.384896 31.106045 
L 260.78146 30.488318 
L 263.178024 32.032636 
L 265.574588 27.090818 
L 267.971152 28.326273 
L 270.367717 25.237636 
L 275.160845 28.326273 
L 277.557409 32.3415 
L 279.953973 37.901045 
L 282.350537 38.827636 
L 284.747101 41.298545 
L 289.540229 41.607409 
L 294.333357 20.295818 
L 296.729921 24.928773 
L 301.523049 26.781955 
L 303.919613 32.3415 
L 306.316178 35.121273 
L 308.712742 33.885818 
L 311.109306 35.430136 
L 315.902434 41.607409 
L 318.298998 41.298545 
L 320.695562 39.445364 
L 323.092126 36.047864 
L 325.48869 34.194682 
L 327.885254 34.812409 
L 330.281818 40.063091 
L 330.281818 40.063091 
" style="fill:none;stroke:#1f77b4;stroke-linecap:square;stroke-width:1.5;"/>
   </g>
   <g id="patch_3">
    <path d="M 10.7 50.688 
L 10.7 7.2 
" style="fill:none;stroke:#000000;stroke-linecap:square;stroke-linejoin:miter;stroke-width:0.8;"/>
   </g>
   <g id="patch_4">
    <path d="M 345.5 50.688 
L 345.5 7.2 
" style="fill:none;stroke:#000000;stroke-linecap:square;stroke-linejoin:miter;stroke-width:0.8;"/>
   </g>
   <g id="patch_5">
    <path d="M 10.7 50.688 
L 345.5 50.688 
" style="fill:none;stroke:#000000;stroke-linecap:square;stroke-linejoin:miter;stroke-width:0.8;"/>
   </g>
   <g id="patch_6">
    <path d="M 10.7 7.2 
L 345.5 7.2 
" style="fill:none;stroke:#000000;stroke-linecap:square;stroke-linejoin:miter;stroke-width:0.8;"/>
   </g>
   <g id="legend_1">
    <g id="patch_7">
     <path d="M 352.5 37.783062 
L 403.6 37.783062 
Q 405.6 37.783062 405.6 35.783062 
L 405.6 22.104937 
Q 405.6 20.104937 403.6 20.104937 
L 352.5 20.104937 
Q 350.5 20.104937 350.5 22.104937 
L 350.5 35.783062 
Q 350.5 37.783062 352.5 37.783062 
z
" style="fill:#ffffff;opacity:0.8;stroke:#cccccc;stroke-linejoin:miter;"/>
    </g>
    <g id="line2d_9">
     <path d="M 354.5 28.203375 
L 374.5 28.203375 
" style="fill:none;stroke:#1f77b4;stroke-linecap:square;stroke-width:1.5;"/>
    </g>
    <g id="line2d_10"/>
    <g id="text_1">
     <!-- ts-0 -->
     <g transform="translate(382.5 31.703375)scale(0.1 -0.1)">
      <defs>
       <path d="M 18.3125 70.21875 
L 18.3125 54.6875 
L 36.8125 54.6875 
L 36.8125 47.703125 
L 18.3125 47.703125 
L 18.3125 18.015625 
Q 18.3125 11.328125 20.140625 9.421875 
Q 21.96875 7.515625 27.59375 7.515625 
L 36.8125 7.515625 
L 36.8125 0 
L 27.59375 0 
Q 17.1875 0 13.234375 3.875 
Q 9.28125 7.765625 9.28125 18.015625 
L 9.28125 47.703125 
L 2.6875 47.703125 
L 2.6875 54.6875 
L 9.28125 54.6875 
L 9.28125 70.21875 
z
" id="DejaVuSans-116"/>
       <path d="M 44.28125 53.078125 
L 44.28125 44.578125 
Q 40.484375 46.53125 36.375 47.5 
Q 32.28125 48.484375 27.875 48.484375 
Q 21.1875 48.484375 17.84375 46.4375 
Q 14.5 44.390625 14.5 40.28125 
Q 14.5 37.15625 16.890625 35.375 
Q 19.28125 33.59375 26.515625 31.984375 
L 29.59375 31.296875 
Q 39.15625 29.25 43.1875 25.515625 
Q 47.21875 21.78125 47.21875 15.09375 
Q 47.21875 7.46875 41.1875 3.015625 
Q 35.15625 -1.421875 24.609375 -1.421875 
Q 20.21875 -1.421875 15.453125 -0.5625 
Q 10.6875 0.296875 5.421875 2 
L 5.421875 11.28125 
Q 10.40625 8.6875 15.234375 7.390625 
Q 20.0625 6.109375 24.8125 6.109375 
Q 31.15625 6.109375 34.5625 8.28125 
Q 37.984375 10.453125 37.984375 14.40625 
Q 37.984375 18.0625 35.515625 20.015625 
Q 33.0625 21.96875 24.703125 23.78125 
L 21.578125 24.515625 
Q 13.234375 26.265625 9.515625 29.90625 
Q 5.8125 33.546875 5.8125 39.890625 
Q 5.8125 47.609375 11.28125 51.796875 
Q 16.75 56 26.8125 56 
Q 31.78125 56 36.171875 55.265625 
Q 40.578125 54.546875 44.28125 53.078125 
z
" id="DejaVuSans-115"/>
       <path d="M 4.890625 31.390625 
L 31.203125 31.390625 
L 31.203125 23.390625 
L 4.890625 23.390625 
z
" id="DejaVuSans-45"/>
       <path d="M 31.78125 66.40625 
Q 24.171875 66.40625 20.328125 58.90625 
Q 16.5 51.421875 16.5 36.375 
Q 16.5 21.390625 20.328125 13.890625 
Q 24.171875 6.390625 31.78125 6.390625 
Q 39.453125 6.390625 43.28125 13.890625 
Q 47.125 21.390625 47.125 36.375 
Q 47.125 51.421875 43.28125 58.90625 
Q 39.453125 66.40625 31.78125 66.40625 
z
M 31.78125 74.21875 
Q 44.046875 74.21875 50.515625 64.515625 
Q 56.984375 54.828125 56.984375 36.375 
Q 56.984375 17.96875 50.515625 8.265625 
Q 44.046875 -1.421875 31.78125 -1.421875 
Q 19.53125 -1.421875 13.0625 8.265625 
Q 6.59375 17.96875 6.59375 36.375 
Q 6.59375 54.828125 13.0625 64.515625 
Q 19.53125 74.21875 31.78125 74.21875 
z
" id="DejaVuSans-48"/>
      </defs>
      <use xlink:href="#DejaVuSans-116"/>
      <use x="39.208984" xlink:href="#DejaVuSans-115"/>
      <use x="91.308594" xlink:href="#DejaVuSans-45"/>
      <use x="127.392578" xlink:href="#DejaVuSans-48"/>
     </g>
    </g>
   </g>
  </g>
  <g id="axes_2">
   <g id="patch_8">
    <path d="M 10.7 94.176 
L 345.5 94.176 
L 345.5 50.688 
L 10.7 50.688 
z
" style="fill:#ffffff;"/>
   </g>
   <g id="matplotlib.axis_3">
    <g id="xtick_8">
     <g id="line2d_11">
      <g>
       <use style="stroke:#000000;stroke-width:0.8;" x="25.918182" xlink:href="#m12fd591318" y="94.176"/>
      </g>
     </g>
    </g>
    <g id="xtick_9">
     <g id="line2d_12">
      <g>
       <use style="stroke:#000000;stroke-width:0.8;" x="73.849463" xlink:href="#m12fd591318" y="94.176"/>
      </g>
     </g>
    </g>
    <g id="xtick_10">
     <g id="line2d_13">
      <g>
       <use style="stroke:#000000;stroke-width:0.8;" x="121.780744" xlink:href="#m12fd591318" y="94.176"/>
      </g>
     </g>
    </g>
    <g id="xtick_11">
     <g id="line2d_14">
      <g>
       <use style="stroke:#000000;stroke-width:0.8;" x="169.712026" xlink:href="#m12fd591318" y="94.176"/>
      </g>
     </g>
    </g>
    <g id="xtick_12">
     <g id="line2d_15">
      <g>
       <use style="stroke:#000000;stroke-width:0.8;" x="217.643307" xlink:href="#m12fd591318" y="94.176"/>
      </g>
     </g>
    </g>
    <g id="xtick_13">
     <g id="line2d_16">
      <g>
       <use style="stroke:#000000;stroke-width:0.8;" x="265.574588" xlink:href="#m12fd591318" y="94.176"/>
      </g>
     </g>
    </g>
    <g id="xtick_14">
     <g id="line2d_17">
      <g>
       <use style="stroke:#000000;stroke-width:0.8;" x="313.50587" xlink:href="#m12fd591318" y="94.176"/>
      </g>
     </g>
    </g>
   </g>
   <g id="matplotlib.axis_4"/>
   <g id="line2d_18">
    <path clip-path="url(#p6de4110392)" d="M 25.918182 89.861208 
L 28.314746 91.136516 
L 30.71131 89.436106 
L 35.504438 89.011003 
L 37.901002 90.286311 
L 40.297566 89.648657 
L 42.69413 90.498862 
L 45.090694 90.286311 
L 47.487258 86.247836 
L 49.883822 84.334874 
L 52.280387 84.547425 
L 54.676951 91.136516 
L 57.073515 86.247836 
L 59.470079 90.498862 
L 61.866643 90.286311 
L 64.263207 91.349067 
L 66.659771 91.77417 
L 69.056335 90.286311 
L 71.452899 91.986721 
L 73.849463 90.711413 
L 76.246027 91.349067 
L 78.642591 90.923965 
L 81.039155 92.199273 
L 83.435719 90.711413 
L 85.832283 90.923965 
L 88.228848 90.07376 
L 90.625412 88.798452 
L 93.021976 87.948246 
L 95.41854 89.223554 
L 97.815104 88.373349 
L 100.211668 89.223554 
L 102.608232 88.160798 
L 105.004796 87.735695 
L 107.40136 86.460387 
L 109.797924 84.122323 
L 112.194488 83.059566 
L 114.591052 84.972528 
L 116.987616 83.909771 
L 119.38418 76.470475 
L 121.780744 75.407718 
L 124.177309 75.407718 
L 126.573873 83.69722 
L 128.970437 85.39763 
L 131.367001 87.948246 
L 133.763565 87.310592 
L 136.160129 88.5859 
L 138.556693 87.098041 
L 140.953257 83.69722 
L 143.349821 74.770065 
L 145.746385 72.432 
L 148.142949 72.006897 
L 150.539513 72.857103 
L 152.936077 69.668833 
L 155.332641 68.818628 
L 157.729205 72.219449 
L 160.12577 77.108129 
L 162.522334 75.62027 
L 164.918898 73.282205 
L 167.315462 73.707308 
L 169.712026 77.108129 
L 172.10859 79.871296 
L 174.505154 81.146604 
L 176.901718 81.996809 
L 179.298282 79.871296 
L 181.694846 74.344962 
L 184.09141 66.905666 
L 186.487974 60.316575 
L 188.884538 59.041267 
L 191.281102 53.727484 
L 193.677666 52.664727 
L 196.07423 59.678921 
L 198.470795 58.616164 
L 200.867359 55.640446 
L 203.263923 62.654639 
L 205.660487 59.46637 
L 208.057051 61.379331 
L 210.453615 66.480563 
L 212.850179 69.881384 
L 215.246743 85.185079 
L 217.643307 86.88549 
L 220.039871 84.547425 
L 222.436435 83.69722 
L 224.832999 84.759977 
L 227.229563 84.547425 
L 229.626127 84.122323 
L 232.022691 84.759977 
L 234.419256 83.909771 
L 236.81582 82.634463 
L 239.212384 84.972528 
L 241.608948 86.672938 
L 244.005512 87.948246 
L 246.402076 88.798452 
L 248.79864 87.948246 
L 251.195204 86.035284 
L 253.591768 86.247836 
L 255.988332 86.672938 
L 258.384896 84.972528 
L 260.78146 86.88549 
L 265.574588 85.610182 
L 267.971152 86.88549 
L 270.367717 86.035284 
L 272.764281 86.460387 
L 275.160845 85.610182 
L 277.557409 86.247836 
L 279.953973 84.759977 
L 282.350537 83.484669 
L 284.747101 83.272117 
L 287.143665 80.50895 
L 291.936793 78.383437 
L 294.333357 77.745783 
L 296.729921 79.446194 
L 299.126485 82.209361 
L 301.523049 83.484669 
L 303.919613 81.359155 
L 306.316178 80.50895 
L 308.712742 80.296399 
L 311.109306 80.721501 
L 313.50587 82.209361 
L 315.902434 83.272117 
L 318.298998 80.721501 
L 323.092126 80.296399 
L 325.48869 80.296399 
L 327.885254 78.170886 
L 330.281818 77.958334 
L 330.281818 77.958334 
" style="fill:none;stroke:#ff7f0e;stroke-linecap:square;stroke-width:1.5;"/>
   </g>
   <g id="patch_9">
    <path d="M 10.7 94.176 
L 10.7 50.688 
" style="fill:none;stroke:#000000;stroke-linecap:square;stroke-linejoin:miter;stroke-width:0.8;"/>
   </g>
   <g id="patch_10">
    <path d="M 345.5 94.176 
L 345.5 50.688 
" style="fill:none;stroke:#000000;stroke-linecap:square;stroke-linejoin:miter;stroke-width:0.8;"/>
   </g>
   <g id="patch_11">
    <path d="M 10.7 94.176 
L 345.5 94.176 
" style="fill:none;stroke:#000000;stroke-linecap:square;stroke-linejoin:miter;stroke-width:0.8;"/>
   </g>
   <g id="patch_12">
    <path d="M 10.7 50.688 
L 345.5 50.688 
" style="fill:none;stroke:#000000;stroke-linecap:square;stroke-linejoin:miter;stroke-width:0.8;"/>
   </g>
   <g id="legend_2">
    <g id="patch_13">
     <path d="M 352.5 81.271062 
L 403.6 81.271062 
Q 405.6 81.271062 405.6 79.271062 
L 405.6 65.592937 
Q 405.6 63.592937 403.6 63.592937 
L 352.5 63.592937 
Q 350.5 63.592937 350.5 65.592937 
L 350.5 79.271062 
Q 350.5 81.271062 352.5 81.271062 
z
" style="fill:#ffffff;opacity:0.8;stroke:#cccccc;stroke-linejoin:miter;"/>
    </g>
    <g id="line2d_19">
     <path d="M 354.5 71.691375 
L 374.5 71.691375 
" style="fill:none;stroke:#ff7f0e;stroke-linecap:square;stroke-width:1.5;"/>
    </g>
    <g id="line2d_20"/>
    <g id="text_2">
     <!-- ts-1 -->
     <g transform="translate(382.5 75.191375)scale(0.1 -0.1)">
      <defs>
       <path d="M 12.40625 8.296875 
L 28.515625 8.296875 
L 28.515625 63.921875 
L 10.984375 60.40625 
L 10.984375 69.390625 
L 28.421875 72.90625 
L 38.28125 72.90625 
L 38.28125 8.296875 
L 54.390625 8.296875 
L 54.390625 0 
L 12.40625 0 
z
" id="DejaVuSans-49"/>
      </defs>
      <use xlink:href="#DejaVuSans-116"/>
      <use x="39.208984" xlink:href="#DejaVuSans-115"/>
      <use x="91.308594" xlink:href="#DejaVuSans-45"/>
      <use x="127.392578" xlink:href="#DejaVuSans-49"/>
     </g>
    </g>
   </g>
  </g>
  <g id="axes_3">
   <g id="patch_14">
    <path d="M 10.7 137.664 
L 345.5 137.664 
L 345.5 94.176 
L 10.7 94.176 
z
" style="fill:#ffffff;"/>
   </g>
   <g id="matplotlib.axis_5">
    <g id="xtick_15">
     <g id="line2d_21">
      <g>
       <use style="stroke:#000000;stroke-width:0.8;" x="25.918182" xlink:href="#m12fd591318" y="137.664"/>
      </g>
     </g>
    </g>
    <g id="xtick_16">
     <g id="line2d_22">
      <g>
       <use style="stroke:#000000;stroke-width:0.8;" x="73.849463" xlink:href="#m12fd591318" y="137.664"/>
      </g>
     </g>
    </g>
    <g id="xtick_17">
     <g id="line2d_23">
      <g>
       <use style="stroke:#000000;stroke-width:0.8;" x="121.780744" xlink:href="#m12fd591318" y="137.664"/>
      </g>
     </g>
    </g>
    <g id="xtick_18">
     <g id="line2d_24">
      <g>
       <use style="stroke:#000000;stroke-width:0.8;" x="169.712026" xlink:href="#m12fd591318" y="137.664"/>
      </g>
     </g>
    </g>
    <g id="xtick_19">
     <g id="line2d_25">
      <g>
       <use style="stroke:#000000;stroke-width:0.8;" x="217.643307" xlink:href="#m12fd591318" y="137.664"/>
      </g>
     </g>
    </g>
    <g id="xtick_20">
     <g id="line2d_26">
      <g>
       <use style="stroke:#000000;stroke-width:0.8;" x="265.574588" xlink:href="#m12fd591318" y="137.664"/>
      </g>
     </g>
    </g>
    <g id="xtick_21">
     <g id="line2d_27">
      <g>
       <use style="stroke:#000000;stroke-width:0.8;" x="313.50587" xlink:href="#m12fd591318" y="137.664"/>
      </g>
     </g>
    </g>
   </g>
   <g id="matplotlib.axis_6"/>
   <g id="line2d_28">
    <path clip-path="url(#p5ae66a4ce4)" d="M 25.918182 121.179183 
L 28.314746 121.179183 
L 30.71131 118.277565 
L 33.107874 116.282702 
L 35.504438 114.831893 
L 37.901002 111.567573 
L 40.297566 109.935413 
L 42.69413 108.484604 
L 45.090694 107.396497 
L 47.487258 108.303253 
L 49.883822 112.474329 
L 52.280387 115.92 
L 54.676951 116.645405 
L 57.073515 116.282702 
L 59.470079 115.557298 
L 61.866643 113.743786 
L 64.263207 111.386222 
L 66.659771 111.02352 
L 69.056335 109.935413 
L 71.452899 109.028657 
L 73.849463 106.852444 
L 76.246027 107.033795 
L 78.642591 104.132177 
L 81.039155 101.774612 
L 83.435719 100.686505 
L 85.832283 122.992694 
L 88.228848 107.577848 
L 90.625412 96.152727 
L 95.41854 98.14759 
L 97.815104 99.77975 
L 100.211668 102.318666 
L 102.608232 110.479466 
L 107.40136 111.930275 
L 109.797924 115.013244 
L 112.194488 118.277565 
L 114.591052 117.370809 
L 116.987616 115.375947 
L 119.38418 111.748924 
L 121.780744 110.842168 
L 124.177309 117.733511 
L 126.573873 115.92 
L 128.970437 111.930275 
L 131.367001 105.764337 
L 133.763565 115.375947 
L 136.160129 115.92 
L 138.556693 115.194595 
L 140.953257 115.194595 
L 143.349821 128.79593 
L 145.746385 127.707823 
L 148.142949 128.433228 
L 150.539513 128.614579 
L 152.936077 130.246739 
L 155.332641 128.070525 
L 157.729205 127.707823 
L 160.12577 125.712961 
L 162.522334 123.536747 
L 167.315462 124.987556 
L 169.712026 127.526472 
L 172.10859 126.801068 
L 174.505154 124.806205 
L 176.901718 124.080801 
L 179.298282 122.992694 
L 184.09141 116.826756 
L 186.487974 114.650542 
L 188.884538 117.55216 
L 191.281102 118.096214 
L 193.677666 125.350259 
L 196.07423 130.42809 
L 198.470795 130.065388 
L 200.867359 128.070525 
L 203.263923 129.702686 
L 205.660487 117.370809 
L 208.057051 116.282702 
L 210.453615 117.55216 
L 212.850179 117.55216 
L 215.246743 117.008107 
L 217.643307 118.277565 
L 220.039871 120.272427 
L 222.436435 119.547023 
L 224.832999 121.179183 
L 227.229563 121.723236 
L 229.626127 121.904587 
L 232.022691 120.453778 
L 236.81582 119.365671 
L 239.212384 114.106489 
L 241.608948 114.28784 
L 244.005512 117.55216 
L 246.402076 118.458916 
L 248.79864 123.174045 
L 251.195204 130.609441 
L 253.591768 130.972143 
L 255.988332 132.785655 
L 258.384896 133.329708 
L 260.78146 132.604304 
L 263.178024 132.06025 
L 265.574588 129.339983 
L 267.971152 127.345121 
L 270.367717 121.360534 
L 272.764281 118.277565 
L 275.160845 117.733511 
L 277.557409 116.101351 
L 279.953973 121.179183 
L 282.350537 123.89945 
L 284.747101 130.065388 
L 287.143665 132.06025 
L 289.540229 133.329708 
L 291.936793 130.790792 
L 294.333357 129.884037 
L 296.729921 128.614579 
L 299.126485 128.251877 
L 301.523049 132.967006 
L 303.919613 135.687273 
L 306.316178 134.780517 
L 308.712742 134.236464 
L 311.109306 132.06025 
L 313.50587 133.873761 
L 315.902434 135.143219 
L 318.298998 135.143219 
L 320.695562 133.511059 
L 325.48869 130.609441 
L 327.885254 130.609441 
L 330.281818 131.697548 
L 330.281818 131.697548 
" style="fill:none;stroke:#2ca02c;stroke-linecap:square;stroke-width:1.5;"/>
   </g>
   <g id="patch_15">
    <path d="M 10.7 137.664 
L 10.7 94.176 
" style="fill:none;stroke:#000000;stroke-linecap:square;stroke-linejoin:miter;stroke-width:0.8;"/>
   </g>
   <g id="patch_16">
    <path d="M 345.5 137.664 
L 345.5 94.176 
" style="fill:none;stroke:#000000;stroke-linecap:square;stroke-linejoin:miter;stroke-width:0.8;"/>
   </g>
   <g id="patch_17">
    <path d="M 10.7 137.664 
L 345.5 137.664 
" style="fill:none;stroke:#000000;stroke-linecap:square;stroke-linejoin:miter;stroke-width:0.8;"/>
   </g>
   <g id="patch_18">
    <path d="M 10.7 94.176 
L 345.5 94.176 
" style="fill:none;stroke:#000000;stroke-linecap:square;stroke-linejoin:miter;stroke-width:0.8;"/>
   </g>
   <g id="legend_3">
    <g id="patch_19">
     <path d="M 352.5 124.759062 
L 403.6 124.759062 
Q 405.6 124.759062 405.6 122.759062 
L 405.6 109.080937 
Q 405.6 107.080937 403.6 107.080937 
L 352.5 107.080937 
Q 350.5 107.080937 350.5 109.080937 
L 350.5 122.759062 
Q 350.5 124.759062 352.5 124.759062 
z
" style="fill:#ffffff;opacity:0.8;stroke:#cccccc;stroke-linejoin:miter;"/>
    </g>
    <g id="line2d_29">
     <path d="M 354.5 115.179375 
L 374.5 115.179375 
" style="fill:none;stroke:#2ca02c;stroke-linecap:square;stroke-width:1.5;"/>
    </g>
    <g id="line2d_30"/>
    <g id="text_3">
     <!-- ts-2 -->
     <g transform="translate(382.5 118.679375)scale(0.1 -0.1)">
      <defs>
       <path d="M 19.1875 8.296875 
L 53.609375 8.296875 
L 53.609375 0 
L 7.328125 0 
L 7.328125 8.296875 
Q 12.9375 14.109375 22.625 23.890625 
Q 32.328125 33.6875 34.8125 36.53125 
Q 39.546875 41.84375 41.421875 45.53125 
Q 43.3125 49.21875 43.3125 52.78125 
Q 43.3125 58.59375 39.234375 62.25 
Q 35.15625 65.921875 28.609375 65.921875 
Q 23.96875 65.921875 18.8125 64.3125 
Q 13.671875 62.703125 7.8125 59.421875 
L 7.8125 69.390625 
Q 13.765625 71.78125 18.9375 73 
Q 24.125 74.21875 28.421875 74.21875 
Q 39.75 74.21875 46.484375 68.546875 
Q 53.21875 62.890625 53.21875 53.421875 
Q 53.21875 48.921875 51.53125 44.890625 
Q 49.859375 40.875 45.40625 35.40625 
Q 44.1875 33.984375 37.640625 27.21875 
Q 31.109375 20.453125 19.1875 8.296875 
z
" id="DejaVuSans-50"/>
      </defs>
      <use xlink:href="#DejaVuSans-116"/>
      <use x="39.208984" xlink:href="#DejaVuSans-115"/>
      <use x="91.308594" xlink:href="#DejaVuSans-45"/>
      <use x="127.392578" xlink:href="#DejaVuSans-50"/>
     </g>
    </g>
   </g>
  </g>
  <g id="axes_4">
   <g id="patch_20">
    <path d="M 10.7 181.152 
L 345.5 181.152 
L 345.5 137.664 
L 10.7 137.664 
z
" style="fill:#ffffff;"/>
   </g>
   <g id="matplotlib.axis_7">
    <g id="xtick_22">
     <g id="line2d_31">
      <g>
       <use style="stroke:#000000;stroke-width:0.8;" x="25.918182" xlink:href="#m12fd591318" y="181.152"/>
      </g>
     </g>
    </g>
    <g id="xtick_23">
     <g id="line2d_32">
      <g>
       <use style="stroke:#000000;stroke-width:0.8;" x="73.849463" xlink:href="#m12fd591318" y="181.152"/>
      </g>
     </g>
    </g>
    <g id="xtick_24">
     <g id="line2d_33">
      <g>
       <use style="stroke:#000000;stroke-width:0.8;" x="121.780744" xlink:href="#m12fd591318" y="181.152"/>
      </g>
     </g>
    </g>
    <g id="xtick_25">
     <g id="line2d_34">
      <g>
       <use style="stroke:#000000;stroke-width:0.8;" x="169.712026" xlink:href="#m12fd591318" y="181.152"/>
      </g>
     </g>
    </g>
    <g id="xtick_26">
     <g id="line2d_35">
      <g>
       <use style="stroke:#000000;stroke-width:0.8;" x="217.643307" xlink:href="#m12fd591318" y="181.152"/>
      </g>
     </g>
    </g>
    <g id="xtick_27">
     <g id="line2d_36">
      <g>
       <use style="stroke:#000000;stroke-width:0.8;" x="265.574588" xlink:href="#m12fd591318" y="181.152"/>
      </g>
     </g>
    </g>
    <g id="xtick_28">
     <g id="line2d_37">
      <g>
       <use style="stroke:#000000;stroke-width:0.8;" x="313.50587" xlink:href="#m12fd591318" y="181.152"/>
      </g>
     </g>
    </g>
   </g>
   <g id="matplotlib.axis_8"/>
   <g id="line2d_38">
    <path clip-path="url(#p3f751b6eb7)" d="M 25.918182 170.341546 
L 28.314746 169.32784 
L 30.71131 164.838569 
L 33.107874 162.521526 
L 35.504438 161.50782 
L 37.901002 161.363005 
L 40.297566 158.321886 
L 42.69413 159.045962 
L 45.090694 158.466701 
L 47.487258 154.701506 
L 49.883822 154.991137 
L 52.280387 162.666342 
L 54.676951 169.472655 
L 57.073515 163.535233 
L 59.470079 164.548939 
L 61.866643 163.245602 
L 64.263207 162.231896 
L 66.659771 162.811157 
L 69.056335 160.204484 
L 71.452899 160.349299 
L 73.849463 157.018549 
L 76.246027 157.887441 
L 78.642591 154.122246 
L 81.039155 149.343345 
L 83.435719 146.157411 
L 85.832283 162.811157 
L 90.625412 139.640727 
L 93.021976 141.306102 
L 95.41854 141.66814 
L 97.815104 141.378509 
L 100.211668 141.812955 
L 102.608232 149.77779 
L 105.004796 156.149658 
L 107.40136 163.100787 
L 109.797924 165.562645 
L 112.194488 167.155612 
L 114.591052 168.169319 
L 116.987616 166.286721 
L 119.38418 158.321886 
L 121.780744 157.163365 
L 124.177309 162.376711 
L 126.573873 166.576352 
L 128.970437 164.259309 
L 131.367001 161.652635 
L 133.763565 169.183025 
L 136.160129 170.631177 
L 138.556693 168.893395 
L 140.953257 166.431536 
L 143.349821 171.355253 
L 145.746385 169.183025 
L 148.142949 169.183025 
L 150.539513 169.472655 
L 152.936077 168.893395 
L 155.332641 166.141906 
L 157.729205 164.693754 
L 162.522334 160.928559 
L 164.918898 161.073375 
L 167.315462 162.955972 
L 169.712026 167.155612 
L 172.10859 167.590058 
L 174.505154 167.300428 
L 176.901718 167.155612 
L 179.298282 163.824863 
L 181.694846 157.887441 
L 184.09141 149.198529 
L 186.487974 141.95777 
L 188.884538 143.985183 
L 191.281102 141.66814 
L 193.677666 148.329638 
L 196.07423 156.873734 
L 198.470795 154.991137 
L 200.867359 149.198529 
L 203.263923 154.556691 
L 205.660487 142.102585 
L 208.057051 142.826661 
L 210.453615 148.619269 
L 212.850179 149.343345 
L 215.246743 159.335592 
L 217.643307 160.783744 
L 220.039871 160.638929 
L 222.436435 159.480408 
L 224.832999 160.059668 
L 227.229563 158.901147 
L 229.626127 158.539109 
L 232.022691 157.59781 
L 234.419256 159.625223 
L 236.81582 160.059668 
L 239.212384 158.177071 
L 241.608948 160.783744 
L 244.005512 164.548939 
L 246.402076 166.286721 
L 248.79864 168.458949 
L 251.195204 173.672296 
L 253.591768 172.658589 
L 255.988332 174.251556 
L 258.384896 173.961926 
L 260.78146 174.396372 
L 263.178024 174.251556 
L 265.574588 169.32784 
L 267.971152 169.183025 
L 270.367717 162.376711 
L 272.764281 160.928559 
L 275.160845 160.638929 
L 277.557409 161.652635 
L 279.953973 167.300428 
L 282.350537 169.03821 
L 284.747101 174.975632 
L 287.143665 174.75841 
L 289.540229 175.120448 
L 291.936793 167.300428 
L 294.333357 161.21819 
L 296.729921 163.535233 
L 299.126485 165.562645 
L 301.523049 170.631177 
L 303.919613 173.961926 
L 306.316178 173.961926 
L 308.712742 172.803405 
L 311.109306 172.079329 
L 313.50587 175.989339 
L 315.902434 179.175273 
L 318.298998 177.292675 
L 320.695562 174.975632 
L 323.092126 172.079329 
L 325.48869 170.051916 
L 327.885254 168.893395 
L 330.281818 172.079329 
L 330.281818 172.079329 
" style="fill:none;stroke:#d62728;stroke-linecap:square;stroke-width:1.5;"/>
   </g>
   <g id="patch_21">
    <path d="M 10.7 181.152 
L 10.7 137.664 
" style="fill:none;stroke:#000000;stroke-linecap:square;stroke-linejoin:miter;stroke-width:0.8;"/>
   </g>
   <g id="patch_22">
    <path d="M 345.5 181.152 
L 345.5 137.664 
" style="fill:none;stroke:#000000;stroke-linecap:square;stroke-linejoin:miter;stroke-width:0.8;"/>
   </g>
   <g id="patch_23">
    <path d="M 10.7 181.152 
L 345.5 181.152 
" style="fill:none;stroke:#000000;stroke-linecap:square;stroke-linejoin:miter;stroke-width:0.8;"/>
   </g>
   <g id="patch_24">
    <path d="M 10.7 137.664 
L 345.5 137.664 
" style="fill:none;stroke:#000000;stroke-linecap:square;stroke-linejoin:miter;stroke-width:0.8;"/>
   </g>
   <g id="legend_4">
    <g id="patch_25">
     <path d="M 352.5 173.845969 
L 531.6875 173.845969 
Q 533.6875 173.845969 533.6875 171.845969 
L 533.6875 146.970031 
Q 533.6875 144.970031 531.6875 144.970031 
L 352.5 144.970031 
Q 350.5 144.970031 350.5 146.970031 
L 350.5 171.845969 
Q 350.5 173.845969 352.5 173.845969 
z
" style="fill:#ffffff;opacity:0.8;stroke:#cccccc;stroke-linejoin:miter;"/>
    </g>
    <g id="line2d_39">
     <path d="M 354.5 159.707219 
L 374.5 159.707219 
" style="fill:none;stroke:#d62728;stroke-linecap:square;stroke-width:1.5;"/>
    </g>
    <g id="line2d_40"/>
    <g id="text_4">
     <!-- local mean per reference set  -->
     <g transform="translate(382.5 156.568469)scale(0.1 -0.1)">
      <defs>
       <path d="M 9.421875 75.984375 
L 18.40625 75.984375 
L 18.40625 0 
L 9.421875 0 
z
" id="DejaVuSans-108"/>
       <path d="M 30.609375 48.390625 
Q 23.390625 48.390625 19.1875 42.75 
Q 14.984375 37.109375 14.984375 27.296875 
Q 14.984375 17.484375 19.15625 11.84375 
Q 23.34375 6.203125 30.609375 6.203125 
Q 37.796875 6.203125 41.984375 11.859375 
Q 46.1875 17.53125 46.1875 27.296875 
Q 46.1875 37.015625 41.984375 42.703125 
Q 37.796875 48.390625 30.609375 48.390625 
z
M 30.609375 56 
Q 42.328125 56 49.015625 48.375 
Q 55.71875 40.765625 55.71875 27.296875 
Q 55.71875 13.875 49.015625 6.21875 
Q 42.328125 -1.421875 30.609375 -1.421875 
Q 18.84375 -1.421875 12.171875 6.21875 
Q 5.515625 13.875 5.515625 27.296875 
Q 5.515625 40.765625 12.171875 48.375 
Q 18.84375 56 30.609375 56 
z
" id="DejaVuSans-111"/>
       <path d="M 48.78125 52.59375 
L 48.78125 44.1875 
Q 44.96875 46.296875 41.140625 47.34375 
Q 37.3125 48.390625 33.40625 48.390625 
Q 24.65625 48.390625 19.8125 42.84375 
Q 14.984375 37.3125 14.984375 27.296875 
Q 14.984375 17.28125 19.8125 11.734375 
Q 24.65625 6.203125 33.40625 6.203125 
Q 37.3125 6.203125 41.140625 7.25 
Q 44.96875 8.296875 48.78125 10.40625 
L 48.78125 2.09375 
Q 45.015625 0.34375 40.984375 -0.53125 
Q 36.96875 -1.421875 32.421875 -1.421875 
Q 20.0625 -1.421875 12.78125 6.34375 
Q 5.515625 14.109375 5.515625 27.296875 
Q 5.515625 40.671875 12.859375 48.328125 
Q 20.21875 56 33.015625 56 
Q 37.15625 56 41.109375 55.140625 
Q 45.0625 54.296875 48.78125 52.59375 
z
" id="DejaVuSans-99"/>
       <path d="M 34.28125 27.484375 
Q 23.390625 27.484375 19.1875 25 
Q 14.984375 22.515625 14.984375 16.5 
Q 14.984375 11.71875 18.140625 8.90625 
Q 21.296875 6.109375 26.703125 6.109375 
Q 34.1875 6.109375 38.703125 11.40625 
Q 43.21875 16.703125 43.21875 25.484375 
L 43.21875 27.484375 
z
M 52.203125 31.203125 
L 52.203125 0 
L 43.21875 0 
L 43.21875 8.296875 
Q 40.140625 3.328125 35.546875 0.953125 
Q 30.953125 -1.421875 24.3125 -1.421875 
Q 15.921875 -1.421875 10.953125 3.296875 
Q 6 8.015625 6 15.921875 
Q 6 25.140625 12.171875 29.828125 
Q 18.359375 34.515625 30.609375 34.515625 
L 43.21875 34.515625 
L 43.21875 35.40625 
Q 43.21875 41.609375 39.140625 45 
Q 35.0625 48.390625 27.6875 48.390625 
Q 23 48.390625 18.546875 47.265625 
Q 14.109375 46.140625 10.015625 43.890625 
L 10.015625 52.203125 
Q 14.9375 54.109375 19.578125 55.046875 
Q 24.21875 56 28.609375 56 
Q 40.484375 56 46.34375 49.84375 
Q 52.203125 43.703125 52.203125 31.203125 
z
" id="DejaVuSans-97"/>
       <path id="DejaVuSans-32"/>
       <path d="M 52 44.1875 
Q 55.375 50.25 60.0625 53.125 
Q 64.75 56 71.09375 56 
Q 79.640625 56 84.28125 50.015625 
Q 88.921875 44.046875 88.921875 33.015625 
L 88.921875 0 
L 79.890625 0 
L 79.890625 32.71875 
Q 79.890625 40.578125 77.09375 44.375 
Q 74.3125 48.1875 68.609375 48.1875 
Q 61.625 48.1875 57.5625 43.546875 
Q 53.515625 38.921875 53.515625 30.90625 
L 53.515625 0 
L 44.484375 0 
L 44.484375 32.71875 
Q 44.484375 40.625 41.703125 44.40625 
Q 38.921875 48.1875 33.109375 48.1875 
Q 26.21875 48.1875 22.15625 43.53125 
Q 18.109375 38.875 18.109375 30.90625 
L 18.109375 0 
L 9.078125 0 
L 9.078125 54.6875 
L 18.109375 54.6875 
L 18.109375 46.1875 
Q 21.1875 51.21875 25.484375 53.609375 
Q 29.78125 56 35.6875 56 
Q 41.65625 56 45.828125 52.96875 
Q 50 49.953125 52 44.1875 
z
" id="DejaVuSans-109"/>
       <path d="M 56.203125 29.59375 
L 56.203125 25.203125 
L 14.890625 25.203125 
Q 15.484375 15.921875 20.484375 11.0625 
Q 25.484375 6.203125 34.421875 6.203125 
Q 39.59375 6.203125 44.453125 7.46875 
Q 49.3125 8.734375 54.109375 11.28125 
L 54.109375 2.78125 
Q 49.265625 0.734375 44.1875 -0.34375 
Q 39.109375 -1.421875 33.890625 -1.421875 
Q 20.796875 -1.421875 13.15625 6.1875 
Q 5.515625 13.8125 5.515625 26.8125 
Q 5.515625 40.234375 12.765625 48.109375 
Q 20.015625 56 32.328125 56 
Q 43.359375 56 49.78125 48.890625 
Q 56.203125 41.796875 56.203125 29.59375 
z
M 47.21875 32.234375 
Q 47.125 39.59375 43.09375 43.984375 
Q 39.0625 48.390625 32.421875 48.390625 
Q 24.90625 48.390625 20.390625 44.140625 
Q 15.875 39.890625 15.1875 32.171875 
z
" id="DejaVuSans-101"/>
       <path d="M 54.890625 33.015625 
L 54.890625 0 
L 45.90625 0 
L 45.90625 32.71875 
Q 45.90625 40.484375 42.875 44.328125 
Q 39.84375 48.1875 33.796875 48.1875 
Q 26.515625 48.1875 22.3125 43.546875 
Q 18.109375 38.921875 18.109375 30.90625 
L 18.109375 0 
L 9.078125 0 
L 9.078125 54.6875 
L 18.109375 54.6875 
L 18.109375 46.1875 
Q 21.34375 51.125 25.703125 53.5625 
Q 30.078125 56 35.796875 56 
Q 45.21875 56 50.046875 50.171875 
Q 54.890625 44.34375 54.890625 33.015625 
z
" id="DejaVuSans-110"/>
       <path d="M 18.109375 8.203125 
L 18.109375 -20.796875 
L 9.078125 -20.796875 
L 9.078125 54.6875 
L 18.109375 54.6875 
L 18.109375 46.390625 
Q 20.953125 51.265625 25.265625 53.625 
Q 29.59375 56 35.59375 56 
Q 45.5625 56 51.78125 48.09375 
Q 58.015625 40.1875 58.015625 27.296875 
Q 58.015625 14.40625 51.78125 6.484375 
Q 45.5625 -1.421875 35.59375 -1.421875 
Q 29.59375 -1.421875 25.265625 0.953125 
Q 20.953125 3.328125 18.109375 8.203125 
z
M 48.6875 27.296875 
Q 48.6875 37.203125 44.609375 42.84375 
Q 40.53125 48.484375 33.40625 48.484375 
Q 26.265625 48.484375 22.1875 42.84375 
Q 18.109375 37.203125 18.109375 27.296875 
Q 18.109375 17.390625 22.1875 11.75 
Q 26.265625 6.109375 33.40625 6.109375 
Q 40.53125 6.109375 44.609375 11.75 
Q 48.6875 17.390625 48.6875 27.296875 
z
" id="DejaVuSans-112"/>
       <path d="M 41.109375 46.296875 
Q 39.59375 47.171875 37.8125 47.578125 
Q 36.03125 48 33.890625 48 
Q 26.265625 48 22.1875 43.046875 
Q 18.109375 38.09375 18.109375 28.8125 
L 18.109375 0 
L 9.078125 0 
L 9.078125 54.6875 
L 18.109375 54.6875 
L 18.109375 46.1875 
Q 20.953125 51.171875 25.484375 53.578125 
Q 30.03125 56 36.53125 56 
Q 37.453125 56 38.578125 55.875 
Q 39.703125 55.765625 41.0625 55.515625 
z
" id="DejaVuSans-114"/>
       <path d="M 37.109375 75.984375 
L 37.109375 68.5 
L 28.515625 68.5 
Q 23.6875 68.5 21.796875 66.546875 
Q 19.921875 64.59375 19.921875 59.515625 
L 19.921875 54.6875 
L 34.71875 54.6875 
L 34.71875 47.703125 
L 19.921875 47.703125 
L 19.921875 0 
L 10.890625 0 
L 10.890625 47.703125 
L 2.296875 47.703125 
L 2.296875 54.6875 
L 10.890625 54.6875 
L 10.890625 58.5 
Q 10.890625 67.625 15.140625 71.796875 
Q 19.390625 75.984375 28.609375 75.984375 
z
" id="DejaVuSans-102"/>
      </defs>
      <use xlink:href="#DejaVuSans-108"/>
      <use x="27.783203" xlink:href="#DejaVuSans-111"/>
      <use x="88.964844" xlink:href="#DejaVuSans-99"/>
      <use x="143.945312" xlink:href="#DejaVuSans-97"/>
      <use x="205.224609" xlink:href="#DejaVuSans-108"/>
      <use x="233.007812" xlink:href="#DejaVuSans-32"/>
      <use x="264.794922" xlink:href="#DejaVuSans-109"/>
      <use x="362.207031" xlink:href="#DejaVuSans-101"/>
      <use x="423.730469" xlink:href="#DejaVuSans-97"/>
      <use x="485.009766" xlink:href="#DejaVuSans-110"/>
      <use x="548.388672" xlink:href="#DejaVuSans-32"/>
      <use x="580.175781" xlink:href="#DejaVuSans-112"/>
      <use x="643.652344" xlink:href="#DejaVuSans-101"/>
      <use x="705.175781" xlink:href="#DejaVuSans-114"/>
      <use x="746.289062" xlink:href="#DejaVuSans-32"/>
      <use x="778.076172" xlink:href="#DejaVuSans-114"/>
      <use x="816.939453" xlink:href="#DejaVuSans-101"/>
      <use x="878.462891" xlink:href="#DejaVuSans-102"/>
      <use x="913.667969" xlink:href="#DejaVuSans-101"/>
      <use x="975.191406" xlink:href="#DejaVuSans-114"/>
      <use x="1014.054688" xlink:href="#DejaVuSans-101"/>
      <use x="1075.578125" xlink:href="#DejaVuSans-110"/>
      <use x="1138.957031" xlink:href="#DejaVuSans-99"/>
      <use x="1193.9375" xlink:href="#DejaVuSans-101"/>
      <use x="1255.460938" xlink:href="#DejaVuSans-32"/>
      <use x="1287.248047" xlink:href="#DejaVuSans-115"/>
      <use x="1339.347656" xlink:href="#DejaVuSans-101"/>
      <use x="1400.871094" xlink:href="#DejaVuSans-116"/>
      <use x="1440.080078" xlink:href="#DejaVuSans-32"/>
     </g>
     <!--  ['ts-0', 'ts-1', 'ts-2'] -->
     <g transform="translate(382.5 167.766281)scale(0.1 -0.1)">
      <defs>
       <path d="M 8.59375 75.984375 
L 29.296875 75.984375 
L 29.296875 69 
L 17.578125 69 
L 17.578125 -6.203125 
L 29.296875 -6.203125 
L 29.296875 -13.1875 
L 8.59375 -13.1875 
z
" id="DejaVuSans-91"/>
       <path d="M 17.921875 72.90625 
L 17.921875 45.796875 
L 9.625 45.796875 
L 9.625 72.90625 
z
" id="DejaVuSans-39"/>
       <path d="M 11.71875 12.40625 
L 22.015625 12.40625 
L 22.015625 4 
L 14.015625 -11.625 
L 7.71875 -11.625 
L 11.71875 4 
z
" id="DejaVuSans-44"/>
       <path d="M 30.421875 75.984375 
L 30.421875 -13.1875 
L 9.71875 -13.1875 
L 9.71875 -6.203125 
L 21.390625 -6.203125 
L 21.390625 69 
L 9.71875 69 
L 9.71875 75.984375 
z
" id="DejaVuSans-93"/>
      </defs>
      <use xlink:href="#DejaVuSans-32"/>
      <use x="31.787109" xlink:href="#DejaVuSans-91"/>
      <use x="70.800781" xlink:href="#DejaVuSans-39"/>
      <use x="98.291016" xlink:href="#DejaVuSans-116"/>
      <use x="137.5" xlink:href="#DejaVuSans-115"/>
      <use x="189.599609" xlink:href="#DejaVuSans-45"/>
      <use x="225.683594" xlink:href="#DejaVuSans-48"/>
      <use x="289.306641" xlink:href="#DejaVuSans-39"/>
      <use x="316.796875" xlink:href="#DejaVuSans-44"/>
      <use x="348.583984" xlink:href="#DejaVuSans-32"/>
      <use x="380.371094" xlink:href="#DejaVuSans-39"/>
      <use x="407.861328" xlink:href="#DejaVuSans-116"/>
      <use x="447.070312" xlink:href="#DejaVuSans-115"/>
      <use x="499.169922" xlink:href="#DejaVuSans-45"/>
      <use x="535.253906" xlink:href="#DejaVuSans-49"/>
      <use x="598.876953" xlink:href="#DejaVuSans-39"/>
      <use x="626.367188" xlink:href="#DejaVuSans-44"/>
      <use x="658.154297" xlink:href="#DejaVuSans-32"/>
      <use x="689.941406" xlink:href="#DejaVuSans-39"/>
      <use x="717.431641" xlink:href="#DejaVuSans-116"/>
      <use x="756.640625" xlink:href="#DejaVuSans-115"/>
      <use x="808.740234" xlink:href="#DejaVuSans-45"/>
      <use x="844.824219" xlink:href="#DejaVuSans-50"/>
      <use x="908.447266" xlink:href="#DejaVuSans-39"/>
      <use x="935.9375" xlink:href="#DejaVuSans-93"/>
     </g>
    </g>
   </g>
  </g>
  <g id="axes_5">
   <g id="patch_26">
    <path d="M 10.7 224.64 
L 345.5 224.64 
L 345.5 181.152 
L 10.7 181.152 
z
" style="fill:#ffffff;"/>
   </g>
   <g id="matplotlib.axis_9">
    <g id="xtick_29">
     <g id="line2d_41">
      <g>
       <use style="stroke:#000000;stroke-width:0.8;" x="25.918182" xlink:href="#m12fd591318" y="224.64"/>
      </g>
     </g>
     <g id="text_5">
      <!-- 0 -->
      <g transform="translate(22.736932 239.238437)scale(0.1 -0.1)">
       <use xlink:href="#DejaVuSans-48"/>
      </g>
     </g>
    </g>
    <g id="xtick_30">
     <g id="line2d_42">
      <g>
       <use style="stroke:#000000;stroke-width:0.8;" x="73.849463" xlink:href="#m12fd591318" y="224.64"/>
      </g>
     </g>
     <g id="text_6">
      <!-- 20 -->
      <g transform="translate(67.486963 239.238437)scale(0.1 -0.1)">
       <use xlink:href="#DejaVuSans-50"/>
       <use x="63.623047" xlink:href="#DejaVuSans-48"/>
      </g>
     </g>
    </g>
    <g id="xtick_31">
     <g id="line2d_43">
      <g>
       <use style="stroke:#000000;stroke-width:0.8;" x="121.780744" xlink:href="#m12fd591318" y="224.64"/>
      </g>
     </g>
     <g id="text_7">
      <!-- 40 -->
      <g transform="translate(115.418244 239.238437)scale(0.1 -0.1)">
       <defs>
        <path d="M 37.796875 64.3125 
L 12.890625 25.390625 
L 37.796875 25.390625 
z
M 35.203125 72.90625 
L 47.609375 72.90625 
L 47.609375 25.390625 
L 58.015625 25.390625 
L 58.015625 17.1875 
L 47.609375 17.1875 
L 47.609375 0 
L 37.796875 0 
L 37.796875 17.1875 
L 4.890625 17.1875 
L 4.890625 26.703125 
z
" id="DejaVuSans-52"/>
       </defs>
       <use xlink:href="#DejaVuSans-52"/>
       <use x="63.623047" xlink:href="#DejaVuSans-48"/>
      </g>
     </g>
    </g>
    <g id="xtick_32">
     <g id="line2d_44">
      <g>
       <use style="stroke:#000000;stroke-width:0.8;" x="169.712026" xlink:href="#m12fd591318" y="224.64"/>
      </g>
     </g>
     <g id="text_8">
      <!-- 60 -->
      <g transform="translate(163.349526 239.238437)scale(0.1 -0.1)">
       <defs>
        <path d="M 33.015625 40.375 
Q 26.375 40.375 22.484375 35.828125 
Q 18.609375 31.296875 18.609375 23.390625 
Q 18.609375 15.53125 22.484375 10.953125 
Q 26.375 6.390625 33.015625 6.390625 
Q 39.65625 6.390625 43.53125 10.953125 
Q 47.40625 15.53125 47.40625 23.390625 
Q 47.40625 31.296875 43.53125 35.828125 
Q 39.65625 40.375 33.015625 40.375 
z
M 52.59375 71.296875 
L 52.59375 62.3125 
Q 48.875 64.0625 45.09375 64.984375 
Q 41.3125 65.921875 37.59375 65.921875 
Q 27.828125 65.921875 22.671875 59.328125 
Q 17.53125 52.734375 16.796875 39.40625 
Q 19.671875 43.65625 24.015625 45.921875 
Q 28.375 48.1875 33.59375 48.1875 
Q 44.578125 48.1875 50.953125 41.515625 
Q 57.328125 34.859375 57.328125 23.390625 
Q 57.328125 12.15625 50.6875 5.359375 
Q 44.046875 -1.421875 33.015625 -1.421875 
Q 20.359375 -1.421875 13.671875 8.265625 
Q 6.984375 17.96875 6.984375 36.375 
Q 6.984375 53.65625 15.1875 63.9375 
Q 23.390625 74.21875 37.203125 74.21875 
Q 40.921875 74.21875 44.703125 73.484375 
Q 48.484375 72.75 52.59375 71.296875 
z
" id="DejaVuSans-54"/>
       </defs>
       <use xlink:href="#DejaVuSans-54"/>
       <use x="63.623047" xlink:href="#DejaVuSans-48"/>
      </g>
     </g>
    </g>
    <g id="xtick_33">
     <g id="line2d_45">
      <g>
       <use style="stroke:#000000;stroke-width:0.8;" x="217.643307" xlink:href="#m12fd591318" y="224.64"/>
      </g>
     </g>
     <g id="text_9">
      <!-- 80 -->
      <g transform="translate(211.280807 239.238437)scale(0.1 -0.1)">
       <defs>
        <path d="M 31.78125 34.625 
Q 24.75 34.625 20.71875 30.859375 
Q 16.703125 27.09375 16.703125 20.515625 
Q 16.703125 13.921875 20.71875 10.15625 
Q 24.75 6.390625 31.78125 6.390625 
Q 38.8125 6.390625 42.859375 10.171875 
Q 46.921875 13.96875 46.921875 20.515625 
Q 46.921875 27.09375 42.890625 30.859375 
Q 38.875 34.625 31.78125 34.625 
z
M 21.921875 38.8125 
Q 15.578125 40.375 12.03125 44.71875 
Q 8.5 49.078125 8.5 55.328125 
Q 8.5 64.0625 14.71875 69.140625 
Q 20.953125 74.21875 31.78125 74.21875 
Q 42.671875 74.21875 48.875 69.140625 
Q 55.078125 64.0625 55.078125 55.328125 
Q 55.078125 49.078125 51.53125 44.71875 
Q 48 40.375 41.703125 38.8125 
Q 48.828125 37.15625 52.796875 32.3125 
Q 56.78125 27.484375 56.78125 20.515625 
Q 56.78125 9.90625 50.3125 4.234375 
Q 43.84375 -1.421875 31.78125 -1.421875 
Q 19.734375 -1.421875 13.25 4.234375 
Q 6.78125 9.90625 6.78125 20.515625 
Q 6.78125 27.484375 10.78125 32.3125 
Q 14.796875 37.15625 21.921875 38.8125 
z
M 18.3125 54.390625 
Q 18.3125 48.734375 21.84375 45.5625 
Q 25.390625 42.390625 31.78125 42.390625 
Q 38.140625 42.390625 41.71875 45.5625 
Q 45.3125 48.734375 45.3125 54.390625 
Q 45.3125 60.0625 41.71875 63.234375 
Q 38.140625 66.40625 31.78125 66.40625 
Q 25.390625 66.40625 21.84375 63.234375 
Q 18.3125 60.0625 18.3125 54.390625 
z
" id="DejaVuSans-56"/>
       </defs>
       <use xlink:href="#DejaVuSans-56"/>
       <use x="63.623047" xlink:href="#DejaVuSans-48"/>
      </g>
     </g>
    </g>
    <g id="xtick_34">
     <g id="line2d_46">
      <g>
       <use style="stroke:#000000;stroke-width:0.8;" x="265.574588" xlink:href="#m12fd591318" y="224.64"/>
      </g>
     </g>
     <g id="text_10">
      <!-- 100 -->
      <g transform="translate(256.030838 239.238437)scale(0.1 -0.1)">
       <use xlink:href="#DejaVuSans-49"/>
       <use x="63.623047" xlink:href="#DejaVuSans-48"/>
       <use x="127.246094" xlink:href="#DejaVuSans-48"/>
      </g>
     </g>
    </g>
    <g id="xtick_35">
     <g id="line2d_47">
      <g>
       <use style="stroke:#000000;stroke-width:0.8;" x="313.50587" xlink:href="#m12fd591318" y="224.64"/>
      </g>
     </g>
     <g id="text_11">
      <!-- 120 -->
      <g transform="translate(303.96212 239.238437)scale(0.1 -0.1)">
       <use xlink:href="#DejaVuSans-49"/>
       <use x="63.623047" xlink:href="#DejaVuSans-50"/>
       <use x="127.246094" xlink:href="#DejaVuSans-48"/>
      </g>
     </g>
    </g>
   </g>
   <g id="matplotlib.axis_10"/>
   <g id="line2d_48">
    <path clip-path="url(#p951817f8e8)" d="M 25.918182 216.617383 
L 42.69413 216.617383 
L 45.090694 211.831558 
L 61.866643 211.831558 
L 64.263207 208.196755 
L 81.039155 208.196755 
L 83.435719 207.712115 
L 100.211668 207.712115 
L 102.608232 213.479336 
L 119.38418 213.479336 
L 121.780744 214.012441 
L 138.556693 214.012441 
L 140.953257 219.961402 
L 157.729205 219.961402 
L 160.12577 194.566242 
L 176.901718 194.566242 
L 179.298282 183.128727 
L 196.07423 183.128727 
L 198.470795 185.043057 
L 215.246743 185.043057 
L 217.643307 191.949184 
L 234.419256 191.949184 
L 236.81582 206.112801 
L 253.591768 206.112801 
L 255.988332 222.554229 
L 291.936793 222.663273 
L 294.333357 221.076075 
L 311.109306 221.076075 
L 313.50587 219.198093 
L 330.281818 219.198093 
L 330.281818 219.198093 
" style="fill:none;stroke:#9467bd;stroke-linecap:square;stroke-width:1.5;"/>
   </g>
   <g id="patch_27">
    <path d="M 10.7 224.64 
L 10.7 181.152 
" style="fill:none;stroke:#000000;stroke-linecap:square;stroke-linejoin:miter;stroke-width:0.8;"/>
   </g>
   <g id="patch_28">
    <path d="M 345.5 224.64 
L 345.5 181.152 
" style="fill:none;stroke:#000000;stroke-linecap:square;stroke-linejoin:miter;stroke-width:0.8;"/>
   </g>
   <g id="patch_29">
    <path d="M 10.7 224.64 
L 345.5 224.64 
" style="fill:none;stroke:#000000;stroke-linecap:square;stroke-linejoin:miter;stroke-width:0.8;"/>
   </g>
   <g id="patch_30">
    <path d="M 10.7 181.152 
L 345.5 181.152 
" style="fill:none;stroke:#000000;stroke-linecap:square;stroke-linejoin:miter;stroke-width:0.8;"/>
   </g>
   <g id="legend_5">
    <g id="patch_31">
     <path d="M 352.5 211.735062 
L 506.170313 211.735062 
Q 508.170313 211.735062 508.170313 209.735062 
L 508.170313 196.056937 
Q 508.170313 194.056937 506.170313 194.056937 
L 352.5 194.056937 
Q 350.5 194.056937 350.5 196.056937 
L 350.5 209.735062 
Q 350.5 211.735062 352.5 211.735062 
z
" style="fill:#ffffff;opacity:0.8;stroke:#cccccc;stroke-linejoin:miter;"/>
    </g>
    <g id="line2d_49">
     <path d="M 354.5 202.155375 
L 374.5 202.155375 
" style="fill:none;stroke:#9467bd;stroke-linecap:square;stroke-width:1.5;"/>
    </g>
    <g id="line2d_50"/>
    <g id="text_12">
     <!-- local mean per segment -->
     <g transform="translate(382.5 205.655375)scale(0.1 -0.1)">
      <defs>
       <path d="M 45.40625 27.984375 
Q 45.40625 37.75 41.375 43.109375 
Q 37.359375 48.484375 30.078125 48.484375 
Q 22.859375 48.484375 18.828125 43.109375 
Q 14.796875 37.75 14.796875 27.984375 
Q 14.796875 18.265625 18.828125 12.890625 
Q 22.859375 7.515625 30.078125 7.515625 
Q 37.359375 7.515625 41.375 12.890625 
Q 45.40625 18.265625 45.40625 27.984375 
z
M 54.390625 6.78125 
Q 54.390625 -7.171875 48.1875 -13.984375 
Q 42 -20.796875 29.203125 -20.796875 
Q 24.46875 -20.796875 20.265625 -20.09375 
Q 16.0625 -19.390625 12.109375 -17.921875 
L 12.109375 -9.1875 
Q 16.0625 -11.328125 19.921875 -12.34375 
Q 23.78125 -13.375 27.78125 -13.375 
Q 36.625 -13.375 41.015625 -8.765625 
Q 45.40625 -4.15625 45.40625 5.171875 
L 45.40625 9.625 
Q 42.625 4.78125 38.28125 2.390625 
Q 33.9375 0 27.875 0 
Q 17.828125 0 11.671875 7.65625 
Q 5.515625 15.328125 5.515625 27.984375 
Q 5.515625 40.671875 11.671875 48.328125 
Q 17.828125 56 27.875 56 
Q 33.9375 56 38.28125 53.609375 
Q 42.625 51.21875 45.40625 46.390625 
L 45.40625 54.6875 
L 54.390625 54.6875 
z
" id="DejaVuSans-103"/>
      </defs>
      <use xlink:href="#DejaVuSans-108"/>
      <use x="27.783203" xlink:href="#DejaVuSans-111"/>
      <use x="88.964844" xlink:href="#DejaVuSans-99"/>
      <use x="143.945312" xlink:href="#DejaVuSans-97"/>
      <use x="205.224609" xlink:href="#DejaVuSans-108"/>
      <use x="233.007812" xlink:href="#DejaVuSans-32"/>
      <use x="264.794922" xlink:href="#DejaVuSans-109"/>
      <use x="362.207031" xlink:href="#DejaVuSans-101"/>
      <use x="423.730469" xlink:href="#DejaVuSans-97"/>
      <use x="485.009766" xlink:href="#DejaVuSans-110"/>
      <use x="548.388672" xlink:href="#DejaVuSans-32"/>
      <use x="580.175781" xlink:href="#DejaVuSans-112"/>
      <use x="643.652344" xlink:href="#DejaVuSans-101"/>
      <use x="705.175781" xlink:href="#DejaVuSans-114"/>
      <use x="746.289062" xlink:href="#DejaVuSans-32"/>
      <use x="778.076172" xlink:href="#DejaVuSans-115"/>
      <use x="830.175781" xlink:href="#DejaVuSans-101"/>
      <use x="891.699219" xlink:href="#DejaVuSans-103"/>
      <use x="955.175781" xlink:href="#DejaVuSans-109"/>
      <use x="1052.587891" xlink:href="#DejaVuSans-101"/>
      <use x="1114.111328" xlink:href="#DejaVuSans-110"/>
      <use x="1177.490234" xlink:href="#DejaVuSans-116"/>
     </g>
    </g>
   </g>
  </g>
 </g>
 <defs>
  <clipPath id="p58b966328a">
   <rect height="43.488" width="334.8" x="10.7" y="7.2"/>
  </clipPath>
  <clipPath id="p6de4110392">
   <rect height="43.488" width="334.8" x="10.7" y="50.688"/>
  </clipPath>
  <clipPath id="p5ae66a4ce4">
   <rect height="43.488" width="334.8" x="10.7" y="94.176"/>
  </clipPath>
  <clipPath id="p3f751b6eb7">
   <rect height="43.488" width="334.8" x="10.7" y="137.664"/>
  </clipPath>
  <clipPath id="p951817f8e8">
   <rect height="43.488" width="334.8" x="10.7" y="181.152"/>
  </clipPath>
 </defs>
</svg>
