<?xml version="1.0" encoding="utf-8" standalone="no"?>
<!DOCTYPE svg PUBLIC "-//W3C//DTD SVG 1.1//EN"
  "http://www.w3.org/Graphics/SVG/1.1/DTD/svg11.dtd">
<!-- Created with matplotlib (https://matplotlib.org/) -->
<svg height="265.243125pt" version="1.1" viewBox="0 0 504.44375 265.243125" width="504.44375pt" xmlns="http://www.w3.org/2000/svg" xmlns:xlink="http://www.w3.org/1999/xlink">
 <metadata>
  <rdf:RDF xmlns:cc="http://creativecommons.org/ns#" xmlns:dc="http://purl.org/dc/elements/1.1/" xmlns:rdf="http://www.w3.org/1999/02/22-rdf-syntax-ns#">
   <cc:Work>
    <dc:type rdf:resource="http://purl.org/dc/dcmitype/StillImage"/>
    <dc:date>2021-02-06T09:43:36.004841</dc:date>
    <dc:format>image/svg+xml</dc:format>
    <dc:creator>
     <cc:Agent>
      <dc:title>Matplotlib v3.3.2, https://matplotlib.org/</dc:title>
     </cc:Agent>
    </dc:creator>
   </cc:Work>
  </rdf:RDF>
 </metadata>
 <defs>
  <style type="text/css">*{stroke-linecap:butt;stroke-linejoin:round;}</style>
 </defs>
 <g id="figure_1">
  <g id="patch_1">
   <path d="M 0 265.243125 
L 504.44375 265.243125 
L 504.44375 0 
L 0 0 
z
" style="fill:none;"/>
  </g>
  <g id="axes_1">
   <g id="patch_2">
    <path d="M 48.982813 33.717073 
L 383.782813 33.717073 
L 383.782813 7.2 
L 48.982813 7.2 
z
" style="fill:#ffffff;"/>
   </g>
   <g id="patch_3">
    <path clip-path="url(#p7328ae07a0)" d="M 54.214062 30.566832 
L 64.676563 30.566832 
L 64.676563 30.566832 
L 54.214062 30.566832 
z
" style="fill:#1f77b4;"/>
   </g>
   <g id="patch_4">
    <path clip-path="url(#p7328ae07a0)" d="M 75.139062 30.566832 
L 85.601562 30.566832 
L 85.601562 31.865408 
L 75.139062 31.865408 
z
" style="fill:#1f77b4;"/>
   </g>
   <g id="patch_5">
    <path clip-path="url(#p7328ae07a0)" d="M 96.064063 30.566832 
L 106.526563 30.566832 
L 106.526563 30.341938 
L 96.064063 30.341938 
z
" style="fill:#1f77b4;"/>
   </g>
   <g id="patch_6">
    <path clip-path="url(#p7328ae07a0)" d="M 116.989063 30.566832 
L 127.451563 30.566832 
L 127.451563 30.566832 
L 116.989063 30.566832 
z
" style="fill:#1f77b4;"/>
   </g>
   <g id="patch_7">
    <path clip-path="url(#p7328ae07a0)" d="M 137.914062 30.566832 
L 148.376563 30.566832 
L 148.376563 28.929832 
L 137.914062 28.929832 
z
" style="fill:#1f77b4;"/>
   </g>
   <g id="patch_8">
    <path clip-path="url(#p7328ae07a0)" d="M 158.839063 30.566832 
L 169.301563 30.566832 
L 169.301563 30.85721 
L 158.839063 30.85721 
z
" style="fill:#1f77b4;"/>
   </g>
   <g id="patch_9">
    <path clip-path="url(#p7328ae07a0)" d="M 179.764063 30.566832 
L 190.226563 30.566832 
L 190.226563 30.566832 
L 179.764063 30.566832 
z
" style="fill:#1f77b4;"/>
   </g>
   <g id="patch_10">
    <path clip-path="url(#p7328ae07a0)" d="M 200.689063 30.566832 
L 211.151563 30.566832 
L 211.151563 30.238326 
L 200.689063 30.238326 
z
" style="fill:#1f77b4;"/>
   </g>
   <g id="patch_11">
    <path clip-path="url(#p7328ae07a0)" d="M 221.614063 30.566832 
L 232.076563 30.566832 
L 232.076563 30.790733 
L 221.614063 30.790733 
z
" style="fill:#1f77b4;"/>
   </g>
   <g id="patch_12">
    <path clip-path="url(#p7328ae07a0)" d="M 242.539062 30.566832 
L 253.001563 30.566832 
L 253.001563 30.566832 
L 242.539062 30.566832 
z
" style="fill:#1f77b4;"/>
   </g>
   <g id="patch_13">
    <path clip-path="url(#p7328ae07a0)" d="M 263.464063 30.566832 
L 273.926562 30.566832 
L 273.926562 32.511752 
L 263.464063 32.511752 
z
" style="fill:#1f77b4;"/>
   </g>
   <g id="patch_14">
    <path clip-path="url(#p7328ae07a0)" d="M 284.389063 30.566832 
L 294.851562 30.566832 
L 294.851562 30.408024 
L 284.389063 30.408024 
z
" style="fill:#1f77b4;"/>
   </g>
   <g id="patch_15">
    <path clip-path="url(#p7328ae07a0)" d="M 305.314062 30.566832 
L 315.776562 30.566832 
L 315.776562 31.488216 
L 305.314062 31.488216 
z
" style="fill:#1f77b4;"/>
   </g>
   <g id="patch_16">
    <path clip-path="url(#p7328ae07a0)" d="M 326.239062 30.566832 
L 336.701562 30.566832 
L 336.701562 30.566832 
L 326.239062 30.566832 
z
" style="fill:#1f77b4;"/>
   </g>
   <g id="patch_17">
    <path clip-path="url(#p7328ae07a0)" d="M 347.164062 30.566832 
L 357.626562 30.566832 
L 357.626562 29.203874 
L 347.164062 29.203874 
z
" style="fill:#1f77b4;"/>
   </g>
   <g id="patch_18">
    <path clip-path="url(#p7328ae07a0)" d="M 368.089063 30.566832 
L 378.551562 30.566832 
L 378.551562 8.405322 
L 368.089063 8.405322 
z
" style="fill:#1f77b4;"/>
   </g>
   <g id="matplotlib.axis_1">
    <g id="xtick_1">
     <g id="line2d_1">
      <defs>
       <path d="M 0 0 
L 0 3.5 
" id="m3ff4ae8a3b" style="stroke:#000000;stroke-width:0.8;"/>
      </defs>
      <g>
       <use style="stroke:#000000;stroke-width:0.8;" x="59.445312" xlink:href="#m3ff4ae8a3b" y="33.717073"/>
      </g>
     </g>
    </g>
    <g id="xtick_2">
     <g id="line2d_2">
      <g>
       <use style="stroke:#000000;stroke-width:0.8;" x="80.370312" xlink:href="#m3ff4ae8a3b" y="33.717073"/>
      </g>
     </g>
    </g>
    <g id="xtick_3">
     <g id="line2d_3">
      <g>
       <use style="stroke:#000000;stroke-width:0.8;" x="101.295312" xlink:href="#m3ff4ae8a3b" y="33.717073"/>
      </g>
     </g>
    </g>
    <g id="xtick_4">
     <g id="line2d_4">
      <g>
       <use style="stroke:#000000;stroke-width:0.8;" x="122.220313" xlink:href="#m3ff4ae8a3b" y="33.717073"/>
      </g>
     </g>
    </g>
    <g id="xtick_5">
     <g id="line2d_5">
      <g>
       <use style="stroke:#000000;stroke-width:0.8;" x="143.145312" xlink:href="#m3ff4ae8a3b" y="33.717073"/>
      </g>
     </g>
    </g>
    <g id="xtick_6">
     <g id="line2d_6">
      <g>
       <use style="stroke:#000000;stroke-width:0.8;" x="164.070312" xlink:href="#m3ff4ae8a3b" y="33.717073"/>
      </g>
     </g>
    </g>
    <g id="xtick_7">
     <g id="line2d_7">
      <g>
       <use style="stroke:#000000;stroke-width:0.8;" x="184.995313" xlink:href="#m3ff4ae8a3b" y="33.717073"/>
      </g>
     </g>
    </g>
    <g id="xtick_8">
     <g id="line2d_8">
      <g>
       <use style="stroke:#000000;stroke-width:0.8;" x="205.920312" xlink:href="#m3ff4ae8a3b" y="33.717073"/>
      </g>
     </g>
    </g>
    <g id="xtick_9">
     <g id="line2d_9">
      <g>
       <use style="stroke:#000000;stroke-width:0.8;" x="226.845313" xlink:href="#m3ff4ae8a3b" y="33.717073"/>
      </g>
     </g>
    </g>
    <g id="xtick_10">
     <g id="line2d_10">
      <g>
       <use style="stroke:#000000;stroke-width:0.8;" x="247.770313" xlink:href="#m3ff4ae8a3b" y="33.717073"/>
      </g>
     </g>
    </g>
    <g id="xtick_11">
     <g id="line2d_11">
      <g>
       <use style="stroke:#000000;stroke-width:0.8;" x="268.695312" xlink:href="#m3ff4ae8a3b" y="33.717073"/>
      </g>
     </g>
    </g>
    <g id="xtick_12">
     <g id="line2d_12">
      <g>
       <use style="stroke:#000000;stroke-width:0.8;" x="289.620313" xlink:href="#m3ff4ae8a3b" y="33.717073"/>
      </g>
     </g>
    </g>
    <g id="xtick_13">
     <g id="line2d_13">
      <g>
       <use style="stroke:#000000;stroke-width:0.8;" x="310.545313" xlink:href="#m3ff4ae8a3b" y="33.717073"/>
      </g>
     </g>
    </g>
    <g id="xtick_14">
     <g id="line2d_14">
      <g>
       <use style="stroke:#000000;stroke-width:0.8;" x="331.470313" xlink:href="#m3ff4ae8a3b" y="33.717073"/>
      </g>
     </g>
    </g>
    <g id="xtick_15">
     <g id="line2d_15">
      <g>
       <use style="stroke:#000000;stroke-width:0.8;" x="352.395312" xlink:href="#m3ff4ae8a3b" y="33.717073"/>
      </g>
     </g>
    </g>
    <g id="xtick_16">
     <g id="line2d_16">
      <g>
       <use style="stroke:#000000;stroke-width:0.8;" x="373.320312" xlink:href="#m3ff4ae8a3b" y="33.717073"/>
      </g>
     </g>
    </g>
   </g>
   <g id="matplotlib.axis_2">
    <g id="ytick_1">
     <g id="line2d_17">
      <defs>
       <path d="M 0 0 
L -3.5 0 
" id="m964801694d" style="stroke:#000000;stroke-width:0.8;"/>
      </defs>
      <g>
       <use style="stroke:#000000;stroke-width:0.8;" x="48.982813" xlink:href="#m964801694d" y="30.566832"/>
      </g>
     </g>
     <g id="text_1">
      <!-- 0 -->
      <g transform="translate(35.620312 34.366051)scale(0.1 -0.1)">
       <defs>
        <path d="M 31.78125 66.40625 
Q 24.171875 66.40625 20.328125 58.90625 
Q 16.5 51.421875 16.5 36.375 
Q 16.5 21.390625 20.328125 13.890625 
Q 24.171875 6.390625 31.78125 6.390625 
Q 39.453125 6.390625 43.28125 13.890625 
Q 47.125 21.390625 47.125 36.375 
Q 47.125 51.421875 43.28125 58.90625 
Q 39.453125 66.40625 31.78125 66.40625 
z
M 31.78125 74.21875 
Q 44.046875 74.21875 50.515625 64.515625 
Q 56.984375 54.828125 56.984375 36.375 
Q 56.984375 17.96875 50.515625 8.265625 
Q 44.046875 -1.421875 31.78125 -1.421875 
Q 19.53125 -1.421875 13.0625 8.265625 
Q 6.59375 17.96875 6.59375 36.375 
Q 6.59375 54.828125 13.0625 64.515625 
Q 19.53125 74.21875 31.78125 74.21875 
z
" id="DejaVuSans-48"/>
       </defs>
       <use xlink:href="#DejaVuSans-48"/>
      </g>
     </g>
    </g>
    <g id="ytick_2">
     <g id="line2d_18">
      <g>
       <use style="stroke:#000000;stroke-width:0.8;" x="48.982813" xlink:href="#m964801694d" y="11.697181"/>
      </g>
     </g>
     <g id="text_2">
      <!-- 200 -->
      <g transform="translate(22.895312 15.4964)scale(0.1 -0.1)">
       <defs>
        <path d="M 19.1875 8.296875 
L 53.609375 8.296875 
L 53.609375 0 
L 7.328125 0 
L 7.328125 8.296875 
Q 12.9375 14.109375 22.625 23.890625 
Q 32.328125 33.6875 34.8125 36.53125 
Q 39.546875 41.84375 41.421875 45.53125 
Q 43.3125 49.21875 43.3125 52.78125 
Q 43.3125 58.59375 39.234375 62.25 
Q 35.15625 65.921875 28.609375 65.921875 
Q 23.96875 65.921875 18.8125 64.3125 
Q 13.671875 62.703125 7.8125 59.421875 
L 7.8125 69.390625 
Q 13.765625 71.78125 18.9375 73 
Q 24.125 74.21875 28.421875 74.21875 
Q 39.75 74.21875 46.484375 68.546875 
Q 53.21875 62.890625 53.21875 53.421875 
Q 53.21875 48.921875 51.53125 44.890625 
Q 49.859375 40.875 45.40625 35.40625 
Q 44.1875 33.984375 37.640625 27.21875 
Q 31.109375 20.453125 19.1875 8.296875 
z
" id="DejaVuSans-50"/>
       </defs>
       <use xlink:href="#DejaVuSans-50"/>
       <use x="63.623047" xlink:href="#DejaVuSans-48"/>
       <use x="127.246094" xlink:href="#DejaVuSans-48"/>
      </g>
     </g>
    </g>
   </g>
   <g id="patch_19">
    <path d="M 48.982813 33.717073 
L 48.982813 7.2 
" style="fill:none;stroke:#000000;stroke-linecap:square;stroke-linejoin:miter;stroke-width:0.8;"/>
   </g>
   <g id="patch_20">
    <path d="M 383.782813 33.717073 
L 383.782813 7.2 
" style="fill:none;stroke:#000000;stroke-linecap:square;stroke-linejoin:miter;stroke-width:0.8;"/>
   </g>
   <g id="patch_21">
    <path d="M 48.982813 33.717073 
L 383.782813 33.717073 
" style="fill:none;stroke:#000000;stroke-linecap:square;stroke-linejoin:miter;stroke-width:0.8;"/>
   </g>
   <g id="patch_22">
    <path d="M 48.982813 7.2 
L 383.782813 7.2 
" style="fill:none;stroke:#000000;stroke-linecap:square;stroke-linejoin:miter;stroke-width:0.8;"/>
   </g>
   <g id="legend_1">
    <g id="patch_23">
     <path d="M 390.782813 29.297599 
L 443.4625 29.297599 
Q 445.4625 29.297599 445.4625 27.297599 
L 445.4625 13.619474 
Q 445.4625 11.619474 443.4625 11.619474 
L 390.782813 11.619474 
Q 388.782813 11.619474 388.782813 13.619474 
L 388.782813 27.297599 
Q 388.782813 29.297599 390.782813 29.297599 
z
" style="fill:#ffffff;opacity:0.8;stroke:#cccccc;stroke-linejoin:miter;"/>
    </g>
    <g id="patch_24">
     <path d="M 392.782813 23.217912 
L 412.782813 23.217912 
L 412.782813 16.217912 
L 392.782813 16.217912 
z
" style="fill:#1f77b4;"/>
    </g>
    <g id="text_3">
     <!-- dew -->
     <g transform="translate(420.782813 23.217912)scale(0.1 -0.1)">
      <defs>
       <path d="M 45.40625 46.390625 
L 45.40625 75.984375 
L 54.390625 75.984375 
L 54.390625 0 
L 45.40625 0 
L 45.40625 8.203125 
Q 42.578125 3.328125 38.25 0.953125 
Q 33.9375 -1.421875 27.875 -1.421875 
Q 17.96875 -1.421875 11.734375 6.484375 
Q 5.515625 14.40625 5.515625 27.296875 
Q 5.515625 40.1875 11.734375 48.09375 
Q 17.96875 56 27.875 56 
Q 33.9375 56 38.25 53.625 
Q 42.578125 51.265625 45.40625 46.390625 
z
M 14.796875 27.296875 
Q 14.796875 17.390625 18.875 11.75 
Q 22.953125 6.109375 30.078125 6.109375 
Q 37.203125 6.109375 41.296875 11.75 
Q 45.40625 17.390625 45.40625 27.296875 
Q 45.40625 37.203125 41.296875 42.84375 
Q 37.203125 48.484375 30.078125 48.484375 
Q 22.953125 48.484375 18.875 42.84375 
Q 14.796875 37.203125 14.796875 27.296875 
z
" id="DejaVuSans-100"/>
       <path d="M 56.203125 29.59375 
L 56.203125 25.203125 
L 14.890625 25.203125 
Q 15.484375 15.921875 20.484375 11.0625 
Q 25.484375 6.203125 34.421875 6.203125 
Q 39.59375 6.203125 44.453125 7.46875 
Q 49.3125 8.734375 54.109375 11.28125 
L 54.109375 2.78125 
Q 49.265625 0.734375 44.1875 -0.34375 
Q 39.109375 -1.421875 33.890625 -1.421875 
Q 20.796875 -1.421875 13.15625 6.1875 
Q 5.515625 13.8125 5.515625 26.8125 
Q 5.515625 40.234375 12.765625 48.109375 
Q 20.015625 56 32.328125 56 
Q 43.359375 56 49.78125 48.890625 
Q 56.203125 41.796875 56.203125 29.59375 
z
M 47.21875 32.234375 
Q 47.125 39.59375 43.09375 43.984375 
Q 39.0625 48.390625 32.421875 48.390625 
Q 24.90625 48.390625 20.390625 44.140625 
Q 15.875 39.890625 15.1875 32.171875 
z
" id="DejaVuSans-101"/>
       <path d="M 4.203125 54.6875 
L 13.1875 54.6875 
L 24.421875 12.015625 
L 35.59375 54.6875 
L 46.1875 54.6875 
L 57.421875 12.015625 
L 68.609375 54.6875 
L 77.59375 54.6875 
L 63.28125 0 
L 52.6875 0 
L 40.921875 44.828125 
L 29.109375 0 
L 18.5 0 
z
" id="DejaVuSans-119"/>
      </defs>
      <use xlink:href="#DejaVuSans-100"/>
      <use x="63.476562" xlink:href="#DejaVuSans-101"/>
      <use x="125" xlink:href="#DejaVuSans-119"/>
     </g>
    </g>
   </g>
  </g>
  <g id="axes_2">
   <g id="patch_25">
    <path d="M 48.982813 65.537561 
L 383.782813 65.537561 
L 383.782813 39.020488 
L 48.982813 39.020488 
z
" style="fill:#ffffff;"/>
   </g>
   <g id="patch_26">
    <path clip-path="url(#p9ccba0e959)" d="M 54.214062 49.198038 
L 64.676563 49.198038 
L 64.676563 49.198038 
L 54.214062 49.198038 
z
" style="fill:#ff7f0e;"/>
   </g>
   <g id="patch_27">
    <path clip-path="url(#p9ccba0e959)" d="M 75.139062 49.198038 
L 85.601562 49.198038 
L 85.601562 49.198038 
L 75.139062 49.198038 
z
" style="fill:#ff7f0e;"/>
   </g>
   <g id="patch_28">
    <path clip-path="url(#p9ccba0e959)" d="M 96.064063 49.198038 
L 106.526563 49.198038 
L 106.526563 49.198038 
L 96.064063 49.198038 
z
" style="fill:#ff7f0e;"/>
   </g>
   <g id="patch_29">
    <path clip-path="url(#p9ccba0e959)" d="M 116.989063 49.198038 
L 127.451563 49.198038 
L 127.451563 49.198038 
L 116.989063 49.198038 
z
" style="fill:#ff7f0e;"/>
   </g>
   <g id="patch_30">
    <path clip-path="url(#p9ccba0e959)" d="M 137.914062 49.198038 
L 148.376563 49.198038 
L 148.376563 40.225809 
L 137.914062 40.225809 
z
" style="fill:#ff7f0e;"/>
   </g>
   <g id="patch_31">
    <path clip-path="url(#p9ccba0e959)" d="M 158.839063 49.198038 
L 169.301563 49.198038 
L 169.301563 49.198038 
L 158.839063 49.198038 
z
" style="fill:#ff7f0e;"/>
   </g>
   <g id="patch_32">
    <path clip-path="url(#p9ccba0e959)" d="M 179.764063 49.198038 
L 190.226563 49.198038 
L 190.226563 64.332239 
L 179.764063 64.332239 
z
" style="fill:#ff7f0e;"/>
   </g>
   <g id="patch_33">
    <path clip-path="url(#p9ccba0e959)" d="M 200.689063 49.198038 
L 211.151563 49.198038 
L 211.151563 49.370906 
L 200.689063 49.370906 
z
" style="fill:#ff7f0e;"/>
   </g>
   <g id="patch_34">
    <path clip-path="url(#p9ccba0e959)" d="M 221.614063 49.198038 
L 232.076563 49.198038 
L 232.076563 49.198038 
L 221.614063 49.198038 
z
" style="fill:#ff7f0e;"/>
   </g>
   <g id="patch_35">
    <path clip-path="url(#p9ccba0e959)" d="M 242.539062 49.198038 
L 253.001563 49.198038 
L 253.001563 49.198038 
L 242.539062 49.198038 
z
" style="fill:#ff7f0e;"/>
   </g>
   <g id="patch_36">
    <path clip-path="url(#p9ccba0e959)" d="M 263.464063 49.198038 
L 273.926562 49.198038 
L 273.926562 54.278782 
L 263.464063 54.278782 
z
" style="fill:#ff7f0e;"/>
   </g>
   <g id="patch_37">
    <path clip-path="url(#p9ccba0e959)" d="M 284.389063 49.198038 
L 294.851562 49.198038 
L 294.851562 46.075581 
L 284.389063 46.075581 
z
" style="fill:#ff7f0e;"/>
   </g>
   <g id="patch_38">
    <path clip-path="url(#p9ccba0e959)" d="M 305.314062 49.198038 
L 315.776562 49.198038 
L 315.776562 56.035903 
L 305.314062 56.035903 
z
" style="fill:#ff7f0e;"/>
   </g>
   <g id="patch_39">
    <path clip-path="url(#p9ccba0e959)" d="M 326.239062 49.198038 
L 336.701562 49.198038 
L 336.701562 49.198038 
L 326.239062 49.198038 
z
" style="fill:#ff7f0e;"/>
   </g>
   <g id="patch_40">
    <path clip-path="url(#p9ccba0e959)" d="M 347.164062 49.198038 
L 357.626562 49.198038 
L 357.626562 61.733024 
L 347.164062 61.733024 
z
" style="fill:#ff7f0e;"/>
   </g>
   <g id="patch_41">
    <path clip-path="url(#p9ccba0e959)" d="M 368.089063 49.198038 
L 378.551562 49.198038 
L 378.551562 58.397929 
L 368.089063 58.397929 
z
" style="fill:#ff7f0e;"/>
   </g>
   <g id="matplotlib.axis_3">
    <g id="xtick_17">
     <g id="line2d_19">
      <g>
       <use style="stroke:#000000;stroke-width:0.8;" x="59.445312" xlink:href="#m3ff4ae8a3b" y="65.537561"/>
      </g>
     </g>
    </g>
    <g id="xtick_18">
     <g id="line2d_20">
      <g>
       <use style="stroke:#000000;stroke-width:0.8;" x="80.370312" xlink:href="#m3ff4ae8a3b" y="65.537561"/>
      </g>
     </g>
    </g>
    <g id="xtick_19">
     <g id="line2d_21">
      <g>
       <use style="stroke:#000000;stroke-width:0.8;" x="101.295312" xlink:href="#m3ff4ae8a3b" y="65.537561"/>
      </g>
     </g>
    </g>
    <g id="xtick_20">
     <g id="line2d_22">
      <g>
       <use style="stroke:#000000;stroke-width:0.8;" x="122.220313" xlink:href="#m3ff4ae8a3b" y="65.537561"/>
      </g>
     </g>
    </g>
    <g id="xtick_21">
     <g id="line2d_23">
      <g>
       <use style="stroke:#000000;stroke-width:0.8;" x="143.145312" xlink:href="#m3ff4ae8a3b" y="65.537561"/>
      </g>
     </g>
    </g>
    <g id="xtick_22">
     <g id="line2d_24">
      <g>
       <use style="stroke:#000000;stroke-width:0.8;" x="164.070312" xlink:href="#m3ff4ae8a3b" y="65.537561"/>
      </g>
     </g>
    </g>
    <g id="xtick_23">
     <g id="line2d_25">
      <g>
       <use style="stroke:#000000;stroke-width:0.8;" x="184.995313" xlink:href="#m3ff4ae8a3b" y="65.537561"/>
      </g>
     </g>
    </g>
    <g id="xtick_24">
     <g id="line2d_26">
      <g>
       <use style="stroke:#000000;stroke-width:0.8;" x="205.920312" xlink:href="#m3ff4ae8a3b" y="65.537561"/>
      </g>
     </g>
    </g>
    <g id="xtick_25">
     <g id="line2d_27">
      <g>
       <use style="stroke:#000000;stroke-width:0.8;" x="226.845313" xlink:href="#m3ff4ae8a3b" y="65.537561"/>
      </g>
     </g>
    </g>
    <g id="xtick_26">
     <g id="line2d_28">
      <g>
       <use style="stroke:#000000;stroke-width:0.8;" x="247.770313" xlink:href="#m3ff4ae8a3b" y="65.537561"/>
      </g>
     </g>
    </g>
    <g id="xtick_27">
     <g id="line2d_29">
      <g>
       <use style="stroke:#000000;stroke-width:0.8;" x="268.695312" xlink:href="#m3ff4ae8a3b" y="65.537561"/>
      </g>
     </g>
    </g>
    <g id="xtick_28">
     <g id="line2d_30">
      <g>
       <use style="stroke:#000000;stroke-width:0.8;" x="289.620313" xlink:href="#m3ff4ae8a3b" y="65.537561"/>
      </g>
     </g>
    </g>
    <g id="xtick_29">
     <g id="line2d_31">
      <g>
       <use style="stroke:#000000;stroke-width:0.8;" x="310.545313" xlink:href="#m3ff4ae8a3b" y="65.537561"/>
      </g>
     </g>
    </g>
    <g id="xtick_30">
     <g id="line2d_32">
      <g>
       <use style="stroke:#000000;stroke-width:0.8;" x="331.470313" xlink:href="#m3ff4ae8a3b" y="65.537561"/>
      </g>
     </g>
    </g>
    <g id="xtick_31">
     <g id="line2d_33">
      <g>
       <use style="stroke:#000000;stroke-width:0.8;" x="352.395312" xlink:href="#m3ff4ae8a3b" y="65.537561"/>
      </g>
     </g>
    </g>
    <g id="xtick_32">
     <g id="line2d_34">
      <g>
       <use style="stroke:#000000;stroke-width:0.8;" x="373.320312" xlink:href="#m3ff4ae8a3b" y="65.537561"/>
      </g>
     </g>
    </g>
   </g>
   <g id="matplotlib.axis_4">
    <g id="ytick_3">
     <g id="line2d_35">
      <g>
       <use style="stroke:#000000;stroke-width:0.8;" x="48.982813" xlink:href="#m964801694d" y="63.001782"/>
      </g>
     </g>
     <g id="text_4">
      <!-- −20 -->
      <g transform="translate(20.878125 66.801001)scale(0.1 -0.1)">
       <defs>
        <path d="M 10.59375 35.5 
L 73.1875 35.5 
L 73.1875 27.203125 
L 10.59375 27.203125 
z
" id="DejaVuSans-8722"/>
       </defs>
       <use xlink:href="#DejaVuSans-8722"/>
       <use x="83.789062" xlink:href="#DejaVuSans-50"/>
       <use x="147.412109" xlink:href="#DejaVuSans-48"/>
      </g>
     </g>
    </g>
    <g id="ytick_4">
     <g id="line2d_36">
      <g>
       <use style="stroke:#000000;stroke-width:0.8;" x="48.982813" xlink:href="#m964801694d" y="49.198038"/>
      </g>
     </g>
     <g id="text_5">
      <!-- 0 -->
      <g transform="translate(35.620312 52.997256)scale(0.1 -0.1)">
       <use xlink:href="#DejaVuSans-48"/>
      </g>
     </g>
    </g>
   </g>
   <g id="patch_42">
    <path d="M 48.982813 65.537561 
L 48.982813 39.020488 
" style="fill:none;stroke:#000000;stroke-linecap:square;stroke-linejoin:miter;stroke-width:0.8;"/>
   </g>
   <g id="patch_43">
    <path d="M 383.782813 65.537561 
L 383.782813 39.020488 
" style="fill:none;stroke:#000000;stroke-linecap:square;stroke-linejoin:miter;stroke-width:0.8;"/>
   </g>
   <g id="patch_44">
    <path d="M 48.982813 65.537561 
L 383.782813 65.537561 
" style="fill:none;stroke:#000000;stroke-linecap:square;stroke-linejoin:miter;stroke-width:0.8;"/>
   </g>
   <g id="patch_45">
    <path d="M 48.982813 39.020488 
L 383.782813 39.020488 
" style="fill:none;stroke:#000000;stroke-linecap:square;stroke-linejoin:miter;stroke-width:0.8;"/>
   </g>
   <g id="legend_2">
    <g id="patch_46">
     <path d="M 390.782813 61.118087 
L 448.945312 61.118087 
Q 450.945312 61.118087 450.945312 59.118087 
L 450.945312 45.439962 
Q 450.945312 43.439962 448.945312 43.439962 
L 390.782813 43.439962 
Q 388.782813 43.439962 388.782813 45.439962 
L 388.782813 59.118087 
Q 388.782813 61.118087 390.782813 61.118087 
z
" style="fill:#ffffff;opacity:0.8;stroke:#cccccc;stroke-linejoin:miter;"/>
    </g>
    <g id="patch_47">
     <path d="M 392.782813 55.038399 
L 412.782813 55.038399 
L 412.782813 48.038399 
L 392.782813 48.038399 
z
" style="fill:#ff7f0e;"/>
    </g>
    <g id="text_6">
     <!-- temp -->
     <g transform="translate(420.782813 55.038399)scale(0.1 -0.1)">
      <defs>
       <path d="M 18.3125 70.21875 
L 18.3125 54.6875 
L 36.8125 54.6875 
L 36.8125 47.703125 
L 18.3125 47.703125 
L 18.3125 18.015625 
Q 18.3125 11.328125 20.140625 9.421875 
Q 21.96875 7.515625 27.59375 7.515625 
L 36.8125 7.515625 
L 36.8125 0 
L 27.59375 0 
Q 17.1875 0 13.234375 3.875 
Q 9.28125 7.765625 9.28125 18.015625 
L 9.28125 47.703125 
L 2.6875 47.703125 
L 2.6875 54.6875 
L 9.28125 54.6875 
L 9.28125 70.21875 
z
" id="DejaVuSans-116"/>
       <path d="M 52 44.1875 
Q 55.375 50.25 60.0625 53.125 
Q 64.75 56 71.09375 56 
Q 79.640625 56 84.28125 50.015625 
Q 88.921875 44.046875 88.921875 33.015625 
L 88.921875 0 
L 79.890625 0 
L 79.890625 32.71875 
Q 79.890625 40.578125 77.09375 44.375 
Q 74.3125 48.1875 68.609375 48.1875 
Q 61.625 48.1875 57.5625 43.546875 
Q 53.515625 38.921875 53.515625 30.90625 
L 53.515625 0 
L 44.484375 0 
L 44.484375 32.71875 
Q 44.484375 40.625 41.703125 44.40625 
Q 38.921875 48.1875 33.109375 48.1875 
Q 26.21875 48.1875 22.15625 43.53125 
Q 18.109375 38.875 18.109375 30.90625 
L 18.109375 0 
L 9.078125 0 
L 9.078125 54.6875 
L 18.109375 54.6875 
L 18.109375 46.1875 
Q 21.1875 51.21875 25.484375 53.609375 
Q 29.78125 56 35.6875 56 
Q 41.65625 56 45.828125 52.96875 
Q 50 49.953125 52 44.1875 
z
" id="DejaVuSans-109"/>
       <path d="M 18.109375 8.203125 
L 18.109375 -20.796875 
L 9.078125 -20.796875 
L 9.078125 54.6875 
L 18.109375 54.6875 
L 18.109375 46.390625 
Q 20.953125 51.265625 25.265625 53.625 
Q 29.59375 56 35.59375 56 
Q 45.5625 56 51.78125 48.09375 
Q 58.015625 40.1875 58.015625 27.296875 
Q 58.015625 14.40625 51.78125 6.484375 
Q 45.5625 -1.421875 35.59375 -1.421875 
Q 29.59375 -1.421875 25.265625 0.953125 
Q 20.953125 3.328125 18.109375 8.203125 
z
M 48.6875 27.296875 
Q 48.6875 37.203125 44.609375 42.84375 
Q 40.53125 48.484375 33.40625 48.484375 
Q 26.265625 48.484375 22.1875 42.84375 
Q 18.109375 37.203125 18.109375 27.296875 
Q 18.109375 17.390625 22.1875 11.75 
Q 26.265625 6.109375 33.40625 6.109375 
Q 40.53125 6.109375 44.609375 11.75 
Q 48.6875 17.390625 48.6875 27.296875 
z
" id="DejaVuSans-112"/>
      </defs>
      <use xlink:href="#DejaVuSans-116"/>
      <use x="39.208984" xlink:href="#DejaVuSans-101"/>
      <use x="100.732422" xlink:href="#DejaVuSans-109"/>
      <use x="198.144531" xlink:href="#DejaVuSans-112"/>
     </g>
    </g>
   </g>
  </g>
  <g id="axes_3">
   <g id="patch_48">
    <path d="M 48.982813 97.358049 
L 383.782813 97.358049 
L 383.782813 70.840976 
L 48.982813 70.840976 
z
" style="fill:#ffffff;"/>
   </g>
   <g id="patch_49">
    <path clip-path="url(#pcfeb04e9d2)" d="M 54.214062 77.231605 
L 64.676563 77.231605 
L 64.676563 75.635388 
L 54.214062 75.635388 
z
" style="fill:#2ca02c;"/>
   </g>
   <g id="patch_50">
    <path clip-path="url(#pcfeb04e9d2)" d="M 75.139062 77.231605 
L 85.601562 77.231605 
L 85.601562 77.231605 
L 75.139062 77.231605 
z
" style="fill:#2ca02c;"/>
   </g>
   <g id="patch_51">
    <path clip-path="url(#pcfeb04e9d2)" d="M 96.064063 77.231605 
L 106.526563 77.231605 
L 106.526563 77.231605 
L 96.064063 77.231605 
z
" style="fill:#2ca02c;"/>
   </g>
   <g id="patch_52">
    <path clip-path="url(#pcfeb04e9d2)" d="M 116.989063 77.231605 
L 127.451563 77.231605 
L 127.451563 77.231605 
L 116.989063 77.231605 
z
" style="fill:#2ca02c;"/>
   </g>
   <g id="patch_53">
    <path clip-path="url(#pcfeb04e9d2)" d="M 137.914062 77.231605 
L 148.376563 77.231605 
L 148.376563 81.801118 
L 137.914062 81.801118 
z
" style="fill:#2ca02c;"/>
   </g>
   <g id="patch_54">
    <path clip-path="url(#pcfeb04e9d2)" d="M 158.839063 77.231605 
L 169.301563 77.231605 
L 169.301563 77.231605 
L 158.839063 77.231605 
z
" style="fill:#2ca02c;"/>
   </g>
   <g id="patch_55">
    <path clip-path="url(#pcfeb04e9d2)" d="M 179.764063 77.231605 
L 190.226563 77.231605 
L 190.226563 77.231605 
L 179.764063 77.231605 
z
" style="fill:#2ca02c;"/>
   </g>
   <g id="patch_56">
    <path clip-path="url(#pcfeb04e9d2)" d="M 200.689063 77.231605 
L 211.151563 77.231605 
L 211.151563 75.844933 
L 200.689063 75.844933 
z
" style="fill:#2ca02c;"/>
   </g>
   <g id="patch_57">
    <path clip-path="url(#pcfeb04e9d2)" d="M 221.614063 77.231605 
L 232.076563 77.231605 
L 232.076563 72.301653 
L 221.614063 72.301653 
z
" style="fill:#2ca02c;"/>
   </g>
   <g id="patch_58">
    <path clip-path="url(#pcfeb04e9d2)" d="M 242.539062 77.231605 
L 253.001563 77.231605 
L 253.001563 78.407146 
L 242.539062 78.407146 
z
" style="fill:#2ca02c;"/>
   </g>
   <g id="patch_59">
    <path clip-path="url(#pcfeb04e9d2)" d="M 263.464063 77.231605 
L 273.926562 77.231605 
L 273.926562 79.794438 
L 263.464063 79.794438 
z
" style="fill:#2ca02c;"/>
   </g>
   <g id="patch_60">
    <path clip-path="url(#pcfeb04e9d2)" d="M 284.389063 77.231605 
L 294.851562 77.231605 
L 294.851562 77.231605 
L 284.389063 77.231605 
z
" style="fill:#2ca02c;"/>
   </g>
   <g id="patch_61">
    <path clip-path="url(#pcfeb04e9d2)" d="M 305.314062 77.231605 
L 315.776562 77.231605 
L 315.776562 75.417216 
L 305.314062 75.417216 
z
" style="fill:#2ca02c;"/>
   </g>
   <g id="patch_62">
    <path clip-path="url(#pcfeb04e9d2)" d="M 326.239062 77.231605 
L 336.701562 77.231605 
L 336.701562 76.929435 
L 326.239062 76.929435 
z
" style="fill:#2ca02c;"/>
   </g>
   <g id="patch_63">
    <path clip-path="url(#pcfeb04e9d2)" d="M 347.164062 77.231605 
L 357.626562 77.231605 
L 357.626562 72.046297 
L 347.164062 72.046297 
z
" style="fill:#2ca02c;"/>
   </g>
   <g id="patch_64">
    <path clip-path="url(#pcfeb04e9d2)" d="M 368.089063 77.231605 
L 378.551562 77.231605 
L 378.551562 96.152727 
L 368.089063 96.152727 
z
" style="fill:#2ca02c;"/>
   </g>
   <g id="matplotlib.axis_5">
    <g id="xtick_33">
     <g id="line2d_37">
      <g>
       <use style="stroke:#000000;stroke-width:0.8;" x="59.445312" xlink:href="#m3ff4ae8a3b" y="97.358049"/>
      </g>
     </g>
    </g>
    <g id="xtick_34">
     <g id="line2d_38">
      <g>
       <use style="stroke:#000000;stroke-width:0.8;" x="80.370312" xlink:href="#m3ff4ae8a3b" y="97.358049"/>
      </g>
     </g>
    </g>
    <g id="xtick_35">
     <g id="line2d_39">
      <g>
       <use style="stroke:#000000;stroke-width:0.8;" x="101.295312" xlink:href="#m3ff4ae8a3b" y="97.358049"/>
      </g>
     </g>
    </g>
    <g id="xtick_36">
     <g id="line2d_40">
      <g>
       <use style="stroke:#000000;stroke-width:0.8;" x="122.220313" xlink:href="#m3ff4ae8a3b" y="97.358049"/>
      </g>
     </g>
    </g>
    <g id="xtick_37">
     <g id="line2d_41">
      <g>
       <use style="stroke:#000000;stroke-width:0.8;" x="143.145312" xlink:href="#m3ff4ae8a3b" y="97.358049"/>
      </g>
     </g>
    </g>
    <g id="xtick_38">
     <g id="line2d_42">
      <g>
       <use style="stroke:#000000;stroke-width:0.8;" x="164.070312" xlink:href="#m3ff4ae8a3b" y="97.358049"/>
      </g>
     </g>
    </g>
    <g id="xtick_39">
     <g id="line2d_43">
      <g>
       <use style="stroke:#000000;stroke-width:0.8;" x="184.995313" xlink:href="#m3ff4ae8a3b" y="97.358049"/>
      </g>
     </g>
    </g>
    <g id="xtick_40">
     <g id="line2d_44">
      <g>
       <use style="stroke:#000000;stroke-width:0.8;" x="205.920312" xlink:href="#m3ff4ae8a3b" y="97.358049"/>
      </g>
     </g>
    </g>
    <g id="xtick_41">
     <g id="line2d_45">
      <g>
       <use style="stroke:#000000;stroke-width:0.8;" x="226.845313" xlink:href="#m3ff4ae8a3b" y="97.358049"/>
      </g>
     </g>
    </g>
    <g id="xtick_42">
     <g id="line2d_46">
      <g>
       <use style="stroke:#000000;stroke-width:0.8;" x="247.770313" xlink:href="#m3ff4ae8a3b" y="97.358049"/>
      </g>
     </g>
    </g>
    <g id="xtick_43">
     <g id="line2d_47">
      <g>
       <use style="stroke:#000000;stroke-width:0.8;" x="268.695312" xlink:href="#m3ff4ae8a3b" y="97.358049"/>
      </g>
     </g>
    </g>
    <g id="xtick_44">
     <g id="line2d_48">
      <g>
       <use style="stroke:#000000;stroke-width:0.8;" x="289.620313" xlink:href="#m3ff4ae8a3b" y="97.358049"/>
      </g>
     </g>
    </g>
    <g id="xtick_45">
     <g id="line2d_49">
      <g>
       <use style="stroke:#000000;stroke-width:0.8;" x="310.545313" xlink:href="#m3ff4ae8a3b" y="97.358049"/>
      </g>
     </g>
    </g>
    <g id="xtick_46">
     <g id="line2d_50">
      <g>
       <use style="stroke:#000000;stroke-width:0.8;" x="331.470313" xlink:href="#m3ff4ae8a3b" y="97.358049"/>
      </g>
     </g>
    </g>
    <g id="xtick_47">
     <g id="line2d_51">
      <g>
       <use style="stroke:#000000;stroke-width:0.8;" x="352.395312" xlink:href="#m3ff4ae8a3b" y="97.358049"/>
      </g>
     </g>
    </g>
    <g id="xtick_48">
     <g id="line2d_52">
      <g>
       <use style="stroke:#000000;stroke-width:0.8;" x="373.320312" xlink:href="#m3ff4ae8a3b" y="97.358049"/>
      </g>
     </g>
    </g>
   </g>
   <g id="matplotlib.axis_6">
    <g id="ytick_5">
     <g id="line2d_53">
      <g>
       <use style="stroke:#000000;stroke-width:0.8;" x="48.982813" xlink:href="#m964801694d" y="92.447623"/>
      </g>
     </g>
     <g id="text_7">
      <!-- −50 -->
      <g transform="translate(20.878125 96.246842)scale(0.1 -0.1)">
       <defs>
        <path d="M 10.796875 72.90625 
L 49.515625 72.90625 
L 49.515625 64.59375 
L 19.828125 64.59375 
L 19.828125 46.734375 
Q 21.96875 47.46875 24.109375 47.828125 
Q 26.265625 48.1875 28.421875 48.1875 
Q 40.625 48.1875 47.75 41.5 
Q 54.890625 34.8125 54.890625 23.390625 
Q 54.890625 11.625 47.5625 5.09375 
Q 40.234375 -1.421875 26.90625 -1.421875 
Q 22.3125 -1.421875 17.546875 -0.640625 
Q 12.796875 0.140625 7.71875 1.703125 
L 7.71875 11.625 
Q 12.109375 9.234375 16.796875 8.0625 
Q 21.484375 6.890625 26.703125 6.890625 
Q 35.15625 6.890625 40.078125 11.328125 
Q 45.015625 15.765625 45.015625 23.390625 
Q 45.015625 31 40.078125 35.4375 
Q 35.15625 39.890625 26.703125 39.890625 
Q 22.75 39.890625 18.8125 39.015625 
Q 14.890625 38.140625 10.796875 36.28125 
z
" id="DejaVuSans-53"/>
       </defs>
       <use xlink:href="#DejaVuSans-8722"/>
       <use x="83.789062" xlink:href="#DejaVuSans-53"/>
       <use x="147.412109" xlink:href="#DejaVuSans-48"/>
      </g>
     </g>
    </g>
    <g id="ytick_6">
     <g id="line2d_54">
      <g>
       <use style="stroke:#000000;stroke-width:0.8;" x="48.982813" xlink:href="#m964801694d" y="77.231605"/>
      </g>
     </g>
     <g id="text_8">
      <!-- 0 -->
      <g transform="translate(35.620312 81.030824)scale(0.1 -0.1)">
       <use xlink:href="#DejaVuSans-48"/>
      </g>
     </g>
    </g>
   </g>
   <g id="patch_65">
    <path d="M 48.982813 97.358049 
L 48.982813 70.840976 
" style="fill:none;stroke:#000000;stroke-linecap:square;stroke-linejoin:miter;stroke-width:0.8;"/>
   </g>
   <g id="patch_66">
    <path d="M 383.782813 97.358049 
L 383.782813 70.840976 
" style="fill:none;stroke:#000000;stroke-linecap:square;stroke-linejoin:miter;stroke-width:0.8;"/>
   </g>
   <g id="patch_67">
    <path d="M 48.982813 97.358049 
L 383.782813 97.358049 
" style="fill:none;stroke:#000000;stroke-linecap:square;stroke-linejoin:miter;stroke-width:0.8;"/>
   </g>
   <g id="patch_68">
    <path d="M 48.982813 70.840976 
L 383.782813 70.840976 
" style="fill:none;stroke:#000000;stroke-linecap:square;stroke-linejoin:miter;stroke-width:0.8;"/>
   </g>
   <g id="legend_3">
    <g id="patch_69">
     <path d="M 390.782813 92.938575 
L 449.589063 92.938575 
Q 451.589063 92.938575 451.589063 90.938575 
L 451.589063 77.26045 
Q 451.589063 75.26045 449.589063 75.26045 
L 390.782813 75.26045 
Q 388.782813 75.26045 388.782813 77.26045 
L 388.782813 90.938575 
Q 388.782813 92.938575 390.782813 92.938575 
z
" style="fill:#ffffff;opacity:0.8;stroke:#cccccc;stroke-linejoin:miter;"/>
    </g>
    <g id="patch_70">
     <path d="M 392.782813 86.858887 
L 412.782813 86.858887 
L 412.782813 79.858887 
L 392.782813 79.858887 
z
" style="fill:#2ca02c;"/>
    </g>
    <g id="text_9">
     <!-- press -->
     <g transform="translate(420.782813 86.858887)scale(0.1 -0.1)">
      <defs>
       <path d="M 41.109375 46.296875 
Q 39.59375 47.171875 37.8125 47.578125 
Q 36.03125 48 33.890625 48 
Q 26.265625 48 22.1875 43.046875 
Q 18.109375 38.09375 18.109375 28.8125 
L 18.109375 0 
L 9.078125 0 
L 9.078125 54.6875 
L 18.109375 54.6875 
L 18.109375 46.1875 
Q 20.953125 51.171875 25.484375 53.578125 
Q 30.03125 56 36.53125 56 
Q 37.453125 56 38.578125 55.875 
Q 39.703125 55.765625 41.0625 55.515625 
z
" id="DejaVuSans-114"/>
       <path d="M 44.28125 53.078125 
L 44.28125 44.578125 
Q 40.484375 46.53125 36.375 47.5 
Q 32.28125 48.484375 27.875 48.484375 
Q 21.1875 48.484375 17.84375 46.4375 
Q 14.5 44.390625 14.5 40.28125 
Q 14.5 37.15625 16.890625 35.375 
Q 19.28125 33.59375 26.515625 31.984375 
L 29.59375 31.296875 
Q 39.15625 29.25 43.1875 25.515625 
Q 47.21875 21.78125 47.21875 15.09375 
Q 47.21875 7.46875 41.1875 3.015625 
Q 35.15625 -1.421875 24.609375 -1.421875 
Q 20.21875 -1.421875 15.453125 -0.5625 
Q 10.6875 0.296875 5.421875 2 
L 5.421875 11.28125 
Q 10.40625 8.6875 15.234375 7.390625 
Q 20.0625 6.109375 24.8125 6.109375 
Q 31.15625 6.109375 34.5625 8.28125 
Q 37.984375 10.453125 37.984375 14.40625 
Q 37.984375 18.0625 35.515625 20.015625 
Q 33.0625 21.96875 24.703125 23.78125 
L 21.578125 24.515625 
Q 13.234375 26.265625 9.515625 29.90625 
Q 5.8125 33.546875 5.8125 39.890625 
Q 5.8125 47.609375 11.28125 51.796875 
Q 16.75 56 26.8125 56 
Q 31.78125 56 36.171875 55.265625 
Q 40.578125 54.546875 44.28125 53.078125 
z
" id="DejaVuSans-115"/>
      </defs>
      <use xlink:href="#DejaVuSans-112"/>
      <use x="63.476562" xlink:href="#DejaVuSans-114"/>
      <use x="102.339844" xlink:href="#DejaVuSans-101"/>
      <use x="163.863281" xlink:href="#DejaVuSans-115"/>
      <use x="215.962891" xlink:href="#DejaVuSans-115"/>
     </g>
    </g>
   </g>
  </g>
  <g id="axes_4">
   <g id="patch_71">
    <path d="M 48.982813 129.178537 
L 383.782813 129.178537 
L 383.782813 102.661463 
L 48.982813 102.661463 
z
" style="fill:#ffffff;"/>
   </g>
   <g id="patch_72">
    <path clip-path="url(#p3344d81c48)" d="M 54.214062 125.977959 
L 64.676563 125.977959 
L 64.676563 125.977959 
L 54.214062 125.977959 
z
" style="fill:#d62728;"/>
   </g>
   <g id="patch_73">
    <path clip-path="url(#p3344d81c48)" d="M 75.139062 125.977959 
L 85.601562 125.977959 
L 85.601562 125.977959 
L 75.139062 125.977959 
z
" style="fill:#d62728;"/>
   </g>
   <g id="patch_74">
    <path clip-path="url(#p3344d81c48)" d="M 96.064063 125.977959 
L 106.526563 125.977959 
L 106.526563 127.973215 
L 96.064063 127.973215 
z
" style="fill:#d62728;"/>
   </g>
   <g id="patch_75">
    <path clip-path="url(#p3344d81c48)" d="M 116.989063 125.977959 
L 127.451563 125.977959 
L 127.451563 125.977959 
L 116.989063 125.977959 
z
" style="fill:#d62728;"/>
   </g>
   <g id="patch_76">
    <path clip-path="url(#p3344d81c48)" d="M 137.914062 125.977959 
L 148.376563 125.977959 
L 148.376563 103.866785 
L 137.914062 103.866785 
z
" style="fill:#d62728;"/>
   </g>
   <g id="patch_77">
    <path clip-path="url(#p3344d81c48)" d="M 158.839063 125.977959 
L 169.301563 125.977959 
L 169.301563 125.977959 
L 158.839063 125.977959 
z
" style="fill:#d62728;"/>
   </g>
   <g id="patch_78">
    <path clip-path="url(#p3344d81c48)" d="M 179.764063 125.977959 
L 190.226563 125.977959 
L 190.226563 116.316878 
L 179.764063 116.316878 
z
" style="fill:#d62728;"/>
   </g>
   <g id="patch_79">
    <path clip-path="url(#p3344d81c48)" d="M 200.689063 125.977959 
L 211.151563 125.977959 
L 211.151563 126.500902 
L 200.689063 126.500902 
z
" style="fill:#d62728;"/>
   </g>
   <g id="patch_80">
    <path clip-path="url(#p3344d81c48)" d="M 221.614063 125.977959 
L 232.076563 125.977959 
L 232.076563 125.977959 
L 221.614063 125.977959 
z
" style="fill:#d62728;"/>
   </g>
   <g id="patch_81">
    <path clip-path="url(#p3344d81c48)" d="M 242.539062 125.977959 
L 253.001563 125.977959 
L 253.001563 120.993864 
L 242.539062 120.993864 
z
" style="fill:#d62728;"/>
   </g>
   <g id="patch_82">
    <path clip-path="url(#p3344d81c48)" d="M 263.464063 125.977959 
L 273.926562 125.977959 
L 273.926562 125.977959 
L 263.464063 125.977959 
z
" style="fill:#d62728;"/>
   </g>
   <g id="patch_83">
    <path clip-path="url(#p3344d81c48)" d="M 284.389063 125.977959 
L 294.851562 125.977959 
L 294.851562 125.977959 
L 284.389063 125.977959 
z
" style="fill:#d62728;"/>
   </g>
   <g id="patch_84">
    <path clip-path="url(#p3344d81c48)" d="M 305.314062 125.977959 
L 315.776562 125.977959 
L 315.776562 125.977959 
L 305.314062 125.977959 
z
" style="fill:#d62728;"/>
   </g>
   <g id="patch_85">
    <path clip-path="url(#p3344d81c48)" d="M 326.239062 125.977959 
L 336.701562 125.977959 
L 336.701562 123.505917 
L 326.239062 123.505917 
z
" style="fill:#d62728;"/>
   </g>
   <g id="patch_86">
    <path clip-path="url(#p3344d81c48)" d="M 347.164062 125.977959 
L 357.626562 125.977959 
L 357.626562 125.977959 
L 347.164062 125.977959 
z
" style="fill:#d62728;"/>
   </g>
   <g id="patch_87">
    <path clip-path="url(#p3344d81c48)" d="M 368.089063 125.977959 
L 378.551562 125.977959 
L 378.551562 120.143811 
L 368.089063 120.143811 
z
" style="fill:#d62728;"/>
   </g>
   <g id="matplotlib.axis_7">
    <g id="xtick_49">
     <g id="line2d_55">
      <g>
       <use style="stroke:#000000;stroke-width:0.8;" x="59.445312" xlink:href="#m3ff4ae8a3b" y="129.178537"/>
      </g>
     </g>
    </g>
    <g id="xtick_50">
     <g id="line2d_56">
      <g>
       <use style="stroke:#000000;stroke-width:0.8;" x="80.370312" xlink:href="#m3ff4ae8a3b" y="129.178537"/>
      </g>
     </g>
    </g>
    <g id="xtick_51">
     <g id="line2d_57">
      <g>
       <use style="stroke:#000000;stroke-width:0.8;" x="101.295312" xlink:href="#m3ff4ae8a3b" y="129.178537"/>
      </g>
     </g>
    </g>
    <g id="xtick_52">
     <g id="line2d_58">
      <g>
       <use style="stroke:#000000;stroke-width:0.8;" x="122.220313" xlink:href="#m3ff4ae8a3b" y="129.178537"/>
      </g>
     </g>
    </g>
    <g id="xtick_53">
     <g id="line2d_59">
      <g>
       <use style="stroke:#000000;stroke-width:0.8;" x="143.145312" xlink:href="#m3ff4ae8a3b" y="129.178537"/>
      </g>
     </g>
    </g>
    <g id="xtick_54">
     <g id="line2d_60">
      <g>
       <use style="stroke:#000000;stroke-width:0.8;" x="164.070312" xlink:href="#m3ff4ae8a3b" y="129.178537"/>
      </g>
     </g>
    </g>
    <g id="xtick_55">
     <g id="line2d_61">
      <g>
       <use style="stroke:#000000;stroke-width:0.8;" x="184.995313" xlink:href="#m3ff4ae8a3b" y="129.178537"/>
      </g>
     </g>
    </g>
    <g id="xtick_56">
     <g id="line2d_62">
      <g>
       <use style="stroke:#000000;stroke-width:0.8;" x="205.920312" xlink:href="#m3ff4ae8a3b" y="129.178537"/>
      </g>
     </g>
    </g>
    <g id="xtick_57">
     <g id="line2d_63">
      <g>
       <use style="stroke:#000000;stroke-width:0.8;" x="226.845313" xlink:href="#m3ff4ae8a3b" y="129.178537"/>
      </g>
     </g>
    </g>
    <g id="xtick_58">
     <g id="line2d_64">
      <g>
       <use style="stroke:#000000;stroke-width:0.8;" x="247.770313" xlink:href="#m3ff4ae8a3b" y="129.178537"/>
      </g>
     </g>
    </g>
    <g id="xtick_59">
     <g id="line2d_65">
      <g>
       <use style="stroke:#000000;stroke-width:0.8;" x="268.695312" xlink:href="#m3ff4ae8a3b" y="129.178537"/>
      </g>
     </g>
    </g>
    <g id="xtick_60">
     <g id="line2d_66">
      <g>
       <use style="stroke:#000000;stroke-width:0.8;" x="289.620313" xlink:href="#m3ff4ae8a3b" y="129.178537"/>
      </g>
     </g>
    </g>
    <g id="xtick_61">
     <g id="line2d_67">
      <g>
       <use style="stroke:#000000;stroke-width:0.8;" x="310.545313" xlink:href="#m3ff4ae8a3b" y="129.178537"/>
      </g>
     </g>
    </g>
    <g id="xtick_62">
     <g id="line2d_68">
      <g>
       <use style="stroke:#000000;stroke-width:0.8;" x="331.470313" xlink:href="#m3ff4ae8a3b" y="129.178537"/>
      </g>
     </g>
    </g>
    <g id="xtick_63">
     <g id="line2d_69">
      <g>
       <use style="stroke:#000000;stroke-width:0.8;" x="352.395312" xlink:href="#m3ff4ae8a3b" y="129.178537"/>
      </g>
     </g>
    </g>
    <g id="xtick_64">
     <g id="line2d_70">
      <g>
       <use style="stroke:#000000;stroke-width:0.8;" x="373.320312" xlink:href="#m3ff4ae8a3b" y="129.178537"/>
      </g>
     </g>
    </g>
   </g>
   <g id="matplotlib.axis_8">
    <g id="ytick_7">
     <g id="line2d_71">
      <g>
       <use style="stroke:#000000;stroke-width:0.8;" x="48.982813" xlink:href="#m964801694d" y="125.977959"/>
      </g>
     </g>
     <g id="text_10">
      <!-- 0 -->
      <g transform="translate(35.620312 129.777178)scale(0.1 -0.1)">
       <use xlink:href="#DejaVuSans-48"/>
      </g>
     </g>
    </g>
    <g id="ytick_8">
     <g id="line2d_72">
      <g>
       <use style="stroke:#000000;stroke-width:0.8;" x="48.982813" xlink:href="#m964801694d" y="110.27178"/>
      </g>
     </g>
     <g id="text_11">
      <!-- 5 -->
      <g transform="translate(35.620312 114.070999)scale(0.1 -0.1)">
       <use xlink:href="#DejaVuSans-53"/>
      </g>
     </g>
    </g>
   </g>
   <g id="patch_88">
    <path d="M 48.982813 129.178537 
L 48.982813 102.661463 
" style="fill:none;stroke:#000000;stroke-linecap:square;stroke-linejoin:miter;stroke-width:0.8;"/>
   </g>
   <g id="patch_89">
    <path d="M 383.782813 129.178537 
L 383.782813 102.661463 
" style="fill:none;stroke:#000000;stroke-linecap:square;stroke-linejoin:miter;stroke-width:0.8;"/>
   </g>
   <g id="patch_90">
    <path d="M 48.982813 129.178537 
L 383.782813 129.178537 
" style="fill:none;stroke:#000000;stroke-linecap:square;stroke-linejoin:miter;stroke-width:0.8;"/>
   </g>
   <g id="patch_91">
    <path d="M 48.982813 102.661463 
L 383.782813 102.661463 
" style="fill:none;stroke:#000000;stroke-linecap:square;stroke-linejoin:miter;stroke-width:0.8;"/>
   </g>
   <g id="legend_4">
    <g id="patch_92">
     <path d="M 390.782813 124.898125 
L 495.24375 124.898125 
Q 497.24375 124.898125 497.24375 122.898125 
L 497.24375 108.941875 
Q 497.24375 106.941875 495.24375 106.941875 
L 390.782813 106.941875 
Q 388.782813 106.941875 388.782813 108.941875 
L 388.782813 122.898125 
Q 388.782813 124.898125 390.782813 124.898125 
z
" style="fill:#ffffff;opacity:0.8;stroke:#cccccc;stroke-linejoin:miter;"/>
    </g>
    <g id="patch_93">
     <path d="M 392.782813 118.540313 
L 412.782813 118.540313 
L 412.782813 111.540313 
L 392.782813 111.540313 
z
" style="fill:#d62728;"/>
    </g>
    <g id="text_12">
     <!-- wind_direction -->
     <g transform="translate(420.782813 118.540313)scale(0.1 -0.1)">
      <defs>
       <path d="M 9.421875 54.6875 
L 18.40625 54.6875 
L 18.40625 0 
L 9.421875 0 
z
M 9.421875 75.984375 
L 18.40625 75.984375 
L 18.40625 64.59375 
L 9.421875 64.59375 
z
" id="DejaVuSans-105"/>
       <path d="M 54.890625 33.015625 
L 54.890625 0 
L 45.90625 0 
L 45.90625 32.71875 
Q 45.90625 40.484375 42.875 44.328125 
Q 39.84375 48.1875 33.796875 48.1875 
Q 26.515625 48.1875 22.3125 43.546875 
Q 18.109375 38.921875 18.109375 30.90625 
L 18.109375 0 
L 9.078125 0 
L 9.078125 54.6875 
L 18.109375 54.6875 
L 18.109375 46.1875 
Q 21.34375 51.125 25.703125 53.5625 
Q 30.078125 56 35.796875 56 
Q 45.21875 56 50.046875 50.171875 
Q 54.890625 44.34375 54.890625 33.015625 
z
" id="DejaVuSans-110"/>
       <path d="M 50.984375 -16.609375 
L 50.984375 -23.578125 
L -0.984375 -23.578125 
L -0.984375 -16.609375 
z
" id="DejaVuSans-95"/>
       <path d="M 48.78125 52.59375 
L 48.78125 44.1875 
Q 44.96875 46.296875 41.140625 47.34375 
Q 37.3125 48.390625 33.40625 48.390625 
Q 24.65625 48.390625 19.8125 42.84375 
Q 14.984375 37.3125 14.984375 27.296875 
Q 14.984375 17.28125 19.8125 11.734375 
Q 24.65625 6.203125 33.40625 6.203125 
Q 37.3125 6.203125 41.140625 7.25 
Q 44.96875 8.296875 48.78125 10.40625 
L 48.78125 2.09375 
Q 45.015625 0.34375 40.984375 -0.53125 
Q 36.96875 -1.421875 32.421875 -1.421875 
Q 20.0625 -1.421875 12.78125 6.34375 
Q 5.515625 14.109375 5.515625 27.296875 
Q 5.515625 40.671875 12.859375 48.328125 
Q 20.21875 56 33.015625 56 
Q 37.15625 56 41.109375 55.140625 
Q 45.0625 54.296875 48.78125 52.59375 
z
" id="DejaVuSans-99"/>
       <path d="M 30.609375 48.390625 
Q 23.390625 48.390625 19.1875 42.75 
Q 14.984375 37.109375 14.984375 27.296875 
Q 14.984375 17.484375 19.15625 11.84375 
Q 23.34375 6.203125 30.609375 6.203125 
Q 37.796875 6.203125 41.984375 11.859375 
Q 46.1875 17.53125 46.1875 27.296875 
Q 46.1875 37.015625 41.984375 42.703125 
Q 37.796875 48.390625 30.609375 48.390625 
z
M 30.609375 56 
Q 42.328125 56 49.015625 48.375 
Q 55.71875 40.765625 55.71875 27.296875 
Q 55.71875 13.875 49.015625 6.21875 
Q 42.328125 -1.421875 30.609375 -1.421875 
Q 18.84375 -1.421875 12.171875 6.21875 
Q 5.515625 13.875 5.515625 27.296875 
Q 5.515625 40.765625 12.171875 48.375 
Q 18.84375 56 30.609375 56 
z
" id="DejaVuSans-111"/>
      </defs>
      <use xlink:href="#DejaVuSans-119"/>
      <use x="81.787109" xlink:href="#DejaVuSans-105"/>
      <use x="109.570312" xlink:href="#DejaVuSans-110"/>
      <use x="172.949219" xlink:href="#DejaVuSans-100"/>
      <use x="236.425781" xlink:href="#DejaVuSans-95"/>
      <use x="286.425781" xlink:href="#DejaVuSans-100"/>
      <use x="349.902344" xlink:href="#DejaVuSans-105"/>
      <use x="377.685547" xlink:href="#DejaVuSans-114"/>
      <use x="416.548828" xlink:href="#DejaVuSans-101"/>
      <use x="478.072266" xlink:href="#DejaVuSans-99"/>
      <use x="533.052734" xlink:href="#DejaVuSans-116"/>
      <use x="572.261719" xlink:href="#DejaVuSans-105"/>
      <use x="600.044922" xlink:href="#DejaVuSans-111"/>
      <use x="661.226562" xlink:href="#DejaVuSans-110"/>
     </g>
    </g>
   </g>
  </g>
  <g id="axes_5">
   <g id="patch_94">
    <path d="M 48.982813 160.999024 
L 383.782813 160.999024 
L 383.782813 134.481951 
L 48.982813 134.481951 
z
" style="fill:#ffffff;"/>
   </g>
   <g id="patch_95">
    <path clip-path="url(#p9328898cfc)" d="M 54.214062 143.181816 
L 64.676563 143.181816 
L 64.676563 159.793703 
L 54.214062 159.793703 
z
" style="fill:#9467bd;"/>
   </g>
   <g id="patch_96">
    <path clip-path="url(#p9328898cfc)" d="M 75.139062 143.181816 
L 85.601562 143.181816 
L 85.601562 143.181816 
L 75.139062 143.181816 
z
" style="fill:#9467bd;"/>
   </g>
   <g id="patch_97">
    <path clip-path="url(#p9328898cfc)" d="M 96.064063 143.181816 
L 106.526563 143.181816 
L 106.526563 143.181816 
L 96.064063 143.181816 
z
" style="fill:#9467bd;"/>
   </g>
   <g id="patch_98">
    <path clip-path="url(#p9328898cfc)" d="M 116.989063 143.181816 
L 127.451563 143.181816 
L 127.451563 143.181816 
L 116.989063 143.181816 
z
" style="fill:#9467bd;"/>
   </g>
   <g id="patch_99">
    <path clip-path="url(#p9328898cfc)" d="M 137.914062 143.181816 
L 148.376563 143.181816 
L 148.376563 138.549039 
L 137.914062 138.549039 
z
" style="fill:#9467bd;"/>
   </g>
   <g id="patch_100">
    <path clip-path="url(#p9328898cfc)" d="M 158.839063 143.181816 
L 169.301563 143.181816 
L 169.301563 135.687273 
L 158.839063 135.687273 
z
" style="fill:#9467bd;"/>
   </g>
   <g id="patch_101">
    <path clip-path="url(#p9328898cfc)" d="M 179.764063 143.181816 
L 190.226563 143.181816 
L 190.226563 143.181816 
L 179.764063 143.181816 
z
" style="fill:#9467bd;"/>
   </g>
   <g id="patch_102">
    <path clip-path="url(#p9328898cfc)" d="M 200.689063 143.181816 
L 211.151563 143.181816 
L 211.151563 143.181816 
L 200.689063 143.181816 
z
" style="fill:#9467bd;"/>
   </g>
   <g id="patch_103">
    <path clip-path="url(#p9328898cfc)" d="M 221.614063 143.181816 
L 232.076563 143.181816 
L 232.076563 152.688475 
L 221.614063 152.688475 
z
" style="fill:#9467bd;"/>
   </g>
   <g id="patch_104">
    <path clip-path="url(#p9328898cfc)" d="M 242.539062 143.181816 
L 253.001563 143.181816 
L 253.001563 143.181816 
L 242.539062 143.181816 
z
" style="fill:#9467bd;"/>
   </g>
   <g id="patch_105">
    <path clip-path="url(#p9328898cfc)" d="M 263.464063 143.181816 
L 273.926562 143.181816 
L 273.926562 143.181816 
L 263.464063 143.181816 
z
" style="fill:#9467bd;"/>
   </g>
   <g id="patch_106">
    <path clip-path="url(#p9328898cfc)" d="M 284.389063 143.181816 
L 294.851562 143.181816 
L 294.851562 143.181816 
L 284.389063 143.181816 
z
" style="fill:#9467bd;"/>
   </g>
   <g id="patch_107">
    <path clip-path="url(#p9328898cfc)" d="M 305.314062 143.181816 
L 315.776562 143.181816 
L 315.776562 143.181816 
L 305.314062 143.181816 
z
" style="fill:#9467bd;"/>
   </g>
   <g id="patch_108">
    <path clip-path="url(#p9328898cfc)" d="M 326.239062 143.181816 
L 336.701562 143.181816 
L 336.701562 143.181816 
L 326.239062 143.181816 
z
" style="fill:#9467bd;"/>
   </g>
   <g id="patch_109">
    <path clip-path="url(#p9328898cfc)" d="M 347.164062 143.181816 
L 357.626562 143.181816 
L 357.626562 141.228585 
L 347.164062 141.228585 
z
" style="fill:#9467bd;"/>
   </g>
   <g id="patch_110">
    <path clip-path="url(#p9328898cfc)" d="M 368.089063 143.181816 
L 378.551562 143.181816 
L 378.551562 154.334193 
L 368.089063 154.334193 
z
" style="fill:#9467bd;"/>
   </g>
   <g id="matplotlib.axis_9">
    <g id="xtick_65">
     <g id="line2d_73">
      <g>
       <use style="stroke:#000000;stroke-width:0.8;" x="59.445312" xlink:href="#m3ff4ae8a3b" y="160.999024"/>
      </g>
     </g>
    </g>
    <g id="xtick_66">
     <g id="line2d_74">
      <g>
       <use style="stroke:#000000;stroke-width:0.8;" x="80.370312" xlink:href="#m3ff4ae8a3b" y="160.999024"/>
      </g>
     </g>
    </g>
    <g id="xtick_67">
     <g id="line2d_75">
      <g>
       <use style="stroke:#000000;stroke-width:0.8;" x="101.295312" xlink:href="#m3ff4ae8a3b" y="160.999024"/>
      </g>
     </g>
    </g>
    <g id="xtick_68">
     <g id="line2d_76">
      <g>
       <use style="stroke:#000000;stroke-width:0.8;" x="122.220313" xlink:href="#m3ff4ae8a3b" y="160.999024"/>
      </g>
     </g>
    </g>
    <g id="xtick_69">
     <g id="line2d_77">
      <g>
       <use style="stroke:#000000;stroke-width:0.8;" x="143.145312" xlink:href="#m3ff4ae8a3b" y="160.999024"/>
      </g>
     </g>
    </g>
    <g id="xtick_70">
     <g id="line2d_78">
      <g>
       <use style="stroke:#000000;stroke-width:0.8;" x="164.070312" xlink:href="#m3ff4ae8a3b" y="160.999024"/>
      </g>
     </g>
    </g>
    <g id="xtick_71">
     <g id="line2d_79">
      <g>
       <use style="stroke:#000000;stroke-width:0.8;" x="184.995313" xlink:href="#m3ff4ae8a3b" y="160.999024"/>
      </g>
     </g>
    </g>
    <g id="xtick_72">
     <g id="line2d_80">
      <g>
       <use style="stroke:#000000;stroke-width:0.8;" x="205.920312" xlink:href="#m3ff4ae8a3b" y="160.999024"/>
      </g>
     </g>
    </g>
    <g id="xtick_73">
     <g id="line2d_81">
      <g>
       <use style="stroke:#000000;stroke-width:0.8;" x="226.845313" xlink:href="#m3ff4ae8a3b" y="160.999024"/>
      </g>
     </g>
    </g>
    <g id="xtick_74">
     <g id="line2d_82">
      <g>
       <use style="stroke:#000000;stroke-width:0.8;" x="247.770313" xlink:href="#m3ff4ae8a3b" y="160.999024"/>
      </g>
     </g>
    </g>
    <g id="xtick_75">
     <g id="line2d_83">
      <g>
       <use style="stroke:#000000;stroke-width:0.8;" x="268.695312" xlink:href="#m3ff4ae8a3b" y="160.999024"/>
      </g>
     </g>
    </g>
    <g id="xtick_76">
     <g id="line2d_84">
      <g>
       <use style="stroke:#000000;stroke-width:0.8;" x="289.620313" xlink:href="#m3ff4ae8a3b" y="160.999024"/>
      </g>
     </g>
    </g>
    <g id="xtick_77">
     <g id="line2d_85">
      <g>
       <use style="stroke:#000000;stroke-width:0.8;" x="310.545313" xlink:href="#m3ff4ae8a3b" y="160.999024"/>
      </g>
     </g>
    </g>
    <g id="xtick_78">
     <g id="line2d_86">
      <g>
       <use style="stroke:#000000;stroke-width:0.8;" x="331.470313" xlink:href="#m3ff4ae8a3b" y="160.999024"/>
      </g>
     </g>
    </g>
    <g id="xtick_79">
     <g id="line2d_87">
      <g>
       <use style="stroke:#000000;stroke-width:0.8;" x="352.395312" xlink:href="#m3ff4ae8a3b" y="160.999024"/>
      </g>
     </g>
    </g>
    <g id="xtick_80">
     <g id="line2d_88">
      <g>
       <use style="stroke:#000000;stroke-width:0.8;" x="373.320312" xlink:href="#m3ff4ae8a3b" y="160.999024"/>
      </g>
     </g>
    </g>
   </g>
   <g id="matplotlib.axis_10">
    <g id="ytick_9">
     <g id="line2d_89">
      <g>
       <use style="stroke:#000000;stroke-width:0.8;" x="48.982813" xlink:href="#m964801694d" y="153.393296"/>
      </g>
     </g>
     <g id="text_13">
      <!-- −10 -->
      <g transform="translate(20.878125 157.192514)scale(0.1 -0.1)">
       <defs>
        <path d="M 12.40625 8.296875 
L 28.515625 8.296875 
L 28.515625 63.921875 
L 10.984375 60.40625 
L 10.984375 69.390625 
L 28.421875 72.90625 
L 38.28125 72.90625 
L 38.28125 8.296875 
L 54.390625 8.296875 
L 54.390625 0 
L 12.40625 0 
z
" id="DejaVuSans-49"/>
       </defs>
       <use xlink:href="#DejaVuSans-8722"/>
       <use x="83.789062" xlink:href="#DejaVuSans-49"/>
       <use x="147.412109" xlink:href="#DejaVuSans-48"/>
      </g>
     </g>
    </g>
    <g id="ytick_10">
     <g id="line2d_90">
      <g>
       <use style="stroke:#000000;stroke-width:0.8;" x="48.982813" xlink:href="#m964801694d" y="143.181816"/>
      </g>
     </g>
     <g id="text_14">
      <!-- 0 -->
      <g transform="translate(35.620312 146.981035)scale(0.1 -0.1)">
       <use xlink:href="#DejaVuSans-48"/>
      </g>
     </g>
    </g>
    <g id="text_15">
     <!-- Weights -->
     <g transform="translate(14.798437 167.763925)rotate(-90)scale(0.1 -0.1)">
      <defs>
       <path d="M 3.328125 72.90625 
L 13.28125 72.90625 
L 28.609375 11.28125 
L 43.890625 72.90625 
L 54.984375 72.90625 
L 70.3125 11.28125 
L 85.59375 72.90625 
L 95.609375 72.90625 
L 77.296875 0 
L 64.890625 0 
L 49.515625 63.28125 
L 33.984375 0 
L 21.578125 0 
z
" id="DejaVuSans-87"/>
       <path d="M 45.40625 27.984375 
Q 45.40625 37.75 41.375 43.109375 
Q 37.359375 48.484375 30.078125 48.484375 
Q 22.859375 48.484375 18.828125 43.109375 
Q 14.796875 37.75 14.796875 27.984375 
Q 14.796875 18.265625 18.828125 12.890625 
Q 22.859375 7.515625 30.078125 7.515625 
Q 37.359375 7.515625 41.375 12.890625 
Q 45.40625 18.265625 45.40625 27.984375 
z
M 54.390625 6.78125 
Q 54.390625 -7.171875 48.1875 -13.984375 
Q 42 -20.796875 29.203125 -20.796875 
Q 24.46875 -20.796875 20.265625 -20.09375 
Q 16.0625 -19.390625 12.109375 -17.921875 
L 12.109375 -9.1875 
Q 16.0625 -11.328125 19.921875 -12.34375 
Q 23.78125 -13.375 27.78125 -13.375 
Q 36.625 -13.375 41.015625 -8.765625 
Q 45.40625 -4.15625 45.40625 5.171875 
L 45.40625 9.625 
Q 42.625 4.78125 38.28125 2.390625 
Q 33.9375 0 27.875 0 
Q 17.828125 0 11.671875 7.65625 
Q 5.515625 15.328125 5.515625 27.984375 
Q 5.515625 40.671875 11.671875 48.328125 
Q 17.828125 56 27.875 56 
Q 33.9375 56 38.28125 53.609375 
Q 42.625 51.21875 45.40625 46.390625 
L 45.40625 54.6875 
L 54.390625 54.6875 
z
" id="DejaVuSans-103"/>
       <path d="M 54.890625 33.015625 
L 54.890625 0 
L 45.90625 0 
L 45.90625 32.71875 
Q 45.90625 40.484375 42.875 44.328125 
Q 39.84375 48.1875 33.796875 48.1875 
Q 26.515625 48.1875 22.3125 43.546875 
Q 18.109375 38.921875 18.109375 30.90625 
L 18.109375 0 
L 9.078125 0 
L 9.078125 75.984375 
L 18.109375 75.984375 
L 18.109375 46.1875 
Q 21.34375 51.125 25.703125 53.5625 
Q 30.078125 56 35.796875 56 
Q 45.21875 56 50.046875 50.171875 
Q 54.890625 44.34375 54.890625 33.015625 
z
" id="DejaVuSans-104"/>
      </defs>
      <use xlink:href="#DejaVuSans-87"/>
      <use x="93.001953" xlink:href="#DejaVuSans-101"/>
      <use x="154.525391" xlink:href="#DejaVuSans-105"/>
      <use x="182.308594" xlink:href="#DejaVuSans-103"/>
      <use x="245.785156" xlink:href="#DejaVuSans-104"/>
      <use x="309.164062" xlink:href="#DejaVuSans-116"/>
      <use x="348.373047" xlink:href="#DejaVuSans-115"/>
     </g>
    </g>
   </g>
   <g id="patch_111">
    <path d="M 48.982813 160.999024 
L 48.982813 134.481951 
" style="fill:none;stroke:#000000;stroke-linecap:square;stroke-linejoin:miter;stroke-width:0.8;"/>
   </g>
   <g id="patch_112">
    <path d="M 383.782813 160.999024 
L 383.782813 134.481951 
" style="fill:none;stroke:#000000;stroke-linecap:square;stroke-linejoin:miter;stroke-width:0.8;"/>
   </g>
   <g id="patch_113">
    <path d="M 48.982813 160.999024 
L 383.782813 160.999024 
" style="fill:none;stroke:#000000;stroke-linecap:square;stroke-linejoin:miter;stroke-width:0.8;"/>
   </g>
   <g id="patch_114">
    <path d="M 48.982813 134.481951 
L 383.782813 134.481951 
" style="fill:none;stroke:#000000;stroke-linecap:square;stroke-linejoin:miter;stroke-width:0.8;"/>
   </g>
   <g id="legend_5">
    <g id="patch_115">
     <path d="M 390.782813 156.718613 
L 481.6375 156.718613 
Q 483.6375 156.718613 483.6375 154.718613 
L 483.6375 140.762363 
Q 483.6375 138.762363 481.6375 138.762363 
L 390.782813 138.762363 
Q 388.782813 138.762363 388.782813 140.762363 
L 388.782813 154.718613 
Q 388.782813 156.718613 390.782813 156.718613 
z
" style="fill:#ffffff;opacity:0.8;stroke:#cccccc;stroke-linejoin:miter;"/>
    </g>
    <g id="patch_116">
     <path d="M 392.782813 150.3608 
L 412.782813 150.3608 
L 412.782813 143.3608 
L 392.782813 143.3608 
z
" style="fill:#9467bd;"/>
    </g>
    <g id="text_16">
     <!-- wind_speed -->
     <g transform="translate(420.782813 150.3608)scale(0.1 -0.1)">
      <use xlink:href="#DejaVuSans-119"/>
      <use x="81.787109" xlink:href="#DejaVuSans-105"/>
      <use x="109.570312" xlink:href="#DejaVuSans-110"/>
      <use x="172.949219" xlink:href="#DejaVuSans-100"/>
      <use x="236.425781" xlink:href="#DejaVuSans-95"/>
      <use x="286.425781" xlink:href="#DejaVuSans-115"/>
      <use x="338.525391" xlink:href="#DejaVuSans-112"/>
      <use x="402.001953" xlink:href="#DejaVuSans-101"/>
      <use x="463.525391" xlink:href="#DejaVuSans-101"/>
      <use x="525.048828" xlink:href="#DejaVuSans-100"/>
     </g>
    </g>
   </g>
  </g>
  <g id="axes_6">
   <g id="patch_117">
    <path d="M 48.982813 192.819512 
L 383.782813 192.819512 
L 383.782813 166.302439 
L 48.982813 166.302439 
z
" style="fill:#ffffff;"/>
   </g>
   <g id="patch_118">
    <path clip-path="url(#pcb25ec2fef)" d="M 54.214062 176.30222 
L 64.676563 176.30222 
L 64.676563 176.30222 
L 54.214062 176.30222 
z
" style="fill:#8c564b;"/>
   </g>
   <g id="patch_119">
    <path clip-path="url(#pcb25ec2fef)" d="M 75.139062 176.30222 
L 85.601562 176.30222 
L 85.601562 176.30222 
L 75.139062 176.30222 
z
" style="fill:#8c564b;"/>
   </g>
   <g id="patch_120">
    <path clip-path="url(#pcb25ec2fef)" d="M 96.064063 176.30222 
L 106.526563 176.30222 
L 106.526563 190.749347 
L 96.064063 190.749347 
z
" style="fill:#8c564b;"/>
   </g>
   <g id="patch_121">
    <path clip-path="url(#pcb25ec2fef)" d="M 116.989063 176.30222 
L 127.451563 176.30222 
L 127.451563 191.614191 
L 116.989063 191.614191 
z
" style="fill:#8c564b;"/>
   </g>
   <g id="patch_122">
    <path clip-path="url(#pcb25ec2fef)" d="M 137.914062 176.30222 
L 148.376563 176.30222 
L 148.376563 185.401406 
L 137.914062 185.401406 
z
" style="fill:#8c564b;"/>
   </g>
   <g id="patch_123">
    <path clip-path="url(#pcb25ec2fef)" d="M 158.839063 176.30222 
L 169.301563 176.30222 
L 169.301563 176.30222 
L 158.839063 176.30222 
z
" style="fill:#8c564b;"/>
   </g>
   <g id="patch_124">
    <path clip-path="url(#pcb25ec2fef)" d="M 179.764063 176.30222 
L 190.226563 176.30222 
L 190.226563 178.581935 
L 179.764063 178.581935 
z
" style="fill:#8c564b;"/>
   </g>
   <g id="patch_125">
    <path clip-path="url(#pcb25ec2fef)" d="M 200.689063 176.30222 
L 211.151563 176.30222 
L 211.151563 176.30222 
L 200.689063 176.30222 
z
" style="fill:#8c564b;"/>
   </g>
   <g id="patch_126">
    <path clip-path="url(#pcb25ec2fef)" d="M 221.614063 176.30222 
L 232.076563 176.30222 
L 232.076563 176.30222 
L 221.614063 176.30222 
z
" style="fill:#8c564b;"/>
   </g>
   <g id="patch_127">
    <path clip-path="url(#pcb25ec2fef)" d="M 242.539062 176.30222 
L 253.001563 176.30222 
L 253.001563 172.730421 
L 242.539062 172.730421 
z
" style="fill:#8c564b;"/>
   </g>
   <g id="patch_128">
    <path clip-path="url(#pcb25ec2fef)" d="M 263.464063 176.30222 
L 273.926562 176.30222 
L 273.926562 176.30222 
L 263.464063 176.30222 
z
" style="fill:#8c564b;"/>
   </g>
   <g id="patch_129">
    <path clip-path="url(#pcb25ec2fef)" d="M 284.389063 176.30222 
L 294.851562 176.30222 
L 294.851562 176.30222 
L 284.389063 176.30222 
z
" style="fill:#8c564b;"/>
   </g>
   <g id="patch_130">
    <path clip-path="url(#pcb25ec2fef)" d="M 305.314062 176.30222 
L 315.776562 176.30222 
L 315.776562 176.30222 
L 305.314062 176.30222 
z
" style="fill:#8c564b;"/>
   </g>
   <g id="patch_131">
    <path clip-path="url(#pcb25ec2fef)" d="M 326.239062 176.30222 
L 336.701562 176.30222 
L 336.701562 177.290282 
L 326.239062 177.290282 
z
" style="fill:#8c564b;"/>
   </g>
   <g id="patch_132">
    <path clip-path="url(#pcb25ec2fef)" d="M 347.164062 176.30222 
L 357.626562 176.30222 
L 357.626562 176.30222 
L 347.164062 176.30222 
z
" style="fill:#8c564b;"/>
   </g>
   <g id="patch_133">
    <path clip-path="url(#pcb25ec2fef)" d="M 368.089063 176.30222 
L 378.551562 176.30222 
L 378.551562 167.507761 
L 368.089063 167.507761 
z
" style="fill:#8c564b;"/>
   </g>
   <g id="matplotlib.axis_11">
    <g id="xtick_81">
     <g id="line2d_91">
      <g>
       <use style="stroke:#000000;stroke-width:0.8;" x="59.445312" xlink:href="#m3ff4ae8a3b" y="192.819512"/>
      </g>
     </g>
    </g>
    <g id="xtick_82">
     <g id="line2d_92">
      <g>
       <use style="stroke:#000000;stroke-width:0.8;" x="80.370312" xlink:href="#m3ff4ae8a3b" y="192.819512"/>
      </g>
     </g>
    </g>
    <g id="xtick_83">
     <g id="line2d_93">
      <g>
       <use style="stroke:#000000;stroke-width:0.8;" x="101.295312" xlink:href="#m3ff4ae8a3b" y="192.819512"/>
      </g>
     </g>
    </g>
    <g id="xtick_84">
     <g id="line2d_94">
      <g>
       <use style="stroke:#000000;stroke-width:0.8;" x="122.220313" xlink:href="#m3ff4ae8a3b" y="192.819512"/>
      </g>
     </g>
    </g>
    <g id="xtick_85">
     <g id="line2d_95">
      <g>
       <use style="stroke:#000000;stroke-width:0.8;" x="143.145312" xlink:href="#m3ff4ae8a3b" y="192.819512"/>
      </g>
     </g>
    </g>
    <g id="xtick_86">
     <g id="line2d_96">
      <g>
       <use style="stroke:#000000;stroke-width:0.8;" x="164.070312" xlink:href="#m3ff4ae8a3b" y="192.819512"/>
      </g>
     </g>
    </g>
    <g id="xtick_87">
     <g id="line2d_97">
      <g>
       <use style="stroke:#000000;stroke-width:0.8;" x="184.995313" xlink:href="#m3ff4ae8a3b" y="192.819512"/>
      </g>
     </g>
    </g>
    <g id="xtick_88">
     <g id="line2d_98">
      <g>
       <use style="stroke:#000000;stroke-width:0.8;" x="205.920312" xlink:href="#m3ff4ae8a3b" y="192.819512"/>
      </g>
     </g>
    </g>
    <g id="xtick_89">
     <g id="line2d_99">
      <g>
       <use style="stroke:#000000;stroke-width:0.8;" x="226.845313" xlink:href="#m3ff4ae8a3b" y="192.819512"/>
      </g>
     </g>
    </g>
    <g id="xtick_90">
     <g id="line2d_100">
      <g>
       <use style="stroke:#000000;stroke-width:0.8;" x="247.770313" xlink:href="#m3ff4ae8a3b" y="192.819512"/>
      </g>
     </g>
    </g>
    <g id="xtick_91">
     <g id="line2d_101">
      <g>
       <use style="stroke:#000000;stroke-width:0.8;" x="268.695312" xlink:href="#m3ff4ae8a3b" y="192.819512"/>
      </g>
     </g>
    </g>
    <g id="xtick_92">
     <g id="line2d_102">
      <g>
       <use style="stroke:#000000;stroke-width:0.8;" x="289.620313" xlink:href="#m3ff4ae8a3b" y="192.819512"/>
      </g>
     </g>
    </g>
    <g id="xtick_93">
     <g id="line2d_103">
      <g>
       <use style="stroke:#000000;stroke-width:0.8;" x="310.545313" xlink:href="#m3ff4ae8a3b" y="192.819512"/>
      </g>
     </g>
    </g>
    <g id="xtick_94">
     <g id="line2d_104">
      <g>
       <use style="stroke:#000000;stroke-width:0.8;" x="331.470313" xlink:href="#m3ff4ae8a3b" y="192.819512"/>
      </g>
     </g>
    </g>
    <g id="xtick_95">
     <g id="line2d_105">
      <g>
       <use style="stroke:#000000;stroke-width:0.8;" x="352.395312" xlink:href="#m3ff4ae8a3b" y="192.819512"/>
      </g>
     </g>
    </g>
    <g id="xtick_96">
     <g id="line2d_106">
      <g>
       <use style="stroke:#000000;stroke-width:0.8;" x="373.320312" xlink:href="#m3ff4ae8a3b" y="192.819512"/>
      </g>
     </g>
    </g>
   </g>
   <g id="matplotlib.axis_12">
    <g id="ytick_11">
     <g id="line2d_107">
      <g>
       <use style="stroke:#000000;stroke-width:0.8;" x="48.982813" xlink:href="#m964801694d" y="185.439735"/>
      </g>
     </g>
     <g id="text_17">
      <!-- −10 -->
      <g transform="translate(20.878125 189.238953)scale(0.1 -0.1)">
       <use xlink:href="#DejaVuSans-8722"/>
       <use x="83.789062" xlink:href="#DejaVuSans-49"/>
       <use x="147.412109" xlink:href="#DejaVuSans-48"/>
      </g>
     </g>
    </g>
    <g id="ytick_12">
     <g id="line2d_108">
      <g>
       <use style="stroke:#000000;stroke-width:0.8;" x="48.982813" xlink:href="#m964801694d" y="176.30222"/>
      </g>
     </g>
     <g id="text_18">
      <!-- 0 -->
      <g transform="translate(35.620312 180.101439)scale(0.1 -0.1)">
       <use xlink:href="#DejaVuSans-48"/>
      </g>
     </g>
    </g>
    <g id="ytick_13">
     <g id="line2d_109">
      <g>
       <use style="stroke:#000000;stroke-width:0.8;" x="48.982813" xlink:href="#m964801694d" y="167.164706"/>
      </g>
     </g>
     <g id="text_19">
      <!-- 10 -->
      <g transform="translate(29.257812 170.963925)scale(0.1 -0.1)">
       <use xlink:href="#DejaVuSans-49"/>
       <use x="63.623047" xlink:href="#DejaVuSans-48"/>
      </g>
     </g>
    </g>
   </g>
   <g id="patch_134">
    <path d="M 48.982813 192.819512 
L 48.982813 166.302439 
" style="fill:none;stroke:#000000;stroke-linecap:square;stroke-linejoin:miter;stroke-width:0.8;"/>
   </g>
   <g id="patch_135">
    <path d="M 383.782813 192.819512 
L 383.782813 166.302439 
" style="fill:none;stroke:#000000;stroke-linecap:square;stroke-linejoin:miter;stroke-width:0.8;"/>
   </g>
   <g id="patch_136">
    <path d="M 48.982813 192.819512 
L 383.782813 192.819512 
" style="fill:none;stroke:#000000;stroke-linecap:square;stroke-linejoin:miter;stroke-width:0.8;"/>
   </g>
   <g id="patch_137">
    <path d="M 48.982813 166.302439 
L 383.782813 166.302439 
" style="fill:none;stroke:#000000;stroke-linecap:square;stroke-linejoin:miter;stroke-width:0.8;"/>
   </g>
   <g id="legend_6">
    <g id="patch_138">
     <path d="M 390.782813 188.400038 
L 448.626563 188.400038 
Q 450.626563 188.400038 450.626563 186.400038 
L 450.626563 172.721913 
Q 450.626563 170.721913 448.626563 170.721913 
L 390.782813 170.721913 
Q 388.782813 170.721913 388.782813 172.721913 
L 388.782813 186.400038 
Q 388.782813 188.400038 390.782813 188.400038 
z
" style="fill:#ffffff;opacity:0.8;stroke:#cccccc;stroke-linejoin:miter;"/>
    </g>
    <g id="patch_139">
     <path d="M 392.782813 182.320351 
L 412.782813 182.320351 
L 412.782813 175.320351 
L 392.782813 175.320351 
z
" style="fill:#8c564b;"/>
    </g>
    <g id="text_20">
     <!-- snow -->
     <g transform="translate(420.782813 182.320351)scale(0.1 -0.1)">
      <use xlink:href="#DejaVuSans-115"/>
      <use x="52.099609" xlink:href="#DejaVuSans-110"/>
      <use x="115.478516" xlink:href="#DejaVuSans-111"/>
      <use x="176.660156" xlink:href="#DejaVuSans-119"/>
     </g>
    </g>
   </g>
  </g>
  <g id="axes_7">
   <g id="patch_140">
    <path d="M 48.982813 224.64 
L 383.782813 224.64 
L 383.782813 198.122927 
L 48.982813 198.122927 
z
" style="fill:#ffffff;"/>
   </g>
   <g id="patch_141">
    <path clip-path="url(#pfac9d1890b)" d="M 54.214062 210.344108 
L 64.676563 210.344108 
L 64.676563 210.344108 
L 54.214062 210.344108 
z
" style="fill:#e377c2;"/>
   </g>
   <g id="patch_142">
    <path clip-path="url(#pfac9d1890b)" d="M 75.139062 210.344108 
L 85.601562 210.344108 
L 85.601562 210.344108 
L 75.139062 210.344108 
z
" style="fill:#e377c2;"/>
   </g>
   <g id="patch_143">
    <path clip-path="url(#pfac9d1890b)" d="M 96.064063 210.344108 
L 106.526563 210.344108 
L 106.526563 210.344108 
L 96.064063 210.344108 
z
" style="fill:#e377c2;"/>
   </g>
   <g id="patch_144">
    <path clip-path="url(#pfac9d1890b)" d="M 116.989063 210.344108 
L 127.451563 210.344108 
L 127.451563 210.344108 
L 116.989063 210.344108 
z
" style="fill:#e377c2;"/>
   </g>
   <g id="patch_145">
    <path clip-path="url(#pfac9d1890b)" d="M 137.914062 210.344108 
L 148.376563 210.344108 
L 148.376563 210.344108 
L 137.914062 210.344108 
z
" style="fill:#e377c2;"/>
   </g>
   <g id="patch_146">
    <path clip-path="url(#pfac9d1890b)" d="M 158.839063 210.344108 
L 169.301563 210.344108 
L 169.301563 199.328248 
L 158.839063 199.328248 
z
" style="fill:#e377c2;"/>
   </g>
   <g id="patch_147">
    <path clip-path="url(#pfac9d1890b)" d="M 179.764063 210.344108 
L 190.226563 210.344108 
L 190.226563 210.344108 
L 179.764063 210.344108 
z
" style="fill:#e377c2;"/>
   </g>
   <g id="patch_148">
    <path clip-path="url(#pfac9d1890b)" d="M 200.689063 210.344108 
L 211.151563 210.344108 
L 211.151563 210.344108 
L 200.689063 210.344108 
z
" style="fill:#e377c2;"/>
   </g>
   <g id="patch_149">
    <path clip-path="url(#pfac9d1890b)" d="M 221.614063 210.344108 
L 232.076563 210.344108 
L 232.076563 223.434678 
L 221.614063 223.434678 
z
" style="fill:#e377c2;"/>
   </g>
   <g id="patch_150">
    <path clip-path="url(#pfac9d1890b)" d="M 242.539062 210.344108 
L 253.001563 210.344108 
L 253.001563 216.950333 
L 242.539062 216.950333 
z
" style="fill:#e377c2;"/>
   </g>
   <g id="patch_151">
    <path clip-path="url(#pfac9d1890b)" d="M 263.464063 210.344108 
L 273.926562 210.344108 
L 273.926562 200.882829 
L 263.464063 200.882829 
z
" style="fill:#e377c2;"/>
   </g>
   <g id="patch_152">
    <path clip-path="url(#pfac9d1890b)" d="M 284.389063 210.344108 
L 294.851562 210.344108 
L 294.851562 209.5157 
L 284.389063 209.5157 
z
" style="fill:#e377c2;"/>
   </g>
   <g id="patch_153">
    <path clip-path="url(#pfac9d1890b)" d="M 305.314062 210.344108 
L 315.776562 210.344108 
L 315.776562 210.344108 
L 305.314062 210.344108 
z
" style="fill:#e377c2;"/>
   </g>
   <g id="patch_154">
    <path clip-path="url(#pfac9d1890b)" d="M 326.239062 210.344108 
L 336.701562 210.344108 
L 336.701562 203.456469 
L 326.239062 203.456469 
z
" style="fill:#e377c2;"/>
   </g>
   <g id="patch_155">
    <path clip-path="url(#pfac9d1890b)" d="M 347.164062 210.344108 
L 357.626562 210.344108 
L 357.626562 218.225686 
L 347.164062 218.225686 
z
" style="fill:#e377c2;"/>
   </g>
   <g id="patch_156">
    <path clip-path="url(#pfac9d1890b)" d="M 368.089063 210.344108 
L 378.551562 210.344108 
L 378.551562 210.344108 
L 368.089063 210.344108 
z
" style="fill:#e377c2;"/>
   </g>
   <g id="matplotlib.axis_13">
    <g id="xtick_97">
     <g id="line2d_110">
      <g>
       <use style="stroke:#000000;stroke-width:0.8;" x="59.445312" xlink:href="#m3ff4ae8a3b" y="224.64"/>
      </g>
     </g>
     <g id="text_21">
      <!-- 0 -->
      <g transform="translate(62.204687 238.0025)rotate(-90)scale(0.1 -0.1)">
       <use xlink:href="#DejaVuSans-48"/>
      </g>
     </g>
    </g>
    <g id="xtick_98">
     <g id="line2d_111">
      <g>
       <use style="stroke:#000000;stroke-width:0.8;" x="80.370312" xlink:href="#m3ff4ae8a3b" y="224.64"/>
      </g>
     </g>
     <g id="text_22">
      <!-- 1 -->
      <g transform="translate(83.129688 238.0025)rotate(-90)scale(0.1 -0.1)">
       <use xlink:href="#DejaVuSans-49"/>
      </g>
     </g>
    </g>
    <g id="xtick_99">
     <g id="line2d_112">
      <g>
       <use style="stroke:#000000;stroke-width:0.8;" x="101.295312" xlink:href="#m3ff4ae8a3b" y="224.64"/>
      </g>
     </g>
     <g id="text_23">
      <!-- 2 -->
      <g transform="translate(104.054688 238.0025)rotate(-90)scale(0.1 -0.1)">
       <use xlink:href="#DejaVuSans-50"/>
      </g>
     </g>
    </g>
    <g id="xtick_100">
     <g id="line2d_113">
      <g>
       <use style="stroke:#000000;stroke-width:0.8;" x="122.220313" xlink:href="#m3ff4ae8a3b" y="224.64"/>
      </g>
     </g>
     <g id="text_24">
      <!-- 3 -->
      <g transform="translate(124.979688 238.0025)rotate(-90)scale(0.1 -0.1)">
       <defs>
        <path d="M 40.578125 39.3125 
Q 47.65625 37.796875 51.625 33 
Q 55.609375 28.21875 55.609375 21.1875 
Q 55.609375 10.40625 48.1875 4.484375 
Q 40.765625 -1.421875 27.09375 -1.421875 
Q 22.515625 -1.421875 17.65625 -0.515625 
Q 12.796875 0.390625 7.625 2.203125 
L 7.625 11.71875 
Q 11.71875 9.328125 16.59375 8.109375 
Q 21.484375 6.890625 26.8125 6.890625 
Q 36.078125 6.890625 40.9375 10.546875 
Q 45.796875 14.203125 45.796875 21.1875 
Q 45.796875 27.640625 41.28125 31.265625 
Q 36.765625 34.90625 28.71875 34.90625 
L 20.21875 34.90625 
L 20.21875 43.015625 
L 29.109375 43.015625 
Q 36.375 43.015625 40.234375 45.921875 
Q 44.09375 48.828125 44.09375 54.296875 
Q 44.09375 59.90625 40.109375 62.90625 
Q 36.140625 65.921875 28.71875 65.921875 
Q 24.65625 65.921875 20.015625 65.03125 
Q 15.375 64.15625 9.8125 62.3125 
L 9.8125 71.09375 
Q 15.4375 72.65625 20.34375 73.4375 
Q 25.25 74.21875 29.59375 74.21875 
Q 40.828125 74.21875 47.359375 69.109375 
Q 53.90625 64.015625 53.90625 55.328125 
Q 53.90625 49.265625 50.4375 45.09375 
Q 46.96875 40.921875 40.578125 39.3125 
z
" id="DejaVuSans-51"/>
       </defs>
       <use xlink:href="#DejaVuSans-51"/>
      </g>
     </g>
    </g>
    <g id="xtick_101">
     <g id="line2d_114">
      <g>
       <use style="stroke:#000000;stroke-width:0.8;" x="143.145312" xlink:href="#m3ff4ae8a3b" y="224.64"/>
      </g>
     </g>
     <g id="text_25">
      <!-- 4 -->
      <g transform="translate(145.904687 238.0025)rotate(-90)scale(0.1 -0.1)">
       <defs>
        <path d="M 37.796875 64.3125 
L 12.890625 25.390625 
L 37.796875 25.390625 
z
M 35.203125 72.90625 
L 47.609375 72.90625 
L 47.609375 25.390625 
L 58.015625 25.390625 
L 58.015625 17.1875 
L 47.609375 17.1875 
L 47.609375 0 
L 37.796875 0 
L 37.796875 17.1875 
L 4.890625 17.1875 
L 4.890625 26.703125 
z
" id="DejaVuSans-52"/>
       </defs>
       <use xlink:href="#DejaVuSans-52"/>
      </g>
     </g>
    </g>
    <g id="xtick_102">
     <g id="line2d_115">
      <g>
       <use style="stroke:#000000;stroke-width:0.8;" x="164.070312" xlink:href="#m3ff4ae8a3b" y="224.64"/>
      </g>
     </g>
     <g id="text_26">
      <!-- 5 -->
      <g transform="translate(166.829688 238.0025)rotate(-90)scale(0.1 -0.1)">
       <use xlink:href="#DejaVuSans-53"/>
      </g>
     </g>
    </g>
    <g id="xtick_103">
     <g id="line2d_116">
      <g>
       <use style="stroke:#000000;stroke-width:0.8;" x="184.995313" xlink:href="#m3ff4ae8a3b" y="224.64"/>
      </g>
     </g>
     <g id="text_27">
      <!-- 6 -->
      <g transform="translate(187.754688 238.0025)rotate(-90)scale(0.1 -0.1)">
       <defs>
        <path d="M 33.015625 40.375 
Q 26.375 40.375 22.484375 35.828125 
Q 18.609375 31.296875 18.609375 23.390625 
Q 18.609375 15.53125 22.484375 10.953125 
Q 26.375 6.390625 33.015625 6.390625 
Q 39.65625 6.390625 43.53125 10.953125 
Q 47.40625 15.53125 47.40625 23.390625 
Q 47.40625 31.296875 43.53125 35.828125 
Q 39.65625 40.375 33.015625 40.375 
z
M 52.59375 71.296875 
L 52.59375 62.3125 
Q 48.875 64.0625 45.09375 64.984375 
Q 41.3125 65.921875 37.59375 65.921875 
Q 27.828125 65.921875 22.671875 59.328125 
Q 17.53125 52.734375 16.796875 39.40625 
Q 19.671875 43.65625 24.015625 45.921875 
Q 28.375 48.1875 33.59375 48.1875 
Q 44.578125 48.1875 50.953125 41.515625 
Q 57.328125 34.859375 57.328125 23.390625 
Q 57.328125 12.15625 50.6875 5.359375 
Q 44.046875 -1.421875 33.015625 -1.421875 
Q 20.359375 -1.421875 13.671875 8.265625 
Q 6.984375 17.96875 6.984375 36.375 
Q 6.984375 53.65625 15.1875 63.9375 
Q 23.390625 74.21875 37.203125 74.21875 
Q 40.921875 74.21875 44.703125 73.484375 
Q 48.484375 72.75 52.59375 71.296875 
z
" id="DejaVuSans-54"/>
       </defs>
       <use xlink:href="#DejaVuSans-54"/>
      </g>
     </g>
    </g>
    <g id="xtick_104">
     <g id="line2d_117">
      <g>
       <use style="stroke:#000000;stroke-width:0.8;" x="205.920312" xlink:href="#m3ff4ae8a3b" y="224.64"/>
      </g>
     </g>
     <g id="text_28">
      <!-- 7 -->
      <g transform="translate(208.679688 238.0025)rotate(-90)scale(0.1 -0.1)">
       <defs>
        <path d="M 8.203125 72.90625 
L 55.078125 72.90625 
L 55.078125 68.703125 
L 28.609375 0 
L 18.3125 0 
L 43.21875 64.59375 
L 8.203125 64.59375 
z
" id="DejaVuSans-55"/>
       </defs>
       <use xlink:href="#DejaVuSans-55"/>
      </g>
     </g>
    </g>
    <g id="xtick_105">
     <g id="line2d_118">
      <g>
       <use style="stroke:#000000;stroke-width:0.8;" x="226.845313" xlink:href="#m3ff4ae8a3b" y="224.64"/>
      </g>
     </g>
     <g id="text_29">
      <!-- 8 -->
      <g transform="translate(229.604688 238.0025)rotate(-90)scale(0.1 -0.1)">
       <defs>
        <path d="M 31.78125 34.625 
Q 24.75 34.625 20.71875 30.859375 
Q 16.703125 27.09375 16.703125 20.515625 
Q 16.703125 13.921875 20.71875 10.15625 
Q 24.75 6.390625 31.78125 6.390625 
Q 38.8125 6.390625 42.859375 10.171875 
Q 46.921875 13.96875 46.921875 20.515625 
Q 46.921875 27.09375 42.890625 30.859375 
Q 38.875 34.625 31.78125 34.625 
z
M 21.921875 38.8125 
Q 15.578125 40.375 12.03125 44.71875 
Q 8.5 49.078125 8.5 55.328125 
Q 8.5 64.0625 14.71875 69.140625 
Q 20.953125 74.21875 31.78125 74.21875 
Q 42.671875 74.21875 48.875 69.140625 
Q 55.078125 64.0625 55.078125 55.328125 
Q 55.078125 49.078125 51.53125 44.71875 
Q 48 40.375 41.703125 38.8125 
Q 48.828125 37.15625 52.796875 32.3125 
Q 56.78125 27.484375 56.78125 20.515625 
Q 56.78125 9.90625 50.3125 4.234375 
Q 43.84375 -1.421875 31.78125 -1.421875 
Q 19.734375 -1.421875 13.25 4.234375 
Q 6.78125 9.90625 6.78125 20.515625 
Q 6.78125 27.484375 10.78125 32.3125 
Q 14.796875 37.15625 21.921875 38.8125 
z
M 18.3125 54.390625 
Q 18.3125 48.734375 21.84375 45.5625 
Q 25.390625 42.390625 31.78125 42.390625 
Q 38.140625 42.390625 41.71875 45.5625 
Q 45.3125 48.734375 45.3125 54.390625 
Q 45.3125 60.0625 41.71875 63.234375 
Q 38.140625 66.40625 31.78125 66.40625 
Q 25.390625 66.40625 21.84375 63.234375 
Q 18.3125 60.0625 18.3125 54.390625 
z
" id="DejaVuSans-56"/>
       </defs>
       <use xlink:href="#DejaVuSans-56"/>
      </g>
     </g>
    </g>
    <g id="xtick_106">
     <g id="line2d_119">
      <g>
       <use style="stroke:#000000;stroke-width:0.8;" x="247.770313" xlink:href="#m3ff4ae8a3b" y="224.64"/>
      </g>
     </g>
     <g id="text_30">
      <!-- 9 -->
      <g transform="translate(250.529688 238.0025)rotate(-90)scale(0.1 -0.1)">
       <defs>
        <path d="M 10.984375 1.515625 
L 10.984375 10.5 
Q 14.703125 8.734375 18.5 7.8125 
Q 22.3125 6.890625 25.984375 6.890625 
Q 35.75 6.890625 40.890625 13.453125 
Q 46.046875 20.015625 46.78125 33.40625 
Q 43.953125 29.203125 39.59375 26.953125 
Q 35.25 24.703125 29.984375 24.703125 
Q 19.046875 24.703125 12.671875 31.3125 
Q 6.296875 37.9375 6.296875 49.421875 
Q 6.296875 60.640625 12.9375 67.421875 
Q 19.578125 74.21875 30.609375 74.21875 
Q 43.265625 74.21875 49.921875 64.515625 
Q 56.59375 54.828125 56.59375 36.375 
Q 56.59375 19.140625 48.40625 8.859375 
Q 40.234375 -1.421875 26.421875 -1.421875 
Q 22.703125 -1.421875 18.890625 -0.6875 
Q 15.09375 0.046875 10.984375 1.515625 
z
M 30.609375 32.421875 
Q 37.25 32.421875 41.125 36.953125 
Q 45.015625 41.5 45.015625 49.421875 
Q 45.015625 57.28125 41.125 61.84375 
Q 37.25 66.40625 30.609375 66.40625 
Q 23.96875 66.40625 20.09375 61.84375 
Q 16.21875 57.28125 16.21875 49.421875 
Q 16.21875 41.5 20.09375 36.953125 
Q 23.96875 32.421875 30.609375 32.421875 
z
" id="DejaVuSans-57"/>
       </defs>
       <use xlink:href="#DejaVuSans-57"/>
      </g>
     </g>
    </g>
    <g id="xtick_107">
     <g id="line2d_120">
      <g>
       <use style="stroke:#000000;stroke-width:0.8;" x="268.695312" xlink:href="#m3ff4ae8a3b" y="224.64"/>
      </g>
     </g>
     <g id="text_31">
      <!-- 10 -->
      <g transform="translate(271.454687 244.365)rotate(-90)scale(0.1 -0.1)">
       <use xlink:href="#DejaVuSans-49"/>
       <use x="63.623047" xlink:href="#DejaVuSans-48"/>
      </g>
     </g>
    </g>
    <g id="xtick_108">
     <g id="line2d_121">
      <g>
       <use style="stroke:#000000;stroke-width:0.8;" x="289.620313" xlink:href="#m3ff4ae8a3b" y="224.64"/>
      </g>
     </g>
     <g id="text_32">
      <!-- 11 -->
      <g transform="translate(292.379687 244.365)rotate(-90)scale(0.1 -0.1)">
       <use xlink:href="#DejaVuSans-49"/>
       <use x="63.623047" xlink:href="#DejaVuSans-49"/>
      </g>
     </g>
    </g>
    <g id="xtick_109">
     <g id="line2d_122">
      <g>
       <use style="stroke:#000000;stroke-width:0.8;" x="310.545313" xlink:href="#m3ff4ae8a3b" y="224.64"/>
      </g>
     </g>
     <g id="text_33">
      <!-- 12 -->
      <g transform="translate(313.304688 244.365)rotate(-90)scale(0.1 -0.1)">
       <use xlink:href="#DejaVuSans-49"/>
       <use x="63.623047" xlink:href="#DejaVuSans-50"/>
      </g>
     </g>
    </g>
    <g id="xtick_110">
     <g id="line2d_123">
      <g>
       <use style="stroke:#000000;stroke-width:0.8;" x="331.470313" xlink:href="#m3ff4ae8a3b" y="224.64"/>
      </g>
     </g>
     <g id="text_34">
      <!-- 13 -->
      <g transform="translate(334.229688 244.365)rotate(-90)scale(0.1 -0.1)">
       <use xlink:href="#DejaVuSans-49"/>
       <use x="63.623047" xlink:href="#DejaVuSans-51"/>
      </g>
     </g>
    </g>
    <g id="xtick_111">
     <g id="line2d_124">
      <g>
       <use style="stroke:#000000;stroke-width:0.8;" x="352.395312" xlink:href="#m3ff4ae8a3b" y="224.64"/>
      </g>
     </g>
     <g id="text_35">
      <!-- 14 -->
      <g transform="translate(355.154687 244.365)rotate(-90)scale(0.1 -0.1)">
       <use xlink:href="#DejaVuSans-49"/>
       <use x="63.623047" xlink:href="#DejaVuSans-52"/>
      </g>
     </g>
    </g>
    <g id="xtick_112">
     <g id="line2d_125">
      <g>
       <use style="stroke:#000000;stroke-width:0.8;" x="373.320312" xlink:href="#m3ff4ae8a3b" y="224.64"/>
      </g>
     </g>
     <g id="text_36">
      <!-- 15 -->
      <g transform="translate(376.079687 244.365)rotate(-90)scale(0.1 -0.1)">
       <use xlink:href="#DejaVuSans-49"/>
       <use x="63.623047" xlink:href="#DejaVuSans-53"/>
      </g>
     </g>
    </g>
    <g id="text_37">
     <!-- Features (Windows) -->
     <g transform="translate(167.08125 255.963438)scale(0.1 -0.1)">
      <defs>
       <path d="M 9.8125 72.90625 
L 51.703125 72.90625 
L 51.703125 64.59375 
L 19.671875 64.59375 
L 19.671875 43.109375 
L 48.578125 43.109375 
L 48.578125 34.8125 
L 19.671875 34.8125 
L 19.671875 0 
L 9.8125 0 
z
" id="DejaVuSans-70"/>
       <path d="M 34.28125 27.484375 
Q 23.390625 27.484375 19.1875 25 
Q 14.984375 22.515625 14.984375 16.5 
Q 14.984375 11.71875 18.140625 8.90625 
Q 21.296875 6.109375 26.703125 6.109375 
Q 34.1875 6.109375 38.703125 11.40625 
Q 43.21875 16.703125 43.21875 25.484375 
L 43.21875 27.484375 
z
M 52.203125 31.203125 
L 52.203125 0 
L 43.21875 0 
L 43.21875 8.296875 
Q 40.140625 3.328125 35.546875 0.953125 
Q 30.953125 -1.421875 24.3125 -1.421875 
Q 15.921875 -1.421875 10.953125 3.296875 
Q 6 8.015625 6 15.921875 
Q 6 25.140625 12.171875 29.828125 
Q 18.359375 34.515625 30.609375 34.515625 
L 43.21875 34.515625 
L 43.21875 35.40625 
Q 43.21875 41.609375 39.140625 45 
Q 35.0625 48.390625 27.6875 48.390625 
Q 23 48.390625 18.546875 47.265625 
Q 14.109375 46.140625 10.015625 43.890625 
L 10.015625 52.203125 
Q 14.9375 54.109375 19.578125 55.046875 
Q 24.21875 56 28.609375 56 
Q 40.484375 56 46.34375 49.84375 
Q 52.203125 43.703125 52.203125 31.203125 
z
" id="DejaVuSans-97"/>
       <path d="M 8.5 21.578125 
L 8.5 54.6875 
L 17.484375 54.6875 
L 17.484375 21.921875 
Q 17.484375 14.15625 20.5 10.265625 
Q 23.53125 6.390625 29.59375 6.390625 
Q 36.859375 6.390625 41.078125 11.03125 
Q 45.3125 15.671875 45.3125 23.6875 
L 45.3125 54.6875 
L 54.296875 54.6875 
L 54.296875 0 
L 45.3125 0 
L 45.3125 8.40625 
Q 42.046875 3.421875 37.71875 1 
Q 33.40625 -1.421875 27.6875 -1.421875 
Q 18.265625 -1.421875 13.375 4.4375 
Q 8.5 10.296875 8.5 21.578125 
z
M 31.109375 56 
z
" id="DejaVuSans-117"/>
       <path id="DejaVuSans-32"/>
       <path d="M 31 75.875 
Q 24.46875 64.65625 21.28125 53.65625 
Q 18.109375 42.671875 18.109375 31.390625 
Q 18.109375 20.125 21.3125 9.0625 
Q 24.515625 -2 31 -13.1875 
L 23.1875 -13.1875 
Q 15.875 -1.703125 12.234375 9.375 
Q 8.59375 20.453125 8.59375 31.390625 
Q 8.59375 42.28125 12.203125 53.3125 
Q 15.828125 64.359375 23.1875 75.875 
z
" id="DejaVuSans-40"/>
       <path d="M 8.015625 75.875 
L 15.828125 75.875 
Q 23.140625 64.359375 26.78125 53.3125 
Q 30.421875 42.28125 30.421875 31.390625 
Q 30.421875 20.453125 26.78125 9.375 
Q 23.140625 -1.703125 15.828125 -13.1875 
L 8.015625 -13.1875 
Q 14.5 -2 17.703125 9.0625 
Q 20.90625 20.125 20.90625 31.390625 
Q 20.90625 42.671875 17.703125 53.65625 
Q 14.5 64.65625 8.015625 75.875 
z
" id="DejaVuSans-41"/>
      </defs>
      <use xlink:href="#DejaVuSans-70"/>
      <use x="52.019531" xlink:href="#DejaVuSans-101"/>
      <use x="113.542969" xlink:href="#DejaVuSans-97"/>
      <use x="174.822266" xlink:href="#DejaVuSans-116"/>
      <use x="214.03125" xlink:href="#DejaVuSans-117"/>
      <use x="277.410156" xlink:href="#DejaVuSans-114"/>
      <use x="316.273438" xlink:href="#DejaVuSans-101"/>
      <use x="377.796875" xlink:href="#DejaVuSans-115"/>
      <use x="429.896484" xlink:href="#DejaVuSans-32"/>
      <use x="461.683594" xlink:href="#DejaVuSans-40"/>
      <use x="500.697266" xlink:href="#DejaVuSans-87"/>
      <use x="597.324219" xlink:href="#DejaVuSans-105"/>
      <use x="625.107422" xlink:href="#DejaVuSans-110"/>
      <use x="688.486328" xlink:href="#DejaVuSans-100"/>
      <use x="751.962891" xlink:href="#DejaVuSans-111"/>
      <use x="813.144531" xlink:href="#DejaVuSans-119"/>
      <use x="894.931641" xlink:href="#DejaVuSans-115"/>
      <use x="947.03125" xlink:href="#DejaVuSans-41"/>
     </g>
    </g>
   </g>
   <g id="matplotlib.axis_14">
    <g id="ytick_14">
     <g id="line2d_126">
      <g>
       <use style="stroke:#000000;stroke-width:0.8;" x="48.982813" xlink:href="#m964801694d" y="222.435545"/>
      </g>
     </g>
     <g id="text_38">
      <!-- −20 -->
      <g transform="translate(20.878125 226.234764)scale(0.1 -0.1)">
       <use xlink:href="#DejaVuSans-8722"/>
       <use x="83.789062" xlink:href="#DejaVuSans-50"/>
       <use x="147.412109" xlink:href="#DejaVuSans-48"/>
      </g>
     </g>
    </g>
    <g id="ytick_15">
     <g id="line2d_127">
      <g>
       <use style="stroke:#000000;stroke-width:0.8;" x="48.982813" xlink:href="#m964801694d" y="210.344108"/>
      </g>
     </g>
     <g id="text_39">
      <!-- 0 -->
      <g transform="translate(35.620312 214.143327)scale(0.1 -0.1)">
       <use xlink:href="#DejaVuSans-48"/>
      </g>
     </g>
    </g>
    <g id="ytick_16">
     <g id="line2d_128">
      <g>
       <use style="stroke:#000000;stroke-width:0.8;" x="48.982813" xlink:href="#m964801694d" y="198.252671"/>
      </g>
     </g>
     <g id="text_40">
      <!-- 20 -->
      <g transform="translate(29.257812 202.051889)scale(0.1 -0.1)">
       <use xlink:href="#DejaVuSans-50"/>
       <use x="63.623047" xlink:href="#DejaVuSans-48"/>
      </g>
     </g>
    </g>
   </g>
   <g id="patch_157">
    <path d="M 48.982813 224.64 
L 48.982813 198.122927 
" style="fill:none;stroke:#000000;stroke-linecap:square;stroke-linejoin:miter;stroke-width:0.8;"/>
   </g>
   <g id="patch_158">
    <path d="M 383.782813 224.64 
L 383.782813 198.122927 
" style="fill:none;stroke:#000000;stroke-linecap:square;stroke-linejoin:miter;stroke-width:0.8;"/>
   </g>
   <g id="patch_159">
    <path d="M 48.982813 224.64 
L 383.782813 224.64 
" style="fill:none;stroke:#000000;stroke-linecap:square;stroke-linejoin:miter;stroke-width:0.8;"/>
   </g>
   <g id="patch_160">
    <path d="M 48.982813 198.122927 
L 383.782813 198.122927 
" style="fill:none;stroke:#000000;stroke-linecap:square;stroke-linejoin:miter;stroke-width:0.8;"/>
   </g>
   <g id="legend_7">
    <g id="patch_161">
     <path d="M 390.782813 220.220526 
L 442.1375 220.220526 
Q 444.1375 220.220526 444.1375 218.220526 
L 444.1375 204.542401 
Q 444.1375 202.542401 442.1375 202.542401 
L 390.782813 202.542401 
Q 388.782813 202.542401 388.782813 204.542401 
L 388.782813 218.220526 
Q 388.782813 220.220526 390.782813 220.220526 
z
" style="fill:#ffffff;opacity:0.8;stroke:#cccccc;stroke-linejoin:miter;"/>
    </g>
    <g id="patch_162">
     <path d="M 392.782813 214.140838 
L 412.782813 214.140838 
L 412.782813 207.140838 
L 392.782813 207.140838 
z
" style="fill:#e377c2;"/>
    </g>
    <g id="text_41">
     <!-- rain -->
     <g transform="translate(420.782813 214.140838)scale(0.1 -0.1)">
      <use xlink:href="#DejaVuSans-114"/>
      <use x="41.113281" xlink:href="#DejaVuSans-97"/>
      <use x="102.392578" xlink:href="#DejaVuSans-105"/>
      <use x="130.175781" xlink:href="#DejaVuSans-110"/>
     </g>
    </g>
   </g>
  </g>
 </g>
 <defs>
  <clipPath id="p7328ae07a0">
   <rect height="26.517073" width="334.8" x="48.982813" y="7.2"/>
  </clipPath>
  <clipPath id="p9ccba0e959">
   <rect height="26.517073" width="334.8" x="48.982813" y="39.020488"/>
  </clipPath>
  <clipPath id="pcfeb04e9d2">
   <rect height="26.517073" width="334.8" x="48.982813" y="70.840976"/>
  </clipPath>
  <clipPath id="p3344d81c48">
   <rect height="26.517073" width="334.8" x="48.982813" y="102.661463"/>
  </clipPath>
  <clipPath id="p9328898cfc">
   <rect height="26.517073" width="334.8" x="48.982813" y="134.481951"/>
  </clipPath>
  <clipPath id="pcb25ec2fef">
   <rect height="26.517073" width="334.8" x="48.982813" y="166.302439"/>
  </clipPath>
  <clipPath id="pfac9d1890b">
   <rect height="26.517073" width="334.8" x="48.982813" y="198.122927"/>
  </clipPath>
 </defs>
</svg>
