<?xml version="1.0" encoding="utf-8" standalone="no"?>
<!DOCTYPE svg PUBLIC "-//W3C//DTD SVG 1.1//EN"
  "http://www.w3.org/Graphics/SVG/1.1/DTD/svg11.dtd">
<!-- Created with matplotlib (https://matplotlib.org/) -->
<svg height="277.318125pt" version="1.1" viewBox="0 0 486.7 277.318125" width="486.7pt" xmlns="http://www.w3.org/2000/svg" xmlns:xlink="http://www.w3.org/1999/xlink">
 <metadata>
  <rdf:RDF xmlns:cc="http://creativecommons.org/ns#" xmlns:dc="http://purl.org/dc/elements/1.1/" xmlns:rdf="http://www.w3.org/1999/02/22-rdf-syntax-ns#">
   <cc:Work>
    <dc:type rdf:resource="http://purl.org/dc/dcmitype/StillImage"/>
    <dc:date>2021-02-04T10:56:47.506037</dc:date>
    <dc:format>image/svg+xml</dc:format>
    <dc:creator>
     <cc:Agent>
      <dc:title>Matplotlib v3.3.2, https://matplotlib.org/</dc:title>
     </cc:Agent>
    </dc:creator>
   </cc:Work>
  </rdf:RDF>
 </metadata>
 <defs>
  <style type="text/css">*{stroke-linecap:butt;stroke-linejoin:round;}</style>
 </defs>
 <g id="figure_1">
  <g id="patch_1">
   <path d="M 0 277.318125 
L 486.7 277.318125 
L 486.7 0 
L 0 0 
z
" style="fill:none;"/>
  </g>
  <g id="axes_1">
   <g id="patch_2">
    <path d="M 44.845313 67.062857 
L 379.645313 67.062857 
L 379.645313 36 
L 44.845313 36 
z
" style="fill:#ffffff;"/>
   </g>
   <g id="matplotlib.axis_1">
    <g id="xtick_1">
     <g id="line2d_1">
      <defs>
       <path d="M 0 0 
L 0 3.5 
" id="mc864dcee27" style="stroke:#000000;stroke-width:0.8;"/>
      </defs>
      <g>
       <use style="stroke:#000000;stroke-width:0.8;" x="60.063494" xlink:href="#mc864dcee27" y="67.062857"/>
      </g>
     </g>
    </g>
    <g id="xtick_2">
     <g id="line2d_2">
      <g>
       <use style="stroke:#000000;stroke-width:0.8;" x="107.994776" xlink:href="#mc864dcee27" y="67.062857"/>
      </g>
     </g>
    </g>
    <g id="xtick_3">
     <g id="line2d_3">
      <g>
       <use style="stroke:#000000;stroke-width:0.8;" x="155.926057" xlink:href="#mc864dcee27" y="67.062857"/>
      </g>
     </g>
    </g>
    <g id="xtick_4">
     <g id="line2d_4">
      <g>
       <use style="stroke:#000000;stroke-width:0.8;" x="203.857338" xlink:href="#mc864dcee27" y="67.062857"/>
      </g>
     </g>
    </g>
    <g id="xtick_5">
     <g id="line2d_5">
      <g>
       <use style="stroke:#000000;stroke-width:0.8;" x="251.78862" xlink:href="#mc864dcee27" y="67.062857"/>
      </g>
     </g>
    </g>
    <g id="xtick_6">
     <g id="line2d_6">
      <g>
       <use style="stroke:#000000;stroke-width:0.8;" x="299.719901" xlink:href="#mc864dcee27" y="67.062857"/>
      </g>
     </g>
    </g>
    <g id="xtick_7">
     <g id="line2d_7">
      <g>
       <use style="stroke:#000000;stroke-width:0.8;" x="347.651182" xlink:href="#mc864dcee27" y="67.062857"/>
      </g>
     </g>
    </g>
   </g>
   <g id="matplotlib.axis_2">
    <g id="ytick_1">
     <g id="line2d_8">
      <defs>
       <path d="M 0 0 
L -3.5 0 
" id="m1f387b6e52" style="stroke:#000000;stroke-width:0.8;"/>
      </defs>
      <g>
       <use style="stroke:#000000;stroke-width:0.8;" x="44.845313" xlink:href="#m1f387b6e52" y="66.5198"/>
      </g>
     </g>
     <g id="text_1">
      <!-- 0.2 -->
      <g transform="translate(21.942188 70.319019)scale(0.1 -0.1)">
       <defs>
        <path d="M 31.78125 66.40625 
Q 24.171875 66.40625 20.328125 58.90625 
Q 16.5 51.421875 16.5 36.375 
Q 16.5 21.390625 20.328125 13.890625 
Q 24.171875 6.390625 31.78125 6.390625 
Q 39.453125 6.390625 43.28125 13.890625 
Q 47.125 21.390625 47.125 36.375 
Q 47.125 51.421875 43.28125 58.90625 
Q 39.453125 66.40625 31.78125 66.40625 
z
M 31.78125 74.21875 
Q 44.046875 74.21875 50.515625 64.515625 
Q 56.984375 54.828125 56.984375 36.375 
Q 56.984375 17.96875 50.515625 8.265625 
Q 44.046875 -1.421875 31.78125 -1.421875 
Q 19.53125 -1.421875 13.0625 8.265625 
Q 6.59375 17.96875 6.59375 36.375 
Q 6.59375 54.828125 13.0625 64.515625 
Q 19.53125 74.21875 31.78125 74.21875 
z
" id="DejaVuSans-48"/>
        <path d="M 10.6875 12.40625 
L 21 12.40625 
L 21 0 
L 10.6875 0 
z
" id="DejaVuSans-46"/>
        <path d="M 19.1875 8.296875 
L 53.609375 8.296875 
L 53.609375 0 
L 7.328125 0 
L 7.328125 8.296875 
Q 12.9375 14.109375 22.625 23.890625 
Q 32.328125 33.6875 34.8125 36.53125 
Q 39.546875 41.84375 41.421875 45.53125 
Q 43.3125 49.21875 43.3125 52.78125 
Q 43.3125 58.59375 39.234375 62.25 
Q 35.15625 65.921875 28.609375 65.921875 
Q 23.96875 65.921875 18.8125 64.3125 
Q 13.671875 62.703125 7.8125 59.421875 
L 7.8125 69.390625 
Q 13.765625 71.78125 18.9375 73 
Q 24.125 74.21875 28.421875 74.21875 
Q 39.75 74.21875 46.484375 68.546875 
Q 53.21875 62.890625 53.21875 53.421875 
Q 53.21875 48.921875 51.53125 44.890625 
Q 49.859375 40.875 45.40625 35.40625 
Q 44.1875 33.984375 37.640625 27.21875 
Q 31.109375 20.453125 19.1875 8.296875 
z
" id="DejaVuSans-50"/>
       </defs>
       <use xlink:href="#DejaVuSans-48"/>
       <use x="63.623047" xlink:href="#DejaVuSans-46"/>
       <use x="95.410156" xlink:href="#DejaVuSans-50"/>
      </g>
     </g>
    </g>
    <g id="ytick_2">
     <g id="line2d_9">
      <g>
       <use style="stroke:#000000;stroke-width:0.8;" x="44.845313" xlink:href="#m1f387b6e52" y="36.977502"/>
      </g>
     </g>
     <g id="text_2">
      <!-- 0.4 -->
      <g transform="translate(21.942188 40.776721)scale(0.1 -0.1)">
       <defs>
        <path d="M 37.796875 64.3125 
L 12.890625 25.390625 
L 37.796875 25.390625 
z
M 35.203125 72.90625 
L 47.609375 72.90625 
L 47.609375 25.390625 
L 58.015625 25.390625 
L 58.015625 17.1875 
L 47.609375 17.1875 
L 47.609375 0 
L 37.796875 0 
L 37.796875 17.1875 
L 4.890625 17.1875 
L 4.890625 26.703125 
z
" id="DejaVuSans-52"/>
       </defs>
       <use xlink:href="#DejaVuSans-48"/>
       <use x="63.623047" xlink:href="#DejaVuSans-46"/>
       <use x="95.410156" xlink:href="#DejaVuSans-52"/>
      </g>
     </g>
    </g>
   </g>
   <g id="line2d_10">
    <path clip-path="url(#pb0102b395e)" d="M 60.063494 56.961998 
L 64.856622 56.961998 
L 67.253187 59.134226 
L 69.649751 59.134226 
L 72.046315 56.961998 
L 74.442879 61.306454 
L 76.839443 61.306454 
L 79.236007 65.650909 
L 81.632571 65.650909 
L 84.029135 56.961998 
L 86.425699 56.961998 
L 88.822263 59.134226 
L 91.218827 59.134226 
L 93.615391 56.961998 
L 96.011955 56.961998 
L 98.408519 54.78977 
L 100.805083 56.961998 
L 103.201648 54.78977 
L 105.598212 56.961998 
L 112.787904 56.961998 
L 115.184468 59.134226 
L 119.977596 59.134226 
L 122.37416 56.961998 
L 134.35698 56.961998 
L 136.753544 61.306454 
L 139.150108 59.134226 
L 146.339801 59.134226 
L 151.132929 54.78977 
L 155.926057 54.78977 
L 158.322621 52.617542 
L 163.115749 56.961998 
L 170.305441 56.961998 
L 172.702005 59.134226 
L 175.098569 56.961998 
L 177.495134 56.961998 
L 179.891698 59.134226 
L 182.288262 54.78977 
L 184.684826 56.961998 
L 189.477954 56.961998 
L 191.874518 59.134226 
L 203.857338 59.134226 
L 208.650466 54.78977 
L 211.04703 50.445315 
L 213.443595 48.273087 
L 215.840159 43.928631 
L 218.236723 48.273087 
L 223.029851 48.273087 
L 225.426415 50.445315 
L 237.409235 50.445315 
L 239.805799 46.100859 
L 242.202363 46.100859 
L 244.598927 48.273087 
L 246.995491 48.273087 
L 251.78862 52.617542 
L 261.374876 52.617542 
L 263.77144 48.273087 
L 266.168004 41.756404 
L 270.961132 41.756404 
L 273.357696 37.411948 
L 278.150824 37.411948 
L 280.547388 39.584176 
L 287.737081 39.584176 
L 290.133645 46.100859 
L 292.530209 46.100859 
L 294.926773 48.273087 
L 297.323337 52.617542 
L 302.116465 56.961998 
L 304.513029 56.961998 
L 309.306157 61.306454 
L 311.702721 59.134226 
L 314.099285 61.306454 
L 316.495849 61.306454 
L 318.892413 59.134226 
L 321.288977 59.134226 
L 323.685542 56.961998 
L 326.082106 59.134226 
L 330.875234 54.78977 
L 333.271798 56.961998 
L 335.668362 54.78977 
L 338.064926 56.961998 
L 352.44431 56.961998 
L 354.840874 54.78977 
L 359.634003 59.134226 
L 364.427131 59.134226 
L 364.427131 59.134226 
" style="fill:none;stroke:#1f77b4;stroke-linecap:square;stroke-width:1.5;"/>
   </g>
   <g id="patch_3">
    <path d="M 44.845313 67.062857 
L 44.845313 36 
" style="fill:none;stroke:#000000;stroke-linecap:square;stroke-linejoin:miter;stroke-width:0.8;"/>
   </g>
   <g id="patch_4">
    <path d="M 379.645313 67.062857 
L 379.645313 36 
" style="fill:none;stroke:#000000;stroke-linecap:square;stroke-linejoin:miter;stroke-width:0.8;"/>
   </g>
   <g id="patch_5">
    <path d="M 44.845313 67.062857 
L 379.645313 67.062857 
" style="fill:none;stroke:#000000;stroke-linecap:square;stroke-linejoin:miter;stroke-width:0.8;"/>
   </g>
   <g id="patch_6">
    <path d="M 44.845313 36 
L 379.645313 36 
" style="fill:none;stroke:#000000;stroke-linecap:square;stroke-linejoin:miter;stroke-width:0.8;"/>
   </g>
   <g id="legend_1">
    <g id="patch_7">
     <path d="M 386.645313 60.370491 
L 439.325 60.370491 
Q 441.325 60.370491 441.325 58.370491 
L 441.325 44.692366 
Q 441.325 42.692366 439.325 42.692366 
L 386.645313 42.692366 
Q 384.645313 42.692366 384.645313 44.692366 
L 384.645313 58.370491 
Q 384.645313 60.370491 386.645313 60.370491 
z
" style="fill:#ffffff;opacity:0.8;stroke:#cccccc;stroke-linejoin:miter;"/>
    </g>
    <g id="line2d_11">
     <path d="M 388.645313 50.790804 
L 408.645313 50.790804 
" style="fill:none;stroke:#1f77b4;stroke-linecap:square;stroke-width:1.5;"/>
    </g>
    <g id="line2d_12"/>
    <g id="text_3">
     <!-- dew -->
     <g transform="translate(416.645313 54.290804)scale(0.1 -0.1)">
      <defs>
       <path d="M 45.40625 46.390625 
L 45.40625 75.984375 
L 54.390625 75.984375 
L 54.390625 0 
L 45.40625 0 
L 45.40625 8.203125 
Q 42.578125 3.328125 38.25 0.953125 
Q 33.9375 -1.421875 27.875 -1.421875 
Q 17.96875 -1.421875 11.734375 6.484375 
Q 5.515625 14.40625 5.515625 27.296875 
Q 5.515625 40.1875 11.734375 48.09375 
Q 17.96875 56 27.875 56 
Q 33.9375 56 38.25 53.625 
Q 42.578125 51.265625 45.40625 46.390625 
z
M 14.796875 27.296875 
Q 14.796875 17.390625 18.875 11.75 
Q 22.953125 6.109375 30.078125 6.109375 
Q 37.203125 6.109375 41.296875 11.75 
Q 45.40625 17.390625 45.40625 27.296875 
Q 45.40625 37.203125 41.296875 42.84375 
Q 37.203125 48.484375 30.078125 48.484375 
Q 22.953125 48.484375 18.875 42.84375 
Q 14.796875 37.203125 14.796875 27.296875 
z
" id="DejaVuSans-100"/>
       <path d="M 56.203125 29.59375 
L 56.203125 25.203125 
L 14.890625 25.203125 
Q 15.484375 15.921875 20.484375 11.0625 
Q 25.484375 6.203125 34.421875 6.203125 
Q 39.59375 6.203125 44.453125 7.46875 
Q 49.3125 8.734375 54.109375 11.28125 
L 54.109375 2.78125 
Q 49.265625 0.734375 44.1875 -0.34375 
Q 39.109375 -1.421875 33.890625 -1.421875 
Q 20.796875 -1.421875 13.15625 6.1875 
Q 5.515625 13.8125 5.515625 26.8125 
Q 5.515625 40.234375 12.765625 48.109375 
Q 20.015625 56 32.328125 56 
Q 43.359375 56 49.78125 48.890625 
Q 56.203125 41.796875 56.203125 29.59375 
z
M 47.21875 32.234375 
Q 47.125 39.59375 43.09375 43.984375 
Q 39.0625 48.390625 32.421875 48.390625 
Q 24.90625 48.390625 20.390625 44.140625 
Q 15.875 39.890625 15.1875 32.171875 
z
" id="DejaVuSans-101"/>
       <path d="M 4.203125 54.6875 
L 13.1875 54.6875 
L 24.421875 12.015625 
L 35.59375 54.6875 
L 46.1875 54.6875 
L 57.421875 12.015625 
L 68.609375 54.6875 
L 77.59375 54.6875 
L 63.28125 0 
L 52.6875 0 
L 40.921875 44.828125 
L 29.109375 0 
L 18.5 0 
z
" id="DejaVuSans-119"/>
      </defs>
      <use xlink:href="#DejaVuSans-100"/>
      <use x="63.476562" xlink:href="#DejaVuSans-101"/>
      <use x="125" xlink:href="#DejaVuSans-119"/>
     </g>
    </g>
   </g>
  </g>
  <g id="axes_2">
   <g id="patch_8">
    <path d="M 44.845313 104.338286 
L 379.645313 104.338286 
L 379.645313 73.275429 
L 44.845313 73.275429 
z
" style="fill:#ffffff;"/>
   </g>
   <g id="matplotlib.axis_3">
    <g id="xtick_8">
     <g id="line2d_13">
      <g>
       <use style="stroke:#000000;stroke-width:0.8;" x="60.063494" xlink:href="#mc864dcee27" y="104.338286"/>
      </g>
     </g>
    </g>
    <g id="xtick_9">
     <g id="line2d_14">
      <g>
       <use style="stroke:#000000;stroke-width:0.8;" x="107.994776" xlink:href="#mc864dcee27" y="104.338286"/>
      </g>
     </g>
    </g>
    <g id="xtick_10">
     <g id="line2d_15">
      <g>
       <use style="stroke:#000000;stroke-width:0.8;" x="155.926057" xlink:href="#mc864dcee27" y="104.338286"/>
      </g>
     </g>
    </g>
    <g id="xtick_11">
     <g id="line2d_16">
      <g>
       <use style="stroke:#000000;stroke-width:0.8;" x="203.857338" xlink:href="#mc864dcee27" y="104.338286"/>
      </g>
     </g>
    </g>
    <g id="xtick_12">
     <g id="line2d_17">
      <g>
       <use style="stroke:#000000;stroke-width:0.8;" x="251.78862" xlink:href="#mc864dcee27" y="104.338286"/>
      </g>
     </g>
    </g>
    <g id="xtick_13">
     <g id="line2d_18">
      <g>
       <use style="stroke:#000000;stroke-width:0.8;" x="299.719901" xlink:href="#mc864dcee27" y="104.338286"/>
      </g>
     </g>
    </g>
    <g id="xtick_14">
     <g id="line2d_19">
      <g>
       <use style="stroke:#000000;stroke-width:0.8;" x="347.651182" xlink:href="#mc864dcee27" y="104.338286"/>
      </g>
     </g>
    </g>
   </g>
   <g id="matplotlib.axis_4">
    <g id="ytick_3">
     <g id="line2d_20">
      <g>
       <use style="stroke:#000000;stroke-width:0.8;" x="44.845313" xlink:href="#m1f387b6e52" y="94.454649"/>
      </g>
     </g>
     <g id="text_4">
      <!-- 0.2 -->
      <g transform="translate(21.942188 98.253868)scale(0.1 -0.1)">
       <use xlink:href="#DejaVuSans-48"/>
       <use x="63.623047" xlink:href="#DejaVuSans-46"/>
       <use x="95.410156" xlink:href="#DejaVuSans-50"/>
      </g>
     </g>
    </g>
    <g id="ytick_4">
     <g id="line2d_21">
      <g>
       <use style="stroke:#000000;stroke-width:0.8;" x="44.845313" xlink:href="#m1f387b6e52" y="82.150531"/>
      </g>
     </g>
     <g id="text_5">
      <!-- 0.3 -->
      <g transform="translate(21.942188 85.949749)scale(0.1 -0.1)">
       <defs>
        <path d="M 40.578125 39.3125 
Q 47.65625 37.796875 51.625 33 
Q 55.609375 28.21875 55.609375 21.1875 
Q 55.609375 10.40625 48.1875 4.484375 
Q 40.765625 -1.421875 27.09375 -1.421875 
Q 22.515625 -1.421875 17.65625 -0.515625 
Q 12.796875 0.390625 7.625 2.203125 
L 7.625 11.71875 
Q 11.71875 9.328125 16.59375 8.109375 
Q 21.484375 6.890625 26.8125 6.890625 
Q 36.078125 6.890625 40.9375 10.546875 
Q 45.796875 14.203125 45.796875 21.1875 
Q 45.796875 27.640625 41.28125 31.265625 
Q 36.765625 34.90625 28.71875 34.90625 
L 20.21875 34.90625 
L 20.21875 43.015625 
L 29.109375 43.015625 
Q 36.375 43.015625 40.234375 45.921875 
Q 44.09375 48.828125 44.09375 54.296875 
Q 44.09375 59.90625 40.109375 62.90625 
Q 36.140625 65.921875 28.71875 65.921875 
Q 24.65625 65.921875 20.015625 65.03125 
Q 15.375 64.15625 9.8125 62.3125 
L 9.8125 71.09375 
Q 15.4375 72.65625 20.34375 73.4375 
Q 25.25 74.21875 29.59375 74.21875 
Q 40.828125 74.21875 47.359375 69.109375 
Q 53.90625 64.015625 53.90625 55.328125 
Q 53.90625 49.265625 50.4375 45.09375 
Q 46.96875 40.921875 40.578125 39.3125 
z
" id="DejaVuSans-51"/>
       </defs>
       <use xlink:href="#DejaVuSans-48"/>
       <use x="63.623047" xlink:href="#DejaVuSans-46"/>
       <use x="95.410156" xlink:href="#DejaVuSans-51"/>
      </g>
     </g>
    </g>
   </g>
   <g id="line2d_22">
    <path clip-path="url(#p953fe73f6a)" d="M 60.063494 84.77272 
L 62.460058 86.789788 
L 64.856622 86.789788 
L 67.253187 88.806857 
L 69.649751 88.806857 
L 79.236007 80.738583 
L 86.425699 80.738583 
L 88.822263 82.755651 
L 93.615391 82.755651 
L 96.011955 84.77272 
L 100.805083 84.77272 
L 103.201648 86.789788 
L 110.39134 86.789788 
L 112.787904 88.806857 
L 115.184468 88.806857 
L 117.581032 90.823926 
L 119.977596 90.823926 
L 122.37416 92.840994 
L 127.167288 88.806857 
L 129.563852 88.806857 
L 131.960416 86.789788 
L 134.35698 86.789788 
L 136.753544 84.77272 
L 146.339801 84.77272 
L 148.736365 86.789788 
L 151.132929 86.789788 
L 153.529493 90.823926 
L 163.115749 90.823926 
L 165.512313 92.840994 
L 167.908877 92.840994 
L 172.702005 96.875132 
L 175.098569 96.875132 
L 177.495134 98.8922 
L 182.288262 98.8922 
L 184.684826 92.840994 
L 196.667646 82.755651 
L 203.857338 82.755651 
L 206.253902 86.789788 
L 213.443595 92.840994 
L 215.840159 96.875132 
L 220.633287 96.875132 
L 223.029851 102.926338 
L 225.426415 96.875132 
L 227.822979 102.926338 
L 230.219543 100.909269 
L 232.616107 102.926338 
L 237.409235 102.926338 
L 239.805799 100.909269 
L 242.202363 94.858063 
L 246.995491 86.789788 
L 249.392056 80.738583 
L 251.78862 78.721514 
L 254.185184 74.687377 
L 258.978312 74.687377 
L 261.374876 76.704445 
L 263.77144 80.738583 
L 266.168004 82.755651 
L 268.564568 80.738583 
L 270.961132 88.806857 
L 278.150824 94.858063 
L 280.547388 94.858063 
L 282.943952 90.823926 
L 285.340517 92.840994 
L 287.737081 90.823926 
L 290.133645 86.789788 
L 292.530209 86.789788 
L 294.926773 88.806857 
L 297.323337 86.789788 
L 304.513029 86.789788 
L 306.909593 84.77272 
L 318.892413 84.77272 
L 321.288977 88.806857 
L 323.685542 90.823926 
L 326.082106 90.823926 
L 328.47867 96.875132 
L 330.875234 94.858063 
L 333.271798 96.875132 
L 335.668362 94.858063 
L 340.46149 94.858063 
L 342.858054 96.875132 
L 345.254618 96.875132 
L 347.651182 98.8922 
L 350.047746 98.8922 
L 352.44431 100.909269 
L 354.840874 98.8922 
L 357.237438 92.840994 
L 364.427131 86.789788 
L 364.427131 86.789788 
" style="fill:none;stroke:#ff7f0e;stroke-linecap:square;stroke-width:1.5;"/>
   </g>
   <g id="patch_9">
    <path d="M 44.845313 104.338286 
L 44.845313 73.275429 
" style="fill:none;stroke:#000000;stroke-linecap:square;stroke-linejoin:miter;stroke-width:0.8;"/>
   </g>
   <g id="patch_10">
    <path d="M 379.645313 104.338286 
L 379.645313 73.275429 
" style="fill:none;stroke:#000000;stroke-linecap:square;stroke-linejoin:miter;stroke-width:0.8;"/>
   </g>
   <g id="patch_11">
    <path d="M 44.845313 104.338286 
L 379.645313 104.338286 
" style="fill:none;stroke:#000000;stroke-linecap:square;stroke-linejoin:miter;stroke-width:0.8;"/>
   </g>
   <g id="patch_12">
    <path d="M 44.845313 73.275429 
L 379.645313 73.275429 
" style="fill:none;stroke:#000000;stroke-linecap:square;stroke-linejoin:miter;stroke-width:0.8;"/>
   </g>
   <g id="legend_2">
    <g id="patch_13">
     <path d="M 386.645313 97.64592 
L 444.807813 97.64592 
Q 446.807813 97.64592 446.807813 95.64592 
L 446.807813 81.967795 
Q 446.807813 79.967795 444.807813 79.967795 
L 386.645313 79.967795 
Q 384.645313 79.967795 384.645313 81.967795 
L 384.645313 95.64592 
Q 384.645313 97.64592 386.645313 97.64592 
z
" style="fill:#ffffff;opacity:0.8;stroke:#cccccc;stroke-linejoin:miter;"/>
    </g>
    <g id="line2d_23">
     <path d="M 388.645313 88.066232 
L 408.645313 88.066232 
" style="fill:none;stroke:#ff7f0e;stroke-linecap:square;stroke-width:1.5;"/>
    </g>
    <g id="line2d_24"/>
    <g id="text_6">
     <!-- temp -->
     <g transform="translate(416.645313 91.566232)scale(0.1 -0.1)">
      <defs>
       <path d="M 18.3125 70.21875 
L 18.3125 54.6875 
L 36.8125 54.6875 
L 36.8125 47.703125 
L 18.3125 47.703125 
L 18.3125 18.015625 
Q 18.3125 11.328125 20.140625 9.421875 
Q 21.96875 7.515625 27.59375 7.515625 
L 36.8125 7.515625 
L 36.8125 0 
L 27.59375 0 
Q 17.1875 0 13.234375 3.875 
Q 9.28125 7.765625 9.28125 18.015625 
L 9.28125 47.703125 
L 2.6875 47.703125 
L 2.6875 54.6875 
L 9.28125 54.6875 
L 9.28125 70.21875 
z
" id="DejaVuSans-116"/>
       <path d="M 52 44.1875 
Q 55.375 50.25 60.0625 53.125 
Q 64.75 56 71.09375 56 
Q 79.640625 56 84.28125 50.015625 
Q 88.921875 44.046875 88.921875 33.015625 
L 88.921875 0 
L 79.890625 0 
L 79.890625 32.71875 
Q 79.890625 40.578125 77.09375 44.375 
Q 74.3125 48.1875 68.609375 48.1875 
Q 61.625 48.1875 57.5625 43.546875 
Q 53.515625 38.921875 53.515625 30.90625 
L 53.515625 0 
L 44.484375 0 
L 44.484375 32.71875 
Q 44.484375 40.625 41.703125 44.40625 
Q 38.921875 48.1875 33.109375 48.1875 
Q 26.21875 48.1875 22.15625 43.53125 
Q 18.109375 38.875 18.109375 30.90625 
L 18.109375 0 
L 9.078125 0 
L 9.078125 54.6875 
L 18.109375 54.6875 
L 18.109375 46.1875 
Q 21.1875 51.21875 25.484375 53.609375 
Q 29.78125 56 35.6875 56 
Q 41.65625 56 45.828125 52.96875 
Q 50 49.953125 52 44.1875 
z
" id="DejaVuSans-109"/>
       <path d="M 18.109375 8.203125 
L 18.109375 -20.796875 
L 9.078125 -20.796875 
L 9.078125 54.6875 
L 18.109375 54.6875 
L 18.109375 46.390625 
Q 20.953125 51.265625 25.265625 53.625 
Q 29.59375 56 35.59375 56 
Q 45.5625 56 51.78125 48.09375 
Q 58.015625 40.1875 58.015625 27.296875 
Q 58.015625 14.40625 51.78125 6.484375 
Q 45.5625 -1.421875 35.59375 -1.421875 
Q 29.59375 -1.421875 25.265625 0.953125 
Q 20.953125 3.328125 18.109375 8.203125 
z
M 48.6875 27.296875 
Q 48.6875 37.203125 44.609375 42.84375 
Q 40.53125 48.484375 33.40625 48.484375 
Q 26.265625 48.484375 22.1875 42.84375 
Q 18.109375 37.203125 18.109375 27.296875 
Q 18.109375 17.390625 22.1875 11.75 
Q 26.265625 6.109375 33.40625 6.109375 
Q 40.53125 6.109375 44.609375 11.75 
Q 48.6875 17.390625 48.6875 27.296875 
z
" id="DejaVuSans-112"/>
      </defs>
      <use xlink:href="#DejaVuSans-116"/>
      <use x="39.208984" xlink:href="#DejaVuSans-101"/>
      <use x="100.732422" xlink:href="#DejaVuSans-109"/>
      <use x="198.144531" xlink:href="#DejaVuSans-112"/>
     </g>
    </g>
   </g>
  </g>
  <g id="axes_3">
   <g id="patch_14">
    <path d="M 44.845313 141.613714 
L 379.645313 141.613714 
L 379.645313 110.550857 
L 44.845313 110.550857 
z
" style="fill:#ffffff;"/>
   </g>
   <g id="matplotlib.axis_5">
    <g id="xtick_15">
     <g id="line2d_25">
      <g>
       <use style="stroke:#000000;stroke-width:0.8;" x="60.063494" xlink:href="#mc864dcee27" y="141.613714"/>
      </g>
     </g>
    </g>
    <g id="xtick_16">
     <g id="line2d_26">
      <g>
       <use style="stroke:#000000;stroke-width:0.8;" x="107.994776" xlink:href="#mc864dcee27" y="141.613714"/>
      </g>
     </g>
    </g>
    <g id="xtick_17">
     <g id="line2d_27">
      <g>
       <use style="stroke:#000000;stroke-width:0.8;" x="155.926057" xlink:href="#mc864dcee27" y="141.613714"/>
      </g>
     </g>
    </g>
    <g id="xtick_18">
     <g id="line2d_28">
      <g>
       <use style="stroke:#000000;stroke-width:0.8;" x="203.857338" xlink:href="#mc864dcee27" y="141.613714"/>
      </g>
     </g>
    </g>
    <g id="xtick_19">
     <g id="line2d_29">
      <g>
       <use style="stroke:#000000;stroke-width:0.8;" x="251.78862" xlink:href="#mc864dcee27" y="141.613714"/>
      </g>
     </g>
    </g>
    <g id="xtick_20">
     <g id="line2d_30">
      <g>
       <use style="stroke:#000000;stroke-width:0.8;" x="299.719901" xlink:href="#mc864dcee27" y="141.613714"/>
      </g>
     </g>
    </g>
    <g id="xtick_21">
     <g id="line2d_31">
      <g>
       <use style="stroke:#000000;stroke-width:0.8;" x="347.651182" xlink:href="#mc864dcee27" y="141.613714"/>
      </g>
     </g>
    </g>
   </g>
   <g id="matplotlib.axis_6">
    <g id="ytick_5">
     <g id="line2d_32">
      <g>
       <use style="stroke:#000000;stroke-width:0.8;" x="44.845313" xlink:href="#m1f387b6e52" y="131.965403"/>
      </g>
     </g>
     <g id="text_7">
      <!-- 0.7 -->
      <g transform="translate(21.942188 135.764621)scale(0.1 -0.1)">
       <defs>
        <path d="M 8.203125 72.90625 
L 55.078125 72.90625 
L 55.078125 68.703125 
L 28.609375 0 
L 18.3125 0 
L 43.21875 64.59375 
L 8.203125 64.59375 
z
" id="DejaVuSans-55"/>
       </defs>
       <use xlink:href="#DejaVuSans-48"/>
       <use x="63.623047" xlink:href="#DejaVuSans-46"/>
       <use x="95.410156" xlink:href="#DejaVuSans-55"/>
      </g>
     </g>
    </g>
    <g id="ytick_6">
     <g id="line2d_33">
      <g>
       <use style="stroke:#000000;stroke-width:0.8;" x="44.845313" xlink:href="#m1f387b6e52" y="119.022545"/>
      </g>
     </g>
     <g id="text_8">
      <!-- 0.8 -->
      <g transform="translate(21.942188 122.821764)scale(0.1 -0.1)">
       <defs>
        <path d="M 31.78125 34.625 
Q 24.75 34.625 20.71875 30.859375 
Q 16.703125 27.09375 16.703125 20.515625 
Q 16.703125 13.921875 20.71875 10.15625 
Q 24.75 6.390625 31.78125 6.390625 
Q 38.8125 6.390625 42.859375 10.171875 
Q 46.921875 13.96875 46.921875 20.515625 
Q 46.921875 27.09375 42.890625 30.859375 
Q 38.875 34.625 31.78125 34.625 
z
M 21.921875 38.8125 
Q 15.578125 40.375 12.03125 44.71875 
Q 8.5 49.078125 8.5 55.328125 
Q 8.5 64.0625 14.71875 69.140625 
Q 20.953125 74.21875 31.78125 74.21875 
Q 42.671875 74.21875 48.875 69.140625 
Q 55.078125 64.0625 55.078125 55.328125 
Q 55.078125 49.078125 51.53125 44.71875 
Q 48 40.375 41.703125 38.8125 
Q 48.828125 37.15625 52.796875 32.3125 
Q 56.78125 27.484375 56.78125 20.515625 
Q 56.78125 9.90625 50.3125 4.234375 
Q 43.84375 -1.421875 31.78125 -1.421875 
Q 19.734375 -1.421875 13.25 4.234375 
Q 6.78125 9.90625 6.78125 20.515625 
Q 6.78125 27.484375 10.78125 32.3125 
Q 14.796875 37.15625 21.921875 38.8125 
z
M 18.3125 54.390625 
Q 18.3125 48.734375 21.84375 45.5625 
Q 25.390625 42.390625 31.78125 42.390625 
Q 38.140625 42.390625 41.71875 45.5625 
Q 45.3125 48.734375 45.3125 54.390625 
Q 45.3125 60.0625 41.71875 63.234375 
Q 38.140625 66.40625 31.78125 66.40625 
Q 25.390625 66.40625 21.84375 63.234375 
Q 18.3125 60.0625 18.3125 54.390625 
z
" id="DejaVuSans-56"/>
       </defs>
       <use xlink:href="#DejaVuSans-48"/>
       <use x="63.623047" xlink:href="#DejaVuSans-46"/>
       <use x="95.410156" xlink:href="#DejaVuSans-56"/>
      </g>
     </g>
    </g>
   </g>
   <g id="line2d_34">
    <path clip-path="url(#p204a713ac4)" d="M 60.063494 130.788779 
L 62.460058 130.788779 
L 69.649751 123.729039 
L 72.046315 123.729039 
L 74.442879 126.082286 
L 76.839443 126.082286 
L 81.632571 130.788779 
L 88.822263 130.788779 
L 93.615391 126.082286 
L 96.011955 126.082286 
L 103.201648 119.022545 
L 112.787904 119.022545 
L 115.184468 121.375792 
L 117.581032 121.375792 
L 124.770724 114.316052 
L 131.960416 114.316052 
L 134.35698 116.669299 
L 136.753544 116.669299 
L 139.150108 119.022545 
L 148.736365 119.022545 
L 151.132929 116.669299 
L 155.926057 116.669299 
L 160.719185 111.962805 
L 167.908877 111.962805 
L 170.305441 114.316052 
L 175.098569 114.316052 
L 177.495134 111.962805 
L 184.684826 111.962805 
L 199.06421 126.082286 
L 201.460774 126.082286 
L 203.857338 128.435532 
L 206.253902 128.435532 
L 208.650466 126.082286 
L 218.236723 126.082286 
L 220.633287 128.435532 
L 225.426415 128.435532 
L 227.822979 130.788779 
L 237.409235 130.788779 
L 239.805799 128.435532 
L 244.598927 128.435532 
L 256.581748 140.201766 
L 263.77144 140.201766 
L 266.168004 137.848519 
L 270.961132 137.848519 
L 273.357696 135.495273 
L 278.150824 135.495273 
L 280.547388 133.142026 
L 282.943952 133.142026 
L 285.340517 130.788779 
L 290.133645 130.788779 
L 302.116465 119.022545 
L 306.909593 119.022545 
L 309.306157 123.729039 
L 311.702721 123.729039 
L 314.099285 126.082286 
L 318.892413 126.082286 
L 321.288977 123.729039 
L 323.685542 123.729039 
L 326.082106 119.022545 
L 328.47867 119.022545 
L 330.875234 116.669299 
L 335.668362 116.669299 
L 338.064926 114.316052 
L 340.46149 116.669299 
L 342.858054 114.316052 
L 345.254618 116.669299 
L 350.047746 116.669299 
L 352.44431 114.316052 
L 354.840874 114.316052 
L 357.237438 111.962805 
L 359.634003 111.962805 
L 364.427131 116.669299 
L 364.427131 116.669299 
" style="fill:none;stroke:#2ca02c;stroke-linecap:square;stroke-width:1.5;"/>
   </g>
   <g id="patch_15">
    <path d="M 44.845313 141.613714 
L 44.845313 110.550857 
" style="fill:none;stroke:#000000;stroke-linecap:square;stroke-linejoin:miter;stroke-width:0.8;"/>
   </g>
   <g id="patch_16">
    <path d="M 379.645313 141.613714 
L 379.645313 110.550857 
" style="fill:none;stroke:#000000;stroke-linecap:square;stroke-linejoin:miter;stroke-width:0.8;"/>
   </g>
   <g id="patch_17">
    <path d="M 44.845313 141.613714 
L 379.645313 141.613714 
" style="fill:none;stroke:#000000;stroke-linecap:square;stroke-linejoin:miter;stroke-width:0.8;"/>
   </g>
   <g id="patch_18">
    <path d="M 44.845313 110.550857 
L 379.645313 110.550857 
" style="fill:none;stroke:#000000;stroke-linecap:square;stroke-linejoin:miter;stroke-width:0.8;"/>
   </g>
   <g id="legend_3">
    <g id="patch_19">
     <path d="M 386.645313 134.921348 
L 445.451563 134.921348 
Q 447.451563 134.921348 447.451563 132.921348 
L 447.451563 119.243223 
Q 447.451563 117.243223 445.451563 117.243223 
L 386.645313 117.243223 
Q 384.645313 117.243223 384.645313 119.243223 
L 384.645313 132.921348 
Q 384.645313 134.921348 386.645313 134.921348 
z
" style="fill:#ffffff;opacity:0.8;stroke:#cccccc;stroke-linejoin:miter;"/>
    </g>
    <g id="line2d_35">
     <path d="M 388.645313 125.341661 
L 408.645313 125.341661 
" style="fill:none;stroke:#2ca02c;stroke-linecap:square;stroke-width:1.5;"/>
    </g>
    <g id="line2d_36"/>
    <g id="text_9">
     <!-- press -->
     <g transform="translate(416.645313 128.841661)scale(0.1 -0.1)">
      <defs>
       <path d="M 41.109375 46.296875 
Q 39.59375 47.171875 37.8125 47.578125 
Q 36.03125 48 33.890625 48 
Q 26.265625 48 22.1875 43.046875 
Q 18.109375 38.09375 18.109375 28.8125 
L 18.109375 0 
L 9.078125 0 
L 9.078125 54.6875 
L 18.109375 54.6875 
L 18.109375 46.1875 
Q 20.953125 51.171875 25.484375 53.578125 
Q 30.03125 56 36.53125 56 
Q 37.453125 56 38.578125 55.875 
Q 39.703125 55.765625 41.0625 55.515625 
z
" id="DejaVuSans-114"/>
       <path d="M 44.28125 53.078125 
L 44.28125 44.578125 
Q 40.484375 46.53125 36.375 47.5 
Q 32.28125 48.484375 27.875 48.484375 
Q 21.1875 48.484375 17.84375 46.4375 
Q 14.5 44.390625 14.5 40.28125 
Q 14.5 37.15625 16.890625 35.375 
Q 19.28125 33.59375 26.515625 31.984375 
L 29.59375 31.296875 
Q 39.15625 29.25 43.1875 25.515625 
Q 47.21875 21.78125 47.21875 15.09375 
Q 47.21875 7.46875 41.1875 3.015625 
Q 35.15625 -1.421875 24.609375 -1.421875 
Q 20.21875 -1.421875 15.453125 -0.5625 
Q 10.6875 0.296875 5.421875 2 
L 5.421875 11.28125 
Q 10.40625 8.6875 15.234375 7.390625 
Q 20.0625 6.109375 24.8125 6.109375 
Q 31.15625 6.109375 34.5625 8.28125 
Q 37.984375 10.453125 37.984375 14.40625 
Q 37.984375 18.0625 35.515625 20.015625 
Q 33.0625 21.96875 24.703125 23.78125 
L 21.578125 24.515625 
Q 13.234375 26.265625 9.515625 29.90625 
Q 5.8125 33.546875 5.8125 39.890625 
Q 5.8125 47.609375 11.28125 51.796875 
Q 16.75 56 26.8125 56 
Q 31.78125 56 36.171875 55.265625 
Q 40.578125 54.546875 44.28125 53.078125 
z
" id="DejaVuSans-115"/>
      </defs>
      <use xlink:href="#DejaVuSans-112"/>
      <use x="63.476562" xlink:href="#DejaVuSans-114"/>
      <use x="102.339844" xlink:href="#DejaVuSans-101"/>
      <use x="163.863281" xlink:href="#DejaVuSans-115"/>
      <use x="215.962891" xlink:href="#DejaVuSans-115"/>
     </g>
    </g>
   </g>
  </g>
  <g id="axes_4">
   <g id="patch_20">
    <path d="M 44.845313 178.889143 
L 379.645313 178.889143 
L 379.645313 147.826286 
L 44.845313 147.826286 
z
" style="fill:#ffffff;"/>
   </g>
   <g id="matplotlib.axis_7">
    <g id="xtick_22">
     <g id="line2d_37">
      <g>
       <use style="stroke:#000000;stroke-width:0.8;" x="60.063494" xlink:href="#mc864dcee27" y="178.889143"/>
      </g>
     </g>
    </g>
    <g id="xtick_23">
     <g id="line2d_38">
      <g>
       <use style="stroke:#000000;stroke-width:0.8;" x="107.994776" xlink:href="#mc864dcee27" y="178.889143"/>
      </g>
     </g>
    </g>
    <g id="xtick_24">
     <g id="line2d_39">
      <g>
       <use style="stroke:#000000;stroke-width:0.8;" x="155.926057" xlink:href="#mc864dcee27" y="178.889143"/>
      </g>
     </g>
    </g>
    <g id="xtick_25">
     <g id="line2d_40">
      <g>
       <use style="stroke:#000000;stroke-width:0.8;" x="203.857338" xlink:href="#mc864dcee27" y="178.889143"/>
      </g>
     </g>
    </g>
    <g id="xtick_26">
     <g id="line2d_41">
      <g>
       <use style="stroke:#000000;stroke-width:0.8;" x="251.78862" xlink:href="#mc864dcee27" y="178.889143"/>
      </g>
     </g>
    </g>
    <g id="xtick_27">
     <g id="line2d_42">
      <g>
       <use style="stroke:#000000;stroke-width:0.8;" x="299.719901" xlink:href="#mc864dcee27" y="178.889143"/>
      </g>
     </g>
    </g>
    <g id="xtick_28">
     <g id="line2d_43">
      <g>
       <use style="stroke:#000000;stroke-width:0.8;" x="347.651182" xlink:href="#mc864dcee27" y="178.889143"/>
      </g>
     </g>
    </g>
   </g>
   <g id="matplotlib.axis_8">
    <g id="ytick_7">
     <g id="line2d_44">
      <g>
       <use style="stroke:#000000;stroke-width:0.8;" x="44.845313" xlink:href="#m1f387b6e52" y="177.608317"/>
      </g>
     </g>
     <g id="text_10">
      <!-- 0.0 -->
      <g transform="translate(21.942188 181.407536)scale(0.1 -0.1)">
       <use xlink:href="#DejaVuSans-48"/>
       <use x="63.623047" xlink:href="#DejaVuSans-46"/>
       <use x="95.410156" xlink:href="#DejaVuSans-48"/>
      </g>
     </g>
    </g>
    <g id="ytick_8">
     <g id="line2d_45">
      <g>
       <use style="stroke:#000000;stroke-width:0.8;" x="44.845313" xlink:href="#m1f387b6e52" y="160.17055"/>
      </g>
     </g>
     <g id="text_11">
      <!-- 0.1 -->
      <g transform="translate(21.942188 163.969769)scale(0.1 -0.1)">
       <defs>
        <path d="M 12.40625 8.296875 
L 28.515625 8.296875 
L 28.515625 63.921875 
L 10.984375 60.40625 
L 10.984375 69.390625 
L 28.421875 72.90625 
L 38.28125 72.90625 
L 38.28125 8.296875 
L 54.390625 8.296875 
L 54.390625 0 
L 12.40625 0 
z
" id="DejaVuSans-49"/>
       </defs>
       <use xlink:href="#DejaVuSans-48"/>
       <use x="63.623047" xlink:href="#DejaVuSans-46"/>
       <use x="95.410156" xlink:href="#DejaVuSans-49"/>
      </g>
     </g>
    </g>
   </g>
   <g id="line2d_46">
    <path clip-path="url(#p3a40172500)" d="M 60.063494 165.884797 
L 64.856622 162.421978 
L 69.649751 158.160506 
L 76.839443 152.966277 
L 79.236007 176.01101 
L 81.632571 176.01101 
L 86.425699 172.548191 
L 93.615391 166.155982 
L 100.805083 160.961753 
L 103.201648 159.495568 
L 107.994776 156.03275 
L 112.787904 153.10038 
L 115.184468 150.969643 
L 117.581032 149.238234 
L 119.977596 176.01101 
L 122.37416 174.813029 
L 127.167288 171.880659 
L 129.563852 170.14925 
L 131.960416 176.01101 
L 134.35698 174.2796 
L 136.753544 176.276234 
L 139.150108 176.544439 
L 141.546673 175.611683 
L 143.943237 176.544439 
L 146.339801 176.276234 
L 151.132929 174.410723 
L 153.529493 176.809663 
L 155.926057 175.343478 
L 158.322621 174.410723 
L 160.719185 176.544439 
L 163.115749 174.813029 
L 165.512313 173.346844 
L 170.305441 170.950884 
L 172.702005 176.809663 
L 177.495134 174.413703 
L 182.288262 172.548191 
L 184.684826 176.544439 
L 187.08139 175.611683 
L 189.477954 176.809663 
L 194.271082 176.809663 
L 196.667646 175.876908 
L 199.06421 177.20899 
L 201.460774 177.20899 
L 206.253902 176.142132 
L 208.650466 177.477195 
L 211.04703 177.477195 
L 215.840159 177.20899 
L 218.236723 177.477195 
L 220.633287 176.809663 
L 223.029851 175.876908 
L 225.426415 175.343478 
L 230.219543 173.477967 
L 232.616107 172.944538 
L 235.012671 172.011782 
L 237.409235 171.478353 
L 239.805799 170.545597 
L 242.202363 177.477195 
L 244.598927 177.21197 
L 246.995491 177.20899 
L 249.392056 177.477195 
L 251.78862 177.20899 
L 254.185184 177.20899 
L 256.581748 176.809663 
L 263.77144 173.215722 
L 266.168004 172.282966 
L 268.564568 171.084986 
L 270.961132 177.477195 
L 275.75426 176.946746 
L 278.150824 177.477195 
L 280.547388 177.477195 
L 282.943952 176.809663 
L 285.340517 175.876908 
L 287.737081 174.678927 
L 290.133645 173.212742 
L 292.530209 176.544439 
L 294.926773 176.544439 
L 297.323337 175.078254 
L 302.116465 171.615435 
L 304.513029 176.01101 
L 306.909593 176.276234 
L 309.306157 176.276234 
L 311.702721 174.810049 
L 318.892413 171.216108 
L 321.288977 170.682679 
L 323.685542 177.477195 
L 326.082106 177.20899 
L 333.271798 174.410723 
L 335.668362 176.544439 
L 338.064926 175.346459 
L 340.46149 173.880274 
L 342.858054 177.477195 
L 345.254618 177.21197 
L 347.651182 176.809663 
L 350.047746 175.611683 
L 352.44431 176.544439 
L 357.237438 174.678927 
L 359.634003 174.145498 
L 362.030567 173.212742 
L 364.427131 172.679313 
L 364.427131 172.679313 
" style="fill:none;stroke:#d62728;stroke-linecap:square;stroke-width:1.5;"/>
   </g>
   <g id="patch_21">
    <path d="M 44.845313 178.889143 
L 44.845313 147.826286 
" style="fill:none;stroke:#000000;stroke-linecap:square;stroke-linejoin:miter;stroke-width:0.8;"/>
   </g>
   <g id="patch_22">
    <path d="M 379.645313 178.889143 
L 379.645313 147.826286 
" style="fill:none;stroke:#000000;stroke-linecap:square;stroke-linejoin:miter;stroke-width:0.8;"/>
   </g>
   <g id="patch_23">
    <path d="M 44.845313 178.889143 
L 379.645313 178.889143 
" style="fill:none;stroke:#000000;stroke-linecap:square;stroke-linejoin:miter;stroke-width:0.8;"/>
   </g>
   <g id="patch_24">
    <path d="M 44.845313 147.826286 
L 379.645313 147.826286 
" style="fill:none;stroke:#000000;stroke-linecap:square;stroke-linejoin:miter;stroke-width:0.8;"/>
   </g>
   <g id="legend_4">
    <g id="patch_25">
     <path d="M 386.645313 172.335839 
L 477.5 172.335839 
Q 479.5 172.335839 479.5 170.335839 
L 479.5 156.379589 
Q 479.5 154.379589 477.5 154.379589 
L 386.645313 154.379589 
Q 384.645313 154.379589 384.645313 156.379589 
L 384.645313 170.335839 
Q 384.645313 172.335839 386.645313 172.335839 
z
" style="fill:#ffffff;opacity:0.8;stroke:#cccccc;stroke-linejoin:miter;"/>
    </g>
    <g id="line2d_47">
     <path d="M 388.645313 162.478027 
L 408.645313 162.478027 
" style="fill:none;stroke:#d62728;stroke-linecap:square;stroke-width:1.5;"/>
    </g>
    <g id="line2d_48"/>
    <g id="text_12">
     <!-- wind_speed -->
     <g transform="translate(416.645313 165.978027)scale(0.1 -0.1)">
      <defs>
       <path d="M 9.421875 54.6875 
L 18.40625 54.6875 
L 18.40625 0 
L 9.421875 0 
z
M 9.421875 75.984375 
L 18.40625 75.984375 
L 18.40625 64.59375 
L 9.421875 64.59375 
z
" id="DejaVuSans-105"/>
       <path d="M 54.890625 33.015625 
L 54.890625 0 
L 45.90625 0 
L 45.90625 32.71875 
Q 45.90625 40.484375 42.875 44.328125 
Q 39.84375 48.1875 33.796875 48.1875 
Q 26.515625 48.1875 22.3125 43.546875 
Q 18.109375 38.921875 18.109375 30.90625 
L 18.109375 0 
L 9.078125 0 
L 9.078125 54.6875 
L 18.109375 54.6875 
L 18.109375 46.1875 
Q 21.34375 51.125 25.703125 53.5625 
Q 30.078125 56 35.796875 56 
Q 45.21875 56 50.046875 50.171875 
Q 54.890625 44.34375 54.890625 33.015625 
z
" id="DejaVuSans-110"/>
       <path d="M 50.984375 -16.609375 
L 50.984375 -23.578125 
L -0.984375 -23.578125 
L -0.984375 -16.609375 
z
" id="DejaVuSans-95"/>
      </defs>
      <use xlink:href="#DejaVuSans-119"/>
      <use x="81.787109" xlink:href="#DejaVuSans-105"/>
      <use x="109.570312" xlink:href="#DejaVuSans-110"/>
      <use x="172.949219" xlink:href="#DejaVuSans-100"/>
      <use x="236.425781" xlink:href="#DejaVuSans-95"/>
      <use x="286.425781" xlink:href="#DejaVuSans-115"/>
      <use x="338.525391" xlink:href="#DejaVuSans-112"/>
      <use x="402.001953" xlink:href="#DejaVuSans-101"/>
      <use x="463.525391" xlink:href="#DejaVuSans-101"/>
      <use x="525.048828" xlink:href="#DejaVuSans-100"/>
     </g>
    </g>
   </g>
  </g>
  <g id="axes_5">
   <g id="patch_26">
    <path d="M 44.845313 216.164571 
L 379.645313 216.164571 
L 379.645313 185.101714 
L 44.845313 185.101714 
z
" style="fill:#ffffff;"/>
   </g>
   <g id="matplotlib.axis_9">
    <g id="xtick_29">
     <g id="line2d_49">
      <g>
       <use style="stroke:#000000;stroke-width:0.8;" x="60.063494" xlink:href="#mc864dcee27" y="216.164571"/>
      </g>
     </g>
    </g>
    <g id="xtick_30">
     <g id="line2d_50">
      <g>
       <use style="stroke:#000000;stroke-width:0.8;" x="107.994776" xlink:href="#mc864dcee27" y="216.164571"/>
      </g>
     </g>
    </g>
    <g id="xtick_31">
     <g id="line2d_51">
      <g>
       <use style="stroke:#000000;stroke-width:0.8;" x="155.926057" xlink:href="#mc864dcee27" y="216.164571"/>
      </g>
     </g>
    </g>
    <g id="xtick_32">
     <g id="line2d_52">
      <g>
       <use style="stroke:#000000;stroke-width:0.8;" x="203.857338" xlink:href="#mc864dcee27" y="216.164571"/>
      </g>
     </g>
    </g>
    <g id="xtick_33">
     <g id="line2d_53">
      <g>
       <use style="stroke:#000000;stroke-width:0.8;" x="251.78862" xlink:href="#mc864dcee27" y="216.164571"/>
      </g>
     </g>
    </g>
    <g id="xtick_34">
     <g id="line2d_54">
      <g>
       <use style="stroke:#000000;stroke-width:0.8;" x="299.719901" xlink:href="#mc864dcee27" y="216.164571"/>
      </g>
     </g>
    </g>
    <g id="xtick_35">
     <g id="line2d_55">
      <g>
       <use style="stroke:#000000;stroke-width:0.8;" x="347.651182" xlink:href="#mc864dcee27" y="216.164571"/>
      </g>
     </g>
    </g>
   </g>
   <g id="matplotlib.axis_10">
    <g id="ytick_9">
     <g id="line2d_56">
      <g>
       <use style="stroke:#000000;stroke-width:0.8;" x="44.845313" xlink:href="#m1f387b6e52" y="214.752623"/>
      </g>
     </g>
     <g id="text_13">
      <!-- −0.05 -->
      <g transform="translate(7.2 218.551842)scale(0.1 -0.1)">
       <defs>
        <path d="M 10.59375 35.5 
L 73.1875 35.5 
L 73.1875 27.203125 
L 10.59375 27.203125 
z
" id="DejaVuSans-8722"/>
        <path d="M 10.796875 72.90625 
L 49.515625 72.90625 
L 49.515625 64.59375 
L 19.828125 64.59375 
L 19.828125 46.734375 
Q 21.96875 47.46875 24.109375 47.828125 
Q 26.265625 48.1875 28.421875 48.1875 
Q 40.625 48.1875 47.75 41.5 
Q 54.890625 34.8125 54.890625 23.390625 
Q 54.890625 11.625 47.5625 5.09375 
Q 40.234375 -1.421875 26.90625 -1.421875 
Q 22.3125 -1.421875 17.546875 -0.640625 
Q 12.796875 0.140625 7.71875 1.703125 
L 7.71875 11.625 
Q 12.109375 9.234375 16.796875 8.0625 
Q 21.484375 6.890625 26.703125 6.890625 
Q 35.15625 6.890625 40.078125 11.328125 
Q 45.015625 15.765625 45.015625 23.390625 
Q 45.015625 31 40.078125 35.4375 
Q 35.15625 39.890625 26.703125 39.890625 
Q 22.75 39.890625 18.8125 39.015625 
Q 14.890625 38.140625 10.796875 36.28125 
z
" id="DejaVuSans-53"/>
       </defs>
       <use xlink:href="#DejaVuSans-8722"/>
       <use x="83.789062" xlink:href="#DejaVuSans-48"/>
       <use x="147.412109" xlink:href="#DejaVuSans-46"/>
       <use x="179.199219" xlink:href="#DejaVuSans-48"/>
       <use x="242.822266" xlink:href="#DejaVuSans-53"/>
      </g>
     </g>
    </g>
    <g id="ytick_10">
     <g id="line2d_57">
      <g>
       <use style="stroke:#000000;stroke-width:0.8;" x="44.845313" xlink:href="#m1f387b6e52" y="200.633143"/>
      </g>
     </g>
     <g id="text_14">
      <!-- 0.00 -->
      <g transform="translate(15.579688 204.432362)scale(0.1 -0.1)">
       <use xlink:href="#DejaVuSans-48"/>
       <use x="63.623047" xlink:href="#DejaVuSans-46"/>
       <use x="95.410156" xlink:href="#DejaVuSans-48"/>
       <use x="159.033203" xlink:href="#DejaVuSans-48"/>
      </g>
     </g>
    </g>
    <g id="ytick_11">
     <g id="line2d_58">
      <g>
       <use style="stroke:#000000;stroke-width:0.8;" x="44.845313" xlink:href="#m1f387b6e52" y="186.513662"/>
      </g>
     </g>
     <g id="text_15">
      <!-- 0.05 -->
      <g transform="translate(15.579688 190.312881)scale(0.1 -0.1)">
       <use xlink:href="#DejaVuSans-48"/>
       <use x="63.623047" xlink:href="#DejaVuSans-46"/>
       <use x="95.410156" xlink:href="#DejaVuSans-48"/>
       <use x="159.033203" xlink:href="#DejaVuSans-53"/>
      </g>
     </g>
    </g>
   </g>
   <g id="line2d_59">
    <path clip-path="url(#p6e0beac13c)" d="M 60.063494 200.633143 
L 364.427131 200.633143 
L 364.427131 200.633143 
" style="fill:none;stroke:#9467bd;stroke-linecap:square;stroke-width:1.5;"/>
   </g>
   <g id="patch_27">
    <path d="M 44.845313 216.164571 
L 44.845313 185.101714 
" style="fill:none;stroke:#000000;stroke-linecap:square;stroke-linejoin:miter;stroke-width:0.8;"/>
   </g>
   <g id="patch_28">
    <path d="M 379.645313 216.164571 
L 379.645313 185.101714 
" style="fill:none;stroke:#000000;stroke-linecap:square;stroke-linejoin:miter;stroke-width:0.8;"/>
   </g>
   <g id="patch_29">
    <path d="M 44.845313 216.164571 
L 379.645313 216.164571 
" style="fill:none;stroke:#000000;stroke-linecap:square;stroke-linejoin:miter;stroke-width:0.8;"/>
   </g>
   <g id="patch_30">
    <path d="M 44.845313 185.101714 
L 379.645313 185.101714 
" style="fill:none;stroke:#000000;stroke-linecap:square;stroke-linejoin:miter;stroke-width:0.8;"/>
   </g>
   <g id="legend_5">
    <g id="patch_31">
     <path d="M 386.645313 209.472205 
L 444.489063 209.472205 
Q 446.489063 209.472205 446.489063 207.472205 
L 446.489063 193.79408 
Q 446.489063 191.79408 444.489063 191.79408 
L 386.645313 191.79408 
Q 384.645313 191.79408 384.645313 193.79408 
L 384.645313 207.472205 
Q 384.645313 209.472205 386.645313 209.472205 
z
" style="fill:#ffffff;opacity:0.8;stroke:#cccccc;stroke-linejoin:miter;"/>
    </g>
    <g id="line2d_60">
     <path d="M 388.645313 199.892518 
L 408.645313 199.892518 
" style="fill:none;stroke:#9467bd;stroke-linecap:square;stroke-width:1.5;"/>
    </g>
    <g id="line2d_61"/>
    <g id="text_16">
     <!-- snow -->
     <g transform="translate(416.645313 203.392518)scale(0.1 -0.1)">
      <defs>
       <path d="M 30.609375 48.390625 
Q 23.390625 48.390625 19.1875 42.75 
Q 14.984375 37.109375 14.984375 27.296875 
Q 14.984375 17.484375 19.15625 11.84375 
Q 23.34375 6.203125 30.609375 6.203125 
Q 37.796875 6.203125 41.984375 11.859375 
Q 46.1875 17.53125 46.1875 27.296875 
Q 46.1875 37.015625 41.984375 42.703125 
Q 37.796875 48.390625 30.609375 48.390625 
z
M 30.609375 56 
Q 42.328125 56 49.015625 48.375 
Q 55.71875 40.765625 55.71875 27.296875 
Q 55.71875 13.875 49.015625 6.21875 
Q 42.328125 -1.421875 30.609375 -1.421875 
Q 18.84375 -1.421875 12.171875 6.21875 
Q 5.515625 13.875 5.515625 27.296875 
Q 5.515625 40.765625 12.171875 48.375 
Q 18.84375 56 30.609375 56 
z
" id="DejaVuSans-111"/>
      </defs>
      <use xlink:href="#DejaVuSans-115"/>
      <use x="52.099609" xlink:href="#DejaVuSans-110"/>
      <use x="115.478516" xlink:href="#DejaVuSans-111"/>
      <use x="176.660156" xlink:href="#DejaVuSans-119"/>
     </g>
    </g>
   </g>
  </g>
  <g id="axes_6">
   <g id="patch_32">
    <path d="M 44.845313 253.44 
L 379.645313 253.44 
L 379.645313 222.377143 
L 44.845313 222.377143 
z
" style="fill:#ffffff;"/>
   </g>
   <g id="matplotlib.axis_11">
    <g id="xtick_36">
     <g id="line2d_62">
      <g>
       <use style="stroke:#000000;stroke-width:0.8;" x="60.063494" xlink:href="#mc864dcee27" y="253.44"/>
      </g>
     </g>
     <g id="text_17">
      <!-- 0 -->
      <g transform="translate(56.882244 268.038437)scale(0.1 -0.1)">
       <use xlink:href="#DejaVuSans-48"/>
      </g>
     </g>
    </g>
    <g id="xtick_37">
     <g id="line2d_63">
      <g>
       <use style="stroke:#000000;stroke-width:0.8;" x="107.994776" xlink:href="#mc864dcee27" y="253.44"/>
      </g>
     </g>
     <g id="text_18">
      <!-- 20 -->
      <g transform="translate(101.632276 268.038437)scale(0.1 -0.1)">
       <use xlink:href="#DejaVuSans-50"/>
       <use x="63.623047" xlink:href="#DejaVuSans-48"/>
      </g>
     </g>
    </g>
    <g id="xtick_38">
     <g id="line2d_64">
      <g>
       <use style="stroke:#000000;stroke-width:0.8;" x="155.926057" xlink:href="#mc864dcee27" y="253.44"/>
      </g>
     </g>
     <g id="text_19">
      <!-- 40 -->
      <g transform="translate(149.563557 268.038437)scale(0.1 -0.1)">
       <use xlink:href="#DejaVuSans-52"/>
       <use x="63.623047" xlink:href="#DejaVuSans-48"/>
      </g>
     </g>
    </g>
    <g id="xtick_39">
     <g id="line2d_65">
      <g>
       <use style="stroke:#000000;stroke-width:0.8;" x="203.857338" xlink:href="#mc864dcee27" y="253.44"/>
      </g>
     </g>
     <g id="text_20">
      <!-- 60 -->
      <g transform="translate(197.494838 268.038437)scale(0.1 -0.1)">
       <defs>
        <path d="M 33.015625 40.375 
Q 26.375 40.375 22.484375 35.828125 
Q 18.609375 31.296875 18.609375 23.390625 
Q 18.609375 15.53125 22.484375 10.953125 
Q 26.375 6.390625 33.015625 6.390625 
Q 39.65625 6.390625 43.53125 10.953125 
Q 47.40625 15.53125 47.40625 23.390625 
Q 47.40625 31.296875 43.53125 35.828125 
Q 39.65625 40.375 33.015625 40.375 
z
M 52.59375 71.296875 
L 52.59375 62.3125 
Q 48.875 64.0625 45.09375 64.984375 
Q 41.3125 65.921875 37.59375 65.921875 
Q 27.828125 65.921875 22.671875 59.328125 
Q 17.53125 52.734375 16.796875 39.40625 
Q 19.671875 43.65625 24.015625 45.921875 
Q 28.375 48.1875 33.59375 48.1875 
Q 44.578125 48.1875 50.953125 41.515625 
Q 57.328125 34.859375 57.328125 23.390625 
Q 57.328125 12.15625 50.6875 5.359375 
Q 44.046875 -1.421875 33.015625 -1.421875 
Q 20.359375 -1.421875 13.671875 8.265625 
Q 6.984375 17.96875 6.984375 36.375 
Q 6.984375 53.65625 15.1875 63.9375 
Q 23.390625 74.21875 37.203125 74.21875 
Q 40.921875 74.21875 44.703125 73.484375 
Q 48.484375 72.75 52.59375 71.296875 
z
" id="DejaVuSans-54"/>
       </defs>
       <use xlink:href="#DejaVuSans-54"/>
       <use x="63.623047" xlink:href="#DejaVuSans-48"/>
      </g>
     </g>
    </g>
    <g id="xtick_40">
     <g id="line2d_66">
      <g>
       <use style="stroke:#000000;stroke-width:0.8;" x="251.78862" xlink:href="#mc864dcee27" y="253.44"/>
      </g>
     </g>
     <g id="text_21">
      <!-- 80 -->
      <g transform="translate(245.42612 268.038437)scale(0.1 -0.1)">
       <use xlink:href="#DejaVuSans-56"/>
       <use x="63.623047" xlink:href="#DejaVuSans-48"/>
      </g>
     </g>
    </g>
    <g id="xtick_41">
     <g id="line2d_67">
      <g>
       <use style="stroke:#000000;stroke-width:0.8;" x="299.719901" xlink:href="#mc864dcee27" y="253.44"/>
      </g>
     </g>
     <g id="text_22">
      <!-- 100 -->
      <g transform="translate(290.176151 268.038437)scale(0.1 -0.1)">
       <use xlink:href="#DejaVuSans-49"/>
       <use x="63.623047" xlink:href="#DejaVuSans-48"/>
       <use x="127.246094" xlink:href="#DejaVuSans-48"/>
      </g>
     </g>
    </g>
    <g id="xtick_42">
     <g id="line2d_68">
      <g>
       <use style="stroke:#000000;stroke-width:0.8;" x="347.651182" xlink:href="#mc864dcee27" y="253.44"/>
      </g>
     </g>
     <g id="text_23">
      <!-- 120 -->
      <g transform="translate(338.107432 268.038437)scale(0.1 -0.1)">
       <use xlink:href="#DejaVuSans-49"/>
       <use x="63.623047" xlink:href="#DejaVuSans-50"/>
       <use x="127.246094" xlink:href="#DejaVuSans-48"/>
      </g>
     </g>
    </g>
   </g>
   <g id="matplotlib.axis_12">
    <g id="ytick_12">
     <g id="line2d_69">
      <g>
       <use style="stroke:#000000;stroke-width:0.8;" x="44.845313" xlink:href="#m1f387b6e52" y="252.028052"/>
      </g>
     </g>
     <g id="text_24">
      <!-- −0.05 -->
      <g transform="translate(7.2 255.827271)scale(0.1 -0.1)">
       <use xlink:href="#DejaVuSans-8722"/>
       <use x="83.789062" xlink:href="#DejaVuSans-48"/>
       <use x="147.412109" xlink:href="#DejaVuSans-46"/>
       <use x="179.199219" xlink:href="#DejaVuSans-48"/>
       <use x="242.822266" xlink:href="#DejaVuSans-53"/>
      </g>
     </g>
    </g>
    <g id="ytick_13">
     <g id="line2d_70">
      <g>
       <use style="stroke:#000000;stroke-width:0.8;" x="44.845313" xlink:href="#m1f387b6e52" y="237.908571"/>
      </g>
     </g>
     <g id="text_25">
      <!-- 0.00 -->
      <g transform="translate(15.579688 241.70779)scale(0.1 -0.1)">
       <use xlink:href="#DejaVuSans-48"/>
       <use x="63.623047" xlink:href="#DejaVuSans-46"/>
       <use x="95.410156" xlink:href="#DejaVuSans-48"/>
       <use x="159.033203" xlink:href="#DejaVuSans-48"/>
      </g>
     </g>
    </g>
    <g id="ytick_14">
     <g id="line2d_71">
      <g>
       <use style="stroke:#000000;stroke-width:0.8;" x="44.845313" xlink:href="#m1f387b6e52" y="223.789091"/>
      </g>
     </g>
     <g id="text_26">
      <!-- 0.05 -->
      <g transform="translate(15.579688 227.58831)scale(0.1 -0.1)">
       <use xlink:href="#DejaVuSans-48"/>
       <use x="63.623047" xlink:href="#DejaVuSans-46"/>
       <use x="95.410156" xlink:href="#DejaVuSans-48"/>
       <use x="159.033203" xlink:href="#DejaVuSans-53"/>
      </g>
     </g>
    </g>
   </g>
   <g id="line2d_72">
    <path clip-path="url(#p0a1d34bb26)" d="M 60.063494 237.908571 
L 364.427131 237.908571 
L 364.427131 237.908571 
" style="fill:none;stroke:#8c564b;stroke-linecap:square;stroke-width:1.5;"/>
   </g>
   <g id="patch_33">
    <path d="M 44.845313 253.44 
L 44.845313 222.377143 
" style="fill:none;stroke:#000000;stroke-linecap:square;stroke-linejoin:miter;stroke-width:0.8;"/>
   </g>
   <g id="patch_34">
    <path d="M 379.645313 253.44 
L 379.645313 222.377143 
" style="fill:none;stroke:#000000;stroke-linecap:square;stroke-linejoin:miter;stroke-width:0.8;"/>
   </g>
   <g id="patch_35">
    <path d="M 44.845313 253.44 
L 379.645313 253.44 
" style="fill:none;stroke:#000000;stroke-linecap:square;stroke-linejoin:miter;stroke-width:0.8;"/>
   </g>
   <g id="patch_36">
    <path d="M 44.845313 222.377143 
L 379.645313 222.377143 
" style="fill:none;stroke:#000000;stroke-linecap:square;stroke-linejoin:miter;stroke-width:0.8;"/>
   </g>
   <g id="legend_6">
    <g id="patch_37">
     <path d="M 386.645313 246.747634 
L 438 246.747634 
Q 440 246.747634 440 244.747634 
L 440 231.069509 
Q 440 229.069509 438 229.069509 
L 386.645313 229.069509 
Q 384.645313 229.069509 384.645313 231.069509 
L 384.645313 244.747634 
Q 384.645313 246.747634 386.645313 246.747634 
z
" style="fill:#ffffff;opacity:0.8;stroke:#cccccc;stroke-linejoin:miter;"/>
    </g>
    <g id="line2d_73">
     <path d="M 388.645313 237.167946 
L 408.645313 237.167946 
" style="fill:none;stroke:#8c564b;stroke-linecap:square;stroke-width:1.5;"/>
    </g>
    <g id="line2d_74"/>
    <g id="text_27">
     <!-- rain -->
     <g transform="translate(416.645313 240.667946)scale(0.1 -0.1)">
      <defs>
       <path d="M 34.28125 27.484375 
Q 23.390625 27.484375 19.1875 25 
Q 14.984375 22.515625 14.984375 16.5 
Q 14.984375 11.71875 18.140625 8.90625 
Q 21.296875 6.109375 26.703125 6.109375 
Q 34.1875 6.109375 38.703125 11.40625 
Q 43.21875 16.703125 43.21875 25.484375 
L 43.21875 27.484375 
z
M 52.203125 31.203125 
L 52.203125 0 
L 43.21875 0 
L 43.21875 8.296875 
Q 40.140625 3.328125 35.546875 0.953125 
Q 30.953125 -1.421875 24.3125 -1.421875 
Q 15.921875 -1.421875 10.953125 3.296875 
Q 6 8.015625 6 15.921875 
Q 6 25.140625 12.171875 29.828125 
Q 18.359375 34.515625 30.609375 34.515625 
L 43.21875 34.515625 
L 43.21875 35.40625 
Q 43.21875 41.609375 39.140625 45 
Q 35.0625 48.390625 27.6875 48.390625 
Q 23 48.390625 18.546875 47.265625 
Q 14.109375 46.140625 10.015625 43.890625 
L 10.015625 52.203125 
Q 14.9375 54.109375 19.578125 55.046875 
Q 24.21875 56 28.609375 56 
Q 40.484375 56 46.34375 49.84375 
Q 52.203125 43.703125 52.203125 31.203125 
z
" id="DejaVuSans-97"/>
      </defs>
      <use xlink:href="#DejaVuSans-114"/>
      <use x="41.113281" xlink:href="#DejaVuSans-97"/>
      <use x="102.392578" xlink:href="#DejaVuSans-105"/>
      <use x="130.175781" xlink:href="#DejaVuSans-110"/>
     </g>
    </g>
   </g>
  </g>
  <g id="text_28">
   <!-- A normalized mts X with 128 time steps -->
   <g transform="translate(86.779688 16.318125)scale(0.12 -0.12)">
    <defs>
     <path d="M 34.1875 63.1875 
L 20.796875 26.90625 
L 47.609375 26.90625 
z
M 28.609375 72.90625 
L 39.796875 72.90625 
L 67.578125 0 
L 57.328125 0 
L 50.6875 18.703125 
L 17.828125 18.703125 
L 11.1875 0 
L 0.78125 0 
z
" id="DejaVuSans-65"/>
     <path id="DejaVuSans-32"/>
     <path d="M 9.421875 75.984375 
L 18.40625 75.984375 
L 18.40625 0 
L 9.421875 0 
z
" id="DejaVuSans-108"/>
     <path d="M 5.515625 54.6875 
L 48.1875 54.6875 
L 48.1875 46.484375 
L 14.40625 7.171875 
L 48.1875 7.171875 
L 48.1875 0 
L 4.296875 0 
L 4.296875 8.203125 
L 38.09375 47.515625 
L 5.515625 47.515625 
z
" id="DejaVuSans-122"/>
     <path d="M 6.296875 72.90625 
L 16.890625 72.90625 
L 35.015625 45.796875 
L 53.21875 72.90625 
L 63.8125 72.90625 
L 40.375 37.890625 
L 65.375 0 
L 54.78125 0 
L 34.28125 31 
L 13.625 0 
L 2.984375 0 
L 29 38.921875 
z
" id="DejaVuSans-88"/>
     <path d="M 54.890625 33.015625 
L 54.890625 0 
L 45.90625 0 
L 45.90625 32.71875 
Q 45.90625 40.484375 42.875 44.328125 
Q 39.84375 48.1875 33.796875 48.1875 
Q 26.515625 48.1875 22.3125 43.546875 
Q 18.109375 38.921875 18.109375 30.90625 
L 18.109375 0 
L 9.078125 0 
L 9.078125 75.984375 
L 18.109375 75.984375 
L 18.109375 46.1875 
Q 21.34375 51.125 25.703125 53.5625 
Q 30.078125 56 35.796875 56 
Q 45.21875 56 50.046875 50.171875 
Q 54.890625 44.34375 54.890625 33.015625 
z
" id="DejaVuSans-104"/>
    </defs>
    <use xlink:href="#DejaVuSans-65"/>
    <use x="68.408203" xlink:href="#DejaVuSans-32"/>
    <use x="100.195312" xlink:href="#DejaVuSans-110"/>
    <use x="163.574219" xlink:href="#DejaVuSans-111"/>
    <use x="224.755859" xlink:href="#DejaVuSans-114"/>
    <use x="264.119141" xlink:href="#DejaVuSans-109"/>
    <use x="361.53125" xlink:href="#DejaVuSans-97"/>
    <use x="422.810547" xlink:href="#DejaVuSans-108"/>
    <use x="450.59375" xlink:href="#DejaVuSans-105"/>
    <use x="478.376953" xlink:href="#DejaVuSans-122"/>
    <use x="530.867188" xlink:href="#DejaVuSans-101"/>
    <use x="592.390625" xlink:href="#DejaVuSans-100"/>
    <use x="655.867188" xlink:href="#DejaVuSans-32"/>
    <use x="687.654297" xlink:href="#DejaVuSans-109"/>
    <use x="785.066406" xlink:href="#DejaVuSans-116"/>
    <use x="824.275391" xlink:href="#DejaVuSans-115"/>
    <use x="876.375" xlink:href="#DejaVuSans-32"/>
    <use x="908.162109" xlink:href="#DejaVuSans-88"/>
    <use x="976.667969" xlink:href="#DejaVuSans-32"/>
    <use x="1008.455078" xlink:href="#DejaVuSans-119"/>
    <use x="1090.242188" xlink:href="#DejaVuSans-105"/>
    <use x="1118.025391" xlink:href="#DejaVuSans-116"/>
    <use x="1157.234375" xlink:href="#DejaVuSans-104"/>
    <use x="1220.613281" xlink:href="#DejaVuSans-32"/>
    <use x="1252.400391" xlink:href="#DejaVuSans-49"/>
    <use x="1316.023438" xlink:href="#DejaVuSans-50"/>
    <use x="1379.646484" xlink:href="#DejaVuSans-56"/>
    <use x="1443.269531" xlink:href="#DejaVuSans-32"/>
    <use x="1475.056641" xlink:href="#DejaVuSans-116"/>
    <use x="1514.265625" xlink:href="#DejaVuSans-105"/>
    <use x="1542.048828" xlink:href="#DejaVuSans-109"/>
    <use x="1639.460938" xlink:href="#DejaVuSans-101"/>
    <use x="1700.984375" xlink:href="#DejaVuSans-32"/>
    <use x="1732.771484" xlink:href="#DejaVuSans-115"/>
    <use x="1784.871094" xlink:href="#DejaVuSans-116"/>
    <use x="1824.080078" xlink:href="#DejaVuSans-101"/>
    <use x="1885.603516" xlink:href="#DejaVuSans-112"/>
    <use x="1949.080078" xlink:href="#DejaVuSans-115"/>
   </g>
  </g>
 </g>
 <defs>
  <clipPath id="pb0102b395e">
   <rect height="31.062857" width="334.8" x="44.845313" y="36"/>
  </clipPath>
  <clipPath id="p953fe73f6a">
   <rect height="31.062857" width="334.8" x="44.845313" y="73.275429"/>
  </clipPath>
  <clipPath id="p204a713ac4">
   <rect height="31.062857" width="334.8" x="44.845313" y="110.550857"/>
  </clipPath>
  <clipPath id="p3a40172500">
   <rect height="31.062857" width="334.8" x="44.845313" y="147.826286"/>
  </clipPath>
  <clipPath id="p6e0beac13c">
   <rect height="31.062857" width="334.8" x="44.845313" y="185.101714"/>
  </clipPath>
  <clipPath id="p0a1d34bb26">
   <rect height="31.062857" width="334.8" x="44.845313" y="222.377143"/>
  </clipPath>
 </defs>
</svg>
