<?xml version="1.0" encoding="utf-8" standalone="no"?>
<!DOCTYPE svg PUBLIC "-//W3C//DTD SVG 1.1//EN"
  "http://www.w3.org/Graphics/SVG/1.1/DTD/svg11.dtd">
<!-- Created with matplotlib (https://matplotlib.org/) -->
<svg height="235.34pt" version="1.1" viewBox="0 0 452.554688 235.34" width="452.554688pt" xmlns="http://www.w3.org/2000/svg" xmlns:xlink="http://www.w3.org/1999/xlink">
 <metadata>
  <rdf:RDF xmlns:cc="http://creativecommons.org/ns#" xmlns:dc="http://purl.org/dc/elements/1.1/" xmlns:rdf="http://www.w3.org/1999/02/22-rdf-syntax-ns#">
   <cc:Work>
    <dc:type rdf:resource="http://purl.org/dc/dcmitype/StillImage"/>
    <dc:date>2021-02-20T23:05:02.506052</dc:date>
    <dc:format>image/svg+xml</dc:format>
    <dc:creator>
     <cc:Agent>
      <dc:title>Matplotlib v3.3.2, https://matplotlib.org/</dc:title>
     </cc:Agent>
    </dc:creator>
   </cc:Work>
  </rdf:RDF>
 </metadata>
 <defs>
  <style type="text/css">*{stroke-linecap:butt;stroke-linejoin:round;}</style>
 </defs>
 <g id="figure_1">
  <g id="patch_1">
   <path d="M 0 235.34 
L 452.554688 235.34 
L 452.554688 0 
L 0 0 
z
" style="fill:none;"/>
  </g>
  <g id="axes_1">
   <g id="patch_2">
    <path d="M 10.7 43.44 
L 345.5 43.44 
L 345.5 7.2 
L 10.7 7.2 
z
" style="fill:#ffffff;"/>
   </g>
   <g id="matplotlib.axis_1">
    <g id="xtick_1">
     <g id="line2d_1">
      <defs>
       <path d="M 0 0 
L 0 2 
" id="m12d823a087" style="stroke:#000000;stroke-width:0.6;"/>
      </defs>
      <g>
       <use style="stroke:#000000;stroke-width:0.6;" x="10.7" xlink:href="#m12d823a087" y="43.44"/>
      </g>
     </g>
    </g>
    <g id="xtick_2">
     <g id="line2d_2">
      <g>
       <use style="stroke:#000000;stroke-width:0.6;" x="63.0125" xlink:href="#m12d823a087" y="43.44"/>
      </g>
     </g>
    </g>
    <g id="xtick_3">
     <g id="line2d_3">
      <g>
       <use style="stroke:#000000;stroke-width:0.6;" x="115.325" xlink:href="#m12d823a087" y="43.44"/>
      </g>
     </g>
    </g>
    <g id="xtick_4">
     <g id="line2d_4">
      <g>
       <use style="stroke:#000000;stroke-width:0.6;" x="167.6375" xlink:href="#m12d823a087" y="43.44"/>
      </g>
     </g>
    </g>
    <g id="xtick_5">
     <g id="line2d_5">
      <g>
       <use style="stroke:#000000;stroke-width:0.6;" x="219.95" xlink:href="#m12d823a087" y="43.44"/>
      </g>
     </g>
    </g>
    <g id="xtick_6">
     <g id="line2d_6">
      <g>
       <use style="stroke:#000000;stroke-width:0.6;" x="272.2625" xlink:href="#m12d823a087" y="43.44"/>
      </g>
     </g>
    </g>
    <g id="xtick_7">
     <g id="line2d_7">
      <g>
       <use style="stroke:#000000;stroke-width:0.6;" x="324.575" xlink:href="#m12d823a087" y="43.44"/>
      </g>
     </g>
    </g>
   </g>
   <g id="matplotlib.axis_2"/>
   <g id="LineCollection_1">
    <path clip-path="url(#p4ecf97fb98)" d="M 10.7 41.792727 
L 10.7 8.847273 
" style="fill:none;stroke:#ff0000;stroke-dasharray:1.5,2.475;stroke-dashoffset:0;stroke-width:1.5;"/>
    <path clip-path="url(#p4ecf97fb98)" d="M 31.625 41.792727 
L 31.625 8.847273 
" style="fill:none;stroke:#ff0000;stroke-dasharray:1.5,2.475;stroke-dashoffset:0;stroke-width:1.5;"/>
    <path clip-path="url(#p4ecf97fb98)" d="M 52.55 41.792727 
L 52.55 8.847273 
" style="fill:none;stroke:#ff0000;stroke-dasharray:1.5,2.475;stroke-dashoffset:0;stroke-width:1.5;"/>
    <path clip-path="url(#p4ecf97fb98)" d="M 73.475 41.792727 
L 73.475 8.847273 
" style="fill:none;stroke:#ff0000;stroke-dasharray:1.5,2.475;stroke-dashoffset:0;stroke-width:1.5;"/>
    <path clip-path="url(#p4ecf97fb98)" d="M 94.4 41.792727 
L 94.4 8.847273 
" style="fill:none;stroke:#ff0000;stroke-dasharray:1.5,2.475;stroke-dashoffset:0;stroke-width:1.5;"/>
    <path clip-path="url(#p4ecf97fb98)" d="M 115.325 41.792727 
L 115.325 8.847273 
" style="fill:none;stroke:#ff0000;stroke-dasharray:1.5,2.475;stroke-dashoffset:0;stroke-width:1.5;"/>
    <path clip-path="url(#p4ecf97fb98)" d="M 136.25 41.792727 
L 136.25 8.847273 
" style="fill:none;stroke:#ff0000;stroke-dasharray:1.5,2.475;stroke-dashoffset:0;stroke-width:1.5;"/>
    <path clip-path="url(#p4ecf97fb98)" d="M 157.175 41.792727 
L 157.175 8.847273 
" style="fill:none;stroke:#ff0000;stroke-dasharray:1.5,2.475;stroke-dashoffset:0;stroke-width:1.5;"/>
    <path clip-path="url(#p4ecf97fb98)" d="M 178.1 41.792727 
L 178.1 8.847273 
" style="fill:none;stroke:#ff0000;stroke-dasharray:1.5,2.475;stroke-dashoffset:0;stroke-width:1.5;"/>
    <path clip-path="url(#p4ecf97fb98)" d="M 199.025 41.792727 
L 199.025 8.847273 
" style="fill:none;stroke:#ff0000;stroke-dasharray:1.5,2.475;stroke-dashoffset:0;stroke-width:1.5;"/>
    <path clip-path="url(#p4ecf97fb98)" d="M 219.95 41.792727 
L 219.95 8.847273 
" style="fill:none;stroke:#ff0000;stroke-dasharray:1.5,2.475;stroke-dashoffset:0;stroke-width:1.5;"/>
    <path clip-path="url(#p4ecf97fb98)" d="M 240.875 41.792727 
L 240.875 8.847273 
" style="fill:none;stroke:#ff0000;stroke-dasharray:1.5,2.475;stroke-dashoffset:0;stroke-width:1.5;"/>
    <path clip-path="url(#p4ecf97fb98)" d="M 261.8 41.792727 
L 261.8 8.847273 
" style="fill:none;stroke:#ff0000;stroke-dasharray:1.5,2.475;stroke-dashoffset:0;stroke-width:1.5;"/>
    <path clip-path="url(#p4ecf97fb98)" d="M 282.725 41.792727 
L 282.725 8.847273 
" style="fill:none;stroke:#ff0000;stroke-dasharray:1.5,2.475;stroke-dashoffset:0;stroke-width:1.5;"/>
    <path clip-path="url(#p4ecf97fb98)" d="M 303.65 41.792727 
L 303.65 8.847273 
" style="fill:none;stroke:#ff0000;stroke-dasharray:1.5,2.475;stroke-dashoffset:0;stroke-width:1.5;"/>
    <path clip-path="url(#p4ecf97fb98)" d="M 324.575 41.792727 
L 324.575 8.847273 
" style="fill:none;stroke:#ff0000;stroke-dasharray:1.5,2.475;stroke-dashoffset:0;stroke-width:1.5;"/>
    <path clip-path="url(#p4ecf97fb98)" d="M 345.5 41.792727 
L 345.5 8.847273 
" style="fill:none;stroke:#ff0000;stroke-dasharray:1.5,2.475;stroke-dashoffset:0;stroke-width:1.5;"/>
   </g>
   <g id="line2d_8">
    <path clip-path="url(#p4ecf97fb98)" d="M 10.7 18.157945 
L 13.315625 18.157945 
L 15.93125 16.855753 
L 18.546875 18.157945 
L 21.1625 16.855753 
L 23.778125 19.460137 
L 29.009375 19.460137 
L 31.625 25.971096 
L 36.85625 25.971096 
L 42.0875 20.762328 
L 47.31875 18.157945 
L 49.934375 19.460137 
L 55.165625 19.460137 
L 57.78125 22.06452 
L 60.396875 23.366712 
L 63.0125 20.762328 
L 65.628125 23.366712 
L 68.24375 22.06452 
L 73.475 22.06452 
L 76.090625 19.460137 
L 78.70625 18.157945 
L 81.321875 18.157945 
L 83.9375 19.460137 
L 86.553125 18.157945 
L 89.16875 19.460137 
L 91.784375 19.460137 
L 94.4 18.157945 
L 97.015625 18.157945 
L 99.63125 12.949177 
L 102.246875 16.855753 
L 104.8625 16.855753 
L 107.478125 20.762328 
L 110.09375 20.762328 
L 112.709375 23.366712 
L 117.940625 20.762328 
L 120.55625 22.06452 
L 123.171875 22.06452 
L 128.403125 19.460137 
L 131.01875 16.855753 
L 136.25 16.855753 
L 138.865625 18.157945 
L 141.48125 16.855753 
L 146.7125 16.855753 
L 149.328125 15.553561 
L 151.94375 16.855753 
L 159.790625 16.855753 
L 162.40625 15.553561 
L 165.021875 12.949177 
L 170.253125 10.344793 
L 172.86875 11.646985 
L 175.484375 10.344793 
L 188.5625 10.344793 
L 191.178125 11.646985 
L 193.79375 11.646985 
L 199.025 14.251369 
L 201.640625 12.949177 
L 204.25625 14.251369 
L 209.4875 14.251369 
L 212.103125 15.553561 
L 219.95 15.553561 
L 222.565625 16.855753 
L 225.18125 16.855753 
L 230.4125 22.06452 
L 238.259375 22.06452 
L 243.490625 24.668904 
L 246.10625 28.57548 
L 248.721875 29.877672 
L 251.3375 29.877672 
L 253.953125 31.179863 
L 256.56875 31.179863 
L 259.184375 32.482055 
L 264.415625 24.668904 
L 267.03125 15.553561 
L 269.646875 22.06452 
L 272.2625 22.06452 
L 274.878125 24.668904 
L 280.109375 35.086439 
L 282.725 38.993015 
L 285.340625 37.690823 
L 287.95625 37.690823 
L 290.571875 40.295207 
L 293.1875 40.295207 
L 295.803125 37.690823 
L 303.65 37.690823 
L 306.265625 40.295207 
L 311.496875 37.690823 
L 314.1125 35.086439 
L 316.728125 35.086439 
L 319.34375 37.690823 
L 321.959375 36.388631 
L 327.190625 36.388631 
L 329.80625 37.690823 
L 342.884375 37.690823 
L 342.884375 37.690823 
" style="fill:none;stroke:#1f77b4;stroke-linecap:square;stroke-width:1.5;"/>
   </g>
   <g id="patch_3">
    <path d="M 10.7 43.44 
L 10.7 7.2 
" style="fill:none;stroke:#000000;stroke-linecap:square;stroke-linejoin:miter;stroke-width:0.8;"/>
   </g>
   <g id="patch_4">
    <path d="M 345.5 43.44 
L 345.5 7.2 
" style="fill:none;stroke:#000000;stroke-linecap:square;stroke-linejoin:miter;stroke-width:0.8;"/>
   </g>
   <g id="patch_5">
    <path d="M 10.7 43.44 
L 345.5 43.44 
" style="fill:none;stroke:#000000;stroke-linecap:square;stroke-linejoin:miter;stroke-width:0.8;"/>
   </g>
   <g id="patch_6">
    <path d="M 10.7 7.2 
L 345.5 7.2 
" style="fill:none;stroke:#000000;stroke-linecap:square;stroke-linejoin:miter;stroke-width:0.8;"/>
   </g>
   <g id="legend_1">
    <g id="patch_7">
     <path d="M 352.5 34.159063 
L 405.179688 34.159063 
Q 407.179688 34.159063 407.179688 32.159063 
L 407.179688 18.480938 
Q 407.179688 16.480938 405.179688 16.480938 
L 352.5 16.480938 
Q 350.5 16.480938 350.5 18.480938 
L 350.5 32.159063 
Q 350.5 34.159063 352.5 34.159063 
z
" style="fill:#ffffff;opacity:0.8;stroke:#cccccc;stroke-linejoin:miter;"/>
    </g>
    <g id="line2d_9">
     <path d="M 354.5 24.579375 
L 374.5 24.579375 
" style="fill:none;stroke:#1f77b4;stroke-linecap:square;stroke-width:1.5;"/>
    </g>
    <g id="line2d_10"/>
    <g id="text_1">
     <!-- dew -->
     <g transform="translate(382.5 28.079375)scale(0.1 -0.1)">
      <defs>
       <path d="M 45.40625 46.390625 
L 45.40625 75.984375 
L 54.390625 75.984375 
L 54.390625 0 
L 45.40625 0 
L 45.40625 8.203125 
Q 42.578125 3.328125 38.25 0.953125 
Q 33.9375 -1.421875 27.875 -1.421875 
Q 17.96875 -1.421875 11.734375 6.484375 
Q 5.515625 14.40625 5.515625 27.296875 
Q 5.515625 40.1875 11.734375 48.09375 
Q 17.96875 56 27.875 56 
Q 33.9375 56 38.25 53.625 
Q 42.578125 51.265625 45.40625 46.390625 
z
M 14.796875 27.296875 
Q 14.796875 17.390625 18.875 11.75 
Q 22.953125 6.109375 30.078125 6.109375 
Q 37.203125 6.109375 41.296875 11.75 
Q 45.40625 17.390625 45.40625 27.296875 
Q 45.40625 37.203125 41.296875 42.84375 
Q 37.203125 48.484375 30.078125 48.484375 
Q 22.953125 48.484375 18.875 42.84375 
Q 14.796875 37.203125 14.796875 27.296875 
z
" id="DejaVuSans-100"/>
       <path d="M 56.203125 29.59375 
L 56.203125 25.203125 
L 14.890625 25.203125 
Q 15.484375 15.921875 20.484375 11.0625 
Q 25.484375 6.203125 34.421875 6.203125 
Q 39.59375 6.203125 44.453125 7.46875 
Q 49.3125 8.734375 54.109375 11.28125 
L 54.109375 2.78125 
Q 49.265625 0.734375 44.1875 -0.34375 
Q 39.109375 -1.421875 33.890625 -1.421875 
Q 20.796875 -1.421875 13.15625 6.1875 
Q 5.515625 13.8125 5.515625 26.8125 
Q 5.515625 40.234375 12.765625 48.109375 
Q 20.015625 56 32.328125 56 
Q 43.359375 56 49.78125 48.890625 
Q 56.203125 41.796875 56.203125 29.59375 
z
M 47.21875 32.234375 
Q 47.125 39.59375 43.09375 43.984375 
Q 39.0625 48.390625 32.421875 48.390625 
Q 24.90625 48.390625 20.390625 44.140625 
Q 15.875 39.890625 15.1875 32.171875 
z
" id="DejaVuSans-101"/>
       <path d="M 4.203125 54.6875 
L 13.1875 54.6875 
L 24.421875 12.015625 
L 35.59375 54.6875 
L 46.1875 54.6875 
L 57.421875 12.015625 
L 68.609375 54.6875 
L 77.59375 54.6875 
L 63.28125 0 
L 52.6875 0 
L 40.921875 44.828125 
L 29.109375 0 
L 18.5 0 
z
" id="DejaVuSans-119"/>
      </defs>
      <use xlink:href="#DejaVuSans-100"/>
      <use x="63.476562" xlink:href="#DejaVuSans-101"/>
      <use x="125" xlink:href="#DejaVuSans-119"/>
     </g>
    </g>
   </g>
  </g>
  <g id="axes_2">
   <g id="patch_8">
    <path d="M 10.7 79.68 
L 345.5 79.68 
L 345.5 43.44 
L 10.7 43.44 
z
" style="fill:#ffffff;"/>
   </g>
   <g id="matplotlib.axis_3">
    <g id="xtick_8">
     <g id="line2d_11">
      <g>
       <use style="stroke:#000000;stroke-width:0.6;" x="10.7" xlink:href="#m12d823a087" y="79.68"/>
      </g>
     </g>
    </g>
    <g id="xtick_9">
     <g id="line2d_12">
      <g>
       <use style="stroke:#000000;stroke-width:0.6;" x="63.0125" xlink:href="#m12d823a087" y="79.68"/>
      </g>
     </g>
    </g>
    <g id="xtick_10">
     <g id="line2d_13">
      <g>
       <use style="stroke:#000000;stroke-width:0.6;" x="115.325" xlink:href="#m12d823a087" y="79.68"/>
      </g>
     </g>
    </g>
    <g id="xtick_11">
     <g id="line2d_14">
      <g>
       <use style="stroke:#000000;stroke-width:0.6;" x="167.6375" xlink:href="#m12d823a087" y="79.68"/>
      </g>
     </g>
    </g>
    <g id="xtick_12">
     <g id="line2d_15">
      <g>
       <use style="stroke:#000000;stroke-width:0.6;" x="219.95" xlink:href="#m12d823a087" y="79.68"/>
      </g>
     </g>
    </g>
    <g id="xtick_13">
     <g id="line2d_16">
      <g>
       <use style="stroke:#000000;stroke-width:0.6;" x="272.2625" xlink:href="#m12d823a087" y="79.68"/>
      </g>
     </g>
    </g>
    <g id="xtick_14">
     <g id="line2d_17">
      <g>
       <use style="stroke:#000000;stroke-width:0.6;" x="324.575" xlink:href="#m12d823a087" y="79.68"/>
      </g>
     </g>
    </g>
   </g>
   <g id="matplotlib.axis_4"/>
   <g id="LineCollection_2">
    <path clip-path="url(#pcf4c1413f3)" d="M 10.7 78.032727 
L 10.7 45.087273 
" style="fill:none;stroke:#ff0000;stroke-dasharray:1.5,2.475;stroke-dashoffset:0;stroke-width:1.5;"/>
    <path clip-path="url(#pcf4c1413f3)" d="M 31.625 78.032727 
L 31.625 45.087273 
" style="fill:none;stroke:#ff0000;stroke-dasharray:1.5,2.475;stroke-dashoffset:0;stroke-width:1.5;"/>
    <path clip-path="url(#pcf4c1413f3)" d="M 52.55 78.032727 
L 52.55 45.087273 
" style="fill:none;stroke:#ff0000;stroke-dasharray:1.5,2.475;stroke-dashoffset:0;stroke-width:1.5;"/>
    <path clip-path="url(#pcf4c1413f3)" d="M 73.475 78.032727 
L 73.475 45.087273 
" style="fill:none;stroke:#ff0000;stroke-dasharray:1.5,2.475;stroke-dashoffset:0;stroke-width:1.5;"/>
    <path clip-path="url(#pcf4c1413f3)" d="M 94.4 78.032727 
L 94.4 45.087273 
" style="fill:none;stroke:#ff0000;stroke-dasharray:1.5,2.475;stroke-dashoffset:0;stroke-width:1.5;"/>
    <path clip-path="url(#pcf4c1413f3)" d="M 115.325 78.032727 
L 115.325 45.087273 
" style="fill:none;stroke:#ff0000;stroke-dasharray:1.5,2.475;stroke-dashoffset:0;stroke-width:1.5;"/>
    <path clip-path="url(#pcf4c1413f3)" d="M 136.25 78.032727 
L 136.25 45.087273 
" style="fill:none;stroke:#ff0000;stroke-dasharray:1.5,2.475;stroke-dashoffset:0;stroke-width:1.5;"/>
    <path clip-path="url(#pcf4c1413f3)" d="M 157.175 78.032727 
L 157.175 45.087273 
" style="fill:none;stroke:#ff0000;stroke-dasharray:1.5,2.475;stroke-dashoffset:0;stroke-width:1.5;"/>
    <path clip-path="url(#pcf4c1413f3)" d="M 178.1 78.032727 
L 178.1 45.087273 
" style="fill:none;stroke:#ff0000;stroke-dasharray:1.5,2.475;stroke-dashoffset:0;stroke-width:1.5;"/>
    <path clip-path="url(#pcf4c1413f3)" d="M 199.025 78.032727 
L 199.025 45.087273 
" style="fill:none;stroke:#ff0000;stroke-dasharray:1.5,2.475;stroke-dashoffset:0;stroke-width:1.5;"/>
    <path clip-path="url(#pcf4c1413f3)" d="M 219.95 78.032727 
L 219.95 45.087273 
" style="fill:none;stroke:#ff0000;stroke-dasharray:1.5,2.475;stroke-dashoffset:0;stroke-width:1.5;"/>
    <path clip-path="url(#pcf4c1413f3)" d="M 240.875 78.032727 
L 240.875 45.087273 
" style="fill:none;stroke:#ff0000;stroke-dasharray:1.5,2.475;stroke-dashoffset:0;stroke-width:1.5;"/>
    <path clip-path="url(#pcf4c1413f3)" d="M 261.8 78.032727 
L 261.8 45.087273 
" style="fill:none;stroke:#ff0000;stroke-dasharray:1.5,2.475;stroke-dashoffset:0;stroke-width:1.5;"/>
    <path clip-path="url(#pcf4c1413f3)" d="M 282.725 78.032727 
L 282.725 45.087273 
" style="fill:none;stroke:#ff0000;stroke-dasharray:1.5,2.475;stroke-dashoffset:0;stroke-width:1.5;"/>
    <path clip-path="url(#pcf4c1413f3)" d="M 303.65 78.032727 
L 303.65 45.087273 
" style="fill:none;stroke:#ff0000;stroke-dasharray:1.5,2.475;stroke-dashoffset:0;stroke-width:1.5;"/>
    <path clip-path="url(#pcf4c1413f3)" d="M 324.575 78.032727 
L 324.575 45.087273 
" style="fill:none;stroke:#ff0000;stroke-dasharray:1.5,2.475;stroke-dashoffset:0;stroke-width:1.5;"/>
    <path clip-path="url(#pcf4c1413f3)" d="M 345.5 78.032727 
L 345.5 45.087273 
" style="fill:none;stroke:#ff0000;stroke-dasharray:1.5,2.475;stroke-dashoffset:0;stroke-width:1.5;"/>
   </g>
   <g id="line2d_18">
    <path clip-path="url(#pcf4c1413f3)" d="M 10.7 66.951074 
L 15.93125 66.951074 
L 18.546875 65.753058 
L 21.1625 66.951074 
L 23.778125 64.555041 
L 29.009375 64.555041 
L 31.625 53.772893 
L 34.240625 54.970909 
L 36.85625 52.574876 
L 42.0875 50.178843 
L 44.703125 50.178843 
L 49.934375 47.78281 
L 52.55 47.78281 
L 57.78125 50.178843 
L 60.396875 50.178843 
L 63.0125 51.37686 
L 65.628125 50.178843 
L 68.24375 52.574876 
L 70.859375 53.772893 
L 73.475 57.366942 
L 76.090625 63.357025 
L 78.70625 63.357025 
L 83.9375 68.149091 
L 86.553125 66.951074 
L 91.784375 69.347107 
L 94.4 69.347107 
L 97.015625 68.149091 
L 99.63125 62.159008 
L 102.246875 57.366942 
L 104.8625 53.772893 
L 112.709375 46.584793 
L 115.325 46.584793 
L 117.940625 50.178843 
L 120.55625 51.37686 
L 123.171875 51.37686 
L 125.7875 57.366942 
L 128.403125 60.960992 
L 131.01875 63.357025 
L 136.25 63.357025 
L 138.865625 64.555041 
L 141.48125 66.951074 
L 146.7125 64.555041 
L 149.328125 66.951074 
L 151.94375 66.951074 
L 154.559375 64.555041 
L 159.790625 66.951074 
L 162.40625 64.555041 
L 165.021875 58.564959 
L 175.484375 53.772893 
L 178.1 53.772893 
L 180.715625 56.168926 
L 183.33125 59.762975 
L 185.946875 62.159008 
L 188.5625 62.159008 
L 191.178125 63.357025 
L 193.79375 63.357025 
L 196.409375 65.753058 
L 199.025 66.951074 
L 201.640625 66.951074 
L 204.25625 68.149091 
L 206.871875 66.951074 
L 209.4875 66.951074 
L 212.103125 65.753058 
L 214.71875 63.357025 
L 217.334375 64.555041 
L 219.95 64.555041 
L 225.18125 57.366942 
L 227.796875 54.970909 
L 233.028125 52.574876 
L 235.64375 52.574876 
L 238.259375 53.772893 
L 243.490625 53.772893 
L 246.10625 58.564959 
L 248.721875 58.564959 
L 251.3375 57.366942 
L 259.184375 60.960992 
L 261.8 60.960992 
L 264.415625 62.159008 
L 267.03125 64.555041 
L 269.646875 63.357025 
L 272.2625 64.555041 
L 274.878125 64.555041 
L 280.109375 66.951074 
L 282.725 69.347107 
L 287.95625 69.347107 
L 290.571875 68.149091 
L 295.803125 68.149091 
L 298.41875 66.951074 
L 303.65 66.951074 
L 306.265625 68.149091 
L 308.88125 70.545124 
L 311.496875 71.74314 
L 314.1125 74.139174 
L 319.34375 71.74314 
L 321.959375 71.74314 
L 324.575 72.941157 
L 327.190625 72.941157 
L 329.80625 74.139174 
L 332.421875 74.139174 
L 335.0375 75.33719 
L 337.653125 75.33719 
L 340.26875 76.535207 
L 342.884375 76.535207 
L 342.884375 76.535207 
" style="fill:none;stroke:#ff7f0e;stroke-linecap:square;stroke-width:1.5;"/>
   </g>
   <g id="patch_9">
    <path d="M 10.7 79.68 
L 10.7 43.44 
" style="fill:none;stroke:#000000;stroke-linecap:square;stroke-linejoin:miter;stroke-width:0.8;"/>
   </g>
   <g id="patch_10">
    <path d="M 345.5 79.68 
L 345.5 43.44 
" style="fill:none;stroke:#000000;stroke-linecap:square;stroke-linejoin:miter;stroke-width:0.8;"/>
   </g>
   <g id="patch_11">
    <path d="M 10.7 79.68 
L 345.5 79.68 
" style="fill:none;stroke:#000000;stroke-linecap:square;stroke-linejoin:miter;stroke-width:0.8;"/>
   </g>
   <g id="patch_12">
    <path d="M 10.7 43.44 
L 345.5 43.44 
" style="fill:none;stroke:#000000;stroke-linecap:square;stroke-linejoin:miter;stroke-width:0.8;"/>
   </g>
   <g id="legend_2">
    <g id="patch_13">
     <path d="M 352.5 70.399062 
L 410.6625 70.399062 
Q 412.6625 70.399062 412.6625 68.399062 
L 412.6625 54.720937 
Q 412.6625 52.720937 410.6625 52.720937 
L 352.5 52.720937 
Q 350.5 52.720937 350.5 54.720937 
L 350.5 68.399062 
Q 350.5 70.399062 352.5 70.399062 
z
" style="fill:#ffffff;opacity:0.8;stroke:#cccccc;stroke-linejoin:miter;"/>
    </g>
    <g id="line2d_19">
     <path d="M 354.5 60.819375 
L 374.5 60.819375 
" style="fill:none;stroke:#ff7f0e;stroke-linecap:square;stroke-width:1.5;"/>
    </g>
    <g id="line2d_20"/>
    <g id="text_2">
     <!-- temp -->
     <g transform="translate(382.5 64.319375)scale(0.1 -0.1)">
      <defs>
       <path d="M 18.3125 70.21875 
L 18.3125 54.6875 
L 36.8125 54.6875 
L 36.8125 47.703125 
L 18.3125 47.703125 
L 18.3125 18.015625 
Q 18.3125 11.328125 20.140625 9.421875 
Q 21.96875 7.515625 27.59375 7.515625 
L 36.8125 7.515625 
L 36.8125 0 
L 27.59375 0 
Q 17.1875 0 13.234375 3.875 
Q 9.28125 7.765625 9.28125 18.015625 
L 9.28125 47.703125 
L 2.6875 47.703125 
L 2.6875 54.6875 
L 9.28125 54.6875 
L 9.28125 70.21875 
z
" id="DejaVuSans-116"/>
       <path d="M 52 44.1875 
Q 55.375 50.25 60.0625 53.125 
Q 64.75 56 71.09375 56 
Q 79.640625 56 84.28125 50.015625 
Q 88.921875 44.046875 88.921875 33.015625 
L 88.921875 0 
L 79.890625 0 
L 79.890625 32.71875 
Q 79.890625 40.578125 77.09375 44.375 
Q 74.3125 48.1875 68.609375 48.1875 
Q 61.625 48.1875 57.5625 43.546875 
Q 53.515625 38.921875 53.515625 30.90625 
L 53.515625 0 
L 44.484375 0 
L 44.484375 32.71875 
Q 44.484375 40.625 41.703125 44.40625 
Q 38.921875 48.1875 33.109375 48.1875 
Q 26.21875 48.1875 22.15625 43.53125 
Q 18.109375 38.875 18.109375 30.90625 
L 18.109375 0 
L 9.078125 0 
L 9.078125 54.6875 
L 18.109375 54.6875 
L 18.109375 46.1875 
Q 21.1875 51.21875 25.484375 53.609375 
Q 29.78125 56 35.6875 56 
Q 41.65625 56 45.828125 52.96875 
Q 50 49.953125 52 44.1875 
z
" id="DejaVuSans-109"/>
       <path d="M 18.109375 8.203125 
L 18.109375 -20.796875 
L 9.078125 -20.796875 
L 9.078125 54.6875 
L 18.109375 54.6875 
L 18.109375 46.390625 
Q 20.953125 51.265625 25.265625 53.625 
Q 29.59375 56 35.59375 56 
Q 45.5625 56 51.78125 48.09375 
Q 58.015625 40.1875 58.015625 27.296875 
Q 58.015625 14.40625 51.78125 6.484375 
Q 45.5625 -1.421875 35.59375 -1.421875 
Q 29.59375 -1.421875 25.265625 0.953125 
Q 20.953125 3.328125 18.109375 8.203125 
z
M 48.6875 27.296875 
Q 48.6875 37.203125 44.609375 42.84375 
Q 40.53125 48.484375 33.40625 48.484375 
Q 26.265625 48.484375 22.1875 42.84375 
Q 18.109375 37.203125 18.109375 27.296875 
Q 18.109375 17.390625 22.1875 11.75 
Q 26.265625 6.109375 33.40625 6.109375 
Q 40.53125 6.109375 44.609375 11.75 
Q 48.6875 17.390625 48.6875 27.296875 
z
" id="DejaVuSans-112"/>
      </defs>
      <use xlink:href="#DejaVuSans-116"/>
      <use x="39.208984" xlink:href="#DejaVuSans-101"/>
      <use x="100.732422" xlink:href="#DejaVuSans-109"/>
      <use x="198.144531" xlink:href="#DejaVuSans-112"/>
     </g>
    </g>
   </g>
  </g>
  <g id="axes_3">
   <g id="patch_14">
    <path d="M 10.7 115.92 
L 345.5 115.92 
L 345.5 79.68 
L 10.7 79.68 
z
" style="fill:#ffffff;"/>
   </g>
   <g id="matplotlib.axis_5">
    <g id="xtick_15">
     <g id="line2d_21">
      <g>
       <use style="stroke:#000000;stroke-width:0.6;" x="10.7" xlink:href="#m12d823a087" y="115.92"/>
      </g>
     </g>
    </g>
    <g id="xtick_16">
     <g id="line2d_22">
      <g>
       <use style="stroke:#000000;stroke-width:0.6;" x="63.0125" xlink:href="#m12d823a087" y="115.92"/>
      </g>
     </g>
    </g>
    <g id="xtick_17">
     <g id="line2d_23">
      <g>
       <use style="stroke:#000000;stroke-width:0.6;" x="115.325" xlink:href="#m12d823a087" y="115.92"/>
      </g>
     </g>
    </g>
    <g id="xtick_18">
     <g id="line2d_24">
      <g>
       <use style="stroke:#000000;stroke-width:0.6;" x="167.6375" xlink:href="#m12d823a087" y="115.92"/>
      </g>
     </g>
    </g>
    <g id="xtick_19">
     <g id="line2d_25">
      <g>
       <use style="stroke:#000000;stroke-width:0.6;" x="219.95" xlink:href="#m12d823a087" y="115.92"/>
      </g>
     </g>
    </g>
    <g id="xtick_20">
     <g id="line2d_26">
      <g>
       <use style="stroke:#000000;stroke-width:0.6;" x="272.2625" xlink:href="#m12d823a087" y="115.92"/>
      </g>
     </g>
    </g>
    <g id="xtick_21">
     <g id="line2d_27">
      <g>
       <use style="stroke:#000000;stroke-width:0.6;" x="324.575" xlink:href="#m12d823a087" y="115.92"/>
      </g>
     </g>
    </g>
   </g>
   <g id="matplotlib.axis_6"/>
   <g id="LineCollection_3">
    <path clip-path="url(#p2d2f6d7321)" d="M 10.7 114.272727 
L 10.7 81.327273 
" style="fill:none;stroke:#ff0000;stroke-dasharray:1.5,2.475;stroke-dashoffset:0;stroke-width:1.5;"/>
    <path clip-path="url(#p2d2f6d7321)" d="M 31.625 114.272727 
L 31.625 81.327273 
" style="fill:none;stroke:#ff0000;stroke-dasharray:1.5,2.475;stroke-dashoffset:0;stroke-width:1.5;"/>
    <path clip-path="url(#p2d2f6d7321)" d="M 52.55 114.272727 
L 52.55 81.327273 
" style="fill:none;stroke:#ff0000;stroke-dasharray:1.5,2.475;stroke-dashoffset:0;stroke-width:1.5;"/>
    <path clip-path="url(#p2d2f6d7321)" d="M 73.475 114.272727 
L 73.475 81.327273 
" style="fill:none;stroke:#ff0000;stroke-dasharray:1.5,2.475;stroke-dashoffset:0;stroke-width:1.5;"/>
    <path clip-path="url(#p2d2f6d7321)" d="M 94.4 114.272727 
L 94.4 81.327273 
" style="fill:none;stroke:#ff0000;stroke-dasharray:1.5,2.475;stroke-dashoffset:0;stroke-width:1.5;"/>
    <path clip-path="url(#p2d2f6d7321)" d="M 115.325 114.272727 
L 115.325 81.327273 
" style="fill:none;stroke:#ff0000;stroke-dasharray:1.5,2.475;stroke-dashoffset:0;stroke-width:1.5;"/>
    <path clip-path="url(#p2d2f6d7321)" d="M 136.25 114.272727 
L 136.25 81.327273 
" style="fill:none;stroke:#ff0000;stroke-dasharray:1.5,2.475;stroke-dashoffset:0;stroke-width:1.5;"/>
    <path clip-path="url(#p2d2f6d7321)" d="M 157.175 114.272727 
L 157.175 81.327273 
" style="fill:none;stroke:#ff0000;stroke-dasharray:1.5,2.475;stroke-dashoffset:0;stroke-width:1.5;"/>
    <path clip-path="url(#p2d2f6d7321)" d="M 178.1 114.272727 
L 178.1 81.327273 
" style="fill:none;stroke:#ff0000;stroke-dasharray:1.5,2.475;stroke-dashoffset:0;stroke-width:1.5;"/>
    <path clip-path="url(#p2d2f6d7321)" d="M 199.025 114.272727 
L 199.025 81.327273 
" style="fill:none;stroke:#ff0000;stroke-dasharray:1.5,2.475;stroke-dashoffset:0;stroke-width:1.5;"/>
    <path clip-path="url(#p2d2f6d7321)" d="M 219.95 114.272727 
L 219.95 81.327273 
" style="fill:none;stroke:#ff0000;stroke-dasharray:1.5,2.475;stroke-dashoffset:0;stroke-width:1.5;"/>
    <path clip-path="url(#p2d2f6d7321)" d="M 240.875 114.272727 
L 240.875 81.327273 
" style="fill:none;stroke:#ff0000;stroke-dasharray:1.5,2.475;stroke-dashoffset:0;stroke-width:1.5;"/>
    <path clip-path="url(#p2d2f6d7321)" d="M 261.8 114.272727 
L 261.8 81.327273 
" style="fill:none;stroke:#ff0000;stroke-dasharray:1.5,2.475;stroke-dashoffset:0;stroke-width:1.5;"/>
    <path clip-path="url(#p2d2f6d7321)" d="M 282.725 114.272727 
L 282.725 81.327273 
" style="fill:none;stroke:#ff0000;stroke-dasharray:1.5,2.475;stroke-dashoffset:0;stroke-width:1.5;"/>
    <path clip-path="url(#p2d2f6d7321)" d="M 303.65 114.272727 
L 303.65 81.327273 
" style="fill:none;stroke:#ff0000;stroke-dasharray:1.5,2.475;stroke-dashoffset:0;stroke-width:1.5;"/>
    <path clip-path="url(#p2d2f6d7321)" d="M 324.575 114.272727 
L 324.575 81.327273 
" style="fill:none;stroke:#ff0000;stroke-dasharray:1.5,2.475;stroke-dashoffset:0;stroke-width:1.5;"/>
    <path clip-path="url(#p2d2f6d7321)" d="M 345.5 114.272727 
L 345.5 81.327273 
" style="fill:none;stroke:#ff0000;stroke-dasharray:1.5,2.475;stroke-dashoffset:0;stroke-width:1.5;"/>
   </g>
   <g id="line2d_28">
    <path clip-path="url(#p2d2f6d7321)" d="M 10.7 108.781818 
L 15.93125 108.781818 
L 18.546875 109.780165 
L 29.009375 109.780165 
L 31.625 108.781818 
L 34.240625 108.781818 
L 36.85625 106.785124 
L 42.0875 106.785124 
L 44.703125 107.783471 
L 55.165625 107.783471 
L 57.78125 106.785124 
L 60.396875 106.785124 
L 63.0125 105.786777 
L 73.475 105.786777 
L 76.090625 104.78843 
L 83.9375 104.78843 
L 86.553125 105.786777 
L 94.4 105.786777 
L 97.015625 104.78843 
L 102.246875 104.78843 
L 115.325 109.780165 
L 117.940625 108.781818 
L 141.48125 108.781818 
L 144.096875 109.780165 
L 146.7125 109.780165 
L 149.328125 110.778512 
L 167.6375 110.778512 
L 172.86875 112.775207 
L 185.946875 112.775207 
L 188.5625 111.77686 
L 191.178125 111.77686 
L 193.79375 110.778512 
L 204.25625 110.778512 
L 206.871875 109.780165 
L 214.71875 109.780165 
L 227.796875 104.78843 
L 240.875 104.78843 
L 243.490625 103.790083 
L 246.10625 103.790083 
L 253.953125 100.795041 
L 256.56875 98.798347 
L 272.2625 92.808264 
L 274.878125 92.808264 
L 280.109375 90.81157 
L 282.725 88.814876 
L 285.340625 88.814876 
L 290.571875 86.818182 
L 295.803125 86.818182 
L 298.41875 87.816529 
L 308.88125 87.816529 
L 314.1125 85.819835 
L 316.728125 85.819835 
L 319.34375 84.821488 
L 321.959375 84.821488 
L 324.575 83.82314 
L 332.421875 83.82314 
L 335.0375 82.824793 
L 337.653125 82.824793 
L 340.26875 83.82314 
L 342.884375 82.824793 
L 342.884375 82.824793 
" style="fill:none;stroke:#2ca02c;stroke-linecap:square;stroke-width:1.5;"/>
   </g>
   <g id="patch_15">
    <path d="M 10.7 115.92 
L 10.7 79.68 
" style="fill:none;stroke:#000000;stroke-linecap:square;stroke-linejoin:miter;stroke-width:0.8;"/>
   </g>
   <g id="patch_16">
    <path d="M 345.5 115.92 
L 345.5 79.68 
" style="fill:none;stroke:#000000;stroke-linecap:square;stroke-linejoin:miter;stroke-width:0.8;"/>
   </g>
   <g id="patch_17">
    <path d="M 10.7 115.92 
L 345.5 115.92 
" style="fill:none;stroke:#000000;stroke-linecap:square;stroke-linejoin:miter;stroke-width:0.8;"/>
   </g>
   <g id="patch_18">
    <path d="M 10.7 79.68 
L 345.5 79.68 
" style="fill:none;stroke:#000000;stroke-linecap:square;stroke-linejoin:miter;stroke-width:0.8;"/>
   </g>
   <g id="legend_3">
    <g id="patch_19">
     <path d="M 352.5 106.639062 
L 411.30625 106.639062 
Q 413.30625 106.639062 413.30625 104.639062 
L 413.30625 90.960937 
Q 413.30625 88.960937 411.30625 88.960937 
L 352.5 88.960937 
Q 350.5 88.960937 350.5 90.960937 
L 350.5 104.639062 
Q 350.5 106.639062 352.5 106.639062 
z
" style="fill:#ffffff;opacity:0.8;stroke:#cccccc;stroke-linejoin:miter;"/>
    </g>
    <g id="line2d_29">
     <path d="M 354.5 97.059375 
L 374.5 97.059375 
" style="fill:none;stroke:#2ca02c;stroke-linecap:square;stroke-width:1.5;"/>
    </g>
    <g id="line2d_30"/>
    <g id="text_3">
     <!-- press -->
     <g transform="translate(382.5 100.559375)scale(0.1 -0.1)">
      <defs>
       <path d="M 41.109375 46.296875 
Q 39.59375 47.171875 37.8125 47.578125 
Q 36.03125 48 33.890625 48 
Q 26.265625 48 22.1875 43.046875 
Q 18.109375 38.09375 18.109375 28.8125 
L 18.109375 0 
L 9.078125 0 
L 9.078125 54.6875 
L 18.109375 54.6875 
L 18.109375 46.1875 
Q 20.953125 51.171875 25.484375 53.578125 
Q 30.03125 56 36.53125 56 
Q 37.453125 56 38.578125 55.875 
Q 39.703125 55.765625 41.0625 55.515625 
z
" id="DejaVuSans-114"/>
       <path d="M 44.28125 53.078125 
L 44.28125 44.578125 
Q 40.484375 46.53125 36.375 47.5 
Q 32.28125 48.484375 27.875 48.484375 
Q 21.1875 48.484375 17.84375 46.4375 
Q 14.5 44.390625 14.5 40.28125 
Q 14.5 37.15625 16.890625 35.375 
Q 19.28125 33.59375 26.515625 31.984375 
L 29.59375 31.296875 
Q 39.15625 29.25 43.1875 25.515625 
Q 47.21875 21.78125 47.21875 15.09375 
Q 47.21875 7.46875 41.1875 3.015625 
Q 35.15625 -1.421875 24.609375 -1.421875 
Q 20.21875 -1.421875 15.453125 -0.5625 
Q 10.6875 0.296875 5.421875 2 
L 5.421875 11.28125 
Q 10.40625 8.6875 15.234375 7.390625 
Q 20.0625 6.109375 24.8125 6.109375 
Q 31.15625 6.109375 34.5625 8.28125 
Q 37.984375 10.453125 37.984375 14.40625 
Q 37.984375 18.0625 35.515625 20.015625 
Q 33.0625 21.96875 24.703125 23.78125 
L 21.578125 24.515625 
Q 13.234375 26.265625 9.515625 29.90625 
Q 5.8125 33.546875 5.8125 39.890625 
Q 5.8125 47.609375 11.28125 51.796875 
Q 16.75 56 26.8125 56 
Q 31.78125 56 36.171875 55.265625 
Q 40.578125 54.546875 44.28125 53.078125 
z
" id="DejaVuSans-115"/>
      </defs>
      <use xlink:href="#DejaVuSans-112"/>
      <use x="63.476562" xlink:href="#DejaVuSans-114"/>
      <use x="102.339844" xlink:href="#DejaVuSans-101"/>
      <use x="163.863281" xlink:href="#DejaVuSans-115"/>
      <use x="215.962891" xlink:href="#DejaVuSans-115"/>
     </g>
    </g>
   </g>
  </g>
  <g id="axes_4">
   <g id="patch_20">
    <path d="M 10.7 152.16 
L 345.5 152.16 
L 345.5 115.92 
L 10.7 115.92 
z
" style="fill:#ffffff;"/>
   </g>
   <g id="matplotlib.axis_7">
    <g id="xtick_22">
     <g id="line2d_31">
      <g>
       <use style="stroke:#000000;stroke-width:0.6;" x="10.7" xlink:href="#m12d823a087" y="152.16"/>
      </g>
     </g>
    </g>
    <g id="xtick_23">
     <g id="line2d_32">
      <g>
       <use style="stroke:#000000;stroke-width:0.6;" x="63.0125" xlink:href="#m12d823a087" y="152.16"/>
      </g>
     </g>
    </g>
    <g id="xtick_24">
     <g id="line2d_33">
      <g>
       <use style="stroke:#000000;stroke-width:0.6;" x="115.325" xlink:href="#m12d823a087" y="152.16"/>
      </g>
     </g>
    </g>
    <g id="xtick_25">
     <g id="line2d_34">
      <g>
       <use style="stroke:#000000;stroke-width:0.6;" x="167.6375" xlink:href="#m12d823a087" y="152.16"/>
      </g>
     </g>
    </g>
    <g id="xtick_26">
     <g id="line2d_35">
      <g>
       <use style="stroke:#000000;stroke-width:0.6;" x="219.95" xlink:href="#m12d823a087" y="152.16"/>
      </g>
     </g>
    </g>
    <g id="xtick_27">
     <g id="line2d_36">
      <g>
       <use style="stroke:#000000;stroke-width:0.6;" x="272.2625" xlink:href="#m12d823a087" y="152.16"/>
      </g>
     </g>
    </g>
    <g id="xtick_28">
     <g id="line2d_37">
      <g>
       <use style="stroke:#000000;stroke-width:0.6;" x="324.575" xlink:href="#m12d823a087" y="152.16"/>
      </g>
     </g>
    </g>
   </g>
   <g id="matplotlib.axis_8"/>
   <g id="LineCollection_4">
    <path clip-path="url(#p9745d23ead)" d="M 10.7 150.512727 
L 10.7 117.567273 
" style="fill:none;stroke:#ff0000;stroke-dasharray:1.5,2.475;stroke-dashoffset:0;stroke-width:1.5;"/>
    <path clip-path="url(#p9745d23ead)" d="M 31.625 150.512727 
L 31.625 117.567273 
" style="fill:none;stroke:#ff0000;stroke-dasharray:1.5,2.475;stroke-dashoffset:0;stroke-width:1.5;"/>
    <path clip-path="url(#p9745d23ead)" d="M 52.55 150.512727 
L 52.55 117.567273 
" style="fill:none;stroke:#ff0000;stroke-dasharray:1.5,2.475;stroke-dashoffset:0;stroke-width:1.5;"/>
    <path clip-path="url(#p9745d23ead)" d="M 73.475 150.512727 
L 73.475 117.567273 
" style="fill:none;stroke:#ff0000;stroke-dasharray:1.5,2.475;stroke-dashoffset:0;stroke-width:1.5;"/>
    <path clip-path="url(#p9745d23ead)" d="M 94.4 150.512727 
L 94.4 117.567273 
" style="fill:none;stroke:#ff0000;stroke-dasharray:1.5,2.475;stroke-dashoffset:0;stroke-width:1.5;"/>
    <path clip-path="url(#p9745d23ead)" d="M 115.325 150.512727 
L 115.325 117.567273 
" style="fill:none;stroke:#ff0000;stroke-dasharray:1.5,2.475;stroke-dashoffset:0;stroke-width:1.5;"/>
    <path clip-path="url(#p9745d23ead)" d="M 136.25 150.512727 
L 136.25 117.567273 
" style="fill:none;stroke:#ff0000;stroke-dasharray:1.5,2.475;stroke-dashoffset:0;stroke-width:1.5;"/>
    <path clip-path="url(#p9745d23ead)" d="M 157.175 150.512727 
L 157.175 117.567273 
" style="fill:none;stroke:#ff0000;stroke-dasharray:1.5,2.475;stroke-dashoffset:0;stroke-width:1.5;"/>
    <path clip-path="url(#p9745d23ead)" d="M 178.1 150.512727 
L 178.1 117.567273 
" style="fill:none;stroke:#ff0000;stroke-dasharray:1.5,2.475;stroke-dashoffset:0;stroke-width:1.5;"/>
    <path clip-path="url(#p9745d23ead)" d="M 199.025 150.512727 
L 199.025 117.567273 
" style="fill:none;stroke:#ff0000;stroke-dasharray:1.5,2.475;stroke-dashoffset:0;stroke-width:1.5;"/>
    <path clip-path="url(#p9745d23ead)" d="M 219.95 150.512727 
L 219.95 117.567273 
" style="fill:none;stroke:#ff0000;stroke-dasharray:1.5,2.475;stroke-dashoffset:0;stroke-width:1.5;"/>
    <path clip-path="url(#p9745d23ead)" d="M 240.875 150.512727 
L 240.875 117.567273 
" style="fill:none;stroke:#ff0000;stroke-dasharray:1.5,2.475;stroke-dashoffset:0;stroke-width:1.5;"/>
    <path clip-path="url(#p9745d23ead)" d="M 261.8 150.512727 
L 261.8 117.567273 
" style="fill:none;stroke:#ff0000;stroke-dasharray:1.5,2.475;stroke-dashoffset:0;stroke-width:1.5;"/>
    <path clip-path="url(#p9745d23ead)" d="M 282.725 150.512727 
L 282.725 117.567273 
" style="fill:none;stroke:#ff0000;stroke-dasharray:1.5,2.475;stroke-dashoffset:0;stroke-width:1.5;"/>
    <path clip-path="url(#p9745d23ead)" d="M 303.65 150.512727 
L 303.65 117.567273 
" style="fill:none;stroke:#ff0000;stroke-dasharray:1.5,2.475;stroke-dashoffset:0;stroke-width:1.5;"/>
    <path clip-path="url(#p9745d23ead)" d="M 324.575 150.512727 
L 324.575 117.567273 
" style="fill:none;stroke:#ff0000;stroke-dasharray:1.5,2.475;stroke-dashoffset:0;stroke-width:1.5;"/>
    <path clip-path="url(#p9745d23ead)" d="M 345.5 150.512727 
L 345.5 117.567273 
" style="fill:none;stroke:#ff0000;stroke-dasharray:1.5,2.475;stroke-dashoffset:0;stroke-width:1.5;"/>
   </g>
   <g id="line2d_38">
    <path clip-path="url(#p9745d23ead)" d="M 10.7 148.545748 
L 13.315625 149.015207 
L 15.93125 149.015207 
L 18.546875 148.780477 
L 21.1625 148.189698 
L 23.778125 148.77784 
L 26.39375 149.015207 
L 29.009375 148.77784 
L 31.625 146.185267 
L 34.240625 144.887662 
L 42.0875 137.814132 
L 44.703125 135.928385 
L 47.31875 133.805271 
L 49.934375 131.919523 
L 57.78125 127.32252 
L 60.396875 126.262282 
L 63.0125 148.424427 
L 65.628125 147.952331 
L 68.24375 148.424427 
L 70.859375 147.598918 
L 73.475 149.015207 
L 76.090625 148.77784 
L 78.70625 149.015207 
L 83.9375 149.015207 
L 89.16875 148.545748 
L 94.4 149.015207 
L 97.015625 148.780477 
L 99.63125 148.661794 
L 104.8625 148.192335 
L 107.478125 148.77784 
L 110.09375 149.015207 
L 112.709375 148.424427 
L 115.325 147.598918 
L 117.940625 146.301313 
L 120.55625 145.475804 
L 125.7875 144.531612 
L 128.403125 144.296882 
L 131.01875 149.015207 
L 136.25 148.545748 
L 138.865625 149.015207 
L 141.48125 148.780477 
L 144.096875 148.308381 
L 146.7125 149.015207 
L 149.328125 148.780477 
L 151.94375 148.77784 
L 154.559375 149.015207 
L 157.175 148.77784 
L 159.790625 149.015207 
L 162.40625 149.015207 
L 167.6375 148.545748 
L 172.86875 149.015207 
L 175.484375 148.780477 
L 178.1 148.77784 
L 180.715625 148.54311 
L 183.33125 149.015207 
L 204.25625 147.137372 
L 206.871875 148.424427 
L 209.4875 147.364189 
L 212.103125 146.892093 
L 214.71875 144.768979 
L 217.334375 143.471374 
L 219.95 141.939039 
L 222.565625 140.641434 
L 227.796875 138.520957 
L 230.4125 136.397843 
L 235.64375 133.802633 
L 238.259375 132.977124 
L 240.875 131.916886 
L 243.490625 130.619281 
L 246.10625 129.793772 
L 248.721875 148.189698 
L 256.56875 144.296882 
L 264.415625 139.699879 
L 267.03125 147.952331 
L 269.646875 148.189698 
L 272.2625 147.364189 
L 274.878125 145.006345 
L 277.49375 142.057722 
L 280.109375 139.46515 
L 282.725 137.342036 
L 285.340625 134.393413 
L 287.95625 132.270299 
L 290.571875 129.677726 
L 293.1875 126.729103 
L 295.803125 124.37126 
L 298.41875 122.248146 
L 301.034375 120.362398 
L 303.65 119.064793 
L 306.265625 148.424427 
L 308.88125 147.952331 
L 311.496875 149.015207 
L 314.1125 149.015207 
L 316.728125 148.896523 
L 321.959375 148.424427 
L 324.575 147.598918 
L 327.190625 146.53868 
L 329.80625 145.713171 
L 332.421875 148.189698 
L 335.0375 147.364189 
L 340.26875 145.243712 
L 342.884375 148.189698 
L 342.884375 148.189698 
" style="fill:none;stroke:#d62728;stroke-linecap:square;stroke-width:1.5;"/>
   </g>
   <g id="patch_21">
    <path d="M 10.7 152.16 
L 10.7 115.92 
" style="fill:none;stroke:#000000;stroke-linecap:square;stroke-linejoin:miter;stroke-width:0.8;"/>
   </g>
   <g id="patch_22">
    <path d="M 345.5 152.16 
L 345.5 115.92 
" style="fill:none;stroke:#000000;stroke-linecap:square;stroke-linejoin:miter;stroke-width:0.8;"/>
   </g>
   <g id="patch_23">
    <path d="M 10.7 152.16 
L 345.5 152.16 
" style="fill:none;stroke:#000000;stroke-linecap:square;stroke-linejoin:miter;stroke-width:0.8;"/>
   </g>
   <g id="patch_24">
    <path d="M 10.7 115.92 
L 345.5 115.92 
" style="fill:none;stroke:#000000;stroke-linecap:square;stroke-linejoin:miter;stroke-width:0.8;"/>
   </g>
   <g id="legend_4">
    <g id="patch_25">
     <path d="M 352.5 143.018125 
L 443.354688 143.018125 
Q 445.354688 143.018125 445.354688 141.018125 
L 445.354688 127.061875 
Q 445.354688 125.061875 443.354688 125.061875 
L 352.5 125.061875 
Q 350.5 125.061875 350.5 127.061875 
L 350.5 141.018125 
Q 350.5 143.018125 352.5 143.018125 
z
" style="fill:#ffffff;opacity:0.8;stroke:#cccccc;stroke-linejoin:miter;"/>
    </g>
    <g id="line2d_39">
     <path d="M 354.5 133.160312 
L 374.5 133.160312 
" style="fill:none;stroke:#d62728;stroke-linecap:square;stroke-width:1.5;"/>
    </g>
    <g id="line2d_40"/>
    <g id="text_4">
     <!-- wind_speed -->
     <g transform="translate(382.5 136.660312)scale(0.1 -0.1)">
      <defs>
       <path d="M 9.421875 54.6875 
L 18.40625 54.6875 
L 18.40625 0 
L 9.421875 0 
z
M 9.421875 75.984375 
L 18.40625 75.984375 
L 18.40625 64.59375 
L 9.421875 64.59375 
z
" id="DejaVuSans-105"/>
       <path d="M 54.890625 33.015625 
L 54.890625 0 
L 45.90625 0 
L 45.90625 32.71875 
Q 45.90625 40.484375 42.875 44.328125 
Q 39.84375 48.1875 33.796875 48.1875 
Q 26.515625 48.1875 22.3125 43.546875 
Q 18.109375 38.921875 18.109375 30.90625 
L 18.109375 0 
L 9.078125 0 
L 9.078125 54.6875 
L 18.109375 54.6875 
L 18.109375 46.1875 
Q 21.34375 51.125 25.703125 53.5625 
Q 30.078125 56 35.796875 56 
Q 45.21875 56 50.046875 50.171875 
Q 54.890625 44.34375 54.890625 33.015625 
z
" id="DejaVuSans-110"/>
       <path d="M 50.984375 -16.609375 
L 50.984375 -23.578125 
L -0.984375 -23.578125 
L -0.984375 -16.609375 
z
" id="DejaVuSans-95"/>
      </defs>
      <use xlink:href="#DejaVuSans-119"/>
      <use x="81.787109" xlink:href="#DejaVuSans-105"/>
      <use x="109.570312" xlink:href="#DejaVuSans-110"/>
      <use x="172.949219" xlink:href="#DejaVuSans-100"/>
      <use x="236.425781" xlink:href="#DejaVuSans-95"/>
      <use x="286.425781" xlink:href="#DejaVuSans-115"/>
      <use x="338.525391" xlink:href="#DejaVuSans-112"/>
      <use x="402.001953" xlink:href="#DejaVuSans-101"/>
      <use x="463.525391" xlink:href="#DejaVuSans-101"/>
      <use x="525.048828" xlink:href="#DejaVuSans-100"/>
     </g>
    </g>
   </g>
  </g>
  <g id="axes_5">
   <g id="patch_26">
    <path d="M 10.7 188.4 
L 345.5 188.4 
L 345.5 152.16 
L 10.7 152.16 
z
" style="fill:#ffffff;"/>
   </g>
   <g id="matplotlib.axis_9">
    <g id="xtick_29">
     <g id="line2d_41">
      <g>
       <use style="stroke:#000000;stroke-width:0.6;" x="10.7" xlink:href="#m12d823a087" y="188.4"/>
      </g>
     </g>
    </g>
    <g id="xtick_30">
     <g id="line2d_42">
      <g>
       <use style="stroke:#000000;stroke-width:0.6;" x="63.0125" xlink:href="#m12d823a087" y="188.4"/>
      </g>
     </g>
    </g>
    <g id="xtick_31">
     <g id="line2d_43">
      <g>
       <use style="stroke:#000000;stroke-width:0.6;" x="115.325" xlink:href="#m12d823a087" y="188.4"/>
      </g>
     </g>
    </g>
    <g id="xtick_32">
     <g id="line2d_44">
      <g>
       <use style="stroke:#000000;stroke-width:0.6;" x="167.6375" xlink:href="#m12d823a087" y="188.4"/>
      </g>
     </g>
    </g>
    <g id="xtick_33">
     <g id="line2d_45">
      <g>
       <use style="stroke:#000000;stroke-width:0.6;" x="219.95" xlink:href="#m12d823a087" y="188.4"/>
      </g>
     </g>
    </g>
    <g id="xtick_34">
     <g id="line2d_46">
      <g>
       <use style="stroke:#000000;stroke-width:0.6;" x="272.2625" xlink:href="#m12d823a087" y="188.4"/>
      </g>
     </g>
    </g>
    <g id="xtick_35">
     <g id="line2d_47">
      <g>
       <use style="stroke:#000000;stroke-width:0.6;" x="324.575" xlink:href="#m12d823a087" y="188.4"/>
      </g>
     </g>
    </g>
   </g>
   <g id="matplotlib.axis_10"/>
   <g id="LineCollection_5">
    <path clip-path="url(#p5b7da50de4)" d="M 10.7 186.752727 
L 10.7 153.807273 
" style="fill:none;stroke:#ff0000;stroke-dasharray:1.5,2.475;stroke-dashoffset:0;stroke-width:1.5;"/>
    <path clip-path="url(#p5b7da50de4)" d="M 31.625 186.752727 
L 31.625 153.807273 
" style="fill:none;stroke:#ff0000;stroke-dasharray:1.5,2.475;stroke-dashoffset:0;stroke-width:1.5;"/>
    <path clip-path="url(#p5b7da50de4)" d="M 52.55 186.752727 
L 52.55 153.807273 
" style="fill:none;stroke:#ff0000;stroke-dasharray:1.5,2.475;stroke-dashoffset:0;stroke-width:1.5;"/>
    <path clip-path="url(#p5b7da50de4)" d="M 73.475 186.752727 
L 73.475 153.807273 
" style="fill:none;stroke:#ff0000;stroke-dasharray:1.5,2.475;stroke-dashoffset:0;stroke-width:1.5;"/>
    <path clip-path="url(#p5b7da50de4)" d="M 94.4 186.752727 
L 94.4 153.807273 
" style="fill:none;stroke:#ff0000;stroke-dasharray:1.5,2.475;stroke-dashoffset:0;stroke-width:1.5;"/>
    <path clip-path="url(#p5b7da50de4)" d="M 115.325 186.752727 
L 115.325 153.807273 
" style="fill:none;stroke:#ff0000;stroke-dasharray:1.5,2.475;stroke-dashoffset:0;stroke-width:1.5;"/>
    <path clip-path="url(#p5b7da50de4)" d="M 136.25 186.752727 
L 136.25 153.807273 
" style="fill:none;stroke:#ff0000;stroke-dasharray:1.5,2.475;stroke-dashoffset:0;stroke-width:1.5;"/>
    <path clip-path="url(#p5b7da50de4)" d="M 157.175 186.752727 
L 157.175 153.807273 
" style="fill:none;stroke:#ff0000;stroke-dasharray:1.5,2.475;stroke-dashoffset:0;stroke-width:1.5;"/>
    <path clip-path="url(#p5b7da50de4)" d="M 178.1 186.752727 
L 178.1 153.807273 
" style="fill:none;stroke:#ff0000;stroke-dasharray:1.5,2.475;stroke-dashoffset:0;stroke-width:1.5;"/>
    <path clip-path="url(#p5b7da50de4)" d="M 199.025 186.752727 
L 199.025 153.807273 
" style="fill:none;stroke:#ff0000;stroke-dasharray:1.5,2.475;stroke-dashoffset:0;stroke-width:1.5;"/>
    <path clip-path="url(#p5b7da50de4)" d="M 219.95 186.752727 
L 219.95 153.807273 
" style="fill:none;stroke:#ff0000;stroke-dasharray:1.5,2.475;stroke-dashoffset:0;stroke-width:1.5;"/>
    <path clip-path="url(#p5b7da50de4)" d="M 240.875 186.752727 
L 240.875 153.807273 
" style="fill:none;stroke:#ff0000;stroke-dasharray:1.5,2.475;stroke-dashoffset:0;stroke-width:1.5;"/>
    <path clip-path="url(#p5b7da50de4)" d="M 261.8 186.752727 
L 261.8 153.807273 
" style="fill:none;stroke:#ff0000;stroke-dasharray:1.5,2.475;stroke-dashoffset:0;stroke-width:1.5;"/>
    <path clip-path="url(#p5b7da50de4)" d="M 282.725 186.752727 
L 282.725 153.807273 
" style="fill:none;stroke:#ff0000;stroke-dasharray:1.5,2.475;stroke-dashoffset:0;stroke-width:1.5;"/>
    <path clip-path="url(#p5b7da50de4)" d="M 303.65 186.752727 
L 303.65 153.807273 
" style="fill:none;stroke:#ff0000;stroke-dasharray:1.5,2.475;stroke-dashoffset:0;stroke-width:1.5;"/>
    <path clip-path="url(#p5b7da50de4)" d="M 324.575 186.752727 
L 324.575 153.807273 
" style="fill:none;stroke:#ff0000;stroke-dasharray:1.5,2.475;stroke-dashoffset:0;stroke-width:1.5;"/>
    <path clip-path="url(#p5b7da50de4)" d="M 345.5 186.752727 
L 345.5 153.807273 
" style="fill:none;stroke:#ff0000;stroke-dasharray:1.5,2.475;stroke-dashoffset:0;stroke-width:1.5;"/>
   </g>
   <g id="line2d_48">
    <path clip-path="url(#p5b7da50de4)" d="M 10.7 170.28 
L 342.884375 170.28 
L 342.884375 170.28 
" style="fill:none;stroke:#9467bd;stroke-linecap:square;stroke-width:1.5;"/>
   </g>
   <g id="patch_27">
    <path d="M 10.7 188.4 
L 10.7 152.16 
" style="fill:none;stroke:#000000;stroke-linecap:square;stroke-linejoin:miter;stroke-width:0.8;"/>
   </g>
   <g id="patch_28">
    <path d="M 345.5 188.4 
L 345.5 152.16 
" style="fill:none;stroke:#000000;stroke-linecap:square;stroke-linejoin:miter;stroke-width:0.8;"/>
   </g>
   <g id="patch_29">
    <path d="M 10.7 188.4 
L 345.5 188.4 
" style="fill:none;stroke:#000000;stroke-linecap:square;stroke-linejoin:miter;stroke-width:0.8;"/>
   </g>
   <g id="patch_30">
    <path d="M 10.7 152.16 
L 345.5 152.16 
" style="fill:none;stroke:#000000;stroke-linecap:square;stroke-linejoin:miter;stroke-width:0.8;"/>
   </g>
   <g id="legend_5">
    <g id="patch_31">
     <path d="M 352.5 179.119062 
L 410.34375 179.119062 
Q 412.34375 179.119062 412.34375 177.119062 
L 412.34375 163.440937 
Q 412.34375 161.440937 410.34375 161.440937 
L 352.5 161.440937 
Q 350.5 161.440937 350.5 163.440937 
L 350.5 177.119062 
Q 350.5 179.119062 352.5 179.119062 
z
" style="fill:#ffffff;opacity:0.8;stroke:#cccccc;stroke-linejoin:miter;"/>
    </g>
    <g id="line2d_49">
     <path d="M 354.5 169.539375 
L 374.5 169.539375 
" style="fill:none;stroke:#9467bd;stroke-linecap:square;stroke-width:1.5;"/>
    </g>
    <g id="line2d_50"/>
    <g id="text_5">
     <!-- snow -->
     <g transform="translate(382.5 173.039375)scale(0.1 -0.1)">
      <defs>
       <path d="M 30.609375 48.390625 
Q 23.390625 48.390625 19.1875 42.75 
Q 14.984375 37.109375 14.984375 27.296875 
Q 14.984375 17.484375 19.15625 11.84375 
Q 23.34375 6.203125 30.609375 6.203125 
Q 37.796875 6.203125 41.984375 11.859375 
Q 46.1875 17.53125 46.1875 27.296875 
Q 46.1875 37.015625 41.984375 42.703125 
Q 37.796875 48.390625 30.609375 48.390625 
z
M 30.609375 56 
Q 42.328125 56 49.015625 48.375 
Q 55.71875 40.765625 55.71875 27.296875 
Q 55.71875 13.875 49.015625 6.21875 
Q 42.328125 -1.421875 30.609375 -1.421875 
Q 18.84375 -1.421875 12.171875 6.21875 
Q 5.515625 13.875 5.515625 27.296875 
Q 5.515625 40.765625 12.171875 48.375 
Q 18.84375 56 30.609375 56 
z
" id="DejaVuSans-111"/>
      </defs>
      <use xlink:href="#DejaVuSans-115"/>
      <use x="52.099609" xlink:href="#DejaVuSans-110"/>
      <use x="115.478516" xlink:href="#DejaVuSans-111"/>
      <use x="176.660156" xlink:href="#DejaVuSans-119"/>
     </g>
    </g>
   </g>
  </g>
  <g id="axes_6">
   <g id="patch_32">
    <path d="M 10.7 224.64 
L 345.5 224.64 
L 345.5 188.4 
L 10.7 188.4 
z
" style="fill:#ffffff;"/>
   </g>
   <g id="matplotlib.axis_11">
    <g id="xtick_36">
     <g id="line2d_51">
      <g>
       <use style="stroke:#000000;stroke-width:0.6;" x="10.7" xlink:href="#m12d823a087" y="224.64"/>
      </g>
     </g>
    </g>
    <g id="xtick_37">
     <g id="line2d_52">
      <g>
       <use style="stroke:#000000;stroke-width:0.6;" x="63.0125" xlink:href="#m12d823a087" y="224.64"/>
      </g>
     </g>
    </g>
    <g id="xtick_38">
     <g id="line2d_53">
      <g>
       <use style="stroke:#000000;stroke-width:0.6;" x="115.325" xlink:href="#m12d823a087" y="224.64"/>
      </g>
     </g>
    </g>
    <g id="xtick_39">
     <g id="line2d_54">
      <g>
       <use style="stroke:#000000;stroke-width:0.6;" x="167.6375" xlink:href="#m12d823a087" y="224.64"/>
      </g>
     </g>
    </g>
    <g id="xtick_40">
     <g id="line2d_55">
      <g>
       <use style="stroke:#000000;stroke-width:0.6;" x="219.95" xlink:href="#m12d823a087" y="224.64"/>
      </g>
     </g>
    </g>
    <g id="xtick_41">
     <g id="line2d_56">
      <g>
       <use style="stroke:#000000;stroke-width:0.6;" x="272.2625" xlink:href="#m12d823a087" y="224.64"/>
      </g>
     </g>
    </g>
    <g id="xtick_42">
     <g id="line2d_57">
      <g>
       <use style="stroke:#000000;stroke-width:0.6;" x="324.575" xlink:href="#m12d823a087" y="224.64"/>
      </g>
     </g>
    </g>
   </g>
   <g id="matplotlib.axis_12"/>
   <g id="LineCollection_6">
    <path clip-path="url(#p2a169b92cf)" d="M 10.7 222.992727 
L 10.7 190.047273 
" style="fill:none;stroke:#ff0000;stroke-dasharray:1.5,2.475;stroke-dashoffset:0;stroke-width:1.5;"/>
    <path clip-path="url(#p2a169b92cf)" d="M 31.625 222.992727 
L 31.625 190.047273 
" style="fill:none;stroke:#ff0000;stroke-dasharray:1.5,2.475;stroke-dashoffset:0;stroke-width:1.5;"/>
    <path clip-path="url(#p2a169b92cf)" d="M 52.55 222.992727 
L 52.55 190.047273 
" style="fill:none;stroke:#ff0000;stroke-dasharray:1.5,2.475;stroke-dashoffset:0;stroke-width:1.5;"/>
    <path clip-path="url(#p2a169b92cf)" d="M 73.475 222.992727 
L 73.475 190.047273 
" style="fill:none;stroke:#ff0000;stroke-dasharray:1.5,2.475;stroke-dashoffset:0;stroke-width:1.5;"/>
    <path clip-path="url(#p2a169b92cf)" d="M 94.4 222.992727 
L 94.4 190.047273 
" style="fill:none;stroke:#ff0000;stroke-dasharray:1.5,2.475;stroke-dashoffset:0;stroke-width:1.5;"/>
    <path clip-path="url(#p2a169b92cf)" d="M 115.325 222.992727 
L 115.325 190.047273 
" style="fill:none;stroke:#ff0000;stroke-dasharray:1.5,2.475;stroke-dashoffset:0;stroke-width:1.5;"/>
    <path clip-path="url(#p2a169b92cf)" d="M 136.25 222.992727 
L 136.25 190.047273 
" style="fill:none;stroke:#ff0000;stroke-dasharray:1.5,2.475;stroke-dashoffset:0;stroke-width:1.5;"/>
    <path clip-path="url(#p2a169b92cf)" d="M 157.175 222.992727 
L 157.175 190.047273 
" style="fill:none;stroke:#ff0000;stroke-dasharray:1.5,2.475;stroke-dashoffset:0;stroke-width:1.5;"/>
    <path clip-path="url(#p2a169b92cf)" d="M 178.1 222.992727 
L 178.1 190.047273 
" style="fill:none;stroke:#ff0000;stroke-dasharray:1.5,2.475;stroke-dashoffset:0;stroke-width:1.5;"/>
    <path clip-path="url(#p2a169b92cf)" d="M 199.025 222.992727 
L 199.025 190.047273 
" style="fill:none;stroke:#ff0000;stroke-dasharray:1.5,2.475;stroke-dashoffset:0;stroke-width:1.5;"/>
    <path clip-path="url(#p2a169b92cf)" d="M 219.95 222.992727 
L 219.95 190.047273 
" style="fill:none;stroke:#ff0000;stroke-dasharray:1.5,2.475;stroke-dashoffset:0;stroke-width:1.5;"/>
    <path clip-path="url(#p2a169b92cf)" d="M 240.875 222.992727 
L 240.875 190.047273 
" style="fill:none;stroke:#ff0000;stroke-dasharray:1.5,2.475;stroke-dashoffset:0;stroke-width:1.5;"/>
    <path clip-path="url(#p2a169b92cf)" d="M 261.8 222.992727 
L 261.8 190.047273 
" style="fill:none;stroke:#ff0000;stroke-dasharray:1.5,2.475;stroke-dashoffset:0;stroke-width:1.5;"/>
    <path clip-path="url(#p2a169b92cf)" d="M 282.725 222.992727 
L 282.725 190.047273 
" style="fill:none;stroke:#ff0000;stroke-dasharray:1.5,2.475;stroke-dashoffset:0;stroke-width:1.5;"/>
    <path clip-path="url(#p2a169b92cf)" d="M 303.65 222.992727 
L 303.65 190.047273 
" style="fill:none;stroke:#ff0000;stroke-dasharray:1.5,2.475;stroke-dashoffset:0;stroke-width:1.5;"/>
    <path clip-path="url(#p2a169b92cf)" d="M 324.575 222.992727 
L 324.575 190.047273 
" style="fill:none;stroke:#ff0000;stroke-dasharray:1.5,2.475;stroke-dashoffset:0;stroke-width:1.5;"/>
    <path clip-path="url(#p2a169b92cf)" d="M 345.5 222.992727 
L 345.5 190.047273 
" style="fill:none;stroke:#ff0000;stroke-dasharray:1.5,2.475;stroke-dashoffset:0;stroke-width:1.5;"/>
   </g>
   <g id="line2d_58">
    <path clip-path="url(#p2a169b92cf)" d="M 10.7 206.52 
L 342.884375 206.52 
L 342.884375 206.52 
" style="fill:none;stroke:#8c564b;stroke-linecap:square;stroke-width:1.5;"/>
   </g>
   <g id="patch_33">
    <path d="M 10.7 224.64 
L 10.7 188.4 
" style="fill:none;stroke:#000000;stroke-linecap:square;stroke-linejoin:miter;stroke-width:0.8;"/>
   </g>
   <g id="patch_34">
    <path d="M 345.5 224.64 
L 345.5 188.4 
" style="fill:none;stroke:#000000;stroke-linecap:square;stroke-linejoin:miter;stroke-width:0.8;"/>
   </g>
   <g id="patch_35">
    <path d="M 10.7 224.64 
L 345.5 224.64 
" style="fill:none;stroke:#000000;stroke-linecap:square;stroke-linejoin:miter;stroke-width:0.8;"/>
   </g>
   <g id="patch_36">
    <path d="M 10.7 188.4 
L 345.5 188.4 
" style="fill:none;stroke:#000000;stroke-linecap:square;stroke-linejoin:miter;stroke-width:0.8;"/>
   </g>
   <g id="legend_6">
    <g id="patch_37">
     <path d="M 352.5 215.359062 
L 403.854688 215.359062 
Q 405.854688 215.359062 405.854688 213.359062 
L 405.854688 199.680937 
Q 405.854688 197.680937 403.854688 197.680937 
L 352.5 197.680937 
Q 350.5 197.680937 350.5 199.680937 
L 350.5 213.359062 
Q 350.5 215.359062 352.5 215.359062 
z
" style="fill:#ffffff;opacity:0.8;stroke:#cccccc;stroke-linejoin:miter;"/>
    </g>
    <g id="line2d_59">
     <path d="M 354.5 205.779375 
L 374.5 205.779375 
" style="fill:none;stroke:#8c564b;stroke-linecap:square;stroke-width:1.5;"/>
    </g>
    <g id="line2d_60"/>
    <g id="text_6">
     <!-- rain -->
     <g transform="translate(382.5 209.279375)scale(0.1 -0.1)">
      <defs>
       <path d="M 34.28125 27.484375 
Q 23.390625 27.484375 19.1875 25 
Q 14.984375 22.515625 14.984375 16.5 
Q 14.984375 11.71875 18.140625 8.90625 
Q 21.296875 6.109375 26.703125 6.109375 
Q 34.1875 6.109375 38.703125 11.40625 
Q 43.21875 16.703125 43.21875 25.484375 
L 43.21875 27.484375 
z
M 52.203125 31.203125 
L 52.203125 0 
L 43.21875 0 
L 43.21875 8.296875 
Q 40.140625 3.328125 35.546875 0.953125 
Q 30.953125 -1.421875 24.3125 -1.421875 
Q 15.921875 -1.421875 10.953125 3.296875 
Q 6 8.015625 6 15.921875 
Q 6 25.140625 12.171875 29.828125 
Q 18.359375 34.515625 30.609375 34.515625 
L 43.21875 34.515625 
L 43.21875 35.40625 
Q 43.21875 41.609375 39.140625 45 
Q 35.0625 48.390625 27.6875 48.390625 
Q 23 48.390625 18.546875 47.265625 
Q 14.109375 46.140625 10.015625 43.890625 
L 10.015625 52.203125 
Q 14.9375 54.109375 19.578125 55.046875 
Q 24.21875 56 28.609375 56 
Q 40.484375 56 46.34375 49.84375 
Q 52.203125 43.703125 52.203125 31.203125 
z
" id="DejaVuSans-97"/>
      </defs>
      <use xlink:href="#DejaVuSans-114"/>
      <use x="41.113281" xlink:href="#DejaVuSans-97"/>
      <use x="102.392578" xlink:href="#DejaVuSans-105"/>
      <use x="130.175781" xlink:href="#DejaVuSans-110"/>
     </g>
    </g>
   </g>
  </g>
 </g>
 <defs>
  <clipPath id="p4ecf97fb98">
   <rect height="36.24" width="334.8" x="10.7" y="7.2"/>
  </clipPath>
  <clipPath id="pcf4c1413f3">
   <rect height="36.24" width="334.8" x="10.7" y="43.44"/>
  </clipPath>
  <clipPath id="p2d2f6d7321">
   <rect height="36.24" width="334.8" x="10.7" y="79.68"/>
  </clipPath>
  <clipPath id="p9745d23ead">
   <rect height="36.24" width="334.8" x="10.7" y="115.92"/>
  </clipPath>
  <clipPath id="p5b7da50de4">
   <rect height="36.24" width="334.8" x="10.7" y="152.16"/>
  </clipPath>
  <clipPath id="p2a169b92cf">
   <rect height="36.24" width="334.8" x="10.7" y="188.4"/>
  </clipPath>
 </defs>
</svg>
