<?xml version="1.0" encoding="utf-8" standalone="no"?>
<!DOCTYPE svg PUBLIC "-//W3C//DTD SVG 1.1//EN"
  "http://www.w3.org/Graphics/SVG/1.1/DTD/svg11.dtd">
<!-- Created with matplotlib (https://matplotlib.org/) -->
<svg height="251.565pt" version="1.1" viewBox="0 0 488.748437 251.565" width="488.748437pt" xmlns="http://www.w3.org/2000/svg" xmlns:xlink="http://www.w3.org/1999/xlink">
 <metadata>
  <rdf:RDF xmlns:cc="http://creativecommons.org/ns#" xmlns:dc="http://purl.org/dc/elements/1.1/" xmlns:rdf="http://www.w3.org/1999/02/22-rdf-syntax-ns#">
   <cc:Work>
    <dc:type rdf:resource="http://purl.org/dc/dcmitype/StillImage"/>
    <dc:date>2021-02-04T20:08:27.006782</dc:date>
    <dc:format>image/svg+xml</dc:format>
    <dc:creator>
     <cc:Agent>
      <dc:title>Matplotlib v3.3.2, https://matplotlib.org/</dc:title>
     </cc:Agent>
    </dc:creator>
   </cc:Work>
  </rdf:RDF>
 </metadata>
 <defs>
  <style type="text/css">*{stroke-linecap:butt;stroke-linejoin:round;}</style>
 </defs>
 <g id="figure_1">
  <g id="patch_1">
   <path d="M 0 251.565 
L 488.748438 251.565 
L 488.748438 0 
L 0 0 
z
" style="fill:none;"/>
  </g>
  <g id="axes_1">
   <g id="patch_2">
    <path d="M 33.2875 33.717073 
L 368.0875 33.717073 
L 368.0875 7.2 
L 33.2875 7.2 
z
" style="fill:#ffffff;"/>
   </g>
   <g id="patch_3">
    <path clip-path="url(#p031f0afffe)" d="M 38.51875 26.888934 
L 48.98125 26.888934 
L 48.98125 26.888934 
L 38.51875 26.888934 
z
" style="fill:#1f77b4;"/>
   </g>
   <g id="patch_4">
    <path clip-path="url(#p031f0afffe)" d="M 59.44375 26.888934 
L 69.90625 26.888934 
L 69.90625 26.888934 
L 59.44375 26.888934 
z
" style="fill:#1f77b4;"/>
   </g>
   <g id="patch_5">
    <path clip-path="url(#p031f0afffe)" d="M 80.36875 26.888934 
L 90.83125 26.888934 
L 90.83125 26.234661 
L 80.36875 26.234661 
z
" style="fill:#1f77b4;"/>
   </g>
   <g id="patch_6">
    <path clip-path="url(#p031f0afffe)" d="M 101.29375 26.888934 
L 111.75625 26.888934 
L 111.75625 28.165747 
L 101.29375 28.165747 
z
" style="fill:#1f77b4;"/>
   </g>
   <g id="patch_7">
    <path clip-path="url(#p031f0afffe)" d="M 122.21875 26.888934 
L 132.68125 26.888934 
L 132.68125 26.888934 
L 122.21875 26.888934 
z
" style="fill:#1f77b4;"/>
   </g>
   <g id="patch_8">
    <path clip-path="url(#p031f0afffe)" d="M 143.14375 26.888934 
L 153.60625 26.888934 
L 153.60625 26.498335 
L 143.14375 26.498335 
z
" style="fill:#1f77b4;"/>
   </g>
   <g id="patch_9">
    <path clip-path="url(#p031f0afffe)" d="M 164.06875 26.888934 
L 174.53125 26.888934 
L 174.53125 26.432656 
L 164.06875 26.432656 
z
" style="fill:#1f77b4;"/>
   </g>
   <g id="patch_10">
    <path clip-path="url(#p031f0afffe)" d="M 184.99375 26.888934 
L 195.45625 26.888934 
L 195.45625 27.113916 
L 184.99375 27.113916 
z
" style="fill:#1f77b4;"/>
   </g>
   <g id="patch_11">
    <path clip-path="url(#p031f0afffe)" d="M 205.91875 26.888934 
L 216.38125 26.888934 
L 216.38125 26.888934 
L 205.91875 26.888934 
z
" style="fill:#1f77b4;"/>
   </g>
   <g id="patch_12">
    <path clip-path="url(#p031f0afffe)" d="M 226.84375 26.888934 
L 237.30625 26.888934 
L 237.30625 26.742835 
L 226.84375 26.742835 
z
" style="fill:#1f77b4;"/>
   </g>
   <g id="patch_13">
    <path clip-path="url(#p031f0afffe)" d="M 247.76875 26.888934 
L 258.23125 26.888934 
L 258.23125 28.26725 
L 247.76875 28.26725 
z
" style="fill:#1f77b4;"/>
   </g>
   <g id="patch_14">
    <path clip-path="url(#p031f0afffe)" d="M 268.69375 26.888934 
L 279.15625 26.888934 
L 279.15625 29.12027 
L 268.69375 29.12027 
z
" style="fill:#1f77b4;"/>
   </g>
   <g id="patch_15">
    <path clip-path="url(#p031f0afffe)" d="M 289.61875 26.888934 
L 300.08125 26.888934 
L 300.08125 30.888351 
L 289.61875 30.888351 
z
" style="fill:#1f77b4;"/>
   </g>
   <g id="patch_16">
    <path clip-path="url(#p031f0afffe)" d="M 310.54375 26.888934 
L 321.00625 26.888934 
L 321.00625 30.127405 
L 310.54375 30.127405 
z
" style="fill:#1f77b4;"/>
   </g>
   <g id="patch_17">
    <path clip-path="url(#p031f0afffe)" d="M 331.46875 26.888934 
L 341.93125 26.888934 
L 341.93125 32.511752 
L 331.46875 32.511752 
z
" style="fill:#1f77b4;"/>
   </g>
   <g id="patch_18">
    <path clip-path="url(#p031f0afffe)" d="M 352.39375 26.888934 
L 362.85625 26.888934 
L 362.85625 8.405322 
L 352.39375 8.405322 
z
" style="fill:#1f77b4;"/>
   </g>
   <g id="matplotlib.axis_1">
    <g id="xtick_1">
     <g id="line2d_1">
      <defs>
       <path d="M 0 0 
L 0 3.5 
" id="mce6bfe8471" style="stroke:#000000;stroke-width:0.8;"/>
      </defs>
      <g>
       <use style="stroke:#000000;stroke-width:0.8;" x="43.75" xlink:href="#mce6bfe8471" y="33.717073"/>
      </g>
     </g>
    </g>
    <g id="xtick_2">
     <g id="line2d_2">
      <g>
       <use style="stroke:#000000;stroke-width:0.8;" x="64.675" xlink:href="#mce6bfe8471" y="33.717073"/>
      </g>
     </g>
    </g>
    <g id="xtick_3">
     <g id="line2d_3">
      <g>
       <use style="stroke:#000000;stroke-width:0.8;" x="85.6" xlink:href="#mce6bfe8471" y="33.717073"/>
      </g>
     </g>
    </g>
    <g id="xtick_4">
     <g id="line2d_4">
      <g>
       <use style="stroke:#000000;stroke-width:0.8;" x="106.525" xlink:href="#mce6bfe8471" y="33.717073"/>
      </g>
     </g>
    </g>
    <g id="xtick_5">
     <g id="line2d_5">
      <g>
       <use style="stroke:#000000;stroke-width:0.8;" x="127.45" xlink:href="#mce6bfe8471" y="33.717073"/>
      </g>
     </g>
    </g>
    <g id="xtick_6">
     <g id="line2d_6">
      <g>
       <use style="stroke:#000000;stroke-width:0.8;" x="148.375" xlink:href="#mce6bfe8471" y="33.717073"/>
      </g>
     </g>
    </g>
    <g id="xtick_7">
     <g id="line2d_7">
      <g>
       <use style="stroke:#000000;stroke-width:0.8;" x="169.3" xlink:href="#mce6bfe8471" y="33.717073"/>
      </g>
     </g>
    </g>
    <g id="xtick_8">
     <g id="line2d_8">
      <g>
       <use style="stroke:#000000;stroke-width:0.8;" x="190.225" xlink:href="#mce6bfe8471" y="33.717073"/>
      </g>
     </g>
    </g>
    <g id="xtick_9">
     <g id="line2d_9">
      <g>
       <use style="stroke:#000000;stroke-width:0.8;" x="211.15" xlink:href="#mce6bfe8471" y="33.717073"/>
      </g>
     </g>
    </g>
    <g id="xtick_10">
     <g id="line2d_10">
      <g>
       <use style="stroke:#000000;stroke-width:0.8;" x="232.075" xlink:href="#mce6bfe8471" y="33.717073"/>
      </g>
     </g>
    </g>
    <g id="xtick_11">
     <g id="line2d_11">
      <g>
       <use style="stroke:#000000;stroke-width:0.8;" x="253" xlink:href="#mce6bfe8471" y="33.717073"/>
      </g>
     </g>
    </g>
    <g id="xtick_12">
     <g id="line2d_12">
      <g>
       <use style="stroke:#000000;stroke-width:0.8;" x="273.925" xlink:href="#mce6bfe8471" y="33.717073"/>
      </g>
     </g>
    </g>
    <g id="xtick_13">
     <g id="line2d_13">
      <g>
       <use style="stroke:#000000;stroke-width:0.8;" x="294.85" xlink:href="#mce6bfe8471" y="33.717073"/>
      </g>
     </g>
    </g>
    <g id="xtick_14">
     <g id="line2d_14">
      <g>
       <use style="stroke:#000000;stroke-width:0.8;" x="315.775" xlink:href="#mce6bfe8471" y="33.717073"/>
      </g>
     </g>
    </g>
    <g id="xtick_15">
     <g id="line2d_15">
      <g>
       <use style="stroke:#000000;stroke-width:0.8;" x="336.7" xlink:href="#mce6bfe8471" y="33.717073"/>
      </g>
     </g>
    </g>
    <g id="xtick_16">
     <g id="line2d_16">
      <g>
       <use style="stroke:#000000;stroke-width:0.8;" x="357.625" xlink:href="#mce6bfe8471" y="33.717073"/>
      </g>
     </g>
    </g>
   </g>
   <g id="matplotlib.axis_2">
    <g id="ytick_1">
     <g id="line2d_17">
      <defs>
       <path d="M 0 0 
L -3.5 0 
" id="m59c74a5830" style="stroke:#000000;stroke-width:0.8;"/>
      </defs>
      <g>
       <use style="stroke:#000000;stroke-width:0.8;" x="33.2875" xlink:href="#m59c74a5830" y="26.888934"/>
      </g>
     </g>
     <g id="text_1">
      <!-- 0 -->
      <g transform="translate(19.925 30.688152)scale(0.1 -0.1)">
       <defs>
        <path d="M 31.78125 66.40625 
Q 24.171875 66.40625 20.328125 58.90625 
Q 16.5 51.421875 16.5 36.375 
Q 16.5 21.390625 20.328125 13.890625 
Q 24.171875 6.390625 31.78125 6.390625 
Q 39.453125 6.390625 43.28125 13.890625 
Q 47.125 21.390625 47.125 36.375 
Q 47.125 51.421875 43.28125 58.90625 
Q 39.453125 66.40625 31.78125 66.40625 
z
M 31.78125 74.21875 
Q 44.046875 74.21875 50.515625 64.515625 
Q 56.984375 54.828125 56.984375 36.375 
Q 56.984375 17.96875 50.515625 8.265625 
Q 44.046875 -1.421875 31.78125 -1.421875 
Q 19.53125 -1.421875 13.0625 8.265625 
Q 6.59375 17.96875 6.59375 36.375 
Q 6.59375 54.828125 13.0625 64.515625 
Q 19.53125 74.21875 31.78125 74.21875 
z
" id="DejaVuSans-48"/>
       </defs>
       <use xlink:href="#DejaVuSans-48"/>
      </g>
     </g>
    </g>
    <g id="ytick_2">
     <g id="line2d_18">
      <g>
       <use style="stroke:#000000;stroke-width:0.8;" x="33.2875" xlink:href="#m59c74a5830" y="13.59085"/>
      </g>
     </g>
     <g id="text_2">
      <!-- 100 -->
      <g transform="translate(7.2 17.390069)scale(0.1 -0.1)">
       <defs>
        <path d="M 12.40625 8.296875 
L 28.515625 8.296875 
L 28.515625 63.921875 
L 10.984375 60.40625 
L 10.984375 69.390625 
L 28.421875 72.90625 
L 38.28125 72.90625 
L 38.28125 8.296875 
L 54.390625 8.296875 
L 54.390625 0 
L 12.40625 0 
z
" id="DejaVuSans-49"/>
       </defs>
       <use xlink:href="#DejaVuSans-49"/>
       <use x="63.623047" xlink:href="#DejaVuSans-48"/>
       <use x="127.246094" xlink:href="#DejaVuSans-48"/>
      </g>
     </g>
    </g>
   </g>
   <g id="patch_19">
    <path d="M 33.2875 33.717073 
L 33.2875 7.2 
" style="fill:none;stroke:#000000;stroke-linecap:square;stroke-linejoin:miter;stroke-width:0.8;"/>
   </g>
   <g id="patch_20">
    <path d="M 368.0875 33.717073 
L 368.0875 7.2 
" style="fill:none;stroke:#000000;stroke-linecap:square;stroke-linejoin:miter;stroke-width:0.8;"/>
   </g>
   <g id="patch_21">
    <path d="M 33.2875 33.717073 
L 368.0875 33.717073 
" style="fill:none;stroke:#000000;stroke-linecap:square;stroke-linejoin:miter;stroke-width:0.8;"/>
   </g>
   <g id="patch_22">
    <path d="M 33.2875 7.2 
L 368.0875 7.2 
" style="fill:none;stroke:#000000;stroke-linecap:square;stroke-linejoin:miter;stroke-width:0.8;"/>
   </g>
   <g id="legend_1">
    <g id="patch_23">
     <path d="M 375.0875 29.297599 
L 427.767188 29.297599 
Q 429.767188 29.297599 429.767188 27.297599 
L 429.767188 13.619474 
Q 429.767188 11.619474 427.767188 11.619474 
L 375.0875 11.619474 
Q 373.0875 11.619474 373.0875 13.619474 
L 373.0875 27.297599 
Q 373.0875 29.297599 375.0875 29.297599 
z
" style="fill:#ffffff;opacity:0.8;stroke:#cccccc;stroke-linejoin:miter;"/>
    </g>
    <g id="patch_24">
     <path d="M 377.0875 23.217912 
L 397.0875 23.217912 
L 397.0875 16.217912 
L 377.0875 16.217912 
z
" style="fill:#1f77b4;"/>
    </g>
    <g id="text_3">
     <!-- dew -->
     <g transform="translate(405.0875 23.217912)scale(0.1 -0.1)">
      <defs>
       <path d="M 45.40625 46.390625 
L 45.40625 75.984375 
L 54.390625 75.984375 
L 54.390625 0 
L 45.40625 0 
L 45.40625 8.203125 
Q 42.578125 3.328125 38.25 0.953125 
Q 33.9375 -1.421875 27.875 -1.421875 
Q 17.96875 -1.421875 11.734375 6.484375 
Q 5.515625 14.40625 5.515625 27.296875 
Q 5.515625 40.1875 11.734375 48.09375 
Q 17.96875 56 27.875 56 
Q 33.9375 56 38.25 53.625 
Q 42.578125 51.265625 45.40625 46.390625 
z
M 14.796875 27.296875 
Q 14.796875 17.390625 18.875 11.75 
Q 22.953125 6.109375 30.078125 6.109375 
Q 37.203125 6.109375 41.296875 11.75 
Q 45.40625 17.390625 45.40625 27.296875 
Q 45.40625 37.203125 41.296875 42.84375 
Q 37.203125 48.484375 30.078125 48.484375 
Q 22.953125 48.484375 18.875 42.84375 
Q 14.796875 37.203125 14.796875 27.296875 
z
" id="DejaVuSans-100"/>
       <path d="M 56.203125 29.59375 
L 56.203125 25.203125 
L 14.890625 25.203125 
Q 15.484375 15.921875 20.484375 11.0625 
Q 25.484375 6.203125 34.421875 6.203125 
Q 39.59375 6.203125 44.453125 7.46875 
Q 49.3125 8.734375 54.109375 11.28125 
L 54.109375 2.78125 
Q 49.265625 0.734375 44.1875 -0.34375 
Q 39.109375 -1.421875 33.890625 -1.421875 
Q 20.796875 -1.421875 13.15625 6.1875 
Q 5.515625 13.8125 5.515625 26.8125 
Q 5.515625 40.234375 12.765625 48.109375 
Q 20.015625 56 32.328125 56 
Q 43.359375 56 49.78125 48.890625 
Q 56.203125 41.796875 56.203125 29.59375 
z
M 47.21875 32.234375 
Q 47.125 39.59375 43.09375 43.984375 
Q 39.0625 48.390625 32.421875 48.390625 
Q 24.90625 48.390625 20.390625 44.140625 
Q 15.875 39.890625 15.1875 32.171875 
z
" id="DejaVuSans-101"/>
       <path d="M 4.203125 54.6875 
L 13.1875 54.6875 
L 24.421875 12.015625 
L 35.59375 54.6875 
L 46.1875 54.6875 
L 57.421875 12.015625 
L 68.609375 54.6875 
L 77.59375 54.6875 
L 63.28125 0 
L 52.6875 0 
L 40.921875 44.828125 
L 29.109375 0 
L 18.5 0 
z
" id="DejaVuSans-119"/>
      </defs>
      <use xlink:href="#DejaVuSans-100"/>
      <use x="63.476562" xlink:href="#DejaVuSans-101"/>
      <use x="125" xlink:href="#DejaVuSans-119"/>
     </g>
    </g>
   </g>
  </g>
  <g id="axes_2">
   <g id="patch_25">
    <path d="M 33.2875 65.537561 
L 368.0875 65.537561 
L 368.0875 39.020488 
L 33.2875 39.020488 
z
" style="fill:#ffffff;"/>
   </g>
   <g id="patch_26">
    <path clip-path="url(#pa7bc0bf69b)" d="M 38.51875 58.709421 
L 48.98125 58.709421 
L 48.98125 58.709421 
L 38.51875 58.709421 
z
" style="fill:#ff7f0e;"/>
   </g>
   <g id="patch_27">
    <path clip-path="url(#pa7bc0bf69b)" d="M 59.44375 58.709421 
L 69.90625 58.709421 
L 69.90625 58.709421 
L 59.44375 58.709421 
z
" style="fill:#ff7f0e;"/>
   </g>
   <g id="patch_28">
    <path clip-path="url(#pa7bc0bf69b)" d="M 80.36875 58.709421 
L 90.83125 58.709421 
L 90.83125 58.055149 
L 80.36875 58.055149 
z
" style="fill:#ff7f0e;"/>
   </g>
   <g id="patch_29">
    <path clip-path="url(#pa7bc0bf69b)" d="M 101.29375 58.709421 
L 111.75625 58.709421 
L 111.75625 59.986235 
L 101.29375 59.986235 
z
" style="fill:#ff7f0e;"/>
   </g>
   <g id="patch_30">
    <path clip-path="url(#pa7bc0bf69b)" d="M 122.21875 58.709421 
L 132.68125 58.709421 
L 132.68125 58.709421 
L 122.21875 58.709421 
z
" style="fill:#ff7f0e;"/>
   </g>
   <g id="patch_31">
    <path clip-path="url(#pa7bc0bf69b)" d="M 143.14375 58.709421 
L 153.60625 58.709421 
L 153.60625 58.318823 
L 143.14375 58.318823 
z
" style="fill:#ff7f0e;"/>
   </g>
   <g id="patch_32">
    <path clip-path="url(#pa7bc0bf69b)" d="M 164.06875 58.709421 
L 174.53125 58.709421 
L 174.53125 58.253144 
L 164.06875 58.253144 
z
" style="fill:#ff7f0e;"/>
   </g>
   <g id="patch_33">
    <path clip-path="url(#pa7bc0bf69b)" d="M 184.99375 58.709421 
L 195.45625 58.709421 
L 195.45625 58.934404 
L 184.99375 58.934404 
z
" style="fill:#ff7f0e;"/>
   </g>
   <g id="patch_34">
    <path clip-path="url(#pa7bc0bf69b)" d="M 205.91875 58.709421 
L 216.38125 58.709421 
L 216.38125 58.709421 
L 205.91875 58.709421 
z
" style="fill:#ff7f0e;"/>
   </g>
   <g id="patch_35">
    <path clip-path="url(#pa7bc0bf69b)" d="M 226.84375 58.709421 
L 237.30625 58.709421 
L 237.30625 58.563323 
L 226.84375 58.563323 
z
" style="fill:#ff7f0e;"/>
   </g>
   <g id="patch_36">
    <path clip-path="url(#pa7bc0bf69b)" d="M 247.76875 58.709421 
L 258.23125 58.709421 
L 258.23125 60.087738 
L 247.76875 60.087738 
z
" style="fill:#ff7f0e;"/>
   </g>
   <g id="patch_37">
    <path clip-path="url(#pa7bc0bf69b)" d="M 268.69375 58.709421 
L 279.15625 58.709421 
L 279.15625 60.940758 
L 268.69375 60.940758 
z
" style="fill:#ff7f0e;"/>
   </g>
   <g id="patch_38">
    <path clip-path="url(#pa7bc0bf69b)" d="M 289.61875 58.709421 
L 300.08125 58.709421 
L 300.08125 62.708839 
L 289.61875 62.708839 
z
" style="fill:#ff7f0e;"/>
   </g>
   <g id="patch_39">
    <path clip-path="url(#pa7bc0bf69b)" d="M 310.54375 58.709421 
L 321.00625 58.709421 
L 321.00625 61.947892 
L 310.54375 61.947892 
z
" style="fill:#ff7f0e;"/>
   </g>
   <g id="patch_40">
    <path clip-path="url(#pa7bc0bf69b)" d="M 331.46875 58.709421 
L 341.93125 58.709421 
L 341.93125 64.332239 
L 331.46875 64.332239 
z
" style="fill:#ff7f0e;"/>
   </g>
   <g id="patch_41">
    <path clip-path="url(#pa7bc0bf69b)" d="M 352.39375 58.709421 
L 362.85625 58.709421 
L 362.85625 40.225809 
L 352.39375 40.225809 
z
" style="fill:#ff7f0e;"/>
   </g>
   <g id="matplotlib.axis_3">
    <g id="xtick_17">
     <g id="line2d_19">
      <g>
       <use style="stroke:#000000;stroke-width:0.8;" x="43.75" xlink:href="#mce6bfe8471" y="65.537561"/>
      </g>
     </g>
    </g>
    <g id="xtick_18">
     <g id="line2d_20">
      <g>
       <use style="stroke:#000000;stroke-width:0.8;" x="64.675" xlink:href="#mce6bfe8471" y="65.537561"/>
      </g>
     </g>
    </g>
    <g id="xtick_19">
     <g id="line2d_21">
      <g>
       <use style="stroke:#000000;stroke-width:0.8;" x="85.6" xlink:href="#mce6bfe8471" y="65.537561"/>
      </g>
     </g>
    </g>
    <g id="xtick_20">
     <g id="line2d_22">
      <g>
       <use style="stroke:#000000;stroke-width:0.8;" x="106.525" xlink:href="#mce6bfe8471" y="65.537561"/>
      </g>
     </g>
    </g>
    <g id="xtick_21">
     <g id="line2d_23">
      <g>
       <use style="stroke:#000000;stroke-width:0.8;" x="127.45" xlink:href="#mce6bfe8471" y="65.537561"/>
      </g>
     </g>
    </g>
    <g id="xtick_22">
     <g id="line2d_24">
      <g>
       <use style="stroke:#000000;stroke-width:0.8;" x="148.375" xlink:href="#mce6bfe8471" y="65.537561"/>
      </g>
     </g>
    </g>
    <g id="xtick_23">
     <g id="line2d_25">
      <g>
       <use style="stroke:#000000;stroke-width:0.8;" x="169.3" xlink:href="#mce6bfe8471" y="65.537561"/>
      </g>
     </g>
    </g>
    <g id="xtick_24">
     <g id="line2d_26">
      <g>
       <use style="stroke:#000000;stroke-width:0.8;" x="190.225" xlink:href="#mce6bfe8471" y="65.537561"/>
      </g>
     </g>
    </g>
    <g id="xtick_25">
     <g id="line2d_27">
      <g>
       <use style="stroke:#000000;stroke-width:0.8;" x="211.15" xlink:href="#mce6bfe8471" y="65.537561"/>
      </g>
     </g>
    </g>
    <g id="xtick_26">
     <g id="line2d_28">
      <g>
       <use style="stroke:#000000;stroke-width:0.8;" x="232.075" xlink:href="#mce6bfe8471" y="65.537561"/>
      </g>
     </g>
    </g>
    <g id="xtick_27">
     <g id="line2d_29">
      <g>
       <use style="stroke:#000000;stroke-width:0.8;" x="253" xlink:href="#mce6bfe8471" y="65.537561"/>
      </g>
     </g>
    </g>
    <g id="xtick_28">
     <g id="line2d_30">
      <g>
       <use style="stroke:#000000;stroke-width:0.8;" x="273.925" xlink:href="#mce6bfe8471" y="65.537561"/>
      </g>
     </g>
    </g>
    <g id="xtick_29">
     <g id="line2d_31">
      <g>
       <use style="stroke:#000000;stroke-width:0.8;" x="294.85" xlink:href="#mce6bfe8471" y="65.537561"/>
      </g>
     </g>
    </g>
    <g id="xtick_30">
     <g id="line2d_32">
      <g>
       <use style="stroke:#000000;stroke-width:0.8;" x="315.775" xlink:href="#mce6bfe8471" y="65.537561"/>
      </g>
     </g>
    </g>
    <g id="xtick_31">
     <g id="line2d_33">
      <g>
       <use style="stroke:#000000;stroke-width:0.8;" x="336.7" xlink:href="#mce6bfe8471" y="65.537561"/>
      </g>
     </g>
    </g>
    <g id="xtick_32">
     <g id="line2d_34">
      <g>
       <use style="stroke:#000000;stroke-width:0.8;" x="357.625" xlink:href="#mce6bfe8471" y="65.537561"/>
      </g>
     </g>
    </g>
   </g>
   <g id="matplotlib.axis_4">
    <g id="ytick_3">
     <g id="line2d_35">
      <g>
       <use style="stroke:#000000;stroke-width:0.8;" x="33.2875" xlink:href="#m59c74a5830" y="58.709421"/>
      </g>
     </g>
     <g id="text_4">
      <!-- 0 -->
      <g transform="translate(19.925 62.50864)scale(0.1 -0.1)">
       <use xlink:href="#DejaVuSans-48"/>
      </g>
     </g>
    </g>
    <g id="ytick_4">
     <g id="line2d_36">
      <g>
       <use style="stroke:#000000;stroke-width:0.8;" x="33.2875" xlink:href="#m59c74a5830" y="45.411338"/>
      </g>
     </g>
     <g id="text_5">
      <!-- 100 -->
      <g transform="translate(7.2 49.210556)scale(0.1 -0.1)">
       <use xlink:href="#DejaVuSans-49"/>
       <use x="63.623047" xlink:href="#DejaVuSans-48"/>
       <use x="127.246094" xlink:href="#DejaVuSans-48"/>
      </g>
     </g>
    </g>
   </g>
   <g id="patch_42">
    <path d="M 33.2875 65.537561 
L 33.2875 39.020488 
" style="fill:none;stroke:#000000;stroke-linecap:square;stroke-linejoin:miter;stroke-width:0.8;"/>
   </g>
   <g id="patch_43">
    <path d="M 368.0875 65.537561 
L 368.0875 39.020488 
" style="fill:none;stroke:#000000;stroke-linecap:square;stroke-linejoin:miter;stroke-width:0.8;"/>
   </g>
   <g id="patch_44">
    <path d="M 33.2875 65.537561 
L 368.0875 65.537561 
" style="fill:none;stroke:#000000;stroke-linecap:square;stroke-linejoin:miter;stroke-width:0.8;"/>
   </g>
   <g id="patch_45">
    <path d="M 33.2875 39.020488 
L 368.0875 39.020488 
" style="fill:none;stroke:#000000;stroke-linecap:square;stroke-linejoin:miter;stroke-width:0.8;"/>
   </g>
   <g id="legend_2">
    <g id="patch_46">
     <path d="M 375.0875 61.118087 
L 433.25 61.118087 
Q 435.25 61.118087 435.25 59.118087 
L 435.25 45.439962 
Q 435.25 43.439962 433.25 43.439962 
L 375.0875 43.439962 
Q 373.0875 43.439962 373.0875 45.439962 
L 373.0875 59.118087 
Q 373.0875 61.118087 375.0875 61.118087 
z
" style="fill:#ffffff;opacity:0.8;stroke:#cccccc;stroke-linejoin:miter;"/>
    </g>
    <g id="patch_47">
     <path d="M 377.0875 55.038399 
L 397.0875 55.038399 
L 397.0875 48.038399 
L 377.0875 48.038399 
z
" style="fill:#ff7f0e;"/>
    </g>
    <g id="text_6">
     <!-- temp -->
     <g transform="translate(405.0875 55.038399)scale(0.1 -0.1)">
      <defs>
       <path d="M 18.3125 70.21875 
L 18.3125 54.6875 
L 36.8125 54.6875 
L 36.8125 47.703125 
L 18.3125 47.703125 
L 18.3125 18.015625 
Q 18.3125 11.328125 20.140625 9.421875 
Q 21.96875 7.515625 27.59375 7.515625 
L 36.8125 7.515625 
L 36.8125 0 
L 27.59375 0 
Q 17.1875 0 13.234375 3.875 
Q 9.28125 7.765625 9.28125 18.015625 
L 9.28125 47.703125 
L 2.6875 47.703125 
L 2.6875 54.6875 
L 9.28125 54.6875 
L 9.28125 70.21875 
z
" id="DejaVuSans-116"/>
       <path d="M 52 44.1875 
Q 55.375 50.25 60.0625 53.125 
Q 64.75 56 71.09375 56 
Q 79.640625 56 84.28125 50.015625 
Q 88.921875 44.046875 88.921875 33.015625 
L 88.921875 0 
L 79.890625 0 
L 79.890625 32.71875 
Q 79.890625 40.578125 77.09375 44.375 
Q 74.3125 48.1875 68.609375 48.1875 
Q 61.625 48.1875 57.5625 43.546875 
Q 53.515625 38.921875 53.515625 30.90625 
L 53.515625 0 
L 44.484375 0 
L 44.484375 32.71875 
Q 44.484375 40.625 41.703125 44.40625 
Q 38.921875 48.1875 33.109375 48.1875 
Q 26.21875 48.1875 22.15625 43.53125 
Q 18.109375 38.875 18.109375 30.90625 
L 18.109375 0 
L 9.078125 0 
L 9.078125 54.6875 
L 18.109375 54.6875 
L 18.109375 46.1875 
Q 21.1875 51.21875 25.484375 53.609375 
Q 29.78125 56 35.6875 56 
Q 41.65625 56 45.828125 52.96875 
Q 50 49.953125 52 44.1875 
z
" id="DejaVuSans-109"/>
       <path d="M 18.109375 8.203125 
L 18.109375 -20.796875 
L 9.078125 -20.796875 
L 9.078125 54.6875 
L 18.109375 54.6875 
L 18.109375 46.390625 
Q 20.953125 51.265625 25.265625 53.625 
Q 29.59375 56 35.59375 56 
Q 45.5625 56 51.78125 48.09375 
Q 58.015625 40.1875 58.015625 27.296875 
Q 58.015625 14.40625 51.78125 6.484375 
Q 45.5625 -1.421875 35.59375 -1.421875 
Q 29.59375 -1.421875 25.265625 0.953125 
Q 20.953125 3.328125 18.109375 8.203125 
z
M 48.6875 27.296875 
Q 48.6875 37.203125 44.609375 42.84375 
Q 40.53125 48.484375 33.40625 48.484375 
Q 26.265625 48.484375 22.1875 42.84375 
Q 18.109375 37.203125 18.109375 27.296875 
Q 18.109375 17.390625 22.1875 11.75 
Q 26.265625 6.109375 33.40625 6.109375 
Q 40.53125 6.109375 44.609375 11.75 
Q 48.6875 17.390625 48.6875 27.296875 
z
" id="DejaVuSans-112"/>
      </defs>
      <use xlink:href="#DejaVuSans-116"/>
      <use x="39.208984" xlink:href="#DejaVuSans-101"/>
      <use x="100.732422" xlink:href="#DejaVuSans-109"/>
      <use x="198.144531" xlink:href="#DejaVuSans-112"/>
     </g>
    </g>
   </g>
  </g>
  <g id="axes_3">
   <g id="patch_48">
    <path d="M 33.2875 97.358049 
L 368.0875 97.358049 
L 368.0875 70.840976 
L 33.2875 70.840976 
z
" style="fill:#ffffff;"/>
   </g>
   <g id="patch_49">
    <path clip-path="url(#pdd3ff4d26c)" d="M 38.51875 90.529909 
L 48.98125 90.529909 
L 48.98125 90.529909 
L 38.51875 90.529909 
z
" style="fill:#2ca02c;"/>
   </g>
   <g id="patch_50">
    <path clip-path="url(#pdd3ff4d26c)" d="M 59.44375 90.529909 
L 69.90625 90.529909 
L 69.90625 90.529909 
L 59.44375 90.529909 
z
" style="fill:#2ca02c;"/>
   </g>
   <g id="patch_51">
    <path clip-path="url(#pdd3ff4d26c)" d="M 80.36875 90.529909 
L 90.83125 90.529909 
L 90.83125 89.875637 
L 80.36875 89.875637 
z
" style="fill:#2ca02c;"/>
   </g>
   <g id="patch_52">
    <path clip-path="url(#pdd3ff4d26c)" d="M 101.29375 90.529909 
L 111.75625 90.529909 
L 111.75625 91.806723 
L 101.29375 91.806723 
z
" style="fill:#2ca02c;"/>
   </g>
   <g id="patch_53">
    <path clip-path="url(#pdd3ff4d26c)" d="M 122.21875 90.529909 
L 132.68125 90.529909 
L 132.68125 90.529909 
L 122.21875 90.529909 
z
" style="fill:#2ca02c;"/>
   </g>
   <g id="patch_54">
    <path clip-path="url(#pdd3ff4d26c)" d="M 143.14375 90.529909 
L 153.60625 90.529909 
L 153.60625 90.139311 
L 143.14375 90.139311 
z
" style="fill:#2ca02c;"/>
   </g>
   <g id="patch_55">
    <path clip-path="url(#pdd3ff4d26c)" d="M 164.06875 90.529909 
L 174.53125 90.529909 
L 174.53125 90.073632 
L 164.06875 90.073632 
z
" style="fill:#2ca02c;"/>
   </g>
   <g id="patch_56">
    <path clip-path="url(#pdd3ff4d26c)" d="M 184.99375 90.529909 
L 195.45625 90.529909 
L 195.45625 90.754892 
L 184.99375 90.754892 
z
" style="fill:#2ca02c;"/>
   </g>
   <g id="patch_57">
    <path clip-path="url(#pdd3ff4d26c)" d="M 205.91875 90.529909 
L 216.38125 90.529909 
L 216.38125 90.529909 
L 205.91875 90.529909 
z
" style="fill:#2ca02c;"/>
   </g>
   <g id="patch_58">
    <path clip-path="url(#pdd3ff4d26c)" d="M 226.84375 90.529909 
L 237.30625 90.529909 
L 237.30625 90.383811 
L 226.84375 90.383811 
z
" style="fill:#2ca02c;"/>
   </g>
   <g id="patch_59">
    <path clip-path="url(#pdd3ff4d26c)" d="M 247.76875 90.529909 
L 258.23125 90.529909 
L 258.23125 91.908226 
L 247.76875 91.908226 
z
" style="fill:#2ca02c;"/>
   </g>
   <g id="patch_60">
    <path clip-path="url(#pdd3ff4d26c)" d="M 268.69375 90.529909 
L 279.15625 90.529909 
L 279.15625 92.761245 
L 268.69375 92.761245 
z
" style="fill:#2ca02c;"/>
   </g>
   <g id="patch_61">
    <path clip-path="url(#pdd3ff4d26c)" d="M 289.61875 90.529909 
L 300.08125 90.529909 
L 300.08125 94.529326 
L 289.61875 94.529326 
z
" style="fill:#2ca02c;"/>
   </g>
   <g id="patch_62">
    <path clip-path="url(#pdd3ff4d26c)" d="M 310.54375 90.529909 
L 321.00625 90.529909 
L 321.00625 93.76838 
L 310.54375 93.76838 
z
" style="fill:#2ca02c;"/>
   </g>
   <g id="patch_63">
    <path clip-path="url(#pdd3ff4d26c)" d="M 331.46875 90.529909 
L 341.93125 90.529909 
L 341.93125 96.152727 
L 331.46875 96.152727 
z
" style="fill:#2ca02c;"/>
   </g>
   <g id="patch_64">
    <path clip-path="url(#pdd3ff4d26c)" d="M 352.39375 90.529909 
L 362.85625 90.529909 
L 362.85625 72.046297 
L 352.39375 72.046297 
z
" style="fill:#2ca02c;"/>
   </g>
   <g id="matplotlib.axis_5">
    <g id="xtick_33">
     <g id="line2d_37">
      <g>
       <use style="stroke:#000000;stroke-width:0.8;" x="43.75" xlink:href="#mce6bfe8471" y="97.358049"/>
      </g>
     </g>
    </g>
    <g id="xtick_34">
     <g id="line2d_38">
      <g>
       <use style="stroke:#000000;stroke-width:0.8;" x="64.675" xlink:href="#mce6bfe8471" y="97.358049"/>
      </g>
     </g>
    </g>
    <g id="xtick_35">
     <g id="line2d_39">
      <g>
       <use style="stroke:#000000;stroke-width:0.8;" x="85.6" xlink:href="#mce6bfe8471" y="97.358049"/>
      </g>
     </g>
    </g>
    <g id="xtick_36">
     <g id="line2d_40">
      <g>
       <use style="stroke:#000000;stroke-width:0.8;" x="106.525" xlink:href="#mce6bfe8471" y="97.358049"/>
      </g>
     </g>
    </g>
    <g id="xtick_37">
     <g id="line2d_41">
      <g>
       <use style="stroke:#000000;stroke-width:0.8;" x="127.45" xlink:href="#mce6bfe8471" y="97.358049"/>
      </g>
     </g>
    </g>
    <g id="xtick_38">
     <g id="line2d_42">
      <g>
       <use style="stroke:#000000;stroke-width:0.8;" x="148.375" xlink:href="#mce6bfe8471" y="97.358049"/>
      </g>
     </g>
    </g>
    <g id="xtick_39">
     <g id="line2d_43">
      <g>
       <use style="stroke:#000000;stroke-width:0.8;" x="169.3" xlink:href="#mce6bfe8471" y="97.358049"/>
      </g>
     </g>
    </g>
    <g id="xtick_40">
     <g id="line2d_44">
      <g>
       <use style="stroke:#000000;stroke-width:0.8;" x="190.225" xlink:href="#mce6bfe8471" y="97.358049"/>
      </g>
     </g>
    </g>
    <g id="xtick_41">
     <g id="line2d_45">
      <g>
       <use style="stroke:#000000;stroke-width:0.8;" x="211.15" xlink:href="#mce6bfe8471" y="97.358049"/>
      </g>
     </g>
    </g>
    <g id="xtick_42">
     <g id="line2d_46">
      <g>
       <use style="stroke:#000000;stroke-width:0.8;" x="232.075" xlink:href="#mce6bfe8471" y="97.358049"/>
      </g>
     </g>
    </g>
    <g id="xtick_43">
     <g id="line2d_47">
      <g>
       <use style="stroke:#000000;stroke-width:0.8;" x="253" xlink:href="#mce6bfe8471" y="97.358049"/>
      </g>
     </g>
    </g>
    <g id="xtick_44">
     <g id="line2d_48">
      <g>
       <use style="stroke:#000000;stroke-width:0.8;" x="273.925" xlink:href="#mce6bfe8471" y="97.358049"/>
      </g>
     </g>
    </g>
    <g id="xtick_45">
     <g id="line2d_49">
      <g>
       <use style="stroke:#000000;stroke-width:0.8;" x="294.85" xlink:href="#mce6bfe8471" y="97.358049"/>
      </g>
     </g>
    </g>
    <g id="xtick_46">
     <g id="line2d_50">
      <g>
       <use style="stroke:#000000;stroke-width:0.8;" x="315.775" xlink:href="#mce6bfe8471" y="97.358049"/>
      </g>
     </g>
    </g>
    <g id="xtick_47">
     <g id="line2d_51">
      <g>
       <use style="stroke:#000000;stroke-width:0.8;" x="336.7" xlink:href="#mce6bfe8471" y="97.358049"/>
      </g>
     </g>
    </g>
    <g id="xtick_48">
     <g id="line2d_52">
      <g>
       <use style="stroke:#000000;stroke-width:0.8;" x="357.625" xlink:href="#mce6bfe8471" y="97.358049"/>
      </g>
     </g>
    </g>
   </g>
   <g id="matplotlib.axis_6">
    <g id="ytick_5">
     <g id="line2d_53">
      <g>
       <use style="stroke:#000000;stroke-width:0.8;" x="33.2875" xlink:href="#m59c74a5830" y="90.529909"/>
      </g>
     </g>
     <g id="text_7">
      <!-- 0 -->
      <g transform="translate(19.925 94.329128)scale(0.1 -0.1)">
       <use xlink:href="#DejaVuSans-48"/>
      </g>
     </g>
    </g>
    <g id="ytick_6">
     <g id="line2d_54">
      <g>
       <use style="stroke:#000000;stroke-width:0.8;" x="33.2875" xlink:href="#m59c74a5830" y="77.231825"/>
      </g>
     </g>
     <g id="text_8">
      <!-- 100 -->
      <g transform="translate(7.2 81.031044)scale(0.1 -0.1)">
       <use xlink:href="#DejaVuSans-49"/>
       <use x="63.623047" xlink:href="#DejaVuSans-48"/>
       <use x="127.246094" xlink:href="#DejaVuSans-48"/>
      </g>
     </g>
    </g>
   </g>
   <g id="patch_65">
    <path d="M 33.2875 97.358049 
L 33.2875 70.840976 
" style="fill:none;stroke:#000000;stroke-linecap:square;stroke-linejoin:miter;stroke-width:0.8;"/>
   </g>
   <g id="patch_66">
    <path d="M 368.0875 97.358049 
L 368.0875 70.840976 
" style="fill:none;stroke:#000000;stroke-linecap:square;stroke-linejoin:miter;stroke-width:0.8;"/>
   </g>
   <g id="patch_67">
    <path d="M 33.2875 97.358049 
L 368.0875 97.358049 
" style="fill:none;stroke:#000000;stroke-linecap:square;stroke-linejoin:miter;stroke-width:0.8;"/>
   </g>
   <g id="patch_68">
    <path d="M 33.2875 70.840976 
L 368.0875 70.840976 
" style="fill:none;stroke:#000000;stroke-linecap:square;stroke-linejoin:miter;stroke-width:0.8;"/>
   </g>
   <g id="legend_3">
    <g id="patch_69">
     <path d="M 375.0875 92.938575 
L 433.89375 92.938575 
Q 435.89375 92.938575 435.89375 90.938575 
L 435.89375 77.26045 
Q 435.89375 75.26045 433.89375 75.26045 
L 375.0875 75.26045 
Q 373.0875 75.26045 373.0875 77.26045 
L 373.0875 90.938575 
Q 373.0875 92.938575 375.0875 92.938575 
z
" style="fill:#ffffff;opacity:0.8;stroke:#cccccc;stroke-linejoin:miter;"/>
    </g>
    <g id="patch_70">
     <path d="M 377.0875 86.858887 
L 397.0875 86.858887 
L 397.0875 79.858887 
L 377.0875 79.858887 
z
" style="fill:#2ca02c;"/>
    </g>
    <g id="text_9">
     <!-- press -->
     <g transform="translate(405.0875 86.858887)scale(0.1 -0.1)">
      <defs>
       <path d="M 41.109375 46.296875 
Q 39.59375 47.171875 37.8125 47.578125 
Q 36.03125 48 33.890625 48 
Q 26.265625 48 22.1875 43.046875 
Q 18.109375 38.09375 18.109375 28.8125 
L 18.109375 0 
L 9.078125 0 
L 9.078125 54.6875 
L 18.109375 54.6875 
L 18.109375 46.1875 
Q 20.953125 51.171875 25.484375 53.578125 
Q 30.03125 56 36.53125 56 
Q 37.453125 56 38.578125 55.875 
Q 39.703125 55.765625 41.0625 55.515625 
z
" id="DejaVuSans-114"/>
       <path d="M 44.28125 53.078125 
L 44.28125 44.578125 
Q 40.484375 46.53125 36.375 47.5 
Q 32.28125 48.484375 27.875 48.484375 
Q 21.1875 48.484375 17.84375 46.4375 
Q 14.5 44.390625 14.5 40.28125 
Q 14.5 37.15625 16.890625 35.375 
Q 19.28125 33.59375 26.515625 31.984375 
L 29.59375 31.296875 
Q 39.15625 29.25 43.1875 25.515625 
Q 47.21875 21.78125 47.21875 15.09375 
Q 47.21875 7.46875 41.1875 3.015625 
Q 35.15625 -1.421875 24.609375 -1.421875 
Q 20.21875 -1.421875 15.453125 -0.5625 
Q 10.6875 0.296875 5.421875 2 
L 5.421875 11.28125 
Q 10.40625 8.6875 15.234375 7.390625 
Q 20.0625 6.109375 24.8125 6.109375 
Q 31.15625 6.109375 34.5625 8.28125 
Q 37.984375 10.453125 37.984375 14.40625 
Q 37.984375 18.0625 35.515625 20.015625 
Q 33.0625 21.96875 24.703125 23.78125 
L 21.578125 24.515625 
Q 13.234375 26.265625 9.515625 29.90625 
Q 5.8125 33.546875 5.8125 39.890625 
Q 5.8125 47.609375 11.28125 51.796875 
Q 16.75 56 26.8125 56 
Q 31.78125 56 36.171875 55.265625 
Q 40.578125 54.546875 44.28125 53.078125 
z
" id="DejaVuSans-115"/>
      </defs>
      <use xlink:href="#DejaVuSans-112"/>
      <use x="63.476562" xlink:href="#DejaVuSans-114"/>
      <use x="102.339844" xlink:href="#DejaVuSans-101"/>
      <use x="163.863281" xlink:href="#DejaVuSans-115"/>
      <use x="215.962891" xlink:href="#DejaVuSans-115"/>
     </g>
    </g>
   </g>
  </g>
  <g id="axes_4">
   <g id="patch_71">
    <path d="M 33.2875 129.178537 
L 368.0875 129.178537 
L 368.0875 102.661463 
L 33.2875 102.661463 
z
" style="fill:#ffffff;"/>
   </g>
   <g id="patch_72">
    <path clip-path="url(#pd89a11cc1e)" d="M 38.51875 122.350397 
L 48.98125 122.350397 
L 48.98125 122.350397 
L 38.51875 122.350397 
z
" style="fill:#d62728;"/>
   </g>
   <g id="patch_73">
    <path clip-path="url(#pd89a11cc1e)" d="M 59.44375 122.350397 
L 69.90625 122.350397 
L 69.90625 122.350397 
L 59.44375 122.350397 
z
" style="fill:#d62728;"/>
   </g>
   <g id="patch_74">
    <path clip-path="url(#pd89a11cc1e)" d="M 80.36875 122.350397 
L 90.83125 122.350397 
L 90.83125 121.696125 
L 80.36875 121.696125 
z
" style="fill:#d62728;"/>
   </g>
   <g id="patch_75">
    <path clip-path="url(#pd89a11cc1e)" d="M 101.29375 122.350397 
L 111.75625 122.350397 
L 111.75625 123.62721 
L 101.29375 123.62721 
z
" style="fill:#d62728;"/>
   </g>
   <g id="patch_76">
    <path clip-path="url(#pd89a11cc1e)" d="M 122.21875 122.350397 
L 132.68125 122.350397 
L 132.68125 122.350397 
L 122.21875 122.350397 
z
" style="fill:#d62728;"/>
   </g>
   <g id="patch_77">
    <path clip-path="url(#pd89a11cc1e)" d="M 143.14375 122.350397 
L 153.60625 122.350397 
L 153.60625 121.959798 
L 143.14375 121.959798 
z
" style="fill:#d62728;"/>
   </g>
   <g id="patch_78">
    <path clip-path="url(#pd89a11cc1e)" d="M 164.06875 122.350397 
L 174.53125 122.350397 
L 174.53125 121.89412 
L 164.06875 121.89412 
z
" style="fill:#d62728;"/>
   </g>
   <g id="patch_79">
    <path clip-path="url(#pd89a11cc1e)" d="M 184.99375 122.350397 
L 195.45625 122.350397 
L 195.45625 122.575379 
L 184.99375 122.575379 
z
" style="fill:#d62728;"/>
   </g>
   <g id="patch_80">
    <path clip-path="url(#pd89a11cc1e)" d="M 205.91875 122.350397 
L 216.38125 122.350397 
L 216.38125 122.350397 
L 205.91875 122.350397 
z
" style="fill:#d62728;"/>
   </g>
   <g id="patch_81">
    <path clip-path="url(#pd89a11cc1e)" d="M 226.84375 122.350397 
L 237.30625 122.350397 
L 237.30625 122.204299 
L 226.84375 122.204299 
z
" style="fill:#d62728;"/>
   </g>
   <g id="patch_82">
    <path clip-path="url(#pd89a11cc1e)" d="M 247.76875 122.350397 
L 258.23125 122.350397 
L 258.23125 123.728714 
L 247.76875 123.728714 
z
" style="fill:#d62728;"/>
   </g>
   <g id="patch_83">
    <path clip-path="url(#pd89a11cc1e)" d="M 268.69375 122.350397 
L 279.15625 122.350397 
L 279.15625 124.581733 
L 268.69375 124.581733 
z
" style="fill:#d62728;"/>
   </g>
   <g id="patch_84">
    <path clip-path="url(#pd89a11cc1e)" d="M 289.61875 122.350397 
L 300.08125 122.350397 
L 300.08125 126.349814 
L 289.61875 126.349814 
z
" style="fill:#d62728;"/>
   </g>
   <g id="patch_85">
    <path clip-path="url(#pd89a11cc1e)" d="M 310.54375 122.350397 
L 321.00625 122.350397 
L 321.00625 125.588868 
L 310.54375 125.588868 
z
" style="fill:#d62728;"/>
   </g>
   <g id="patch_86">
    <path clip-path="url(#pd89a11cc1e)" d="M 331.46875 122.350397 
L 341.93125 122.350397 
L 341.93125 127.973215 
L 331.46875 127.973215 
z
" style="fill:#d62728;"/>
   </g>
   <g id="patch_87">
    <path clip-path="url(#pd89a11cc1e)" d="M 352.39375 122.350397 
L 362.85625 122.350397 
L 362.85625 103.866785 
L 352.39375 103.866785 
z
" style="fill:#d62728;"/>
   </g>
   <g id="matplotlib.axis_7">
    <g id="xtick_49">
     <g id="line2d_55">
      <g>
       <use style="stroke:#000000;stroke-width:0.8;" x="43.75" xlink:href="#mce6bfe8471" y="129.178537"/>
      </g>
     </g>
    </g>
    <g id="xtick_50">
     <g id="line2d_56">
      <g>
       <use style="stroke:#000000;stroke-width:0.8;" x="64.675" xlink:href="#mce6bfe8471" y="129.178537"/>
      </g>
     </g>
    </g>
    <g id="xtick_51">
     <g id="line2d_57">
      <g>
       <use style="stroke:#000000;stroke-width:0.8;" x="85.6" xlink:href="#mce6bfe8471" y="129.178537"/>
      </g>
     </g>
    </g>
    <g id="xtick_52">
     <g id="line2d_58">
      <g>
       <use style="stroke:#000000;stroke-width:0.8;" x="106.525" xlink:href="#mce6bfe8471" y="129.178537"/>
      </g>
     </g>
    </g>
    <g id="xtick_53">
     <g id="line2d_59">
      <g>
       <use style="stroke:#000000;stroke-width:0.8;" x="127.45" xlink:href="#mce6bfe8471" y="129.178537"/>
      </g>
     </g>
    </g>
    <g id="xtick_54">
     <g id="line2d_60">
      <g>
       <use style="stroke:#000000;stroke-width:0.8;" x="148.375" xlink:href="#mce6bfe8471" y="129.178537"/>
      </g>
     </g>
    </g>
    <g id="xtick_55">
     <g id="line2d_61">
      <g>
       <use style="stroke:#000000;stroke-width:0.8;" x="169.3" xlink:href="#mce6bfe8471" y="129.178537"/>
      </g>
     </g>
    </g>
    <g id="xtick_56">
     <g id="line2d_62">
      <g>
       <use style="stroke:#000000;stroke-width:0.8;" x="190.225" xlink:href="#mce6bfe8471" y="129.178537"/>
      </g>
     </g>
    </g>
    <g id="xtick_57">
     <g id="line2d_63">
      <g>
       <use style="stroke:#000000;stroke-width:0.8;" x="211.15" xlink:href="#mce6bfe8471" y="129.178537"/>
      </g>
     </g>
    </g>
    <g id="xtick_58">
     <g id="line2d_64">
      <g>
       <use style="stroke:#000000;stroke-width:0.8;" x="232.075" xlink:href="#mce6bfe8471" y="129.178537"/>
      </g>
     </g>
    </g>
    <g id="xtick_59">
     <g id="line2d_65">
      <g>
       <use style="stroke:#000000;stroke-width:0.8;" x="253" xlink:href="#mce6bfe8471" y="129.178537"/>
      </g>
     </g>
    </g>
    <g id="xtick_60">
     <g id="line2d_66">
      <g>
       <use style="stroke:#000000;stroke-width:0.8;" x="273.925" xlink:href="#mce6bfe8471" y="129.178537"/>
      </g>
     </g>
    </g>
    <g id="xtick_61">
     <g id="line2d_67">
      <g>
       <use style="stroke:#000000;stroke-width:0.8;" x="294.85" xlink:href="#mce6bfe8471" y="129.178537"/>
      </g>
     </g>
    </g>
    <g id="xtick_62">
     <g id="line2d_68">
      <g>
       <use style="stroke:#000000;stroke-width:0.8;" x="315.775" xlink:href="#mce6bfe8471" y="129.178537"/>
      </g>
     </g>
    </g>
    <g id="xtick_63">
     <g id="line2d_69">
      <g>
       <use style="stroke:#000000;stroke-width:0.8;" x="336.7" xlink:href="#mce6bfe8471" y="129.178537"/>
      </g>
     </g>
    </g>
    <g id="xtick_64">
     <g id="line2d_70">
      <g>
       <use style="stroke:#000000;stroke-width:0.8;" x="357.625" xlink:href="#mce6bfe8471" y="129.178537"/>
      </g>
     </g>
    </g>
   </g>
   <g id="matplotlib.axis_8">
    <g id="ytick_7">
     <g id="line2d_71">
      <g>
       <use style="stroke:#000000;stroke-width:0.8;" x="33.2875" xlink:href="#m59c74a5830" y="122.350397"/>
      </g>
     </g>
     <g id="text_10">
      <!-- 0 -->
      <g transform="translate(19.925 126.149616)scale(0.1 -0.1)">
       <use xlink:href="#DejaVuSans-48"/>
      </g>
     </g>
    </g>
    <g id="ytick_8">
     <g id="line2d_72">
      <g>
       <use style="stroke:#000000;stroke-width:0.8;" x="33.2875" xlink:href="#m59c74a5830" y="109.052313"/>
      </g>
     </g>
     <g id="text_11">
      <!-- 100 -->
      <g transform="translate(7.2 112.851532)scale(0.1 -0.1)">
       <use xlink:href="#DejaVuSans-49"/>
       <use x="63.623047" xlink:href="#DejaVuSans-48"/>
       <use x="127.246094" xlink:href="#DejaVuSans-48"/>
      </g>
     </g>
    </g>
   </g>
   <g id="patch_88">
    <path d="M 33.2875 129.178537 
L 33.2875 102.661463 
" style="fill:none;stroke:#000000;stroke-linecap:square;stroke-linejoin:miter;stroke-width:0.8;"/>
   </g>
   <g id="patch_89">
    <path d="M 368.0875 129.178537 
L 368.0875 102.661463 
" style="fill:none;stroke:#000000;stroke-linecap:square;stroke-linejoin:miter;stroke-width:0.8;"/>
   </g>
   <g id="patch_90">
    <path d="M 33.2875 129.178537 
L 368.0875 129.178537 
" style="fill:none;stroke:#000000;stroke-linecap:square;stroke-linejoin:miter;stroke-width:0.8;"/>
   </g>
   <g id="patch_91">
    <path d="M 33.2875 102.661463 
L 368.0875 102.661463 
" style="fill:none;stroke:#000000;stroke-linecap:square;stroke-linejoin:miter;stroke-width:0.8;"/>
   </g>
   <g id="legend_4">
    <g id="patch_92">
     <path d="M 375.0875 124.898125 
L 479.548438 124.898125 
Q 481.548438 124.898125 481.548438 122.898125 
L 481.548438 108.941875 
Q 481.548438 106.941875 479.548438 106.941875 
L 375.0875 106.941875 
Q 373.0875 106.941875 373.0875 108.941875 
L 373.0875 122.898125 
Q 373.0875 124.898125 375.0875 124.898125 
z
" style="fill:#ffffff;opacity:0.8;stroke:#cccccc;stroke-linejoin:miter;"/>
    </g>
    <g id="patch_93">
     <path d="M 377.0875 118.540312 
L 397.0875 118.540312 
L 397.0875 111.540312 
L 377.0875 111.540312 
z
" style="fill:#d62728;"/>
    </g>
    <g id="text_12">
     <!-- wind_direction -->
     <g transform="translate(405.0875 118.540312)scale(0.1 -0.1)">
      <defs>
       <path d="M 9.421875 54.6875 
L 18.40625 54.6875 
L 18.40625 0 
L 9.421875 0 
z
M 9.421875 75.984375 
L 18.40625 75.984375 
L 18.40625 64.59375 
L 9.421875 64.59375 
z
" id="DejaVuSans-105"/>
       <path d="M 54.890625 33.015625 
L 54.890625 0 
L 45.90625 0 
L 45.90625 32.71875 
Q 45.90625 40.484375 42.875 44.328125 
Q 39.84375 48.1875 33.796875 48.1875 
Q 26.515625 48.1875 22.3125 43.546875 
Q 18.109375 38.921875 18.109375 30.90625 
L 18.109375 0 
L 9.078125 0 
L 9.078125 54.6875 
L 18.109375 54.6875 
L 18.109375 46.1875 
Q 21.34375 51.125 25.703125 53.5625 
Q 30.078125 56 35.796875 56 
Q 45.21875 56 50.046875 50.171875 
Q 54.890625 44.34375 54.890625 33.015625 
z
" id="DejaVuSans-110"/>
       <path d="M 50.984375 -16.609375 
L 50.984375 -23.578125 
L -0.984375 -23.578125 
L -0.984375 -16.609375 
z
" id="DejaVuSans-95"/>
       <path d="M 48.78125 52.59375 
L 48.78125 44.1875 
Q 44.96875 46.296875 41.140625 47.34375 
Q 37.3125 48.390625 33.40625 48.390625 
Q 24.65625 48.390625 19.8125 42.84375 
Q 14.984375 37.3125 14.984375 27.296875 
Q 14.984375 17.28125 19.8125 11.734375 
Q 24.65625 6.203125 33.40625 6.203125 
Q 37.3125 6.203125 41.140625 7.25 
Q 44.96875 8.296875 48.78125 10.40625 
L 48.78125 2.09375 
Q 45.015625 0.34375 40.984375 -0.53125 
Q 36.96875 -1.421875 32.421875 -1.421875 
Q 20.0625 -1.421875 12.78125 6.34375 
Q 5.515625 14.109375 5.515625 27.296875 
Q 5.515625 40.671875 12.859375 48.328125 
Q 20.21875 56 33.015625 56 
Q 37.15625 56 41.109375 55.140625 
Q 45.0625 54.296875 48.78125 52.59375 
z
" id="DejaVuSans-99"/>
       <path d="M 30.609375 48.390625 
Q 23.390625 48.390625 19.1875 42.75 
Q 14.984375 37.109375 14.984375 27.296875 
Q 14.984375 17.484375 19.15625 11.84375 
Q 23.34375 6.203125 30.609375 6.203125 
Q 37.796875 6.203125 41.984375 11.859375 
Q 46.1875 17.53125 46.1875 27.296875 
Q 46.1875 37.015625 41.984375 42.703125 
Q 37.796875 48.390625 30.609375 48.390625 
z
M 30.609375 56 
Q 42.328125 56 49.015625 48.375 
Q 55.71875 40.765625 55.71875 27.296875 
Q 55.71875 13.875 49.015625 6.21875 
Q 42.328125 -1.421875 30.609375 -1.421875 
Q 18.84375 -1.421875 12.171875 6.21875 
Q 5.515625 13.875 5.515625 27.296875 
Q 5.515625 40.765625 12.171875 48.375 
Q 18.84375 56 30.609375 56 
z
" id="DejaVuSans-111"/>
      </defs>
      <use xlink:href="#DejaVuSans-119"/>
      <use x="81.787109" xlink:href="#DejaVuSans-105"/>
      <use x="109.570312" xlink:href="#DejaVuSans-110"/>
      <use x="172.949219" xlink:href="#DejaVuSans-100"/>
      <use x="236.425781" xlink:href="#DejaVuSans-95"/>
      <use x="286.425781" xlink:href="#DejaVuSans-100"/>
      <use x="349.902344" xlink:href="#DejaVuSans-105"/>
      <use x="377.685547" xlink:href="#DejaVuSans-114"/>
      <use x="416.548828" xlink:href="#DejaVuSans-101"/>
      <use x="478.072266" xlink:href="#DejaVuSans-99"/>
      <use x="533.052734" xlink:href="#DejaVuSans-116"/>
      <use x="572.261719" xlink:href="#DejaVuSans-105"/>
      <use x="600.044922" xlink:href="#DejaVuSans-111"/>
      <use x="661.226562" xlink:href="#DejaVuSans-110"/>
     </g>
    </g>
   </g>
  </g>
  <g id="axes_5">
   <g id="patch_94">
    <path d="M 33.2875 160.999024 
L 368.0875 160.999024 
L 368.0875 134.481951 
L 33.2875 134.481951 
z
" style="fill:#ffffff;"/>
   </g>
   <g id="patch_95">
    <path clip-path="url(#p94728185f8)" d="M 38.51875 154.170885 
L 48.98125 154.170885 
L 48.98125 154.170885 
L 38.51875 154.170885 
z
" style="fill:#9467bd;"/>
   </g>
   <g id="patch_96">
    <path clip-path="url(#p94728185f8)" d="M 59.44375 154.170885 
L 69.90625 154.170885 
L 69.90625 154.170885 
L 59.44375 154.170885 
z
" style="fill:#9467bd;"/>
   </g>
   <g id="patch_97">
    <path clip-path="url(#p94728185f8)" d="M 80.36875 154.170885 
L 90.83125 154.170885 
L 90.83125 153.516612 
L 80.36875 153.516612 
z
" style="fill:#9467bd;"/>
   </g>
   <g id="patch_98">
    <path clip-path="url(#p94728185f8)" d="M 101.29375 154.170885 
L 111.75625 154.170885 
L 111.75625 155.447698 
L 101.29375 155.447698 
z
" style="fill:#9467bd;"/>
   </g>
   <g id="patch_99">
    <path clip-path="url(#p94728185f8)" d="M 122.21875 154.170885 
L 132.68125 154.170885 
L 132.68125 154.170885 
L 122.21875 154.170885 
z
" style="fill:#9467bd;"/>
   </g>
   <g id="patch_100">
    <path clip-path="url(#p94728185f8)" d="M 143.14375 154.170885 
L 153.60625 154.170885 
L 153.60625 153.780286 
L 143.14375 153.780286 
z
" style="fill:#9467bd;"/>
   </g>
   <g id="patch_101">
    <path clip-path="url(#p94728185f8)" d="M 164.06875 154.170885 
L 174.53125 154.170885 
L 174.53125 153.714608 
L 164.06875 153.714608 
z
" style="fill:#9467bd;"/>
   </g>
   <g id="patch_102">
    <path clip-path="url(#p94728185f8)" d="M 184.99375 154.170885 
L 195.45625 154.170885 
L 195.45625 154.395867 
L 184.99375 154.395867 
z
" style="fill:#9467bd;"/>
   </g>
   <g id="patch_103">
    <path clip-path="url(#p94728185f8)" d="M 205.91875 154.170885 
L 216.38125 154.170885 
L 216.38125 154.170885 
L 205.91875 154.170885 
z
" style="fill:#9467bd;"/>
   </g>
   <g id="patch_104">
    <path clip-path="url(#p94728185f8)" d="M 226.84375 154.170885 
L 237.30625 154.170885 
L 237.30625 154.024787 
L 226.84375 154.024787 
z
" style="fill:#9467bd;"/>
   </g>
   <g id="patch_105">
    <path clip-path="url(#p94728185f8)" d="M 247.76875 154.170885 
L 258.23125 154.170885 
L 258.23125 155.549201 
L 247.76875 155.549201 
z
" style="fill:#9467bd;"/>
   </g>
   <g id="patch_106">
    <path clip-path="url(#p94728185f8)" d="M 268.69375 154.170885 
L 279.15625 154.170885 
L 279.15625 156.402221 
L 268.69375 156.402221 
z
" style="fill:#9467bd;"/>
   </g>
   <g id="patch_107">
    <path clip-path="url(#p94728185f8)" d="M 289.61875 154.170885 
L 300.08125 154.170885 
L 300.08125 158.170302 
L 289.61875 158.170302 
z
" style="fill:#9467bd;"/>
   </g>
   <g id="patch_108">
    <path clip-path="url(#p94728185f8)" d="M 310.54375 154.170885 
L 321.00625 154.170885 
L 321.00625 157.409356 
L 310.54375 157.409356 
z
" style="fill:#9467bd;"/>
   </g>
   <g id="patch_109">
    <path clip-path="url(#p94728185f8)" d="M 331.46875 154.170885 
L 341.93125 154.170885 
L 341.93125 159.793703 
L 331.46875 159.793703 
z
" style="fill:#9467bd;"/>
   </g>
   <g id="patch_110">
    <path clip-path="url(#p94728185f8)" d="M 352.39375 154.170885 
L 362.85625 154.170885 
L 362.85625 135.687273 
L 352.39375 135.687273 
z
" style="fill:#9467bd;"/>
   </g>
   <g id="matplotlib.axis_9">
    <g id="xtick_65">
     <g id="line2d_73">
      <g>
       <use style="stroke:#000000;stroke-width:0.8;" x="43.75" xlink:href="#mce6bfe8471" y="160.999024"/>
      </g>
     </g>
    </g>
    <g id="xtick_66">
     <g id="line2d_74">
      <g>
       <use style="stroke:#000000;stroke-width:0.8;" x="64.675" xlink:href="#mce6bfe8471" y="160.999024"/>
      </g>
     </g>
    </g>
    <g id="xtick_67">
     <g id="line2d_75">
      <g>
       <use style="stroke:#000000;stroke-width:0.8;" x="85.6" xlink:href="#mce6bfe8471" y="160.999024"/>
      </g>
     </g>
    </g>
    <g id="xtick_68">
     <g id="line2d_76">
      <g>
       <use style="stroke:#000000;stroke-width:0.8;" x="106.525" xlink:href="#mce6bfe8471" y="160.999024"/>
      </g>
     </g>
    </g>
    <g id="xtick_69">
     <g id="line2d_77">
      <g>
       <use style="stroke:#000000;stroke-width:0.8;" x="127.45" xlink:href="#mce6bfe8471" y="160.999024"/>
      </g>
     </g>
    </g>
    <g id="xtick_70">
     <g id="line2d_78">
      <g>
       <use style="stroke:#000000;stroke-width:0.8;" x="148.375" xlink:href="#mce6bfe8471" y="160.999024"/>
      </g>
     </g>
    </g>
    <g id="xtick_71">
     <g id="line2d_79">
      <g>
       <use style="stroke:#000000;stroke-width:0.8;" x="169.3" xlink:href="#mce6bfe8471" y="160.999024"/>
      </g>
     </g>
    </g>
    <g id="xtick_72">
     <g id="line2d_80">
      <g>
       <use style="stroke:#000000;stroke-width:0.8;" x="190.225" xlink:href="#mce6bfe8471" y="160.999024"/>
      </g>
     </g>
    </g>
    <g id="xtick_73">
     <g id="line2d_81">
      <g>
       <use style="stroke:#000000;stroke-width:0.8;" x="211.15" xlink:href="#mce6bfe8471" y="160.999024"/>
      </g>
     </g>
    </g>
    <g id="xtick_74">
     <g id="line2d_82">
      <g>
       <use style="stroke:#000000;stroke-width:0.8;" x="232.075" xlink:href="#mce6bfe8471" y="160.999024"/>
      </g>
     </g>
    </g>
    <g id="xtick_75">
     <g id="line2d_83">
      <g>
       <use style="stroke:#000000;stroke-width:0.8;" x="253" xlink:href="#mce6bfe8471" y="160.999024"/>
      </g>
     </g>
    </g>
    <g id="xtick_76">
     <g id="line2d_84">
      <g>
       <use style="stroke:#000000;stroke-width:0.8;" x="273.925" xlink:href="#mce6bfe8471" y="160.999024"/>
      </g>
     </g>
    </g>
    <g id="xtick_77">
     <g id="line2d_85">
      <g>
       <use style="stroke:#000000;stroke-width:0.8;" x="294.85" xlink:href="#mce6bfe8471" y="160.999024"/>
      </g>
     </g>
    </g>
    <g id="xtick_78">
     <g id="line2d_86">
      <g>
       <use style="stroke:#000000;stroke-width:0.8;" x="315.775" xlink:href="#mce6bfe8471" y="160.999024"/>
      </g>
     </g>
    </g>
    <g id="xtick_79">
     <g id="line2d_87">
      <g>
       <use style="stroke:#000000;stroke-width:0.8;" x="336.7" xlink:href="#mce6bfe8471" y="160.999024"/>
      </g>
     </g>
    </g>
    <g id="xtick_80">
     <g id="line2d_88">
      <g>
       <use style="stroke:#000000;stroke-width:0.8;" x="357.625" xlink:href="#mce6bfe8471" y="160.999024"/>
      </g>
     </g>
    </g>
   </g>
   <g id="matplotlib.axis_10">
    <g id="ytick_9">
     <g id="line2d_89">
      <g>
       <use style="stroke:#000000;stroke-width:0.8;" x="33.2875" xlink:href="#m59c74a5830" y="154.170885"/>
      </g>
     </g>
     <g id="text_13">
      <!-- 0 -->
      <g transform="translate(19.925 157.970104)scale(0.1 -0.1)">
       <use xlink:href="#DejaVuSans-48"/>
      </g>
     </g>
    </g>
    <g id="ytick_10">
     <g id="line2d_90">
      <g>
       <use style="stroke:#000000;stroke-width:0.8;" x="33.2875" xlink:href="#m59c74a5830" y="140.872801"/>
      </g>
     </g>
     <g id="text_14">
      <!-- 100 -->
      <g transform="translate(7.2 144.67202)scale(0.1 -0.1)">
       <use xlink:href="#DejaVuSans-49"/>
       <use x="63.623047" xlink:href="#DejaVuSans-48"/>
       <use x="127.246094" xlink:href="#DejaVuSans-48"/>
      </g>
     </g>
    </g>
   </g>
   <g id="patch_111">
    <path d="M 33.2875 160.999024 
L 33.2875 134.481951 
" style="fill:none;stroke:#000000;stroke-linecap:square;stroke-linejoin:miter;stroke-width:0.8;"/>
   </g>
   <g id="patch_112">
    <path d="M 368.0875 160.999024 
L 368.0875 134.481951 
" style="fill:none;stroke:#000000;stroke-linecap:square;stroke-linejoin:miter;stroke-width:0.8;"/>
   </g>
   <g id="patch_113">
    <path d="M 33.2875 160.999024 
L 368.0875 160.999024 
" style="fill:none;stroke:#000000;stroke-linecap:square;stroke-linejoin:miter;stroke-width:0.8;"/>
   </g>
   <g id="patch_114">
    <path d="M 33.2875 134.481951 
L 368.0875 134.481951 
" style="fill:none;stroke:#000000;stroke-linecap:square;stroke-linejoin:miter;stroke-width:0.8;"/>
   </g>
   <g id="legend_5">
    <g id="patch_115">
     <path d="M 375.0875 156.718613 
L 465.942188 156.718613 
Q 467.942188 156.718613 467.942188 154.718613 
L 467.942188 140.762363 
Q 467.942188 138.762363 465.942188 138.762363 
L 375.0875 138.762363 
Q 373.0875 138.762363 373.0875 140.762363 
L 373.0875 154.718613 
Q 373.0875 156.718613 375.0875 156.718613 
z
" style="fill:#ffffff;opacity:0.8;stroke:#cccccc;stroke-linejoin:miter;"/>
    </g>
    <g id="patch_116">
     <path d="M 377.0875 150.3608 
L 397.0875 150.3608 
L 397.0875 143.3608 
L 377.0875 143.3608 
z
" style="fill:#9467bd;"/>
    </g>
    <g id="text_15">
     <!-- wind_speed -->
     <g transform="translate(405.0875 150.3608)scale(0.1 -0.1)">
      <use xlink:href="#DejaVuSans-119"/>
      <use x="81.787109" xlink:href="#DejaVuSans-105"/>
      <use x="109.570312" xlink:href="#DejaVuSans-110"/>
      <use x="172.949219" xlink:href="#DejaVuSans-100"/>
      <use x="236.425781" xlink:href="#DejaVuSans-95"/>
      <use x="286.425781" xlink:href="#DejaVuSans-115"/>
      <use x="338.525391" xlink:href="#DejaVuSans-112"/>
      <use x="402.001953" xlink:href="#DejaVuSans-101"/>
      <use x="463.525391" xlink:href="#DejaVuSans-101"/>
      <use x="525.048828" xlink:href="#DejaVuSans-100"/>
     </g>
    </g>
   </g>
  </g>
  <g id="axes_6">
   <g id="patch_117">
    <path d="M 33.2875 192.819512 
L 368.0875 192.819512 
L 368.0875 166.302439 
L 33.2875 166.302439 
z
" style="fill:#ffffff;"/>
   </g>
   <g id="patch_118">
    <path clip-path="url(#p6b55450903)" d="M 38.51875 185.991373 
L 48.98125 185.991373 
L 48.98125 185.991373 
L 38.51875 185.991373 
z
" style="fill:#8c564b;"/>
   </g>
   <g id="patch_119">
    <path clip-path="url(#p6b55450903)" d="M 59.44375 185.991373 
L 69.90625 185.991373 
L 69.90625 185.991373 
L 59.44375 185.991373 
z
" style="fill:#8c564b;"/>
   </g>
   <g id="patch_120">
    <path clip-path="url(#p6b55450903)" d="M 80.36875 185.991373 
L 90.83125 185.991373 
L 90.83125 185.3371 
L 80.36875 185.3371 
z
" style="fill:#8c564b;"/>
   </g>
   <g id="patch_121">
    <path clip-path="url(#p6b55450903)" d="M 101.29375 185.991373 
L 111.75625 185.991373 
L 111.75625 187.268186 
L 101.29375 187.268186 
z
" style="fill:#8c564b;"/>
   </g>
   <g id="patch_122">
    <path clip-path="url(#p6b55450903)" d="M 122.21875 185.991373 
L 132.68125 185.991373 
L 132.68125 185.991373 
L 122.21875 185.991373 
z
" style="fill:#8c564b;"/>
   </g>
   <g id="patch_123">
    <path clip-path="url(#p6b55450903)" d="M 143.14375 185.991373 
L 153.60625 185.991373 
L 153.60625 185.600774 
L 143.14375 185.600774 
z
" style="fill:#8c564b;"/>
   </g>
   <g id="patch_124">
    <path clip-path="url(#p6b55450903)" d="M 164.06875 185.991373 
L 174.53125 185.991373 
L 174.53125 185.535095 
L 164.06875 185.535095 
z
" style="fill:#8c564b;"/>
   </g>
   <g id="patch_125">
    <path clip-path="url(#p6b55450903)" d="M 184.99375 185.991373 
L 195.45625 185.991373 
L 195.45625 186.216355 
L 184.99375 186.216355 
z
" style="fill:#8c564b;"/>
   </g>
   <g id="patch_126">
    <path clip-path="url(#p6b55450903)" d="M 205.91875 185.991373 
L 216.38125 185.991373 
L 216.38125 185.991373 
L 205.91875 185.991373 
z
" style="fill:#8c564b;"/>
   </g>
   <g id="patch_127">
    <path clip-path="url(#p6b55450903)" d="M 226.84375 185.991373 
L 237.30625 185.991373 
L 237.30625 185.845274 
L 226.84375 185.845274 
z
" style="fill:#8c564b;"/>
   </g>
   <g id="patch_128">
    <path clip-path="url(#p6b55450903)" d="M 247.76875 185.991373 
L 258.23125 185.991373 
L 258.23125 187.369689 
L 247.76875 187.369689 
z
" style="fill:#8c564b;"/>
   </g>
   <g id="patch_129">
    <path clip-path="url(#p6b55450903)" d="M 268.69375 185.991373 
L 279.15625 185.991373 
L 279.15625 188.222709 
L 268.69375 188.222709 
z
" style="fill:#8c564b;"/>
   </g>
   <g id="patch_130">
    <path clip-path="url(#p6b55450903)" d="M 289.61875 185.991373 
L 300.08125 185.991373 
L 300.08125 189.99079 
L 289.61875 189.99079 
z
" style="fill:#8c564b;"/>
   </g>
   <g id="patch_131">
    <path clip-path="url(#p6b55450903)" d="M 310.54375 185.991373 
L 321.00625 185.991373 
L 321.00625 189.229844 
L 310.54375 189.229844 
z
" style="fill:#8c564b;"/>
   </g>
   <g id="patch_132">
    <path clip-path="url(#p6b55450903)" d="M 331.46875 185.991373 
L 341.93125 185.991373 
L 341.93125 191.614191 
L 331.46875 191.614191 
z
" style="fill:#8c564b;"/>
   </g>
   <g id="patch_133">
    <path clip-path="url(#p6b55450903)" d="M 352.39375 185.991373 
L 362.85625 185.991373 
L 362.85625 167.507761 
L 352.39375 167.507761 
z
" style="fill:#8c564b;"/>
   </g>
   <g id="matplotlib.axis_11">
    <g id="xtick_81">
     <g id="line2d_91">
      <g>
       <use style="stroke:#000000;stroke-width:0.8;" x="43.75" xlink:href="#mce6bfe8471" y="192.819512"/>
      </g>
     </g>
    </g>
    <g id="xtick_82">
     <g id="line2d_92">
      <g>
       <use style="stroke:#000000;stroke-width:0.8;" x="64.675" xlink:href="#mce6bfe8471" y="192.819512"/>
      </g>
     </g>
    </g>
    <g id="xtick_83">
     <g id="line2d_93">
      <g>
       <use style="stroke:#000000;stroke-width:0.8;" x="85.6" xlink:href="#mce6bfe8471" y="192.819512"/>
      </g>
     </g>
    </g>
    <g id="xtick_84">
     <g id="line2d_94">
      <g>
       <use style="stroke:#000000;stroke-width:0.8;" x="106.525" xlink:href="#mce6bfe8471" y="192.819512"/>
      </g>
     </g>
    </g>
    <g id="xtick_85">
     <g id="line2d_95">
      <g>
       <use style="stroke:#000000;stroke-width:0.8;" x="127.45" xlink:href="#mce6bfe8471" y="192.819512"/>
      </g>
     </g>
    </g>
    <g id="xtick_86">
     <g id="line2d_96">
      <g>
       <use style="stroke:#000000;stroke-width:0.8;" x="148.375" xlink:href="#mce6bfe8471" y="192.819512"/>
      </g>
     </g>
    </g>
    <g id="xtick_87">
     <g id="line2d_97">
      <g>
       <use style="stroke:#000000;stroke-width:0.8;" x="169.3" xlink:href="#mce6bfe8471" y="192.819512"/>
      </g>
     </g>
    </g>
    <g id="xtick_88">
     <g id="line2d_98">
      <g>
       <use style="stroke:#000000;stroke-width:0.8;" x="190.225" xlink:href="#mce6bfe8471" y="192.819512"/>
      </g>
     </g>
    </g>
    <g id="xtick_89">
     <g id="line2d_99">
      <g>
       <use style="stroke:#000000;stroke-width:0.8;" x="211.15" xlink:href="#mce6bfe8471" y="192.819512"/>
      </g>
     </g>
    </g>
    <g id="xtick_90">
     <g id="line2d_100">
      <g>
       <use style="stroke:#000000;stroke-width:0.8;" x="232.075" xlink:href="#mce6bfe8471" y="192.819512"/>
      </g>
     </g>
    </g>
    <g id="xtick_91">
     <g id="line2d_101">
      <g>
       <use style="stroke:#000000;stroke-width:0.8;" x="253" xlink:href="#mce6bfe8471" y="192.819512"/>
      </g>
     </g>
    </g>
    <g id="xtick_92">
     <g id="line2d_102">
      <g>
       <use style="stroke:#000000;stroke-width:0.8;" x="273.925" xlink:href="#mce6bfe8471" y="192.819512"/>
      </g>
     </g>
    </g>
    <g id="xtick_93">
     <g id="line2d_103">
      <g>
       <use style="stroke:#000000;stroke-width:0.8;" x="294.85" xlink:href="#mce6bfe8471" y="192.819512"/>
      </g>
     </g>
    </g>
    <g id="xtick_94">
     <g id="line2d_104">
      <g>
       <use style="stroke:#000000;stroke-width:0.8;" x="315.775" xlink:href="#mce6bfe8471" y="192.819512"/>
      </g>
     </g>
    </g>
    <g id="xtick_95">
     <g id="line2d_105">
      <g>
       <use style="stroke:#000000;stroke-width:0.8;" x="336.7" xlink:href="#mce6bfe8471" y="192.819512"/>
      </g>
     </g>
    </g>
    <g id="xtick_96">
     <g id="line2d_106">
      <g>
       <use style="stroke:#000000;stroke-width:0.8;" x="357.625" xlink:href="#mce6bfe8471" y="192.819512"/>
      </g>
     </g>
    </g>
   </g>
   <g id="matplotlib.axis_12">
    <g id="ytick_11">
     <g id="line2d_107">
      <g>
       <use style="stroke:#000000;stroke-width:0.8;" x="33.2875" xlink:href="#m59c74a5830" y="185.991373"/>
      </g>
     </g>
     <g id="text_16">
      <!-- 0 -->
      <g transform="translate(19.925 189.790591)scale(0.1 -0.1)">
       <use xlink:href="#DejaVuSans-48"/>
      </g>
     </g>
    </g>
    <g id="ytick_12">
     <g id="line2d_108">
      <g>
       <use style="stroke:#000000;stroke-width:0.8;" x="33.2875" xlink:href="#m59c74a5830" y="172.693289"/>
      </g>
     </g>
     <g id="text_17">
      <!-- 100 -->
      <g transform="translate(7.2 176.492508)scale(0.1 -0.1)">
       <use xlink:href="#DejaVuSans-49"/>
       <use x="63.623047" xlink:href="#DejaVuSans-48"/>
       <use x="127.246094" xlink:href="#DejaVuSans-48"/>
      </g>
     </g>
    </g>
   </g>
   <g id="patch_134">
    <path d="M 33.2875 192.819512 
L 33.2875 166.302439 
" style="fill:none;stroke:#000000;stroke-linecap:square;stroke-linejoin:miter;stroke-width:0.8;"/>
   </g>
   <g id="patch_135">
    <path d="M 368.0875 192.819512 
L 368.0875 166.302439 
" style="fill:none;stroke:#000000;stroke-linecap:square;stroke-linejoin:miter;stroke-width:0.8;"/>
   </g>
   <g id="patch_136">
    <path d="M 33.2875 192.819512 
L 368.0875 192.819512 
" style="fill:none;stroke:#000000;stroke-linecap:square;stroke-linejoin:miter;stroke-width:0.8;"/>
   </g>
   <g id="patch_137">
    <path d="M 33.2875 166.302439 
L 368.0875 166.302439 
" style="fill:none;stroke:#000000;stroke-linecap:square;stroke-linejoin:miter;stroke-width:0.8;"/>
   </g>
   <g id="legend_6">
    <g id="patch_138">
     <path d="M 375.0875 188.400038 
L 432.93125 188.400038 
Q 434.93125 188.400038 434.93125 186.400038 
L 434.93125 172.721913 
Q 434.93125 170.721913 432.93125 170.721913 
L 375.0875 170.721913 
Q 373.0875 170.721913 373.0875 172.721913 
L 373.0875 186.400038 
Q 373.0875 188.400038 375.0875 188.400038 
z
" style="fill:#ffffff;opacity:0.8;stroke:#cccccc;stroke-linejoin:miter;"/>
    </g>
    <g id="patch_139">
     <path d="M 377.0875 182.320351 
L 397.0875 182.320351 
L 397.0875 175.320351 
L 377.0875 175.320351 
z
" style="fill:#8c564b;"/>
    </g>
    <g id="text_18">
     <!-- snow -->
     <g transform="translate(405.0875 182.320351)scale(0.1 -0.1)">
      <use xlink:href="#DejaVuSans-115"/>
      <use x="52.099609" xlink:href="#DejaVuSans-110"/>
      <use x="115.478516" xlink:href="#DejaVuSans-111"/>
      <use x="176.660156" xlink:href="#DejaVuSans-119"/>
     </g>
    </g>
   </g>
  </g>
  <g id="axes_7">
   <g id="patch_140">
    <path d="M 33.2875 224.64 
L 368.0875 224.64 
L 368.0875 198.122927 
L 33.2875 198.122927 
z
" style="fill:#ffffff;"/>
   </g>
   <g id="patch_141">
    <path clip-path="url(#pdbd34ad542)" d="M 38.51875 217.81186 
L 48.98125 217.81186 
L 48.98125 217.81186 
L 38.51875 217.81186 
z
" style="fill:#e377c2;"/>
   </g>
   <g id="patch_142">
    <path clip-path="url(#pdbd34ad542)" d="M 59.44375 217.81186 
L 69.90625 217.81186 
L 69.90625 217.81186 
L 59.44375 217.81186 
z
" style="fill:#e377c2;"/>
   </g>
   <g id="patch_143">
    <path clip-path="url(#pdbd34ad542)" d="M 80.36875 217.81186 
L 90.83125 217.81186 
L 90.83125 217.157588 
L 80.36875 217.157588 
z
" style="fill:#e377c2;"/>
   </g>
   <g id="patch_144">
    <path clip-path="url(#pdbd34ad542)" d="M 101.29375 217.81186 
L 111.75625 217.81186 
L 111.75625 219.088674 
L 101.29375 219.088674 
z
" style="fill:#e377c2;"/>
   </g>
   <g id="patch_145">
    <path clip-path="url(#pdbd34ad542)" d="M 122.21875 217.81186 
L 132.68125 217.81186 
L 132.68125 217.81186 
L 122.21875 217.81186 
z
" style="fill:#e377c2;"/>
   </g>
   <g id="patch_146">
    <path clip-path="url(#pdbd34ad542)" d="M 143.14375 217.81186 
L 153.60625 217.81186 
L 153.60625 217.421262 
L 143.14375 217.421262 
z
" style="fill:#e377c2;"/>
   </g>
   <g id="patch_147">
    <path clip-path="url(#pdbd34ad542)" d="M 164.06875 217.81186 
L 174.53125 217.81186 
L 174.53125 217.355583 
L 164.06875 217.355583 
z
" style="fill:#e377c2;"/>
   </g>
   <g id="patch_148">
    <path clip-path="url(#pdbd34ad542)" d="M 184.99375 217.81186 
L 195.45625 217.81186 
L 195.45625 218.036843 
L 184.99375 218.036843 
z
" style="fill:#e377c2;"/>
   </g>
   <g id="patch_149">
    <path clip-path="url(#pdbd34ad542)" d="M 205.91875 217.81186 
L 216.38125 217.81186 
L 216.38125 217.81186 
L 205.91875 217.81186 
z
" style="fill:#e377c2;"/>
   </g>
   <g id="patch_150">
    <path clip-path="url(#pdbd34ad542)" d="M 226.84375 217.81186 
L 237.30625 217.81186 
L 237.30625 217.665762 
L 226.84375 217.665762 
z
" style="fill:#e377c2;"/>
   </g>
   <g id="patch_151">
    <path clip-path="url(#pdbd34ad542)" d="M 247.76875 217.81186 
L 258.23125 217.81186 
L 258.23125 219.190177 
L 247.76875 219.190177 
z
" style="fill:#e377c2;"/>
   </g>
   <g id="patch_152">
    <path clip-path="url(#pdbd34ad542)" d="M 268.69375 217.81186 
L 279.15625 217.81186 
L 279.15625 220.043197 
L 268.69375 220.043197 
z
" style="fill:#e377c2;"/>
   </g>
   <g id="patch_153">
    <path clip-path="url(#pdbd34ad542)" d="M 289.61875 217.81186 
L 300.08125 217.81186 
L 300.08125 221.811278 
L 289.61875 221.811278 
z
" style="fill:#e377c2;"/>
   </g>
   <g id="patch_154">
    <path clip-path="url(#pdbd34ad542)" d="M 310.54375 217.81186 
L 321.00625 217.81186 
L 321.00625 221.050331 
L 310.54375 221.050331 
z
" style="fill:#e377c2;"/>
   </g>
   <g id="patch_155">
    <path clip-path="url(#pdbd34ad542)" d="M 331.46875 217.81186 
L 341.93125 217.81186 
L 341.93125 223.434678 
L 331.46875 223.434678 
z
" style="fill:#e377c2;"/>
   </g>
   <g id="patch_156">
    <path clip-path="url(#pdbd34ad542)" d="M 352.39375 217.81186 
L 362.85625 217.81186 
L 362.85625 199.328248 
L 352.39375 199.328248 
z
" style="fill:#e377c2;"/>
   </g>
   <g id="matplotlib.axis_13">
    <g id="xtick_97">
     <g id="line2d_109">
      <g>
       <use style="stroke:#000000;stroke-width:0.8;" x="43.75" xlink:href="#mce6bfe8471" y="224.64"/>
      </g>
     </g>
     <g id="text_19">
      <!-- 0 -->
      <g transform="translate(46.509375 238.0025)rotate(-90)scale(0.1 -0.1)">
       <use xlink:href="#DejaVuSans-48"/>
      </g>
     </g>
    </g>
    <g id="xtick_98">
     <g id="line2d_110">
      <g>
       <use style="stroke:#000000;stroke-width:0.8;" x="64.675" xlink:href="#mce6bfe8471" y="224.64"/>
      </g>
     </g>
     <g id="text_20">
      <!-- 1 -->
      <g transform="translate(67.434375 238.0025)rotate(-90)scale(0.1 -0.1)">
       <use xlink:href="#DejaVuSans-49"/>
      </g>
     </g>
    </g>
    <g id="xtick_99">
     <g id="line2d_111">
      <g>
       <use style="stroke:#000000;stroke-width:0.8;" x="85.6" xlink:href="#mce6bfe8471" y="224.64"/>
      </g>
     </g>
     <g id="text_21">
      <!-- 2 -->
      <g transform="translate(88.359375 238.0025)rotate(-90)scale(0.1 -0.1)">
       <defs>
        <path d="M 19.1875 8.296875 
L 53.609375 8.296875 
L 53.609375 0 
L 7.328125 0 
L 7.328125 8.296875 
Q 12.9375 14.109375 22.625 23.890625 
Q 32.328125 33.6875 34.8125 36.53125 
Q 39.546875 41.84375 41.421875 45.53125 
Q 43.3125 49.21875 43.3125 52.78125 
Q 43.3125 58.59375 39.234375 62.25 
Q 35.15625 65.921875 28.609375 65.921875 
Q 23.96875 65.921875 18.8125 64.3125 
Q 13.671875 62.703125 7.8125 59.421875 
L 7.8125 69.390625 
Q 13.765625 71.78125 18.9375 73 
Q 24.125 74.21875 28.421875 74.21875 
Q 39.75 74.21875 46.484375 68.546875 
Q 53.21875 62.890625 53.21875 53.421875 
Q 53.21875 48.921875 51.53125 44.890625 
Q 49.859375 40.875 45.40625 35.40625 
Q 44.1875 33.984375 37.640625 27.21875 
Q 31.109375 20.453125 19.1875 8.296875 
z
" id="DejaVuSans-50"/>
       </defs>
       <use xlink:href="#DejaVuSans-50"/>
      </g>
     </g>
    </g>
    <g id="xtick_100">
     <g id="line2d_112">
      <g>
       <use style="stroke:#000000;stroke-width:0.8;" x="106.525" xlink:href="#mce6bfe8471" y="224.64"/>
      </g>
     </g>
     <g id="text_22">
      <!-- 3 -->
      <g transform="translate(109.284375 238.0025)rotate(-90)scale(0.1 -0.1)">
       <defs>
        <path d="M 40.578125 39.3125 
Q 47.65625 37.796875 51.625 33 
Q 55.609375 28.21875 55.609375 21.1875 
Q 55.609375 10.40625 48.1875 4.484375 
Q 40.765625 -1.421875 27.09375 -1.421875 
Q 22.515625 -1.421875 17.65625 -0.515625 
Q 12.796875 0.390625 7.625 2.203125 
L 7.625 11.71875 
Q 11.71875 9.328125 16.59375 8.109375 
Q 21.484375 6.890625 26.8125 6.890625 
Q 36.078125 6.890625 40.9375 10.546875 
Q 45.796875 14.203125 45.796875 21.1875 
Q 45.796875 27.640625 41.28125 31.265625 
Q 36.765625 34.90625 28.71875 34.90625 
L 20.21875 34.90625 
L 20.21875 43.015625 
L 29.109375 43.015625 
Q 36.375 43.015625 40.234375 45.921875 
Q 44.09375 48.828125 44.09375 54.296875 
Q 44.09375 59.90625 40.109375 62.90625 
Q 36.140625 65.921875 28.71875 65.921875 
Q 24.65625 65.921875 20.015625 65.03125 
Q 15.375 64.15625 9.8125 62.3125 
L 9.8125 71.09375 
Q 15.4375 72.65625 20.34375 73.4375 
Q 25.25 74.21875 29.59375 74.21875 
Q 40.828125 74.21875 47.359375 69.109375 
Q 53.90625 64.015625 53.90625 55.328125 
Q 53.90625 49.265625 50.4375 45.09375 
Q 46.96875 40.921875 40.578125 39.3125 
z
" id="DejaVuSans-51"/>
       </defs>
       <use xlink:href="#DejaVuSans-51"/>
      </g>
     </g>
    </g>
    <g id="xtick_101">
     <g id="line2d_113">
      <g>
       <use style="stroke:#000000;stroke-width:0.8;" x="127.45" xlink:href="#mce6bfe8471" y="224.64"/>
      </g>
     </g>
     <g id="text_23">
      <!-- 4 -->
      <g transform="translate(130.209375 238.0025)rotate(-90)scale(0.1 -0.1)">
       <defs>
        <path d="M 37.796875 64.3125 
L 12.890625 25.390625 
L 37.796875 25.390625 
z
M 35.203125 72.90625 
L 47.609375 72.90625 
L 47.609375 25.390625 
L 58.015625 25.390625 
L 58.015625 17.1875 
L 47.609375 17.1875 
L 47.609375 0 
L 37.796875 0 
L 37.796875 17.1875 
L 4.890625 17.1875 
L 4.890625 26.703125 
z
" id="DejaVuSans-52"/>
       </defs>
       <use xlink:href="#DejaVuSans-52"/>
      </g>
     </g>
    </g>
    <g id="xtick_102">
     <g id="line2d_114">
      <g>
       <use style="stroke:#000000;stroke-width:0.8;" x="148.375" xlink:href="#mce6bfe8471" y="224.64"/>
      </g>
     </g>
     <g id="text_24">
      <!-- 5 -->
      <g transform="translate(151.134375 238.0025)rotate(-90)scale(0.1 -0.1)">
       <defs>
        <path d="M 10.796875 72.90625 
L 49.515625 72.90625 
L 49.515625 64.59375 
L 19.828125 64.59375 
L 19.828125 46.734375 
Q 21.96875 47.46875 24.109375 47.828125 
Q 26.265625 48.1875 28.421875 48.1875 
Q 40.625 48.1875 47.75 41.5 
Q 54.890625 34.8125 54.890625 23.390625 
Q 54.890625 11.625 47.5625 5.09375 
Q 40.234375 -1.421875 26.90625 -1.421875 
Q 22.3125 -1.421875 17.546875 -0.640625 
Q 12.796875 0.140625 7.71875 1.703125 
L 7.71875 11.625 
Q 12.109375 9.234375 16.796875 8.0625 
Q 21.484375 6.890625 26.703125 6.890625 
Q 35.15625 6.890625 40.078125 11.328125 
Q 45.015625 15.765625 45.015625 23.390625 
Q 45.015625 31 40.078125 35.4375 
Q 35.15625 39.890625 26.703125 39.890625 
Q 22.75 39.890625 18.8125 39.015625 
Q 14.890625 38.140625 10.796875 36.28125 
z
" id="DejaVuSans-53"/>
       </defs>
       <use xlink:href="#DejaVuSans-53"/>
      </g>
     </g>
    </g>
    <g id="xtick_103">
     <g id="line2d_115">
      <g>
       <use style="stroke:#000000;stroke-width:0.8;" x="169.3" xlink:href="#mce6bfe8471" y="224.64"/>
      </g>
     </g>
     <g id="text_25">
      <!-- 6 -->
      <g transform="translate(172.059375 238.0025)rotate(-90)scale(0.1 -0.1)">
       <defs>
        <path d="M 33.015625 40.375 
Q 26.375 40.375 22.484375 35.828125 
Q 18.609375 31.296875 18.609375 23.390625 
Q 18.609375 15.53125 22.484375 10.953125 
Q 26.375 6.390625 33.015625 6.390625 
Q 39.65625 6.390625 43.53125 10.953125 
Q 47.40625 15.53125 47.40625 23.390625 
Q 47.40625 31.296875 43.53125 35.828125 
Q 39.65625 40.375 33.015625 40.375 
z
M 52.59375 71.296875 
L 52.59375 62.3125 
Q 48.875 64.0625 45.09375 64.984375 
Q 41.3125 65.921875 37.59375 65.921875 
Q 27.828125 65.921875 22.671875 59.328125 
Q 17.53125 52.734375 16.796875 39.40625 
Q 19.671875 43.65625 24.015625 45.921875 
Q 28.375 48.1875 33.59375 48.1875 
Q 44.578125 48.1875 50.953125 41.515625 
Q 57.328125 34.859375 57.328125 23.390625 
Q 57.328125 12.15625 50.6875 5.359375 
Q 44.046875 -1.421875 33.015625 -1.421875 
Q 20.359375 -1.421875 13.671875 8.265625 
Q 6.984375 17.96875 6.984375 36.375 
Q 6.984375 53.65625 15.1875 63.9375 
Q 23.390625 74.21875 37.203125 74.21875 
Q 40.921875 74.21875 44.703125 73.484375 
Q 48.484375 72.75 52.59375 71.296875 
z
" id="DejaVuSans-54"/>
       </defs>
       <use xlink:href="#DejaVuSans-54"/>
      </g>
     </g>
    </g>
    <g id="xtick_104">
     <g id="line2d_116">
      <g>
       <use style="stroke:#000000;stroke-width:0.8;" x="190.225" xlink:href="#mce6bfe8471" y="224.64"/>
      </g>
     </g>
     <g id="text_26">
      <!-- 7 -->
      <g transform="translate(192.984375 238.0025)rotate(-90)scale(0.1 -0.1)">
       <defs>
        <path d="M 8.203125 72.90625 
L 55.078125 72.90625 
L 55.078125 68.703125 
L 28.609375 0 
L 18.3125 0 
L 43.21875 64.59375 
L 8.203125 64.59375 
z
" id="DejaVuSans-55"/>
       </defs>
       <use xlink:href="#DejaVuSans-55"/>
      </g>
     </g>
    </g>
    <g id="xtick_105">
     <g id="line2d_117">
      <g>
       <use style="stroke:#000000;stroke-width:0.8;" x="211.15" xlink:href="#mce6bfe8471" y="224.64"/>
      </g>
     </g>
     <g id="text_27">
      <!-- 8 -->
      <g transform="translate(213.909375 238.0025)rotate(-90)scale(0.1 -0.1)">
       <defs>
        <path d="M 31.78125 34.625 
Q 24.75 34.625 20.71875 30.859375 
Q 16.703125 27.09375 16.703125 20.515625 
Q 16.703125 13.921875 20.71875 10.15625 
Q 24.75 6.390625 31.78125 6.390625 
Q 38.8125 6.390625 42.859375 10.171875 
Q 46.921875 13.96875 46.921875 20.515625 
Q 46.921875 27.09375 42.890625 30.859375 
Q 38.875 34.625 31.78125 34.625 
z
M 21.921875 38.8125 
Q 15.578125 40.375 12.03125 44.71875 
Q 8.5 49.078125 8.5 55.328125 
Q 8.5 64.0625 14.71875 69.140625 
Q 20.953125 74.21875 31.78125 74.21875 
Q 42.671875 74.21875 48.875 69.140625 
Q 55.078125 64.0625 55.078125 55.328125 
Q 55.078125 49.078125 51.53125 44.71875 
Q 48 40.375 41.703125 38.8125 
Q 48.828125 37.15625 52.796875 32.3125 
Q 56.78125 27.484375 56.78125 20.515625 
Q 56.78125 9.90625 50.3125 4.234375 
Q 43.84375 -1.421875 31.78125 -1.421875 
Q 19.734375 -1.421875 13.25 4.234375 
Q 6.78125 9.90625 6.78125 20.515625 
Q 6.78125 27.484375 10.78125 32.3125 
Q 14.796875 37.15625 21.921875 38.8125 
z
M 18.3125 54.390625 
Q 18.3125 48.734375 21.84375 45.5625 
Q 25.390625 42.390625 31.78125 42.390625 
Q 38.140625 42.390625 41.71875 45.5625 
Q 45.3125 48.734375 45.3125 54.390625 
Q 45.3125 60.0625 41.71875 63.234375 
Q 38.140625 66.40625 31.78125 66.40625 
Q 25.390625 66.40625 21.84375 63.234375 
Q 18.3125 60.0625 18.3125 54.390625 
z
" id="DejaVuSans-56"/>
       </defs>
       <use xlink:href="#DejaVuSans-56"/>
      </g>
     </g>
    </g>
    <g id="xtick_106">
     <g id="line2d_118">
      <g>
       <use style="stroke:#000000;stroke-width:0.8;" x="232.075" xlink:href="#mce6bfe8471" y="224.64"/>
      </g>
     </g>
     <g id="text_28">
      <!-- 9 -->
      <g transform="translate(234.834375 238.0025)rotate(-90)scale(0.1 -0.1)">
       <defs>
        <path d="M 10.984375 1.515625 
L 10.984375 10.5 
Q 14.703125 8.734375 18.5 7.8125 
Q 22.3125 6.890625 25.984375 6.890625 
Q 35.75 6.890625 40.890625 13.453125 
Q 46.046875 20.015625 46.78125 33.40625 
Q 43.953125 29.203125 39.59375 26.953125 
Q 35.25 24.703125 29.984375 24.703125 
Q 19.046875 24.703125 12.671875 31.3125 
Q 6.296875 37.9375 6.296875 49.421875 
Q 6.296875 60.640625 12.9375 67.421875 
Q 19.578125 74.21875 30.609375 74.21875 
Q 43.265625 74.21875 49.921875 64.515625 
Q 56.59375 54.828125 56.59375 36.375 
Q 56.59375 19.140625 48.40625 8.859375 
Q 40.234375 -1.421875 26.421875 -1.421875 
Q 22.703125 -1.421875 18.890625 -0.6875 
Q 15.09375 0.046875 10.984375 1.515625 
z
M 30.609375 32.421875 
Q 37.25 32.421875 41.125 36.953125 
Q 45.015625 41.5 45.015625 49.421875 
Q 45.015625 57.28125 41.125 61.84375 
Q 37.25 66.40625 30.609375 66.40625 
Q 23.96875 66.40625 20.09375 61.84375 
Q 16.21875 57.28125 16.21875 49.421875 
Q 16.21875 41.5 20.09375 36.953125 
Q 23.96875 32.421875 30.609375 32.421875 
z
" id="DejaVuSans-57"/>
       </defs>
       <use xlink:href="#DejaVuSans-57"/>
      </g>
     </g>
    </g>
    <g id="xtick_107">
     <g id="line2d_119">
      <g>
       <use style="stroke:#000000;stroke-width:0.8;" x="253" xlink:href="#mce6bfe8471" y="224.64"/>
      </g>
     </g>
     <g id="text_29">
      <!-- 10 -->
      <g transform="translate(255.759375 244.365)rotate(-90)scale(0.1 -0.1)">
       <use xlink:href="#DejaVuSans-49"/>
       <use x="63.623047" xlink:href="#DejaVuSans-48"/>
      </g>
     </g>
    </g>
    <g id="xtick_108">
     <g id="line2d_120">
      <g>
       <use style="stroke:#000000;stroke-width:0.8;" x="273.925" xlink:href="#mce6bfe8471" y="224.64"/>
      </g>
     </g>
     <g id="text_30">
      <!-- 11 -->
      <g transform="translate(276.684375 244.365)rotate(-90)scale(0.1 -0.1)">
       <use xlink:href="#DejaVuSans-49"/>
       <use x="63.623047" xlink:href="#DejaVuSans-49"/>
      </g>
     </g>
    </g>
    <g id="xtick_109">
     <g id="line2d_121">
      <g>
       <use style="stroke:#000000;stroke-width:0.8;" x="294.85" xlink:href="#mce6bfe8471" y="224.64"/>
      </g>
     </g>
     <g id="text_31">
      <!-- 12 -->
      <g transform="translate(297.609375 244.365)rotate(-90)scale(0.1 -0.1)">
       <use xlink:href="#DejaVuSans-49"/>
       <use x="63.623047" xlink:href="#DejaVuSans-50"/>
      </g>
     </g>
    </g>
    <g id="xtick_110">
     <g id="line2d_122">
      <g>
       <use style="stroke:#000000;stroke-width:0.8;" x="315.775" xlink:href="#mce6bfe8471" y="224.64"/>
      </g>
     </g>
     <g id="text_32">
      <!-- 13 -->
      <g transform="translate(318.534375 244.365)rotate(-90)scale(0.1 -0.1)">
       <use xlink:href="#DejaVuSans-49"/>
       <use x="63.623047" xlink:href="#DejaVuSans-51"/>
      </g>
     </g>
    </g>
    <g id="xtick_111">
     <g id="line2d_123">
      <g>
       <use style="stroke:#000000;stroke-width:0.8;" x="336.7" xlink:href="#mce6bfe8471" y="224.64"/>
      </g>
     </g>
     <g id="text_33">
      <!-- 14 -->
      <g transform="translate(339.459375 244.365)rotate(-90)scale(0.1 -0.1)">
       <use xlink:href="#DejaVuSans-49"/>
       <use x="63.623047" xlink:href="#DejaVuSans-52"/>
      </g>
     </g>
    </g>
    <g id="xtick_112">
     <g id="line2d_124">
      <g>
       <use style="stroke:#000000;stroke-width:0.8;" x="357.625" xlink:href="#mce6bfe8471" y="224.64"/>
      </g>
     </g>
     <g id="text_34">
      <!-- 15 -->
      <g transform="translate(360.384375 244.365)rotate(-90)scale(0.1 -0.1)">
       <use xlink:href="#DejaVuSans-49"/>
       <use x="63.623047" xlink:href="#DejaVuSans-53"/>
      </g>
     </g>
    </g>
   </g>
   <g id="matplotlib.axis_14">
    <g id="ytick_13">
     <g id="line2d_125">
      <g>
       <use style="stroke:#000000;stroke-width:0.8;" x="33.2875" xlink:href="#m59c74a5830" y="217.81186"/>
      </g>
     </g>
     <g id="text_35">
      <!-- 0 -->
      <g transform="translate(19.925 221.611079)scale(0.1 -0.1)">
       <use xlink:href="#DejaVuSans-48"/>
      </g>
     </g>
    </g>
    <g id="ytick_14">
     <g id="line2d_126">
      <g>
       <use style="stroke:#000000;stroke-width:0.8;" x="33.2875" xlink:href="#m59c74a5830" y="204.513777"/>
      </g>
     </g>
     <g id="text_36">
      <!-- 100 -->
      <g transform="translate(7.2 208.312995)scale(0.1 -0.1)">
       <use xlink:href="#DejaVuSans-49"/>
       <use x="63.623047" xlink:href="#DejaVuSans-48"/>
       <use x="127.246094" xlink:href="#DejaVuSans-48"/>
      </g>
     </g>
    </g>
   </g>
   <g id="patch_157">
    <path d="M 33.2875 224.64 
L 33.2875 198.122927 
" style="fill:none;stroke:#000000;stroke-linecap:square;stroke-linejoin:miter;stroke-width:0.8;"/>
   </g>
   <g id="patch_158">
    <path d="M 368.0875 224.64 
L 368.0875 198.122927 
" style="fill:none;stroke:#000000;stroke-linecap:square;stroke-linejoin:miter;stroke-width:0.8;"/>
   </g>
   <g id="patch_159">
    <path d="M 33.2875 224.64 
L 368.0875 224.64 
" style="fill:none;stroke:#000000;stroke-linecap:square;stroke-linejoin:miter;stroke-width:0.8;"/>
   </g>
   <g id="patch_160">
    <path d="M 33.2875 198.122927 
L 368.0875 198.122927 
" style="fill:none;stroke:#000000;stroke-linecap:square;stroke-linejoin:miter;stroke-width:0.8;"/>
   </g>
   <g id="legend_7">
    <g id="patch_161">
     <path d="M 375.0875 220.220526 
L 426.442188 220.220526 
Q 428.442188 220.220526 428.442188 218.220526 
L 428.442188 204.542401 
Q 428.442188 202.542401 426.442188 202.542401 
L 375.0875 202.542401 
Q 373.0875 202.542401 373.0875 204.542401 
L 373.0875 218.220526 
Q 373.0875 220.220526 375.0875 220.220526 
z
" style="fill:#ffffff;opacity:0.8;stroke:#cccccc;stroke-linejoin:miter;"/>
    </g>
    <g id="patch_162">
     <path d="M 377.0875 214.140838 
L 397.0875 214.140838 
L 397.0875 207.140838 
L 377.0875 207.140838 
z
" style="fill:#e377c2;"/>
    </g>
    <g id="text_37">
     <!-- rain -->
     <g transform="translate(405.0875 214.140838)scale(0.1 -0.1)">
      <defs>
       <path d="M 34.28125 27.484375 
Q 23.390625 27.484375 19.1875 25 
Q 14.984375 22.515625 14.984375 16.5 
Q 14.984375 11.71875 18.140625 8.90625 
Q 21.296875 6.109375 26.703125 6.109375 
Q 34.1875 6.109375 38.703125 11.40625 
Q 43.21875 16.703125 43.21875 25.484375 
L 43.21875 27.484375 
z
M 52.203125 31.203125 
L 52.203125 0 
L 43.21875 0 
L 43.21875 8.296875 
Q 40.140625 3.328125 35.546875 0.953125 
Q 30.953125 -1.421875 24.3125 -1.421875 
Q 15.921875 -1.421875 10.953125 3.296875 
Q 6 8.015625 6 15.921875 
Q 6 25.140625 12.171875 29.828125 
Q 18.359375 34.515625 30.609375 34.515625 
L 43.21875 34.515625 
L 43.21875 35.40625 
Q 43.21875 41.609375 39.140625 45 
Q 35.0625 48.390625 27.6875 48.390625 
Q 23 48.390625 18.546875 47.265625 
Q 14.109375 46.140625 10.015625 43.890625 
L 10.015625 52.203125 
Q 14.9375 54.109375 19.578125 55.046875 
Q 24.21875 56 28.609375 56 
Q 40.484375 56 46.34375 49.84375 
Q 52.203125 43.703125 52.203125 31.203125 
z
" id="DejaVuSans-97"/>
      </defs>
      <use xlink:href="#DejaVuSans-114"/>
      <use x="41.113281" xlink:href="#DejaVuSans-97"/>
      <use x="102.392578" xlink:href="#DejaVuSans-105"/>
      <use x="130.175781" xlink:href="#DejaVuSans-110"/>
     </g>
    </g>
   </g>
  </g>
 </g>
 <defs>
  <clipPath id="p031f0afffe">
   <rect height="26.517073" width="334.8" x="33.2875" y="7.2"/>
  </clipPath>
  <clipPath id="pa7bc0bf69b">
   <rect height="26.517073" width="334.8" x="33.2875" y="39.020488"/>
  </clipPath>
  <clipPath id="pdd3ff4d26c">
   <rect height="26.517073" width="334.8" x="33.2875" y="70.840976"/>
  </clipPath>
  <clipPath id="pd89a11cc1e">
   <rect height="26.517073" width="334.8" x="33.2875" y="102.661463"/>
  </clipPath>
  <clipPath id="p94728185f8">
   <rect height="26.517073" width="334.8" x="33.2875" y="134.481951"/>
  </clipPath>
  <clipPath id="p6b55450903">
   <rect height="26.517073" width="334.8" x="33.2875" y="166.302439"/>
  </clipPath>
  <clipPath id="pdbd34ad542">
   <rect height="26.517073" width="334.8" x="33.2875" y="198.122927"/>
  </clipPath>
 </defs>
</svg>
