<?xml version="1.0" encoding="utf-8" standalone="no"?>
<!DOCTYPE svg PUBLIC "-//W3C//DTD SVG 1.1//EN"
  "http://www.w3.org/Graphics/SVG/1.1/DTD/svg11.dtd">
<!-- Created with matplotlib (https://matplotlib.org/) -->
<svg height="231.84pt" version="1.1" viewBox="0 0 1136.64 231.84" width="1136.64pt" xmlns="http://www.w3.org/2000/svg" xmlns:xlink="http://www.w3.org/1999/xlink">
 <metadata>
  <rdf:RDF xmlns:cc="http://creativecommons.org/ns#" xmlns:dc="http://purl.org/dc/elements/1.1/" xmlns:rdf="http://www.w3.org/1999/02/22-rdf-syntax-ns#">
   <cc:Work>
    <dc:type rdf:resource="http://purl.org/dc/dcmitype/StillImage"/>
    <dc:date>2021-01-17T12:29:02.686750</dc:date>
    <dc:format>image/svg+xml</dc:format>
    <dc:creator>
     <cc:Agent>
      <dc:title>Matplotlib v3.3.2, https://matplotlib.org/</dc:title>
     </cc:Agent>
    </dc:creator>
   </cc:Work>
  </rdf:RDF>
 </metadata>
 <defs>
  <style type="text/css">*{stroke-linecap:butt;stroke-linejoin:round;}</style>
 </defs>
 <g id="figure_1">
  <g id="patch_1">
   <path d="M 0 231.84 
L 1136.64 231.84 
L 1136.64 0 
L 0 0 
z
" style="fill:none;"/>
  </g>
  <g id="axes_1">
   <g id="text_1">
    <!-- Windows:  -->
    <g transform="translate(7.2 72.432)scale(0.1 -0.1)">
     <defs>
      <path d="M 3.328125 72.90625 
L 13.28125 72.90625 
L 28.609375 11.28125 
L 43.890625 72.90625 
L 54.984375 72.90625 
L 70.3125 11.28125 
L 85.59375 72.90625 
L 95.609375 72.90625 
L 77.296875 0 
L 64.890625 0 
L 49.515625 63.28125 
L 33.984375 0 
L 21.578125 0 
z
" id="DejaVuSans-87"/>
      <path d="M 9.421875 54.6875 
L 18.40625 54.6875 
L 18.40625 0 
L 9.421875 0 
z
M 9.421875 75.984375 
L 18.40625 75.984375 
L 18.40625 64.59375 
L 9.421875 64.59375 
z
" id="DejaVuSans-105"/>
      <path d="M 54.890625 33.015625 
L 54.890625 0 
L 45.90625 0 
L 45.90625 32.71875 
Q 45.90625 40.484375 42.875 44.328125 
Q 39.84375 48.1875 33.796875 48.1875 
Q 26.515625 48.1875 22.3125 43.546875 
Q 18.109375 38.921875 18.109375 30.90625 
L 18.109375 0 
L 9.078125 0 
L 9.078125 54.6875 
L 18.109375 54.6875 
L 18.109375 46.1875 
Q 21.34375 51.125 25.703125 53.5625 
Q 30.078125 56 35.796875 56 
Q 45.21875 56 50.046875 50.171875 
Q 54.890625 44.34375 54.890625 33.015625 
z
" id="DejaVuSans-110"/>
      <path d="M 45.40625 46.390625 
L 45.40625 75.984375 
L 54.390625 75.984375 
L 54.390625 0 
L 45.40625 0 
L 45.40625 8.203125 
Q 42.578125 3.328125 38.25 0.953125 
Q 33.9375 -1.421875 27.875 -1.421875 
Q 17.96875 -1.421875 11.734375 6.484375 
Q 5.515625 14.40625 5.515625 27.296875 
Q 5.515625 40.1875 11.734375 48.09375 
Q 17.96875 56 27.875 56 
Q 33.9375 56 38.25 53.625 
Q 42.578125 51.265625 45.40625 46.390625 
z
M 14.796875 27.296875 
Q 14.796875 17.390625 18.875 11.75 
Q 22.953125 6.109375 30.078125 6.109375 
Q 37.203125 6.109375 41.296875 11.75 
Q 45.40625 17.390625 45.40625 27.296875 
Q 45.40625 37.203125 41.296875 42.84375 
Q 37.203125 48.484375 30.078125 48.484375 
Q 22.953125 48.484375 18.875 42.84375 
Q 14.796875 37.203125 14.796875 27.296875 
z
" id="DejaVuSans-100"/>
      <path d="M 30.609375 48.390625 
Q 23.390625 48.390625 19.1875 42.75 
Q 14.984375 37.109375 14.984375 27.296875 
Q 14.984375 17.484375 19.15625 11.84375 
Q 23.34375 6.203125 30.609375 6.203125 
Q 37.796875 6.203125 41.984375 11.859375 
Q 46.1875 17.53125 46.1875 27.296875 
Q 46.1875 37.015625 41.984375 42.703125 
Q 37.796875 48.390625 30.609375 48.390625 
z
M 30.609375 56 
Q 42.328125 56 49.015625 48.375 
Q 55.71875 40.765625 55.71875 27.296875 
Q 55.71875 13.875 49.015625 6.21875 
Q 42.328125 -1.421875 30.609375 -1.421875 
Q 18.84375 -1.421875 12.171875 6.21875 
Q 5.515625 13.875 5.515625 27.296875 
Q 5.515625 40.765625 12.171875 48.375 
Q 18.84375 56 30.609375 56 
z
" id="DejaVuSans-111"/>
      <path d="M 4.203125 54.6875 
L 13.1875 54.6875 
L 24.421875 12.015625 
L 35.59375 54.6875 
L 46.1875 54.6875 
L 57.421875 12.015625 
L 68.609375 54.6875 
L 77.59375 54.6875 
L 63.28125 0 
L 52.6875 0 
L 40.921875 44.828125 
L 29.109375 0 
L 18.5 0 
z
" id="DejaVuSans-119"/>
      <path d="M 44.28125 53.078125 
L 44.28125 44.578125 
Q 40.484375 46.53125 36.375 47.5 
Q 32.28125 48.484375 27.875 48.484375 
Q 21.1875 48.484375 17.84375 46.4375 
Q 14.5 44.390625 14.5 40.28125 
Q 14.5 37.15625 16.890625 35.375 
Q 19.28125 33.59375 26.515625 31.984375 
L 29.59375 31.296875 
Q 39.15625 29.25 43.1875 25.515625 
Q 47.21875 21.78125 47.21875 15.09375 
Q 47.21875 7.46875 41.1875 3.015625 
Q 35.15625 -1.421875 24.609375 -1.421875 
Q 20.21875 -1.421875 15.453125 -0.5625 
Q 10.6875 0.296875 5.421875 2 
L 5.421875 11.28125 
Q 10.40625 8.6875 15.234375 7.390625 
Q 20.0625 6.109375 24.8125 6.109375 
Q 31.15625 6.109375 34.5625 8.28125 
Q 37.984375 10.453125 37.984375 14.40625 
Q 37.984375 18.0625 35.515625 20.015625 
Q 33.0625 21.96875 24.703125 23.78125 
L 21.578125 24.515625 
Q 13.234375 26.265625 9.515625 29.90625 
Q 5.8125 33.546875 5.8125 39.890625 
Q 5.8125 47.609375 11.28125 51.796875 
Q 16.75 56 26.8125 56 
Q 31.78125 56 36.171875 55.265625 
Q 40.578125 54.546875 44.28125 53.078125 
z
" id="DejaVuSans-115"/>
      <path d="M 11.71875 12.40625 
L 22.015625 12.40625 
L 22.015625 0 
L 11.71875 0 
z
M 11.71875 51.703125 
L 22.015625 51.703125 
L 22.015625 39.3125 
L 11.71875 39.3125 
z
" id="DejaVuSans-58"/>
      <path id="DejaVuSans-32"/>
     </defs>
     <use xlink:href="#DejaVuSans-87"/>
     <use x="96.626953" xlink:href="#DejaVuSans-105"/>
     <use x="124.410156" xlink:href="#DejaVuSans-110"/>
     <use x="187.789062" xlink:href="#DejaVuSans-100"/>
     <use x="251.265625" xlink:href="#DejaVuSans-111"/>
     <use x="312.447266" xlink:href="#DejaVuSans-119"/>
     <use x="394.234375" xlink:href="#DejaVuSans-115"/>
     <use x="446.333984" xlink:href="#DejaVuSans-58"/>
     <use x="480.025391" xlink:href="#DejaVuSans-32"/>
    </g>
   </g>
   <g id="text_2">
    <!-- X':  -->
    <g transform="translate(7.2 115.92)scale(0.1 -0.1)">
     <defs>
      <path d="M 6.296875 72.90625 
L 16.890625 72.90625 
L 35.015625 45.796875 
L 53.21875 72.90625 
L 63.8125 72.90625 
L 40.375 37.890625 
L 65.375 0 
L 54.78125 0 
L 34.28125 31 
L 13.625 0 
L 2.984375 0 
L 29 38.921875 
z
" id="DejaVuSans-88"/>
      <path d="M 17.921875 72.90625 
L 17.921875 45.796875 
L 9.625 45.796875 
L 9.625 72.90625 
z
" id="DejaVuSans-39"/>
     </defs>
     <use xlink:href="#DejaVuSans-88"/>
     <use x="68.505859" xlink:href="#DejaVuSans-39"/>
     <use x="95.996094" xlink:href="#DejaVuSans-58"/>
     <use x="129.6875" xlink:href="#DejaVuSans-32"/>
    </g>
   </g>
   <g id="text_3">
    <!-- ${Z'}_x$:  -->
    <g transform="translate(7.2 159.408)scale(0.1 -0.1)">
     <defs>
      <path d="M 13.09375 72.90625 
L 70.3125 72.90625 
L 68.890625 65.375 
L 12.40625 8.296875 
L 58.890625 8.296875 
L 57.328125 0 
L -2.203125 0 
L -0.78125 7.515625 
L 55.71875 64.59375 
L 11.53125 64.59375 
z
" id="DejaVuSans-Oblique-90"/>
      <path d="M 3.515625 5.421875 
Q 2.875 5.609375 2.875 6.390625 
L 15.09375 51.8125 
Q 15.671875 53.65625 17.078125 54.78125 
Q 18.5 55.90625 20.3125 55.90625 
Q 22.65625 55.90625 24.4375 54.359375 
Q 26.21875 52.828125 26.21875 50.484375 
Q 26.21875 49.46875 25.6875 48.1875 
L 7.625 4.984375 
Q 7.28125 4.296875 6.6875 4.296875 
Q 6.15625 4.296875 5 4.78125 
Q 3.859375 5.28125 3.515625 5.421875 
z
" id="Cmsy10-48"/>
      <path d="M 60.015625 54.6875 
L 34.90625 27.875 
L 50.296875 0 
L 39.984375 0 
L 28.421875 21.6875 
L 8.296875 0 
L -2.59375 0 
L 24.3125 28.8125 
L 10.015625 54.6875 
L 20.3125 54.6875 
L 30.8125 34.90625 
L 49.125 54.6875 
z
" id="DejaVuSans-Oblique-120"/>
     </defs>
     <use transform="translate(0 0.584375)" xlink:href="#DejaVuSans-Oblique-90"/>
     <use transform="translate(75.52263 38.865625)scale(0.7)" xlink:href="#Cmsy10-48"/>
     <use transform="translate(98.457201 -15.821875)scale(0.7)" xlink:href="#DejaVuSans-Oblique-120"/>
     <use transform="translate(142.617357 0.584375)" xlink:href="#DejaVuSans-58"/>
     <use transform="translate(176.308763 0.584375)" xlink:href="#DejaVuSans-32"/>
    </g>
   </g>
   <g id="text_4">
    <!-- index: -->
    <g transform="translate(7.2 202.896)scale(0.1 -0.1)">
     <defs>
      <path d="M 56.203125 29.59375 
L 56.203125 25.203125 
L 14.890625 25.203125 
Q 15.484375 15.921875 20.484375 11.0625 
Q 25.484375 6.203125 34.421875 6.203125 
Q 39.59375 6.203125 44.453125 7.46875 
Q 49.3125 8.734375 54.109375 11.28125 
L 54.109375 2.78125 
Q 49.265625 0.734375 44.1875 -0.34375 
Q 39.109375 -1.421875 33.890625 -1.421875 
Q 20.796875 -1.421875 13.15625 6.1875 
Q 5.515625 13.8125 5.515625 26.8125 
Q 5.515625 40.234375 12.765625 48.109375 
Q 20.015625 56 32.328125 56 
Q 43.359375 56 49.78125 48.890625 
Q 56.203125 41.796875 56.203125 29.59375 
z
M 47.21875 32.234375 
Q 47.125 39.59375 43.09375 43.984375 
Q 39.0625 48.390625 32.421875 48.390625 
Q 24.90625 48.390625 20.390625 44.140625 
Q 15.875 39.890625 15.1875 32.171875 
z
" id="DejaVuSans-101"/>
      <path d="M 54.890625 54.6875 
L 35.109375 28.078125 
L 55.90625 0 
L 45.3125 0 
L 29.390625 21.484375 
L 13.484375 0 
L 2.875 0 
L 24.125 28.609375 
L 4.6875 54.6875 
L 15.28125 54.6875 
L 29.78125 35.203125 
L 44.28125 54.6875 
z
" id="DejaVuSans-120"/>
     </defs>
     <use xlink:href="#DejaVuSans-105"/>
     <use x="27.783203" xlink:href="#DejaVuSans-110"/>
     <use x="91.162109" xlink:href="#DejaVuSans-100"/>
     <use x="154.638672" xlink:href="#DejaVuSans-101"/>
     <use x="214.412109" xlink:href="#DejaVuSans-120"/>
     <use x="273.591797" xlink:href="#DejaVuSans-58"/>
    </g>
   </g>
   <g id="text_5">
    <g id="patch_2">
     <path d="M 70.16 78.511687 
L 91.16 78.511687 
L 91.16 60.833562 
L 70.16 60.833562 
z
" style="fill:none;stroke:#ff0000;stroke-linejoin:miter;"/>
    </g>
    <!-- $w_{0}$ -->
    <g transform="translate(74.16 72.432)scale(0.1 -0.1)">
     <defs>
      <path d="M 8.5 54.6875 
L 17.390625 54.6875 
L 19.671875 10.6875 
L 40.09375 54.6875 
L 50.484375 54.6875 
L 53.515625 10.6875 
L 72.90625 54.6875 
L 81.890625 54.6875 
L 56.890625 0 
L 46.390625 0 
L 43.703125 45.3125 
L 22.796875 0 
L 12.203125 0 
z
" id="DejaVuSans-Oblique-119"/>
      <path d="M 31.78125 66.40625 
Q 24.171875 66.40625 20.328125 58.90625 
Q 16.5 51.421875 16.5 36.375 
Q 16.5 21.390625 20.328125 13.890625 
Q 24.171875 6.390625 31.78125 6.390625 
Q 39.453125 6.390625 43.28125 13.890625 
Q 47.125 21.390625 47.125 36.375 
Q 47.125 51.421875 43.28125 58.90625 
Q 39.453125 66.40625 31.78125 66.40625 
z
M 31.78125 74.21875 
Q 44.046875 74.21875 50.515625 64.515625 
Q 56.984375 54.828125 56.984375 36.375 
Q 56.984375 17.96875 50.515625 8.265625 
Q 44.046875 -1.421875 31.78125 -1.421875 
Q 19.53125 -1.421875 13.0625 8.265625 
Q 6.59375 17.96875 6.59375 36.375 
Q 6.59375 54.828125 13.0625 64.515625 
Q 19.53125 74.21875 31.78125 74.21875 
z
" id="DejaVuSans-48"/>
     </defs>
     <use transform="translate(0 0.3125)" xlink:href="#DejaVuSans-Oblique-119"/>
     <use transform="translate(81.787109 -16.09375)scale(0.7)" xlink:href="#DejaVuSans-48"/>
    </g>
   </g>
   <g id="text_6">
    <g id="patch_3">
     <path d="M 70.16 121.999687 
L 84.5225 121.999687 
L 84.5225 104.321562 
L 70.16 104.321562 
z
" style="fill:none;stroke:#ff0000;stroke-linejoin:miter;"/>
    </g>
    <!-- 0 -->
    <g transform="translate(74.16 115.92)scale(0.1 -0.1)">
     <use xlink:href="#DejaVuSans-48"/>
    </g>
   </g>
   <g id="text_7">
    <g id="patch_4">
     <path d="M 70.16 165.487687 
L 84.5225 165.487687 
L 84.5225 147.809562 
L 70.16 147.809562 
z
" style="fill:none;stroke:#008000;stroke-linejoin:miter;"/>
    </g>
    <!-- 1 -->
    <g transform="translate(74.16 159.408)scale(0.1 -0.1)">
     <defs>
      <path d="M 12.40625 8.296875 
L 28.515625 8.296875 
L 28.515625 63.921875 
L 10.984375 60.40625 
L 10.984375 69.390625 
L 28.421875 72.90625 
L 38.28125 72.90625 
L 38.28125 8.296875 
L 54.390625 8.296875 
L 54.390625 0 
L 12.40625 0 
z
" id="DejaVuSans-49"/>
     </defs>
     <use xlink:href="#DejaVuSans-49"/>
    </g>
   </g>
   <g id="text_8">
    <!-- 0 -->
    <g transform="translate(74.16 202.896)scale(0.1 -0.1)">
     <use xlink:href="#DejaVuSans-48"/>
    </g>
   </g>
   <g id="text_9">
    <g id="patch_5">
     <path d="M 103.64 78.511687 
L 124.64 78.511687 
L 124.64 60.833562 
L 103.64 60.833562 
z
" style="fill:none;stroke:#ff0000;stroke-linejoin:miter;"/>
    </g>
    <!-- $w_{1}$ -->
    <g transform="translate(107.64 72.432)scale(0.1 -0.1)">
     <use transform="translate(0 0.3125)" xlink:href="#DejaVuSans-Oblique-119"/>
     <use transform="translate(81.787109 -16.09375)scale(0.7)" xlink:href="#DejaVuSans-49"/>
    </g>
   </g>
   <g id="text_10">
    <g id="patch_6">
     <path d="M 103.64 121.999687 
L 118.0025 121.999687 
L 118.0025 104.321562 
L 103.64 104.321562 
z
" style="fill:none;stroke:#ff0000;stroke-linejoin:miter;"/>
    </g>
    <!-- 1 -->
    <g transform="translate(107.64 115.92)scale(0.1 -0.1)">
     <use xlink:href="#DejaVuSans-49"/>
    </g>
   </g>
   <g id="text_11">
    <g id="patch_7">
     <path d="M 103.64 165.487687 
L 118.0025 165.487687 
L 118.0025 147.809562 
L 103.64 147.809562 
z
" style="fill:none;stroke:#008000;stroke-linejoin:miter;"/>
    </g>
    <!-- 1 -->
    <g transform="translate(107.64 159.408)scale(0.1 -0.1)">
     <use xlink:href="#DejaVuSans-49"/>
    </g>
   </g>
   <g id="text_12">
    <!-- 1 -->
    <g transform="translate(107.64 202.896)scale(0.1 -0.1)">
     <use xlink:href="#DejaVuSans-49"/>
    </g>
   </g>
   <g id="text_13">
    <g id="patch_8">
     <path d="M 137.12 78.511687 
L 158.12 78.511687 
L 158.12 60.833562 
L 137.12 60.833562 
z
" style="fill:none;stroke:#ff0000;stroke-linejoin:miter;"/>
    </g>
    <!-- $w_{2}$ -->
    <g transform="translate(141.12 72.432)scale(0.1 -0.1)">
     <defs>
      <path d="M 19.1875 8.296875 
L 53.609375 8.296875 
L 53.609375 0 
L 7.328125 0 
L 7.328125 8.296875 
Q 12.9375 14.109375 22.625 23.890625 
Q 32.328125 33.6875 34.8125 36.53125 
Q 39.546875 41.84375 41.421875 45.53125 
Q 43.3125 49.21875 43.3125 52.78125 
Q 43.3125 58.59375 39.234375 62.25 
Q 35.15625 65.921875 28.609375 65.921875 
Q 23.96875 65.921875 18.8125 64.3125 
Q 13.671875 62.703125 7.8125 59.421875 
L 7.8125 69.390625 
Q 13.765625 71.78125 18.9375 73 
Q 24.125 74.21875 28.421875 74.21875 
Q 39.75 74.21875 46.484375 68.546875 
Q 53.21875 62.890625 53.21875 53.421875 
Q 53.21875 48.921875 51.53125 44.890625 
Q 49.859375 40.875 45.40625 35.40625 
Q 44.1875 33.984375 37.640625 27.21875 
Q 31.109375 20.453125 19.1875 8.296875 
z
" id="DejaVuSans-50"/>
     </defs>
     <use transform="translate(0 0.3125)" xlink:href="#DejaVuSans-Oblique-119"/>
     <use transform="translate(81.787109 -16.09375)scale(0.7)" xlink:href="#DejaVuSans-50"/>
    </g>
   </g>
   <g id="text_14">
    <g id="patch_9">
     <path d="M 137.12 121.999687 
L 151.4825 121.999687 
L 151.4825 104.321562 
L 137.12 104.321562 
z
" style="fill:none;stroke:#ff0000;stroke-linejoin:miter;"/>
    </g>
    <!-- 2 -->
    <g transform="translate(141.12 115.92)scale(0.1 -0.1)">
     <use xlink:href="#DejaVuSans-50"/>
    </g>
   </g>
   <g id="text_15">
    <g id="patch_10">
     <path d="M 137.12 165.487687 
L 151.4825 165.487687 
L 151.4825 147.809562 
L 137.12 147.809562 
z
" style="fill:none;stroke:#008000;stroke-linejoin:miter;"/>
    </g>
    <!-- 1 -->
    <g transform="translate(141.12 159.408)scale(0.1 -0.1)">
     <use xlink:href="#DejaVuSans-49"/>
    </g>
   </g>
   <g id="text_16">
    <!-- 2 -->
    <g transform="translate(141.12 202.896)scale(0.1 -0.1)">
     <use xlink:href="#DejaVuSans-50"/>
    </g>
   </g>
   <g id="text_17">
    <g id="patch_11">
     <path d="M 170.6 78.511687 
L 191.6 78.511687 
L 191.6 60.833562 
L 170.6 60.833562 
z
" style="fill:none;stroke:#ff0000;stroke-linejoin:miter;"/>
    </g>
    <!-- $w_{3}$ -->
    <g transform="translate(174.6 72.432)scale(0.1 -0.1)">
     <defs>
      <path d="M 40.578125 39.3125 
Q 47.65625 37.796875 51.625 33 
Q 55.609375 28.21875 55.609375 21.1875 
Q 55.609375 10.40625 48.1875 4.484375 
Q 40.765625 -1.421875 27.09375 -1.421875 
Q 22.515625 -1.421875 17.65625 -0.515625 
Q 12.796875 0.390625 7.625 2.203125 
L 7.625 11.71875 
Q 11.71875 9.328125 16.59375 8.109375 
Q 21.484375 6.890625 26.8125 6.890625 
Q 36.078125 6.890625 40.9375 10.546875 
Q 45.796875 14.203125 45.796875 21.1875 
Q 45.796875 27.640625 41.28125 31.265625 
Q 36.765625 34.90625 28.71875 34.90625 
L 20.21875 34.90625 
L 20.21875 43.015625 
L 29.109375 43.015625 
Q 36.375 43.015625 40.234375 45.921875 
Q 44.09375 48.828125 44.09375 54.296875 
Q 44.09375 59.90625 40.109375 62.90625 
Q 36.140625 65.921875 28.71875 65.921875 
Q 24.65625 65.921875 20.015625 65.03125 
Q 15.375 64.15625 9.8125 62.3125 
L 9.8125 71.09375 
Q 15.4375 72.65625 20.34375 73.4375 
Q 25.25 74.21875 29.59375 74.21875 
Q 40.828125 74.21875 47.359375 69.109375 
Q 53.90625 64.015625 53.90625 55.328125 
Q 53.90625 49.265625 50.4375 45.09375 
Q 46.96875 40.921875 40.578125 39.3125 
z
" id="DejaVuSans-51"/>
     </defs>
     <use transform="translate(0 0.3125)" xlink:href="#DejaVuSans-Oblique-119"/>
     <use transform="translate(81.787109 -16.09375)scale(0.7)" xlink:href="#DejaVuSans-51"/>
    </g>
   </g>
   <g id="text_18">
    <g id="patch_12">
     <path d="M 170.6 121.999687 
L 184.9625 121.999687 
L 184.9625 104.321562 
L 170.6 104.321562 
z
" style="fill:none;stroke:#ff0000;stroke-linejoin:miter;"/>
    </g>
    <!-- 3 -->
    <g transform="translate(174.6 115.92)scale(0.1 -0.1)">
     <use xlink:href="#DejaVuSans-51"/>
    </g>
   </g>
   <g id="text_19">
    <g id="patch_13">
     <path d="M 170.6 165.487687 
L 184.9625 165.487687 
L 184.9625 147.809562 
L 170.6 147.809562 
z
" style="fill:none;stroke:#008000;stroke-linejoin:miter;"/>
    </g>
    <!-- 1 -->
    <g transform="translate(174.6 159.408)scale(0.1 -0.1)">
     <use xlink:href="#DejaVuSans-49"/>
    </g>
   </g>
   <g id="text_20">
    <!-- 3 -->
    <g transform="translate(174.6 202.896)scale(0.1 -0.1)">
     <use xlink:href="#DejaVuSans-51"/>
    </g>
   </g>
   <g id="text_21">
    <g id="patch_14">
     <path d="M 204.08 78.511687 
L 225.08 78.511687 
L 225.08 60.833562 
L 204.08 60.833562 
z
" style="fill:none;stroke:#ff0000;stroke-linejoin:miter;"/>
    </g>
    <!-- $w_{4}$ -->
    <g transform="translate(208.08 72.432)scale(0.1 -0.1)">
     <defs>
      <path d="M 37.796875 64.3125 
L 12.890625 25.390625 
L 37.796875 25.390625 
z
M 35.203125 72.90625 
L 47.609375 72.90625 
L 47.609375 25.390625 
L 58.015625 25.390625 
L 58.015625 17.1875 
L 47.609375 17.1875 
L 47.609375 0 
L 37.796875 0 
L 37.796875 17.1875 
L 4.890625 17.1875 
L 4.890625 26.703125 
z
" id="DejaVuSans-52"/>
     </defs>
     <use transform="translate(0 0.3125)" xlink:href="#DejaVuSans-Oblique-119"/>
     <use transform="translate(81.787109 -16.09375)scale(0.7)" xlink:href="#DejaVuSans-52"/>
    </g>
   </g>
   <g id="text_22">
    <g id="patch_15">
     <path d="M 204.08 121.999687 
L 218.4425 121.999687 
L 218.4425 104.321562 
L 204.08 104.321562 
z
" style="fill:none;stroke:#ff0000;stroke-linejoin:miter;"/>
    </g>
    <!-- 4 -->
    <g transform="translate(208.08 115.92)scale(0.1 -0.1)">
     <use xlink:href="#DejaVuSans-52"/>
    </g>
   </g>
   <g id="text_23">
    <g id="patch_16">
     <path d="M 204.08 165.487687 
L 218.4425 165.487687 
L 218.4425 147.809562 
L 204.08 147.809562 
z
" style="fill:none;stroke:#008000;stroke-linejoin:miter;"/>
    </g>
    <!-- 1 -->
    <g transform="translate(208.08 159.408)scale(0.1 -0.1)">
     <use xlink:href="#DejaVuSans-49"/>
    </g>
   </g>
   <g id="text_24">
    <!-- 4 -->
    <g transform="translate(208.08 202.896)scale(0.1 -0.1)">
     <use xlink:href="#DejaVuSans-52"/>
    </g>
   </g>
   <g id="text_25">
    <g id="patch_17">
     <path d="M 237.56 78.511687 
L 258.56 78.511687 
L 258.56 60.833562 
L 237.56 60.833562 
z
" style="fill:none;stroke:#ff0000;stroke-linejoin:miter;"/>
    </g>
    <!-- $w_{5}$ -->
    <g transform="translate(241.56 72.432)scale(0.1 -0.1)">
     <defs>
      <path d="M 10.796875 72.90625 
L 49.515625 72.90625 
L 49.515625 64.59375 
L 19.828125 64.59375 
L 19.828125 46.734375 
Q 21.96875 47.46875 24.109375 47.828125 
Q 26.265625 48.1875 28.421875 48.1875 
Q 40.625 48.1875 47.75 41.5 
Q 54.890625 34.8125 54.890625 23.390625 
Q 54.890625 11.625 47.5625 5.09375 
Q 40.234375 -1.421875 26.90625 -1.421875 
Q 22.3125 -1.421875 17.546875 -0.640625 
Q 12.796875 0.140625 7.71875 1.703125 
L 7.71875 11.625 
Q 12.109375 9.234375 16.796875 8.0625 
Q 21.484375 6.890625 26.703125 6.890625 
Q 35.15625 6.890625 40.078125 11.328125 
Q 45.015625 15.765625 45.015625 23.390625 
Q 45.015625 31 40.078125 35.4375 
Q 35.15625 39.890625 26.703125 39.890625 
Q 22.75 39.890625 18.8125 39.015625 
Q 14.890625 38.140625 10.796875 36.28125 
z
" id="DejaVuSans-53"/>
     </defs>
     <use transform="translate(0 0.3125)" xlink:href="#DejaVuSans-Oblique-119"/>
     <use transform="translate(81.787109 -16.09375)scale(0.7)" xlink:href="#DejaVuSans-53"/>
    </g>
   </g>
   <g id="text_26">
    <g id="patch_18">
     <path d="M 237.56 121.999687 
L 251.9225 121.999687 
L 251.9225 104.321562 
L 237.56 104.321562 
z
" style="fill:none;stroke:#ff0000;stroke-linejoin:miter;"/>
    </g>
    <!-- 5 -->
    <g transform="translate(241.56 115.92)scale(0.1 -0.1)">
     <use xlink:href="#DejaVuSans-53"/>
    </g>
   </g>
   <g id="text_27">
    <g id="patch_19">
     <path d="M 237.56 165.487687 
L 251.9225 165.487687 
L 251.9225 147.809562 
L 237.56 147.809562 
z
" style="fill:none;stroke:#008000;stroke-linejoin:miter;"/>
    </g>
    <!-- 1 -->
    <g transform="translate(241.56 159.408)scale(0.1 -0.1)">
     <use xlink:href="#DejaVuSans-49"/>
    </g>
   </g>
   <g id="text_28">
    <!-- 5 -->
    <g transform="translate(241.56 202.896)scale(0.1 -0.1)">
     <use xlink:href="#DejaVuSans-53"/>
    </g>
   </g>
   <g id="text_29">
    <g id="patch_20">
     <path d="M 271.04 78.511687 
L 292.04 78.511687 
L 292.04 60.833562 
L 271.04 60.833562 
z
" style="fill:none;stroke:#ff0000;stroke-linejoin:miter;"/>
    </g>
    <!-- $w_{6}$ -->
    <g transform="translate(275.04 72.432)scale(0.1 -0.1)">
     <defs>
      <path d="M 33.015625 40.375 
Q 26.375 40.375 22.484375 35.828125 
Q 18.609375 31.296875 18.609375 23.390625 
Q 18.609375 15.53125 22.484375 10.953125 
Q 26.375 6.390625 33.015625 6.390625 
Q 39.65625 6.390625 43.53125 10.953125 
Q 47.40625 15.53125 47.40625 23.390625 
Q 47.40625 31.296875 43.53125 35.828125 
Q 39.65625 40.375 33.015625 40.375 
z
M 52.59375 71.296875 
L 52.59375 62.3125 
Q 48.875 64.0625 45.09375 64.984375 
Q 41.3125 65.921875 37.59375 65.921875 
Q 27.828125 65.921875 22.671875 59.328125 
Q 17.53125 52.734375 16.796875 39.40625 
Q 19.671875 43.65625 24.015625 45.921875 
Q 28.375 48.1875 33.59375 48.1875 
Q 44.578125 48.1875 50.953125 41.515625 
Q 57.328125 34.859375 57.328125 23.390625 
Q 57.328125 12.15625 50.6875 5.359375 
Q 44.046875 -1.421875 33.015625 -1.421875 
Q 20.359375 -1.421875 13.671875 8.265625 
Q 6.984375 17.96875 6.984375 36.375 
Q 6.984375 53.65625 15.1875 63.9375 
Q 23.390625 74.21875 37.203125 74.21875 
Q 40.921875 74.21875 44.703125 73.484375 
Q 48.484375 72.75 52.59375 71.296875 
z
" id="DejaVuSans-54"/>
     </defs>
     <use transform="translate(0 0.3125)" xlink:href="#DejaVuSans-Oblique-119"/>
     <use transform="translate(81.787109 -16.09375)scale(0.7)" xlink:href="#DejaVuSans-54"/>
    </g>
   </g>
   <g id="text_30">
    <g id="patch_21">
     <path d="M 271.04 121.999687 
L 285.4025 121.999687 
L 285.4025 104.321562 
L 271.04 104.321562 
z
" style="fill:none;stroke:#ff0000;stroke-linejoin:miter;"/>
    </g>
    <!-- 6 -->
    <g transform="translate(275.04 115.92)scale(0.1 -0.1)">
     <use xlink:href="#DejaVuSans-54"/>
    </g>
   </g>
   <g id="text_31">
    <g id="patch_22">
     <path d="M 271.04 165.487687 
L 285.4025 165.487687 
L 285.4025 147.809562 
L 271.04 147.809562 
z
" style="fill:none;stroke:#008000;stroke-linejoin:miter;"/>
    </g>
    <!-- 1 -->
    <g transform="translate(275.04 159.408)scale(0.1 -0.1)">
     <use xlink:href="#DejaVuSans-49"/>
    </g>
   </g>
   <g id="text_32">
    <!-- 6 -->
    <g transform="translate(275.04 202.896)scale(0.1 -0.1)">
     <use xlink:href="#DejaVuSans-54"/>
    </g>
   </g>
   <g id="text_33">
    <g id="patch_23">
     <path d="M 304.52 78.511687 
L 325.52 78.511687 
L 325.52 60.833562 
L 304.52 60.833562 
z
" style="fill:none;stroke:#ff0000;stroke-linejoin:miter;"/>
    </g>
    <!-- $w_{7}$ -->
    <g transform="translate(308.52 72.432)scale(0.1 -0.1)">
     <defs>
      <path d="M 8.203125 72.90625 
L 55.078125 72.90625 
L 55.078125 68.703125 
L 28.609375 0 
L 18.3125 0 
L 43.21875 64.59375 
L 8.203125 64.59375 
z
" id="DejaVuSans-55"/>
     </defs>
     <use transform="translate(0 0.3125)" xlink:href="#DejaVuSans-Oblique-119"/>
     <use transform="translate(81.787109 -16.09375)scale(0.7)" xlink:href="#DejaVuSans-55"/>
    </g>
   </g>
   <g id="text_34">
    <g id="patch_24">
     <path d="M 304.52 121.999687 
L 318.8825 121.999687 
L 318.8825 104.321562 
L 304.52 104.321562 
z
" style="fill:none;stroke:#ff0000;stroke-linejoin:miter;"/>
    </g>
    <!-- 7 -->
    <g transform="translate(308.52 115.92)scale(0.1 -0.1)">
     <use xlink:href="#DejaVuSans-55"/>
    </g>
   </g>
   <g id="text_35">
    <g id="patch_25">
     <path d="M 304.52 165.487687 
L 318.8825 165.487687 
L 318.8825 147.809562 
L 304.52 147.809562 
z
" style="fill:none;stroke:#008000;stroke-linejoin:miter;"/>
    </g>
    <!-- 1 -->
    <g transform="translate(308.52 159.408)scale(0.1 -0.1)">
     <use xlink:href="#DejaVuSans-49"/>
    </g>
   </g>
   <g id="text_36">
    <!-- 7 -->
    <g transform="translate(308.52 202.896)scale(0.1 -0.1)">
     <use xlink:href="#DejaVuSans-55"/>
    </g>
   </g>
   <g id="text_37">
    <g id="patch_26">
     <path d="M 338 78.511687 
L 359 78.511687 
L 359 60.833562 
L 338 60.833562 
z
" style="fill:none;stroke:#ff0000;stroke-linejoin:miter;"/>
    </g>
    <!-- $w_{8}$ -->
    <g transform="translate(342 72.432)scale(0.1 -0.1)">
     <defs>
      <path d="M 31.78125 34.625 
Q 24.75 34.625 20.71875 30.859375 
Q 16.703125 27.09375 16.703125 20.515625 
Q 16.703125 13.921875 20.71875 10.15625 
Q 24.75 6.390625 31.78125 6.390625 
Q 38.8125 6.390625 42.859375 10.171875 
Q 46.921875 13.96875 46.921875 20.515625 
Q 46.921875 27.09375 42.890625 30.859375 
Q 38.875 34.625 31.78125 34.625 
z
M 21.921875 38.8125 
Q 15.578125 40.375 12.03125 44.71875 
Q 8.5 49.078125 8.5 55.328125 
Q 8.5 64.0625 14.71875 69.140625 
Q 20.953125 74.21875 31.78125 74.21875 
Q 42.671875 74.21875 48.875 69.140625 
Q 55.078125 64.0625 55.078125 55.328125 
Q 55.078125 49.078125 51.53125 44.71875 
Q 48 40.375 41.703125 38.8125 
Q 48.828125 37.15625 52.796875 32.3125 
Q 56.78125 27.484375 56.78125 20.515625 
Q 56.78125 9.90625 50.3125 4.234375 
Q 43.84375 -1.421875 31.78125 -1.421875 
Q 19.734375 -1.421875 13.25 4.234375 
Q 6.78125 9.90625 6.78125 20.515625 
Q 6.78125 27.484375 10.78125 32.3125 
Q 14.796875 37.15625 21.921875 38.8125 
z
M 18.3125 54.390625 
Q 18.3125 48.734375 21.84375 45.5625 
Q 25.390625 42.390625 31.78125 42.390625 
Q 38.140625 42.390625 41.71875 45.5625 
Q 45.3125 48.734375 45.3125 54.390625 
Q 45.3125 60.0625 41.71875 63.234375 
Q 38.140625 66.40625 31.78125 66.40625 
Q 25.390625 66.40625 21.84375 63.234375 
Q 18.3125 60.0625 18.3125 54.390625 
z
" id="DejaVuSans-56"/>
     </defs>
     <use transform="translate(0 0.3125)" xlink:href="#DejaVuSans-Oblique-119"/>
     <use transform="translate(81.787109 -16.09375)scale(0.7)" xlink:href="#DejaVuSans-56"/>
    </g>
   </g>
   <g id="text_38">
    <g id="patch_27">
     <path d="M 338 121.999687 
L 352.3625 121.999687 
L 352.3625 104.321562 
L 338 104.321562 
z
" style="fill:none;stroke:#ff0000;stroke-linejoin:miter;"/>
    </g>
    <!-- 8 -->
    <g transform="translate(342 115.92)scale(0.1 -0.1)">
     <use xlink:href="#DejaVuSans-56"/>
    </g>
   </g>
   <g id="text_39">
    <g id="patch_28">
     <path d="M 338 165.487687 
L 352.3625 165.487687 
L 352.3625 147.809562 
L 338 147.809562 
z
" style="fill:none;stroke:#008000;stroke-linejoin:miter;"/>
    </g>
    <!-- 1 -->
    <g transform="translate(342 159.408)scale(0.1 -0.1)">
     <use xlink:href="#DejaVuSans-49"/>
    </g>
   </g>
   <g id="text_40">
    <!-- 8 -->
    <g transform="translate(342 202.896)scale(0.1 -0.1)">
     <use xlink:href="#DejaVuSans-56"/>
    </g>
   </g>
   <g id="text_41">
    <g id="patch_29">
     <path d="M 371.48 78.511687 
L 392.48 78.511687 
L 392.48 60.833562 
L 371.48 60.833562 
z
" style="fill:none;stroke:#ff0000;stroke-linejoin:miter;"/>
    </g>
    <!-- $w_{9}$ -->
    <g transform="translate(375.48 72.432)scale(0.1 -0.1)">
     <defs>
      <path d="M 10.984375 1.515625 
L 10.984375 10.5 
Q 14.703125 8.734375 18.5 7.8125 
Q 22.3125 6.890625 25.984375 6.890625 
Q 35.75 6.890625 40.890625 13.453125 
Q 46.046875 20.015625 46.78125 33.40625 
Q 43.953125 29.203125 39.59375 26.953125 
Q 35.25 24.703125 29.984375 24.703125 
Q 19.046875 24.703125 12.671875 31.3125 
Q 6.296875 37.9375 6.296875 49.421875 
Q 6.296875 60.640625 12.9375 67.421875 
Q 19.578125 74.21875 30.609375 74.21875 
Q 43.265625 74.21875 49.921875 64.515625 
Q 56.59375 54.828125 56.59375 36.375 
Q 56.59375 19.140625 48.40625 8.859375 
Q 40.234375 -1.421875 26.421875 -1.421875 
Q 22.703125 -1.421875 18.890625 -0.6875 
Q 15.09375 0.046875 10.984375 1.515625 
z
M 30.609375 32.421875 
Q 37.25 32.421875 41.125 36.953125 
Q 45.015625 41.5 45.015625 49.421875 
Q 45.015625 57.28125 41.125 61.84375 
Q 37.25 66.40625 30.609375 66.40625 
Q 23.96875 66.40625 20.09375 61.84375 
Q 16.21875 57.28125 16.21875 49.421875 
Q 16.21875 41.5 20.09375 36.953125 
Q 23.96875 32.421875 30.609375 32.421875 
z
" id="DejaVuSans-57"/>
     </defs>
     <use transform="translate(0 0.3125)" xlink:href="#DejaVuSans-Oblique-119"/>
     <use transform="translate(81.787109 -16.09375)scale(0.7)" xlink:href="#DejaVuSans-57"/>
    </g>
   </g>
   <g id="text_42">
    <g id="patch_30">
     <path d="M 371.48 121.999687 
L 385.8425 121.999687 
L 385.8425 104.321562 
L 371.48 104.321562 
z
" style="fill:none;stroke:#ff0000;stroke-linejoin:miter;"/>
    </g>
    <!-- 9 -->
    <g transform="translate(375.48 115.92)scale(0.1 -0.1)">
     <use xlink:href="#DejaVuSans-57"/>
    </g>
   </g>
   <g id="text_43">
    <g id="patch_31">
     <path d="M 371.48 165.487687 
L 385.8425 165.487687 
L 385.8425 147.809562 
L 371.48 147.809562 
z
" style="fill:none;stroke:#008000;stroke-linejoin:miter;"/>
    </g>
    <!-- 1 -->
    <g transform="translate(375.48 159.408)scale(0.1 -0.1)">
     <use xlink:href="#DejaVuSans-49"/>
    </g>
   </g>
   <g id="text_44">
    <!-- 9 -->
    <g transform="translate(375.48 202.896)scale(0.1 -0.1)">
     <use xlink:href="#DejaVuSans-57"/>
    </g>
   </g>
   <g id="text_45">
    <g id="patch_32">
     <path d="M 404.96 78.511687 
L 430.36 78.511687 
L 430.36 60.833562 
L 404.96 60.833562 
z
" style="fill:none;stroke:#ff0000;stroke-linejoin:miter;"/>
    </g>
    <!-- $w_{10}$ -->
    <g transform="translate(408.96 72.432)scale(0.1 -0.1)">
     <use transform="translate(0 0.3125)" xlink:href="#DejaVuSans-Oblique-119"/>
     <use transform="translate(81.787109 -16.09375)scale(0.7)" xlink:href="#DejaVuSans-49"/>
     <use transform="translate(126.323242 -16.09375)scale(0.7)" xlink:href="#DejaVuSans-48"/>
    </g>
   </g>
   <g id="text_46">
    <g id="patch_33">
     <path d="M 404.96 121.999687 
L 425.685 121.999687 
L 425.685 104.321562 
L 404.96 104.321562 
z
" style="fill:none;stroke:#ff0000;stroke-linejoin:miter;"/>
    </g>
    <!-- 10 -->
    <g transform="translate(408.96 115.92)scale(0.1 -0.1)">
     <use xlink:href="#DejaVuSans-49"/>
     <use x="63.623047" xlink:href="#DejaVuSans-48"/>
    </g>
   </g>
   <g id="text_47">
    <g id="patch_34">
     <path d="M 404.96 165.487687 
L 419.3225 165.487687 
L 419.3225 147.809562 
L 404.96 147.809562 
z
" style="fill:none;stroke:#008000;stroke-linejoin:miter;"/>
    </g>
    <!-- 1 -->
    <g transform="translate(408.96 159.408)scale(0.1 -0.1)">
     <use xlink:href="#DejaVuSans-49"/>
    </g>
   </g>
   <g id="text_48">
    <!-- 10 -->
    <g transform="translate(408.96 202.896)scale(0.1 -0.1)">
     <use xlink:href="#DejaVuSans-49"/>
     <use x="63.623047" xlink:href="#DejaVuSans-48"/>
    </g>
   </g>
   <g id="text_49">
    <g id="patch_35">
     <path d="M 438.44 78.511687 
L 463.84 78.511687 
L 463.84 60.833562 
L 438.44 60.833562 
z
" style="fill:none;stroke:#ff0000;stroke-linejoin:miter;"/>
    </g>
    <!-- $w_{11}$ -->
    <g transform="translate(442.44 72.432)scale(0.1 -0.1)">
     <use transform="translate(0 0.3125)" xlink:href="#DejaVuSans-Oblique-119"/>
     <use transform="translate(81.787109 -16.09375)scale(0.7)" xlink:href="#DejaVuSans-49"/>
     <use transform="translate(126.323242 -16.09375)scale(0.7)" xlink:href="#DejaVuSans-49"/>
    </g>
   </g>
   <g id="text_50">
    <g id="patch_36">
     <path d="M 438.44 121.999687 
L 459.165 121.999687 
L 459.165 104.321562 
L 438.44 104.321562 
z
" style="fill:none;stroke:#ff0000;stroke-linejoin:miter;"/>
    </g>
    <!-- 11 -->
    <g transform="translate(442.44 115.92)scale(0.1 -0.1)">
     <use xlink:href="#DejaVuSans-49"/>
     <use x="63.623047" xlink:href="#DejaVuSans-49"/>
    </g>
   </g>
   <g id="text_51">
    <g id="patch_37">
     <path d="M 438.44 165.487687 
L 452.8025 165.487687 
L 452.8025 147.809562 
L 438.44 147.809562 
z
" style="fill:none;stroke:#008000;stroke-linejoin:miter;"/>
    </g>
    <!-- 1 -->
    <g transform="translate(442.44 159.408)scale(0.1 -0.1)">
     <use xlink:href="#DejaVuSans-49"/>
    </g>
   </g>
   <g id="text_52">
    <!-- 11 -->
    <g transform="translate(442.44 202.896)scale(0.1 -0.1)">
     <use xlink:href="#DejaVuSans-49"/>
     <use x="63.623047" xlink:href="#DejaVuSans-49"/>
    </g>
   </g>
   <g id="text_53">
    <g id="patch_38">
     <path d="M 471.92 78.511687 
L 497.32 78.511687 
L 497.32 60.833562 
L 471.92 60.833562 
z
" style="fill:none;stroke:#ff0000;stroke-linejoin:miter;"/>
    </g>
    <!-- $w_{12}$ -->
    <g transform="translate(475.92 72.432)scale(0.1 -0.1)">
     <use transform="translate(0 0.3125)" xlink:href="#DejaVuSans-Oblique-119"/>
     <use transform="translate(81.787109 -16.09375)scale(0.7)" xlink:href="#DejaVuSans-49"/>
     <use transform="translate(126.323242 -16.09375)scale(0.7)" xlink:href="#DejaVuSans-50"/>
    </g>
   </g>
   <g id="text_54">
    <g id="patch_39">
     <path d="M 471.92 121.999687 
L 492.645 121.999687 
L 492.645 104.321562 
L 471.92 104.321562 
z
" style="fill:none;stroke:#ff0000;stroke-linejoin:miter;"/>
    </g>
    <!-- 12 -->
    <g transform="translate(475.92 115.92)scale(0.1 -0.1)">
     <use xlink:href="#DejaVuSans-49"/>
     <use x="63.623047" xlink:href="#DejaVuSans-50"/>
    </g>
   </g>
   <g id="text_55">
    <g id="patch_40">
     <path d="M 471.92 165.487687 
L 486.2825 165.487687 
L 486.2825 147.809562 
L 471.92 147.809562 
z
" style="fill:none;stroke:#008000;stroke-linejoin:miter;"/>
    </g>
    <!-- 1 -->
    <g transform="translate(475.92 159.408)scale(0.1 -0.1)">
     <use xlink:href="#DejaVuSans-49"/>
    </g>
   </g>
   <g id="text_56">
    <!-- 12 -->
    <g transform="translate(475.92 202.896)scale(0.1 -0.1)">
     <use xlink:href="#DejaVuSans-49"/>
     <use x="63.623047" xlink:href="#DejaVuSans-50"/>
    </g>
   </g>
   <g id="text_57">
    <g id="patch_41">
     <path d="M 505.4 78.511687 
L 530.8 78.511687 
L 530.8 60.833562 
L 505.4 60.833562 
z
" style="fill:none;stroke:#ff0000;stroke-linejoin:miter;"/>
    </g>
    <!-- $w_{13}$ -->
    <g transform="translate(509.4 72.432)scale(0.1 -0.1)">
     <use transform="translate(0 0.3125)" xlink:href="#DejaVuSans-Oblique-119"/>
     <use transform="translate(81.787109 -16.09375)scale(0.7)" xlink:href="#DejaVuSans-49"/>
     <use transform="translate(126.323242 -16.09375)scale(0.7)" xlink:href="#DejaVuSans-51"/>
    </g>
   </g>
   <g id="text_58">
    <g id="patch_42">
     <path d="M 505.4 121.999687 
L 526.125 121.999687 
L 526.125 104.321562 
L 505.4 104.321562 
z
" style="fill:none;stroke:#ff0000;stroke-linejoin:miter;"/>
    </g>
    <!-- 13 -->
    <g transform="translate(509.4 115.92)scale(0.1 -0.1)">
     <use xlink:href="#DejaVuSans-49"/>
     <use x="63.623047" xlink:href="#DejaVuSans-51"/>
    </g>
   </g>
   <g id="text_59">
    <g id="patch_43">
     <path d="M 505.4 165.487687 
L 519.7625 165.487687 
L 519.7625 147.809562 
L 505.4 147.809562 
z
" style="fill:none;stroke:#008000;stroke-linejoin:miter;"/>
    </g>
    <!-- 1 -->
    <g transform="translate(509.4 159.408)scale(0.1 -0.1)">
     <use xlink:href="#DejaVuSans-49"/>
    </g>
   </g>
   <g id="text_60">
    <!-- 13 -->
    <g transform="translate(509.4 202.896)scale(0.1 -0.1)">
     <use xlink:href="#DejaVuSans-49"/>
     <use x="63.623047" xlink:href="#DejaVuSans-51"/>
    </g>
   </g>
   <g id="text_61">
    <g id="patch_44">
     <path d="M 538.88 78.511687 
L 564.28 78.511687 
L 564.28 60.833562 
L 538.88 60.833562 
z
" style="fill:none;stroke:#ff0000;stroke-linejoin:miter;"/>
    </g>
    <!-- $w_{14}$ -->
    <g transform="translate(542.88 72.432)scale(0.1 -0.1)">
     <use transform="translate(0 0.3125)" xlink:href="#DejaVuSans-Oblique-119"/>
     <use transform="translate(81.787109 -16.09375)scale(0.7)" xlink:href="#DejaVuSans-49"/>
     <use transform="translate(126.323242 -16.09375)scale(0.7)" xlink:href="#DejaVuSans-52"/>
    </g>
   </g>
   <g id="text_62">
    <g id="patch_45">
     <path d="M 538.88 121.999687 
L 559.605 121.999687 
L 559.605 104.321562 
L 538.88 104.321562 
z
" style="fill:none;stroke:#ff0000;stroke-linejoin:miter;"/>
    </g>
    <!-- 14 -->
    <g transform="translate(542.88 115.92)scale(0.1 -0.1)">
     <use xlink:href="#DejaVuSans-49"/>
     <use x="63.623047" xlink:href="#DejaVuSans-52"/>
    </g>
   </g>
   <g id="text_63">
    <g id="patch_46">
     <path d="M 538.88 165.487687 
L 553.2425 165.487687 
L 553.2425 147.809562 
L 538.88 147.809562 
z
" style="fill:none;stroke:#008000;stroke-linejoin:miter;"/>
    </g>
    <!-- 1 -->
    <g transform="translate(542.88 159.408)scale(0.1 -0.1)">
     <use xlink:href="#DejaVuSans-49"/>
    </g>
   </g>
   <g id="text_64">
    <!-- 14 -->
    <g transform="translate(542.88 202.896)scale(0.1 -0.1)">
     <use xlink:href="#DejaVuSans-49"/>
     <use x="63.623047" xlink:href="#DejaVuSans-52"/>
    </g>
   </g>
   <g id="text_65">
    <g id="patch_47">
     <path d="M 572.36 78.511687 
L 597.76 78.511687 
L 597.76 60.833562 
L 572.36 60.833562 
z
" style="fill:none;stroke:#ff0000;stroke-linejoin:miter;"/>
    </g>
    <!-- $w_{15}$ -->
    <g transform="translate(576.36 72.432)scale(0.1 -0.1)">
     <use transform="translate(0 0.3125)" xlink:href="#DejaVuSans-Oblique-119"/>
     <use transform="translate(81.787109 -16.09375)scale(0.7)" xlink:href="#DejaVuSans-49"/>
     <use transform="translate(126.323242 -16.09375)scale(0.7)" xlink:href="#DejaVuSans-53"/>
    </g>
   </g>
   <g id="text_66">
    <g id="patch_48">
     <path d="M 572.36 121.999687 
L 593.085 121.999687 
L 593.085 104.321562 
L 572.36 104.321562 
z
" style="fill:none;stroke:#ff0000;stroke-linejoin:miter;"/>
    </g>
    <!-- 15 -->
    <g transform="translate(576.36 115.92)scale(0.1 -0.1)">
     <use xlink:href="#DejaVuSans-49"/>
     <use x="63.623047" xlink:href="#DejaVuSans-53"/>
    </g>
   </g>
   <g id="text_67">
    <g id="patch_49">
     <path d="M 572.36 165.487687 
L 586.7225 165.487687 
L 586.7225 147.809562 
L 572.36 147.809562 
z
" style="fill:none;stroke:#008000;stroke-linejoin:miter;"/>
    </g>
    <!-- 1 -->
    <g transform="translate(576.36 159.408)scale(0.1 -0.1)">
     <use xlink:href="#DejaVuSans-49"/>
    </g>
   </g>
   <g id="text_68">
    <!-- 15 -->
    <g transform="translate(576.36 202.896)scale(0.1 -0.1)">
     <use xlink:href="#DejaVuSans-49"/>
     <use x="63.623047" xlink:href="#DejaVuSans-53"/>
    </g>
   </g>
   <g id="text_69">
    <g id="patch_50">
     <path d="M 605.84 78.511687 
L 631.24 78.511687 
L 631.24 60.833562 
L 605.84 60.833562 
z
" style="fill:none;stroke:#ff0000;stroke-linejoin:miter;"/>
    </g>
    <!-- $w_{16}$ -->
    <g transform="translate(609.84 72.432)scale(0.1 -0.1)">
     <use transform="translate(0 0.3125)" xlink:href="#DejaVuSans-Oblique-119"/>
     <use transform="translate(81.787109 -16.09375)scale(0.7)" xlink:href="#DejaVuSans-49"/>
     <use transform="translate(126.323242 -16.09375)scale(0.7)" xlink:href="#DejaVuSans-54"/>
    </g>
   </g>
   <g id="text_70">
    <g id="patch_51">
     <path d="M 605.84 121.999687 
L 626.565 121.999687 
L 626.565 104.321562 
L 605.84 104.321562 
z
" style="fill:none;stroke:#ff0000;stroke-linejoin:miter;"/>
    </g>
    <!-- 16 -->
    <g transform="translate(609.84 115.92)scale(0.1 -0.1)">
     <use xlink:href="#DejaVuSans-49"/>
     <use x="63.623047" xlink:href="#DejaVuSans-54"/>
    </g>
   </g>
   <g id="text_71">
    <g id="patch_52">
     <path d="M 605.84 165.487687 
L 620.2025 165.487687 
L 620.2025 147.809562 
L 605.84 147.809562 
z
" style="fill:none;stroke:#008000;stroke-linejoin:miter;"/>
    </g>
    <!-- 1 -->
    <g transform="translate(609.84 159.408)scale(0.1 -0.1)">
     <use xlink:href="#DejaVuSans-49"/>
    </g>
   </g>
   <g id="text_72">
    <!-- 16 -->
    <g transform="translate(609.84 202.896)scale(0.1 -0.1)">
     <use xlink:href="#DejaVuSans-49"/>
     <use x="63.623047" xlink:href="#DejaVuSans-54"/>
    </g>
   </g>
   <g id="text_73">
    <g id="patch_53">
     <path d="M 639.32 78.511687 
L 664.72 78.511687 
L 664.72 60.833562 
L 639.32 60.833562 
z
" style="fill:none;stroke:#ff0000;stroke-linejoin:miter;"/>
    </g>
    <!-- $w_{17}$ -->
    <g transform="translate(643.32 72.432)scale(0.1 -0.1)">
     <use transform="translate(0 0.3125)" xlink:href="#DejaVuSans-Oblique-119"/>
     <use transform="translate(81.787109 -16.09375)scale(0.7)" xlink:href="#DejaVuSans-49"/>
     <use transform="translate(126.323242 -16.09375)scale(0.7)" xlink:href="#DejaVuSans-55"/>
    </g>
   </g>
   <g id="text_74">
    <g id="patch_54">
     <path d="M 639.32 121.999687 
L 660.045 121.999687 
L 660.045 104.321562 
L 639.32 104.321562 
z
" style="fill:none;stroke:#ff0000;stroke-linejoin:miter;"/>
    </g>
    <!-- 17 -->
    <g transform="translate(643.32 115.92)scale(0.1 -0.1)">
     <use xlink:href="#DejaVuSans-49"/>
     <use x="63.623047" xlink:href="#DejaVuSans-55"/>
    </g>
   </g>
   <g id="text_75">
    <g id="patch_55">
     <path d="M 639.32 165.487687 
L 653.6825 165.487687 
L 653.6825 147.809562 
L 639.32 147.809562 
z
" style="fill:none;stroke:#008000;stroke-linejoin:miter;"/>
    </g>
    <!-- 1 -->
    <g transform="translate(643.32 159.408)scale(0.1 -0.1)">
     <use xlink:href="#DejaVuSans-49"/>
    </g>
   </g>
   <g id="text_76">
    <!-- 17 -->
    <g transform="translate(643.32 202.896)scale(0.1 -0.1)">
     <use xlink:href="#DejaVuSans-49"/>
     <use x="63.623047" xlink:href="#DejaVuSans-55"/>
    </g>
   </g>
   <g id="text_77">
    <g id="patch_56">
     <path d="M 672.8 78.511687 
L 698.2 78.511687 
L 698.2 60.833562 
L 672.8 60.833562 
z
" style="fill:none;stroke:#ff0000;stroke-linejoin:miter;"/>
    </g>
    <!-- $w_{18}$ -->
    <g transform="translate(676.8 72.432)scale(0.1 -0.1)">
     <use transform="translate(0 0.3125)" xlink:href="#DejaVuSans-Oblique-119"/>
     <use transform="translate(81.787109 -16.09375)scale(0.7)" xlink:href="#DejaVuSans-49"/>
     <use transform="translate(126.323242 -16.09375)scale(0.7)" xlink:href="#DejaVuSans-56"/>
    </g>
   </g>
   <g id="text_78">
    <g id="patch_57">
     <path d="M 672.8 121.999687 
L 693.525 121.999687 
L 693.525 104.321562 
L 672.8 104.321562 
z
" style="fill:none;stroke:#ff0000;stroke-linejoin:miter;"/>
    </g>
    <!-- 18 -->
    <g transform="translate(676.8 115.92)scale(0.1 -0.1)">
     <use xlink:href="#DejaVuSans-49"/>
     <use x="63.623047" xlink:href="#DejaVuSans-56"/>
    </g>
   </g>
   <g id="text_79">
    <g id="patch_58">
     <path d="M 672.8 165.487687 
L 687.1625 165.487687 
L 687.1625 147.809562 
L 672.8 147.809562 
z
" style="fill:none;stroke:#008000;stroke-linejoin:miter;"/>
    </g>
    <!-- 1 -->
    <g transform="translate(676.8 159.408)scale(0.1 -0.1)">
     <use xlink:href="#DejaVuSans-49"/>
    </g>
   </g>
   <g id="text_80">
    <!-- 18 -->
    <g transform="translate(676.8 202.896)scale(0.1 -0.1)">
     <use xlink:href="#DejaVuSans-49"/>
     <use x="63.623047" xlink:href="#DejaVuSans-56"/>
    </g>
   </g>
   <g id="text_81">
    <g id="patch_59">
     <path d="M 706.28 78.511687 
L 731.68 78.511687 
L 731.68 60.833562 
L 706.28 60.833562 
z
" style="fill:none;stroke:#ff0000;stroke-linejoin:miter;"/>
    </g>
    <!-- $w_{19}$ -->
    <g transform="translate(710.28 72.432)scale(0.1 -0.1)">
     <use transform="translate(0 0.3125)" xlink:href="#DejaVuSans-Oblique-119"/>
     <use transform="translate(81.787109 -16.09375)scale(0.7)" xlink:href="#DejaVuSans-49"/>
     <use transform="translate(126.323242 -16.09375)scale(0.7)" xlink:href="#DejaVuSans-57"/>
    </g>
   </g>
   <g id="text_82">
    <g id="patch_60">
     <path d="M 706.28 121.999687 
L 727.005 121.999687 
L 727.005 104.321562 
L 706.28 104.321562 
z
" style="fill:none;stroke:#ff0000;stroke-linejoin:miter;"/>
    </g>
    <!-- 19 -->
    <g transform="translate(710.28 115.92)scale(0.1 -0.1)">
     <use xlink:href="#DejaVuSans-49"/>
     <use x="63.623047" xlink:href="#DejaVuSans-57"/>
    </g>
   </g>
   <g id="text_83">
    <g id="patch_61">
     <path d="M 706.28 165.487687 
L 720.6425 165.487687 
L 720.6425 147.809562 
L 706.28 147.809562 
z
" style="fill:none;stroke:#008000;stroke-linejoin:miter;"/>
    </g>
    <!-- 1 -->
    <g transform="translate(710.28 159.408)scale(0.1 -0.1)">
     <use xlink:href="#DejaVuSans-49"/>
    </g>
   </g>
   <g id="text_84">
    <!-- 19 -->
    <g transform="translate(710.28 202.896)scale(0.1 -0.1)">
     <use xlink:href="#DejaVuSans-49"/>
     <use x="63.623047" xlink:href="#DejaVuSans-57"/>
    </g>
   </g>
   <g id="text_85">
    <g id="patch_62">
     <path d="M 739.76 78.511687 
L 765.16 78.511687 
L 765.16 60.833562 
L 739.76 60.833562 
z
" style="fill:none;stroke:#ff0000;stroke-linejoin:miter;"/>
    </g>
    <!-- $w_{20}$ -->
    <g transform="translate(743.76 72.432)scale(0.1 -0.1)">
     <use transform="translate(0 0.3125)" xlink:href="#DejaVuSans-Oblique-119"/>
     <use transform="translate(81.787109 -16.09375)scale(0.7)" xlink:href="#DejaVuSans-50"/>
     <use transform="translate(126.323242 -16.09375)scale(0.7)" xlink:href="#DejaVuSans-48"/>
    </g>
   </g>
   <g id="text_86">
    <g id="patch_63">
     <path d="M 739.76 121.999687 
L 760.485 121.999687 
L 760.485 104.321562 
L 739.76 104.321562 
z
" style="fill:none;stroke:#ff0000;stroke-linejoin:miter;"/>
    </g>
    <!-- 20 -->
    <g transform="translate(743.76 115.92)scale(0.1 -0.1)">
     <use xlink:href="#DejaVuSans-50"/>
     <use x="63.623047" xlink:href="#DejaVuSans-48"/>
    </g>
   </g>
   <g id="text_87">
    <g id="patch_64">
     <path d="M 739.76 165.487687 
L 754.1225 165.487687 
L 754.1225 147.809562 
L 739.76 147.809562 
z
" style="fill:none;stroke:#008000;stroke-linejoin:miter;"/>
    </g>
    <!-- 1 -->
    <g transform="translate(743.76 159.408)scale(0.1 -0.1)">
     <use xlink:href="#DejaVuSans-49"/>
    </g>
   </g>
   <g id="text_88">
    <!-- 20 -->
    <g transform="translate(743.76 202.896)scale(0.1 -0.1)">
     <use xlink:href="#DejaVuSans-50"/>
     <use x="63.623047" xlink:href="#DejaVuSans-48"/>
    </g>
   </g>
   <g id="text_89">
    <g id="patch_65">
     <path d="M 773.24 78.511687 
L 798.64 78.511687 
L 798.64 60.833562 
L 773.24 60.833562 
z
" style="fill:none;stroke:#ff0000;stroke-linejoin:miter;"/>
    </g>
    <!-- $w_{21}$ -->
    <g transform="translate(777.24 72.432)scale(0.1 -0.1)">
     <use transform="translate(0 0.3125)" xlink:href="#DejaVuSans-Oblique-119"/>
     <use transform="translate(81.787109 -16.09375)scale(0.7)" xlink:href="#DejaVuSans-50"/>
     <use transform="translate(126.323242 -16.09375)scale(0.7)" xlink:href="#DejaVuSans-49"/>
    </g>
   </g>
   <g id="text_90">
    <g id="patch_66">
     <path d="M 773.24 121.999687 
L 793.965 121.999687 
L 793.965 104.321562 
L 773.24 104.321562 
z
" style="fill:none;stroke:#ff0000;stroke-linejoin:miter;"/>
    </g>
    <!-- 21 -->
    <g transform="translate(777.24 115.92)scale(0.1 -0.1)">
     <use xlink:href="#DejaVuSans-50"/>
     <use x="63.623047" xlink:href="#DejaVuSans-49"/>
    </g>
   </g>
   <g id="text_91">
    <g id="patch_67">
     <path d="M 773.24 165.487687 
L 787.6025 165.487687 
L 787.6025 147.809562 
L 773.24 147.809562 
z
" style="fill:none;stroke:#008000;stroke-linejoin:miter;"/>
    </g>
    <!-- 1 -->
    <g transform="translate(777.24 159.408)scale(0.1 -0.1)">
     <use xlink:href="#DejaVuSans-49"/>
    </g>
   </g>
   <g id="text_92">
    <!-- 21 -->
    <g transform="translate(777.24 202.896)scale(0.1 -0.1)">
     <use xlink:href="#DejaVuSans-50"/>
     <use x="63.623047" xlink:href="#DejaVuSans-49"/>
    </g>
   </g>
   <g id="text_93">
    <g id="patch_68">
     <path d="M 806.72 78.511687 
L 832.12 78.511687 
L 832.12 60.833562 
L 806.72 60.833562 
z
" style="fill:none;stroke:#ff0000;stroke-linejoin:miter;"/>
    </g>
    <!-- $w_{22}$ -->
    <g transform="translate(810.72 72.432)scale(0.1 -0.1)">
     <use transform="translate(0 0.3125)" xlink:href="#DejaVuSans-Oblique-119"/>
     <use transform="translate(81.787109 -16.09375)scale(0.7)" xlink:href="#DejaVuSans-50"/>
     <use transform="translate(126.323242 -16.09375)scale(0.7)" xlink:href="#DejaVuSans-50"/>
    </g>
   </g>
   <g id="text_94">
    <g id="patch_69">
     <path d="M 806.72 121.999687 
L 827.445 121.999687 
L 827.445 104.321562 
L 806.72 104.321562 
z
" style="fill:none;stroke:#ff0000;stroke-linejoin:miter;"/>
    </g>
    <!-- 22 -->
    <g transform="translate(810.72 115.92)scale(0.1 -0.1)">
     <use xlink:href="#DejaVuSans-50"/>
     <use x="63.623047" xlink:href="#DejaVuSans-50"/>
    </g>
   </g>
   <g id="text_95">
    <g id="patch_70">
     <path d="M 806.72 165.487687 
L 821.0825 165.487687 
L 821.0825 147.809562 
L 806.72 147.809562 
z
" style="fill:none;stroke:#008000;stroke-linejoin:miter;"/>
    </g>
    <!-- 1 -->
    <g transform="translate(810.72 159.408)scale(0.1 -0.1)">
     <use xlink:href="#DejaVuSans-49"/>
    </g>
   </g>
   <g id="text_96">
    <!-- 22 -->
    <g transform="translate(810.72 202.896)scale(0.1 -0.1)">
     <use xlink:href="#DejaVuSans-50"/>
     <use x="63.623047" xlink:href="#DejaVuSans-50"/>
    </g>
   </g>
   <g id="text_97">
    <g id="patch_71">
     <path d="M 840.2 78.511687 
L 865.6 78.511687 
L 865.6 60.833562 
L 840.2 60.833562 
z
" style="fill:none;stroke:#ff0000;stroke-linejoin:miter;"/>
    </g>
    <!-- $w_{23}$ -->
    <g transform="translate(844.2 72.432)scale(0.1 -0.1)">
     <use transform="translate(0 0.3125)" xlink:href="#DejaVuSans-Oblique-119"/>
     <use transform="translate(81.787109 -16.09375)scale(0.7)" xlink:href="#DejaVuSans-50"/>
     <use transform="translate(126.323242 -16.09375)scale(0.7)" xlink:href="#DejaVuSans-51"/>
    </g>
   </g>
   <g id="text_98">
    <g id="patch_72">
     <path d="M 840.2 121.999687 
L 860.925 121.999687 
L 860.925 104.321562 
L 840.2 104.321562 
z
" style="fill:none;stroke:#ff0000;stroke-linejoin:miter;"/>
    </g>
    <!-- 23 -->
    <g transform="translate(844.2 115.92)scale(0.1 -0.1)">
     <use xlink:href="#DejaVuSans-50"/>
     <use x="63.623047" xlink:href="#DejaVuSans-51"/>
    </g>
   </g>
   <g id="text_99">
    <g id="patch_73">
     <path d="M 840.2 165.487687 
L 854.5625 165.487687 
L 854.5625 147.809562 
L 840.2 147.809562 
z
" style="fill:none;stroke:#008000;stroke-linejoin:miter;"/>
    </g>
    <!-- 1 -->
    <g transform="translate(844.2 159.408)scale(0.1 -0.1)">
     <use xlink:href="#DejaVuSans-49"/>
    </g>
   </g>
   <g id="text_100">
    <!-- 23 -->
    <g transform="translate(844.2 202.896)scale(0.1 -0.1)">
     <use xlink:href="#DejaVuSans-50"/>
     <use x="63.623047" xlink:href="#DejaVuSans-51"/>
    </g>
   </g>
   <g id="text_101">
    <g id="patch_74">
     <path d="M 873.68 78.511687 
L 899.08 78.511687 
L 899.08 60.833562 
L 873.68 60.833562 
z
" style="fill:none;stroke:#ff0000;stroke-linejoin:miter;"/>
    </g>
    <!-- $w_{24}$ -->
    <g transform="translate(877.68 72.432)scale(0.1 -0.1)">
     <use transform="translate(0 0.3125)" xlink:href="#DejaVuSans-Oblique-119"/>
     <use transform="translate(81.787109 -16.09375)scale(0.7)" xlink:href="#DejaVuSans-50"/>
     <use transform="translate(126.323242 -16.09375)scale(0.7)" xlink:href="#DejaVuSans-52"/>
    </g>
   </g>
   <g id="text_102">
    <g id="patch_75">
     <path d="M 873.68 121.999687 
L 894.405 121.999687 
L 894.405 104.321562 
L 873.68 104.321562 
z
" style="fill:none;stroke:#ff0000;stroke-linejoin:miter;"/>
    </g>
    <!-- 24 -->
    <g transform="translate(877.68 115.92)scale(0.1 -0.1)">
     <use xlink:href="#DejaVuSans-50"/>
     <use x="63.623047" xlink:href="#DejaVuSans-52"/>
    </g>
   </g>
   <g id="text_103">
    <g id="patch_76">
     <path d="M 873.68 165.487687 
L 888.0425 165.487687 
L 888.0425 147.809562 
L 873.68 147.809562 
z
" style="fill:none;stroke:#008000;stroke-linejoin:miter;"/>
    </g>
    <!-- 1 -->
    <g transform="translate(877.68 159.408)scale(0.1 -0.1)">
     <use xlink:href="#DejaVuSans-49"/>
    </g>
   </g>
   <g id="text_104">
    <!-- 24 -->
    <g transform="translate(877.68 202.896)scale(0.1 -0.1)">
     <use xlink:href="#DejaVuSans-50"/>
     <use x="63.623047" xlink:href="#DejaVuSans-52"/>
    </g>
   </g>
   <g id="text_105">
    <g id="patch_77">
     <path d="M 907.16 78.511687 
L 932.56 78.511687 
L 932.56 60.833562 
L 907.16 60.833562 
z
" style="fill:none;stroke:#ff0000;stroke-linejoin:miter;"/>
    </g>
    <!-- $w_{25}$ -->
    <g transform="translate(911.16 72.432)scale(0.1 -0.1)">
     <use transform="translate(0 0.3125)" xlink:href="#DejaVuSans-Oblique-119"/>
     <use transform="translate(81.787109 -16.09375)scale(0.7)" xlink:href="#DejaVuSans-50"/>
     <use transform="translate(126.323242 -16.09375)scale(0.7)" xlink:href="#DejaVuSans-53"/>
    </g>
   </g>
   <g id="text_106">
    <g id="patch_78">
     <path d="M 907.16 121.999687 
L 927.885 121.999687 
L 927.885 104.321562 
L 907.16 104.321562 
z
" style="fill:none;stroke:#ff0000;stroke-linejoin:miter;"/>
    </g>
    <!-- 25 -->
    <g transform="translate(911.16 115.92)scale(0.1 -0.1)">
     <use xlink:href="#DejaVuSans-50"/>
     <use x="63.623047" xlink:href="#DejaVuSans-53"/>
    </g>
   </g>
   <g id="text_107">
    <g id="patch_79">
     <path d="M 907.16 165.487687 
L 921.5225 165.487687 
L 921.5225 147.809562 
L 907.16 147.809562 
z
" style="fill:none;stroke:#008000;stroke-linejoin:miter;"/>
    </g>
    <!-- 1 -->
    <g transform="translate(911.16 159.408)scale(0.1 -0.1)">
     <use xlink:href="#DejaVuSans-49"/>
    </g>
   </g>
   <g id="text_108">
    <!-- 25 -->
    <g transform="translate(911.16 202.896)scale(0.1 -0.1)">
     <use xlink:href="#DejaVuSans-50"/>
     <use x="63.623047" xlink:href="#DejaVuSans-53"/>
    </g>
   </g>
   <g id="text_109">
    <g id="patch_80">
     <path d="M 940.64 78.511687 
L 966.04 78.511687 
L 966.04 60.833562 
L 940.64 60.833562 
z
" style="fill:none;stroke:#ff0000;stroke-linejoin:miter;"/>
    </g>
    <!-- $w_{26}$ -->
    <g transform="translate(944.64 72.432)scale(0.1 -0.1)">
     <use transform="translate(0 0.3125)" xlink:href="#DejaVuSans-Oblique-119"/>
     <use transform="translate(81.787109 -16.09375)scale(0.7)" xlink:href="#DejaVuSans-50"/>
     <use transform="translate(126.323242 -16.09375)scale(0.7)" xlink:href="#DejaVuSans-54"/>
    </g>
   </g>
   <g id="text_110">
    <g id="patch_81">
     <path d="M 940.64 121.999687 
L 961.365 121.999687 
L 961.365 104.321562 
L 940.64 104.321562 
z
" style="fill:none;stroke:#ff0000;stroke-linejoin:miter;"/>
    </g>
    <!-- 26 -->
    <g transform="translate(944.64 115.92)scale(0.1 -0.1)">
     <use xlink:href="#DejaVuSans-50"/>
     <use x="63.623047" xlink:href="#DejaVuSans-54"/>
    </g>
   </g>
   <g id="text_111">
    <g id="patch_82">
     <path d="M 940.64 165.487687 
L 955.0025 165.487687 
L 955.0025 147.809562 
L 940.64 147.809562 
z
" style="fill:none;stroke:#008000;stroke-linejoin:miter;"/>
    </g>
    <!-- 1 -->
    <g transform="translate(944.64 159.408)scale(0.1 -0.1)">
     <use xlink:href="#DejaVuSans-49"/>
    </g>
   </g>
   <g id="text_112">
    <!-- 26 -->
    <g transform="translate(944.64 202.896)scale(0.1 -0.1)">
     <use xlink:href="#DejaVuSans-50"/>
     <use x="63.623047" xlink:href="#DejaVuSans-54"/>
    </g>
   </g>
   <g id="text_113">
    <g id="patch_83">
     <path d="M 974.12 78.511687 
L 999.52 78.511687 
L 999.52 60.833562 
L 974.12 60.833562 
z
" style="fill:none;stroke:#ff0000;stroke-linejoin:miter;"/>
    </g>
    <!-- $w_{27}$ -->
    <g transform="translate(978.12 72.432)scale(0.1 -0.1)">
     <use transform="translate(0 0.3125)" xlink:href="#DejaVuSans-Oblique-119"/>
     <use transform="translate(81.787109 -16.09375)scale(0.7)" xlink:href="#DejaVuSans-50"/>
     <use transform="translate(126.323242 -16.09375)scale(0.7)" xlink:href="#DejaVuSans-55"/>
    </g>
   </g>
   <g id="text_114">
    <g id="patch_84">
     <path d="M 974.12 121.999687 
L 994.845 121.999687 
L 994.845 104.321562 
L 974.12 104.321562 
z
" style="fill:none;stroke:#ff0000;stroke-linejoin:miter;"/>
    </g>
    <!-- 27 -->
    <g transform="translate(978.12 115.92)scale(0.1 -0.1)">
     <use xlink:href="#DejaVuSans-50"/>
     <use x="63.623047" xlink:href="#DejaVuSans-55"/>
    </g>
   </g>
   <g id="text_115">
    <g id="patch_85">
     <path d="M 974.12 165.487687 
L 988.4825 165.487687 
L 988.4825 147.809562 
L 974.12 147.809562 
z
" style="fill:none;stroke:#008000;stroke-linejoin:miter;"/>
    </g>
    <!-- 1 -->
    <g transform="translate(978.12 159.408)scale(0.1 -0.1)">
     <use xlink:href="#DejaVuSans-49"/>
    </g>
   </g>
   <g id="text_116">
    <!-- 27 -->
    <g transform="translate(978.12 202.896)scale(0.1 -0.1)">
     <use xlink:href="#DejaVuSans-50"/>
     <use x="63.623047" xlink:href="#DejaVuSans-55"/>
    </g>
   </g>
   <g id="text_117">
    <g id="patch_86">
     <path d="M 1007.6 78.511687 
L 1033 78.511687 
L 1033 60.833562 
L 1007.6 60.833562 
z
" style="fill:none;stroke:#ff0000;stroke-linejoin:miter;"/>
    </g>
    <!-- $w_{28}$ -->
    <g transform="translate(1011.6 72.432)scale(0.1 -0.1)">
     <use transform="translate(0 0.3125)" xlink:href="#DejaVuSans-Oblique-119"/>
     <use transform="translate(81.787109 -16.09375)scale(0.7)" xlink:href="#DejaVuSans-50"/>
     <use transform="translate(126.323242 -16.09375)scale(0.7)" xlink:href="#DejaVuSans-56"/>
    </g>
   </g>
   <g id="text_118">
    <g id="patch_87">
     <path d="M 1007.6 121.999687 
L 1028.325 121.999687 
L 1028.325 104.321562 
L 1007.6 104.321562 
z
" style="fill:none;stroke:#ff0000;stroke-linejoin:miter;"/>
    </g>
    <!-- 28 -->
    <g transform="translate(1011.6 115.92)scale(0.1 -0.1)">
     <use xlink:href="#DejaVuSans-50"/>
     <use x="63.623047" xlink:href="#DejaVuSans-56"/>
    </g>
   </g>
   <g id="text_119">
    <g id="patch_88">
     <path d="M 1007.6 165.487687 
L 1021.9625 165.487687 
L 1021.9625 147.809562 
L 1007.6 147.809562 
z
" style="fill:none;stroke:#008000;stroke-linejoin:miter;"/>
    </g>
    <!-- 1 -->
    <g transform="translate(1011.6 159.408)scale(0.1 -0.1)">
     <use xlink:href="#DejaVuSans-49"/>
    </g>
   </g>
   <g id="text_120">
    <!-- 28 -->
    <g transform="translate(1011.6 202.896)scale(0.1 -0.1)">
     <use xlink:href="#DejaVuSans-50"/>
     <use x="63.623047" xlink:href="#DejaVuSans-56"/>
    </g>
   </g>
   <g id="text_121">
    <g id="patch_89">
     <path d="M 1041.08 78.511687 
L 1066.38 78.511687 
L 1066.38 60.833562 
L 1041.08 60.833562 
z
" style="fill:none;stroke:#ff0000;stroke-linejoin:miter;"/>
    </g>
    <!-- $w_{29}$ -->
    <g transform="translate(1045.08 72.432)scale(0.1 -0.1)">
     <use transform="translate(0 0.3125)" xlink:href="#DejaVuSans-Oblique-119"/>
     <use transform="translate(81.787109 -16.09375)scale(0.7)" xlink:href="#DejaVuSans-50"/>
     <use transform="translate(125.098242 -16.09375)scale(0.7)" xlink:href="#DejaVuSans-57"/>
    </g>
   </g>
   <g id="text_122">
    <g id="patch_90">
     <path d="M 1041.08 121.999687 
L 1061.805 121.999687 
L 1061.805 104.321562 
L 1041.08 104.321562 
z
" style="fill:none;stroke:#ff0000;stroke-linejoin:miter;"/>
    </g>
    <!-- 29 -->
    <g transform="translate(1045.08 115.92)scale(0.1 -0.1)">
     <use xlink:href="#DejaVuSans-50"/>
     <use x="63.623047" xlink:href="#DejaVuSans-57"/>
    </g>
   </g>
   <g id="text_123">
    <g id="patch_91">
     <path d="M 1041.08 165.487687 
L 1055.4425 165.487687 
L 1055.4425 147.809562 
L 1041.08 147.809562 
z
" style="fill:none;stroke:#008000;stroke-linejoin:miter;"/>
    </g>
    <!-- 1 -->
    <g transform="translate(1045.08 159.408)scale(0.1 -0.1)">
     <use xlink:href="#DejaVuSans-49"/>
    </g>
   </g>
   <g id="text_124">
    <!-- 29 -->
    <g transform="translate(1045.08 202.896)scale(0.1 -0.1)">
     <use xlink:href="#DejaVuSans-50"/>
     <use x="63.623047" xlink:href="#DejaVuSans-57"/>
    </g>
   </g>
   <g id="text_125">
    <g id="patch_92">
     <path d="M 1074.56 78.511687 
L 1099.96 78.511687 
L 1099.96 60.833562 
L 1074.56 60.833562 
z
" style="fill:none;stroke:#ff0000;stroke-linejoin:miter;"/>
    </g>
    <!-- $w_{30}$ -->
    <g transform="translate(1078.56 72.432)scale(0.1 -0.1)">
     <use transform="translate(0 0.3125)" xlink:href="#DejaVuSans-Oblique-119"/>
     <use transform="translate(81.787109 -16.09375)scale(0.7)" xlink:href="#DejaVuSans-51"/>
     <use transform="translate(126.323242 -16.09375)scale(0.7)" xlink:href="#DejaVuSans-48"/>
    </g>
   </g>
   <g id="text_126">
    <g id="patch_93">
     <path d="M 1074.56 121.999687 
L 1095.285 121.999687 
L 1095.285 104.321562 
L 1074.56 104.321562 
z
" style="fill:none;stroke:#ff0000;stroke-linejoin:miter;"/>
    </g>
    <!-- 30 -->
    <g transform="translate(1078.56 115.92)scale(0.1 -0.1)">
     <use xlink:href="#DejaVuSans-51"/>
     <use x="63.623047" xlink:href="#DejaVuSans-48"/>
    </g>
   </g>
   <g id="text_127">
    <g id="patch_94">
     <path d="M 1074.56 165.487687 
L 1088.9225 165.487687 
L 1088.9225 147.809562 
L 1074.56 147.809562 
z
" style="fill:none;stroke:#008000;stroke-linejoin:miter;"/>
    </g>
    <!-- 1 -->
    <g transform="translate(1078.56 159.408)scale(0.1 -0.1)">
     <use xlink:href="#DejaVuSans-49"/>
    </g>
   </g>
   <g id="text_128">
    <!-- 30 -->
    <g transform="translate(1078.56 202.896)scale(0.1 -0.1)">
     <use xlink:href="#DejaVuSans-51"/>
     <use x="63.623047" xlink:href="#DejaVuSans-48"/>
    </g>
   </g>
   <g id="text_129">
    <g id="patch_95">
     <path d="M 1108.04 78.511687 
L 1133.44 78.511687 
L 1133.44 60.833562 
L 1108.04 60.833562 
z
" style="fill:none;stroke:#ff0000;stroke-linejoin:miter;"/>
    </g>
    <!-- $w_{31}$ -->
    <g transform="translate(1112.04 72.432)scale(0.1 -0.1)">
     <use transform="translate(0 0.3125)" xlink:href="#DejaVuSans-Oblique-119"/>
     <use transform="translate(81.787109 -16.09375)scale(0.7)" xlink:href="#DejaVuSans-51"/>
     <use transform="translate(126.323242 -16.09375)scale(0.7)" xlink:href="#DejaVuSans-49"/>
    </g>
   </g>
   <g id="text_130">
    <g id="patch_96">
     <path d="M 1108.04 121.999687 
L 1128.765 121.999687 
L 1128.765 104.321562 
L 1108.04 104.321562 
z
" style="fill:none;stroke:#ff0000;stroke-linejoin:miter;"/>
    </g>
    <!-- 31 -->
    <g transform="translate(1112.04 115.92)scale(0.1 -0.1)">
     <use xlink:href="#DejaVuSans-51"/>
     <use x="63.623047" xlink:href="#DejaVuSans-49"/>
    </g>
   </g>
   <g id="text_131">
    <g id="patch_97">
     <path d="M 1108.04 165.487687 
L 1122.4025 165.487687 
L 1122.4025 147.809562 
L 1108.04 147.809562 
z
" style="fill:none;stroke:#008000;stroke-linejoin:miter;"/>
    </g>
    <!-- 1 -->
    <g transform="translate(1112.04 159.408)scale(0.1 -0.1)">
     <use xlink:href="#DejaVuSans-49"/>
    </g>
   </g>
   <g id="text_132">
    <!-- 31 -->
    <g transform="translate(1112.04 202.896)scale(0.1 -0.1)">
     <use xlink:href="#DejaVuSans-51"/>
     <use x="63.623047" xlink:href="#DejaVuSans-49"/>
    </g>
   </g>
  </g>
 </g>
</svg>
